<svg xmlns="http://www.w3.org/2000/svg" width="150" height="83.851"><g data-name="Group 6"><path data-name="Path 1" d="M142.566 22.95h-2.98V11.874A11.888 11.888 0 0 0 127.712 0H84.677A11.865 11.865 0 0 0 75 5.006 11.864 11.864 0 0 0 65.323 0H38.287a2.2 2.2 0 1 0 0 4.395h27.036a7.488 7.488 0 0 1 7.48 7.48v21.976c-.046-.044-.095-.086-.141-.129a14.368 14.368 0 0 0-9.7-3.828h-36.6a7.534 7.534 0 0 0-4.98-6.529 7.3 7.3 0 0 0-2.438-.414h-4.135V11.874a7.488 7.488 0 0 1 7.48-7.48H29.5a2.2 2.2 0 1 0 0-4.395h-7.21a11.888 11.888 0 0 0-11.874 11.874v11.076H7.434A7.443 7.443 0 0 0 0 30.384v22.943a15.5 15.5 0 0 0 15.482 15.479h1.1l-2.408 6.476a6.417 6.417 0 0 0 5.955 8.567h3.535a6.386 6.386 0 0 0 5.067-2.52l9.475-12.523h73.588l9.472 12.523a6.387 6.387 0 0 0 5.066 2.52h3.535a6.415 6.415 0 0 0 5.955-8.567l-2.408-6.476h1.1A15.5 15.5 0 0 0 150 53.327V30.384a7.443 7.443 0 0 0-7.434-7.434zM77.2 11.875a7.488 7.488 0 0 1 7.48-7.48h43.034a7.488 7.488 0 0 1 7.48 7.48v11.076h-4.137a7.608 7.608 0 0 0-6.857 4.565 7.387 7.387 0 0 0-.561 2.378h-36.6a14.413 14.413 0 0 0-9.839 3.957V11.875zM26.38 34.287h36.584a9.85 9.85 0 0 1 9.836 9.839v3.125H26.38zm-1.15 44.392a1.969 1.969 0 0 1-1.562.777h-3.535a1.975 1.975 0 0 1-1.833-2.64l2.977-8.008H32.7zm104.638.777h-3.535a1.969 1.969 0 0 1-1.562-.777l-7.471-9.873h11.422l2.977 8.007a1.976 1.976 0 0 1-1.832 2.643zm4.651-15.042H15.482A11.1 11.1 0 0 1 4.395 53.327V30.384a3.043 3.043 0 0 1 3.04-3.04h11.511a3.043 3.043 0 0 1 3.04 3.04v19.064a2.2 2.2 0 0 0 2.2 2.2h80.706a2.2 2.2 0 1 0 0-4.395H77.2v-3.127a9.85 9.85 0 0 1 9.839-9.839h36.581v12.964h-9.942a2.2 2.2 0 0 0 0 4.395h12.139a2.2 2.2 0 0 0 2.2-2.2V30.384a3.043 3.043 0 0 1 3.04-3.04h11.512a3.043 3.043 0 0 1 3.04 3.04v22.942a11.1 11.1 0 0 1-11.091 11.088z"/></g></svg>