<svg xmlns="http://www.w3.org/2000/svg" width="120" height="120"><g data-name="Group 7"><path data-name="Path 2" d="M86 72H34a2 2 0 0 0-2 2v44a2 2 0 0 0 2 2h52a2 2 0 0 0 2-2V74a2 2 0 0 0-2-2zm-2 44H36V76h48v40z"/></g><g data-name="Group 9"><g data-name="Group 8"><path data-name="Path 3" d="M86 72H34a2 2 0 0 0-2 2v44a2 2 0 0 0 2 2h52a2 2 0 0 0 2-2V74a2 2 0 0 0-2-2zm-2 44H36V76h48v40z"/></g></g><g data-name="Group 11"><g data-name="Group 10"><path data-name="Path 4" d="M34 72H2a2 2 0 0 0-2 2v44a2 2 0 0 0 2 2h32a2 2 0 0 0 2-2V74a2 2 0 0 0-2-2zm-2 44H4V76h28v40z"/></g></g><g data-name="Group 13"><g data-name="Group 12"><path data-name="Path 5" d="M118 72H86a2 2 0 0 0-2 2v44a2 2 0 0 0 2 2h32a2 2 0 0 0 2-2V74a2 2 0 0 0-2-2zm-2 44H88V76h28v40z"/></g></g><g data-name="Group 15"><g data-name="Group 14"><path data-name="Path 6" d="M78 88H42a2 2 0 0 0-2 2v20a2 2 0 0 0 2 2h36a2 2 0 0 0 2-2V90a2 2 0 0 0-2-2zm-2 20H44V92h32v16z"/></g></g><g data-name="Group 17"><g data-name="Group 16"><path data-name="Rectangle 67" d="M62 80h4v4h-4z"/></g></g><g data-name="Group 19"><g data-name="Group 18"><path data-name="Rectangle 68" d="M54 80h4v4h-4z"/></g></g><g data-name="Group 21"><g data-name="Group 20"><path data-name="Rectangle 69" d="M46 80h4v4h-4z"/></g></g><g data-name="Group 23"><g data-name="Group 22"><path data-name="Rectangle 70" d="M70 80h4v4h-4z"/></g></g><g data-name="Group 25"><g data-name="Group 24"><path data-name="Rectangle 71" d="M2 88h32v4H2z"/></g></g><g data-name="Group 27"><g data-name="Group 26"><path data-name="Rectangle 72" d="M14 80h8v4h-8z"/></g></g><g data-name="Group 29"><g data-name="Group 28"><path data-name="Rectangle 73" d="M14 96h8v4h-8z"/></g></g><g data-name="Group 31"><g data-name="Group 30"><path data-name="Rectangle 74" d="M86 88h32v4H86z"/></g></g><g data-name="Group 33"><g data-name="Group 32"><path data-name="Rectangle 75" d="M100 90h4v28h-4z"/></g></g><g data-name="Group 35"><g data-name="Group 34"><path data-name="Rectangle 76" d="M98 80h8v4h-8z"/></g></g><g data-name="Group 37"><g data-name="Group 36"><path data-name="Rectangle 77" d="M92 100h4v6h-4z"/></g></g><g data-name="Group 39"><g data-name="Group 38"><path data-name="Rectangle 78" d="M108 100h4v6h-4z"/></g></g><g data-name="Group 41"><g data-name="Group 40"><path data-name="Path 7" d="M85.415 32.586l-7.414-7.414V2a2 2 0 0 0-2-2h-32a2 2 0 0 0-2 2v23.172l-7.414 7.414A2 2 0 0 0 36 36h48a2 2 0 0 0 1.414-3.414zM40.828 32l4.586-4.586A2 2 0 0 0 46 26V4h28v22a2 2 0 0 0 .586 1.414L79.172 32H40.828z"/></g></g><g data-name="Group 43"><g data-name="Group 42"><path data-name="Path 8" d="M108 44a8.008 8.008 0 0 0-8 8v2h4v-2a4 4 0 1 1 8 0v22h4V52a8.009 8.009 0 0 0-8-8z"/></g></g><g data-name="Group 45"><g data-name="Group 44"><path data-name="Rectangle 79" d="M108 64h6v4h-6z"/></g></g><g data-name="Group 47"><g data-name="Group 46"><path data-name="Path 9" d="M57.999 60h-20a2 2 0 0 0-2 2v12a2 2 0 0 0 2 2h20a2 2 0 0 0 2-2V62a2 2 0 0 0-2-2zm-2 12h-16v-8h16z"/></g></g><g data-name="Group 49"><g data-name="Group 48"><path data-name="Rectangle 80" d="M32 64h6v4h-6z"/></g></g><g data-name="Group 51"><g data-name="Group 50"><path data-name="Rectangle 81" d="M58 64h6v4h-6z"/></g></g><g data-name="Group 53"><g data-name="Group 52"><path data-name="Path 10" d="M34 0H2a2 2 0 0 0-2 2v24a2 2 0 0 0 2 2h32a2 2 0 0 0 2-2V2a2 2 0 0 0-2-2zm-2 24H4V4h28v20z"/></g></g><g data-name="Group 55"><g data-name="Group 54"><path data-name="Rectangle 82" d="M24 12h4v8h-4z"/></g></g><g data-name="Group 57"><g data-name="Group 56"><path data-name="Path 11" d="M118 0H86a2 2 0 0 0-2 2v24a2 2 0 0 0 2 2h32a2 2 0 0 0 2-2V2a2 2 0 0 0-2-2zm-2 24H88V4h28v20z"/></g></g><g data-name="Group 59"><g data-name="Group 58"><path data-name="Rectangle 83" d="M92 12h4v8h-4z"/></g></g><g data-name="Group 61"><g data-name="Group 60"><path data-name="Rectangle 84" d="M0 40h36v4H0z"/></g></g><g data-name="Group 63"><g data-name="Group 62"><path data-name="Rectangle 85" d="M4 36h4v18H4z"/></g></g><g data-name="Group 65"><g data-name="Group 64"><path data-name="Path 12" d="M6 52a6 6 0 1 0 6 6 6.007 6.007 0 0 0-6-6zm0 8a2 2 0 1 1 2-2 2 2 0 0 1-2 2z"/></g></g><g data-name="Group 67"><g data-name="Group 66"><path data-name="Rectangle 86" d="M12 36h4v18h-4z"/></g></g><g data-name="Group 69"><g data-name="Group 68"><path data-name="Path 13" d="M14 52a6 6 0 1 0 6 6 6.007 6.007 0 0 0-6-6zm0 8a2 2 0 1 1 2-2 2 2 0 0 1-2 2z"/></g></g><g data-name="Group 71"><g data-name="Group 70"><path data-name="Rectangle 87" d="M20 36h4v18h-4z"/></g></g><g data-name="Group 73"><g data-name="Group 72"><path data-name="Path 14" d="M22 52a6 6 0 1 0 6 6 6.007 6.007 0 0 0-6-6zm0 8a2 2 0 1 1 2-2 2 2 0 0 1-2 2z"/></g></g></svg>