<svg xmlns="http://www.w3.org/2000/svg" height="560" width="634.667"><path d="M128.604 166.541L317.659.905v506.133H128.604zM299.377 420.22v-156.4h-36.262v145.992c0 29.01-12.927 44.461-39.73 44.461-26.801 0-38.784-11.037-38.784-44.46V263.82H148.34v156.714c0 35 17.973 64.64 75.361 64.64 47.927 0 75.676-24.91 75.676-64.956" fill="#fff200" fill-rule="evenodd"/><path d="M576.719 263.793l-79.066-.01-9.598 30.392 39.044-.002-.018 187.848h36.262V294.097h63.666l6.61-6.609-57.026-50.003zm-519.727.014c16.65-.014 33.147.014 49.949.014v177.84c0 35.946-3.469 47.928-12.928 60.856-9.144 12.613-23.334 21.756-36.892 26.802l-17.027-19.235c11.666-6.306 21.441-16.08 25.54-24.594 3.784-7.883 5.045-17.027 5.045-40.676V294.097H6.654l-6.572-6.572L57.11 237.52zm242.385 156.412V263.82h-36.262v145.992c0 29.01-12.927 44.461-39.73 44.461-26.801 0-38.784-11.037-38.784-44.46V263.82H148.34v156.714c0 35 17.973 64.64 75.361 64.64 47.927 0 75.676-24.91 75.676-64.956zm182.971-5.046c0-31.846-20.93-51.529-52.436-60.753l-27.275-7.985c-18.804-5.506-26.841-10.202-28.758-23.194-2.624-17.778 10.101-29.052 35.38-29.052 17.342 0 37.525-.014 56.372-.014l9.336-30.344c-19.902 0-41.938-.011-66.847-.011-47.833 0-73.97 23.02-73.97 61.49 0 12.297 3.194 22.673 9.143 31.53 8.24 12.27 22.378 20.532 42.252 26.172l23.334 6.621c22.376 6.35 32.478 16.398 32.478 31.216 0 21.758-16.081 34.686-42.884 34.686-22.072 0-39.414-6.622-58.964-17.973l-13.873 28.063c21.44 12.928 46.667 19.55 71.576 19.55 55.812 0 85.136-33.74 85.136-70.002M130.637 549.77c-.616 0-1.109-.2-1.479-.6-.37-.4-.554-.877-.554-1.432v-20.187c0-.524.162-.97.485-1.34.324-.37.747-.554 1.27-.554.524 0 .963.185 1.317.553.354.37.531.817.531 1.34v15.569l10.256-16.354c.4-.739 1.032-1.108 1.894-1.108.586 0 1.055.192 1.41.577.353.385.53.87.53 1.455v20.188c0 .524-.169.97-.508 1.34-.338.369-.77.554-1.293.554-.524 0-.955-.185-1.293-.554-.34-.37-.51-.816-.51-1.34v-15.569l-10.208 16.4c-.463.709-1.078 1.063-1.848 1.063zm26.054-1.893c0 .524-.17.955-.508 1.293-.339.34-.77.509-1.294.509s-.954-.17-1.293-.509c-.339-.338-.508-.77-.508-1.293v-20.373c0-.493.17-.916.508-1.27.339-.354.77-.531 1.293-.531.524 0 .955.177 1.294.53.338.355.508.778.508 1.271v8.223h9.793v-8.223c0-.493.17-.916.51-1.27.338-.354.769-.531 1.293-.531.522 0 .954.177 1.293.53.339.355.508.778.508 1.271v20.373c0 .524-.17.955-.508 1.293-.339.34-.77.509-1.293.509-.524 0-.955-.17-1.294-.509-.338-.338-.509-.77-.509-1.293v-9.101h-9.793zm27.994 0c0 .524-.168.955-.506 1.293-.34.34-.771.509-1.295.509-.523 0-.955-.17-1.293-.509-.339-.338-.508-.77-.508-1.293v-18.479h-4.804a1.61 1.61 0 0 1-1.179-.484c-.323-.324-.484-.732-.484-1.225 0-.493.161-.901.484-1.224a1.607 1.607 0 0 1 1.179-.485h13.212c.461 0 .854.162 1.178.485.323.323.484.731.484 1.224s-.161.901-.484 1.225a1.61 1.61 0 0 1-1.178.484h-4.806zm18.11-1.386c.985 0 1.832-.123 2.541-.37a25.013 25.013 0 0 0 2.263-.924 1.473 1.473 0 0 1 .647-.139c.462 0 .847.162 1.154.486.31.323.463.7.463 1.132 0 .554-.27 1.023-.808 1.409-.54.385-1.202.693-1.987.924-.785.23-1.61.4-2.472.508a18.28 18.28 0 0 1-2.217.162c-1.294 0-2.456-.193-3.488-.578-1.031-.385-1.894-.924-2.587-1.617a7.082 7.082 0 0 1-1.593-2.448 8.17 8.17 0 0 1-.555-3.026v-8.639c0-1.108.184-2.14.555-3.095a6.893 6.893 0 0 1 1.616-2.471c.709-.694 1.586-1.24 2.633-1.64 1.047-.401 2.264-.601 3.65-.601 2.587 0 4.511.678 5.774 2.033s1.895 3.187 1.895 5.497c0 2.125-.608 3.796-1.826 5.012-1.216 1.217-3.21 1.825-5.981 1.825-.71 0-1.472-.031-2.287-.092a21.185 21.185 0 0 1-2.425-.324v2.726c0 1.293.423 2.325 1.27 3.095.846.77 2.1 1.155 3.765 1.155zm3.926-13.397c0-1.51-.361-2.595-1.085-3.257-.724-.662-1.763-.993-3.119-.993-1.508 0-2.678.377-3.51 1.132-.832.754-1.247 1.779-1.247 3.072v3.51c.861.124 1.77.209 2.725.255.955.046 1.663.07 2.124.07.863 0 1.564-.108 2.103-.324.539-.216.961-.5 1.27-.855.309-.354.509-.762.6-1.224.094-.462.14-.924.14-1.386zm17.647 16.538c-.8 0-1.648-.077-2.54-.231a17.576 17.576 0 0 1-2.588-.647v8.731c0 .493-.153.91-.461 1.248-.308.339-.755.508-1.34.508-.586 0-1.032-.17-1.34-.508-.308-.339-.462-.755-.462-1.248v-25.222c0-.77-.053-1.394-.161-1.871a4.232 4.232 0 0 0-.579-1.363 6.32 6.32 0 0 1-.23-.416c-.062-.123-.092-.293-.092-.508 0-.493.169-.886.508-1.178.338-.293.708-.439 1.108-.439.37 0 .701.1.994.3.292.2.562.47.808.809a24.591 24.591 0 0 1 3.258-1.432 10.285 10.285 0 0 1 3.486-.601c2.434 0 4.266.808 5.498 2.425 1.232 1.617 1.848 3.72 1.848 6.306v6.006c0 1.385-.123 2.648-.37 3.788-.246 1.14-.67 2.117-1.27 2.933-.6.816-1.394 1.456-2.379 1.917-.985.462-2.217.693-3.696.693zm-5.128-4.111c.74.339 1.556.585 2.448.739.893.154 1.633.23 2.219.23 1.693 0 2.878-.492 3.557-1.477.676-.986 1.016-2.556 1.016-4.712v-6.006c0-3.665-1.495-5.497-4.481-5.497-.802 0-1.632.138-2.495.416-.863.277-1.693.661-2.495 1.155.154.77.231 1.4.231 1.894zm21.897-10.025h4.712c2.958 0 5.075.608 6.352 1.825 1.279 1.216 1.918 2.949 1.918 5.197 0 2.033-.631 3.673-1.895 4.92-1.263 1.247-3.187 1.87-5.773 1.87h-7.115c-.524 0-.955-.176-1.293-.53a1.774 1.774 0 0 1-.508-1.27v-20.004c0-.493.169-.916.508-1.27.338-.354.769-.531 1.293-.531.524 0 .955.177 1.293.53.339.355.508.778.508 1.271zm0 3.05v7.668h5.22c2.803 0 4.204-1.279 4.204-3.834 0-.462-.061-.925-.184-1.386a2.795 2.795 0 0 0-.693-1.225c-.339-.354-.816-.646-1.432-.877-.616-.231-1.417-.347-2.403-.347zm25.639 7.945c.985 0 1.833-.123 2.541-.37a25.188 25.188 0 0 0 2.264-.924 1.476 1.476 0 0 1 .647-.139c.461 0 .847.162 1.155.486.308.323.461.7.461 1.132 0 .554-.27 1.023-.808 1.409-.539.385-1.201.693-1.985.924-.787.23-1.611.4-2.472.508-.863.107-1.603.162-2.218.162-1.294 0-2.456-.193-3.488-.578-1.032-.385-1.894-.924-2.588-1.617a7.101 7.101 0 0 1-1.593-2.448 8.197 8.197 0 0 1-.555-3.026v-8.639c0-1.108.186-2.14.555-3.095.37-.955.91-1.778 1.617-2.471.708-.694 1.586-1.24 2.634-1.64 1.046-.401 2.262-.601 3.649-.601 2.587 0 4.512.678 5.775 2.033 1.261 1.355 1.893 3.187 1.893 5.497 0 2.125-.608 3.796-1.824 5.012-1.217 1.217-3.21 1.825-5.983 1.825-.708 0-1.47-.031-2.286-.092a21.265 21.265 0 0 1-2.426-.324v2.726c0 1.293.423 2.325 1.271 3.095.847.77 2.101 1.155 3.764 1.155zm3.927-13.397c0-1.51-.362-2.595-1.086-3.257-.724-.662-1.762-.993-3.118-.993-1.508 0-2.679.377-3.511 1.132-.83.754-1.247 1.779-1.247 3.072v3.51c.862.124 1.771.209 2.726.255.954.046 1.662.07 2.125.07.861 0 1.563-.108 2.101-.324.539-.216.963-.5 1.271-.855a2.61 2.61 0 0 0 .6-1.224c.093-.462.139-.924.139-1.386zm17.648 16.538c-.802 0-1.648-.077-2.542-.231a17.576 17.576 0 0 1-2.588-.647v8.731c0 .493-.153.91-.461 1.248-.308.339-.755.508-1.34.508-.584 0-1.03-.17-1.339-.508-.308-.339-.462-.755-.462-1.248v-25.222c0-.77-.054-1.394-.162-1.871a4.229 4.229 0 0 0-.577-1.363 5.755 5.755 0 0 1-.23-.416c-.063-.123-.094-.293-.094-.508 0-.493.17-.886.508-1.178.339-.293.71-.439 1.11-.439.369 0 .7.1.993.3.292.2.561.47.808.809a24.591 24.591 0 0 1 3.257-1.432 10.303 10.303 0 0 1 3.487-.601c2.433 0 4.266.808 5.498 2.425 1.232 1.617 1.847 3.72 1.847 6.306v6.006c0 1.385-.123 2.648-.37 3.788-.245 1.14-.669 2.117-1.27 2.933-.6.816-1.393 1.456-2.379 1.917-.985.462-2.217.693-3.694.693zm-5.13-4.111c.74.339 1.556.585 2.45.739.893.154 1.632.23 2.217.23 1.693 0 2.88-.492 3.557-1.477.678-.986 1.016-2.556 1.016-4.712v-6.006c0-3.665-1.493-5.497-4.48-5.497-.801 0-1.633.138-2.496.416-.861.277-1.693.661-2.494 1.155.154.77.23 1.4.23 1.894zm21.898 2.356c0 .524-.168.955-.508 1.293-.339.34-.77.509-1.294.509s-.954-.17-1.293-.509c-.339-.338-.508-.77-.508-1.293v-20.373c0-.493.17-.916.508-1.27.339-.354.77-.531 1.293-.531.524 0 .955.177 1.294.53.34.355.508.778.508 1.271v8.223h9.793v-8.223c0-.493.17-.916.51-1.27.338-.354.769-.531 1.293-.531.524 0 .954.177 1.293.53.339.355.508.778.508 1.271v20.373c0 .524-.17.955-.508 1.293-.339.34-.77.509-1.293.509-.524 0-.955-.17-1.294-.509-.338-.338-.509-.77-.509-1.293v-9.101h-9.793zm31.645-14.183c0-3.295-1.648-4.942-4.943-4.942-.801 0-1.456.092-1.964.277-.508.185-1.024.415-1.548.693-.061.03-.214.1-.461.208a1.835 1.835 0 0 1-.739.162c-.432 0-.748-.17-.948-.509a2.413 2.413 0 0 1-.346-1.016 1.61 1.61 0 0 1 .462-1.363c.37-.385.871-.7 1.502-.947a9.329 9.329 0 0 1 2.124-.532 17.577 17.577 0 0 1 2.38-.161c2.894 0 4.965.785 6.213 2.356 1.247 1.571 1.87 3.896 1.87 6.976v10.163c0 .924.278 1.386.833 1.386a.523.523 0 0 0 .161-.023.696.696 0 0 1 .208-.024c.43 0 .763.162.993.485.231.324.347.686.347 1.086 0 .586-.216.993-.647 1.224a2.989 2.989 0 0 1-1.433.347c-.77 0-1.455-.208-2.055-.624-.601-.415-1.07-.977-1.409-1.686-1.785 1.632-3.896 2.449-6.328 2.449-2.403 0-4.181-.64-5.336-1.918-1.155-1.278-1.733-2.964-1.733-5.058v-.185c0-4.558 2.71-6.837 8.13-6.837 1.634 0 3.188.215 4.667.647zm-4.712 5.036c-.955 0-1.725.1-2.31.3-.585.2-1.04.478-1.363.832a2.912 2.912 0 0 0-.67 1.224 5.681 5.681 0 0 0-.185 1.478v.185c0 1.078.293 1.963.879 2.656.585.693 1.646 1.04 3.186 1.04.986 0 1.895-.162 2.726-.485.832-.324 1.648-.84 2.449-1.548v-4.99c-.77-.245-1.57-.423-2.403-.53a18.061 18.061 0 0 0-2.309-.162zm29.38 10.949c-.523 0-.955-.178-1.293-.532a1.772 1.772 0 0 1-.508-1.27v-8.085h-4.066l-5.913 9.009c-.4.585-.893.878-1.479.878-.492 0-.892-.14-1.2-.417-.309-.277-.478-.646-.509-1.108 0-.154.024-.331.07-.531.046-.2.115-.377.207-.531l5.083-7.577c-1.848-.4-3.172-1.17-3.973-2.31-.8-1.139-1.202-2.618-1.202-4.434 0-2.033.632-3.673 1.895-4.92 1.263-1.248 3.187-1.871 5.775-1.871h7.113c.524 0 .955.177 1.293.53.339.355.508.779.508 1.271v20.096c0 .493-.169.916-.508 1.27-.338.354-.769.532-1.293.532zm-11.225-16.77c0 .462.061.924.185 1.386.123.462.353.87.692 1.224.339.354.816.647 1.432.878.616.231 1.417.346 2.403.346h4.712v-7.668h-5.22c-2.803 0-4.204 1.278-4.204 3.834zm37.28 14.968c0 .524-.17.955-.508 1.293-.339.34-.77.509-1.294.509s-.954-.17-1.293-.509c-.339-.338-.508-.77-.508-1.293v-20.373c0-.493.17-.916.508-1.27.339-.354.77-.531 1.293-.531.524 0 .955.177 1.294.53.338.355.508.778.508 1.271v8.223h2.818l6.006-9.1c.369-.586.861-.878 1.477-.878.463 0 .855.138 1.179.416.324.277.5.646.53 1.108 0 .154-.022.332-.069.532-.045.2-.115.377-.207.531l-6.329 9.378 6.33 9.378c.091.154.16.33.206.53.047.2.07.378.07.532-.031.462-.207.831-.531 1.108-.324.278-.716.417-1.179.417-.616 0-1.108-.293-1.477-.878l-6.607-10.025h-2.217zm23.421 1.802c-1.416 0-2.664-.208-3.741-.624-1.079-.416-1.979-.994-2.703-1.733a7.282 7.282 0 0 1-1.64-2.61c-.37-1-.555-2.086-.555-3.257v-7.714a9.2 9.2 0 0 1 .555-3.21 7.285 7.285 0 0 1 1.64-2.61c.724-.74 1.624-1.325 2.703-1.756 1.077-.432 2.325-.647 3.741-.647 1.417 0 2.664.215 3.743.647 1.077.43 1.977 1.016 2.701 1.755a7.288 7.288 0 0 1 1.641 2.61 9.235 9.235 0 0 1 .554 3.21v7.715c0 1.171-.186 2.256-.554 3.257a7.285 7.285 0 0 1-1.641 2.61c-.724.74-1.624 1.317-2.701 1.733-1.079.416-2.326.624-3.743.624zm0-3.327c1.664 0 2.919-.43 3.765-1.293.847-.862 1.271-2.064 1.271-3.604v-7.76c0-1.509-.424-2.696-1.27-3.558-.847-.862-2.102-1.293-3.766-1.293-1.663 0-2.917.43-3.765 1.293-.847.862-1.27 2.049-1.27 3.557v7.761c0 1.54.423 2.742 1.27 3.604.848.862 2.102 1.293 3.765 1.293zm24.992-.877c-.77 0-1.355-.37-1.755-1.109l-6.005-10.856v14.367c0 .493-.177.916-.532 1.27a1.735 1.735 0 0 1-1.27.532c-.493 0-.909-.178-1.247-.532a1.772 1.772 0 0 1-.508-1.27v-20.234c0-.554.184-1.016.553-1.386.37-.37.832-.554 1.387-.554.43 0 .793.107 1.085.323.293.216.547.508.763.878l7.576 13.813 7.576-13.813c.216-.37.469-.662.762-.878.292-.216.655-.323 1.086-.323.553 0 1.016.184 1.386.554.37.37.554.832.554 1.386v20.234c0 .493-.178.916-.531 1.27-.355.354-.763.532-1.225.532-.523 0-.955-.178-1.294-.532a1.772 1.772 0 0 1-.508-1.27V533.51l-6.005 10.856c-.4.739-.985 1.109-1.755 1.109zm21.85 2.402c0 .524-.169.955-.507 1.293-.339.34-.77.509-1.294.509s-.954-.17-1.293-.509c-.339-.338-.508-.77-.508-1.293V527.78c0-.492.17-.916.508-1.27.339-.354.77-.531 1.293-.531h12.935c.524 0 .955.177 1.293.53.34.355.508.779.508 1.271v20.096c0 .524-.168.955-.508 1.293-.338.34-.769.509-1.293.509-.523 0-.955-.17-1.293-.509-.339-.338-.508-.77-.508-1.293v-18.848h-9.332zm31.183-14.183c0-3.295-1.648-4.942-4.942-4.942-.802 0-1.456.092-1.964.277-.508.185-1.024.415-1.548.693-.062.03-.215.1-.462.208a1.835 1.835 0 0 1-.738.162c-.432 0-.748-.17-.948-.509a2.443 2.443 0 0 1-.347-1.016 1.61 1.61 0 0 1 .463-1.363c.369-.385.87-.7 1.501-.947a9.323 9.323 0 0 1 2.125-.532 17.558 17.558 0 0 1 2.379-.161c2.896 0 4.965.785 6.213 2.356 1.248 1.571 1.871 3.896 1.871 6.976v10.163c0 .924.277 1.386.832 1.386a.517.517 0 0 0 .161-.023.696.696 0 0 1 .208-.024c.432 0 .763.162.994.485.23.324.346.686.346 1.086 0 .586-.216.993-.646 1.224a2.99 2.99 0 0 1-1.432.347c-.771 0-1.456-.208-2.056-.624a4.217 4.217 0 0 1-1.41-1.686c-1.785 1.632-3.896 2.449-6.328 2.449-2.402 0-4.181-.64-5.336-1.918-1.154-1.278-1.733-2.964-1.733-5.058v-.185c0-4.558 2.71-6.837 8.13-6.837 1.634 0 3.189.215 4.667.647zm-4.712 5.036c-.954 0-1.725.1-2.309.3-.585.2-1.04.478-1.364.832a2.912 2.912 0 0 0-.67 1.224 5.739 5.739 0 0 0-.185 1.478v.185c0 1.078.294 1.963.879 2.656.585.693 1.647 1.04 3.188 1.04.985 0 1.893-.162 2.725-.485.831-.324 1.647-.84 2.448-1.548v-4.99c-.77-.245-1.57-.423-2.402-.53a18.045 18.045 0 0 0-2.31-.162zm19.079 9.147c0 .524-.17.955-.508 1.293-.34.34-.77.509-1.295.509-.522 0-.954-.17-1.292-.509-.338-.338-.508-.77-.508-1.293v-20.373c0-.493.17-.916.508-1.27.338-.354.77-.531 1.292-.531.524 0 .955.177 1.295.53.339.355.508.778.508 1.271v8.223h9.793v-8.223c0-.493.17-.916.508-1.27.339-.354.771-.531 1.294-.531.524 0 .954.177 1.293.53.34.355.51.778.51 1.271v20.373c0 .524-.17.955-.51 1.293-.339.34-.77.509-1.293.509-.523 0-.955-.17-1.294-.509-.338-.338-.508-.77-.508-1.293v-9.101H503.3zm22.175 1.894c-.616 0-1.11-.2-1.479-.6a2.04 2.04 0 0 1-.555-1.433v-20.187c0-.524.162-.97.486-1.34.324-.37.746-.554 1.27-.554.523 0 .963.185 1.316.553.355.37.532.817.532 1.34v15.569l10.255-16.354c.4-.739 1.032-1.108 1.895-1.108.585 0 1.054.192 1.409.577.353.385.53.87.53 1.455v20.188c0 .524-.169.97-.507 1.34-.339.369-.77.554-1.294.554s-.954-.185-1.293-.554c-.34-.37-.51-.816-.51-1.34v-15.569l-10.209 16.4c-.461.709-1.077 1.063-1.846 1.063zm36.356-.092c-.524 0-.955-.178-1.294-.532a1.768 1.768 0 0 1-.509-1.27v-8.085h-4.064l-5.913 9.009c-.4.585-.894.878-1.479.878-.493 0-.893-.14-1.201-.417-.308-.277-.478-.646-.508-1.108 0-.154.022-.331.069-.531.047-.2.116-.377.208-.531l5.081-7.577c-1.848-.4-3.172-1.17-3.973-2.31-.8-1.139-1.2-2.618-1.2-4.434 0-2.033.63-3.673 1.893-4.92 1.263-1.248 3.188-1.871 5.775-1.871h7.115c.522 0 .954.177 1.293.53.339.355.508.779.508 1.271v20.096c0 .493-.17.916-.508 1.27-.339.354-.77.532-1.293.532zm-11.226-16.77c0 .462.062.924.184 1.386.124.462.355.87.694 1.224.338.354.816.647 1.432.878.616.231 1.416.346 2.402.346h4.711v-7.668h-5.22c-2.803 0-4.203 1.278-4.203 3.834" fill="#100f0d"/></svg>