<svg xmlns="http://www.w3.org/2000/svg" width="120" height="119.999"><g data-name="Group 75"><g data-name="Group 74"><path data-name="Path 15" d="M36.562 86.717a2.344 2.344 0 1 0 2.344 2.344 2.345 2.345 0 0 0-2.344-2.344z"/></g></g><g data-name="Group 77"><g data-name="Group 76"><path data-name="Path 16" d="M105.5 44.531l13.811-13.811a2.344 2.344 0 0 0-.966-3.9L84.714 16.442A23.441 23.441 0 0 0 40.6 14.678L1.645 26.825a2.344 2.344 0 0 0-.96 3.895l14.176 14.178-8.94 14.9a2.344 2.344 0 0 0 1.269 3.429l12.966 4.322v36.049a2.344 2.344 0 0 0 1.521 2.194c7.928 2.973 37.386 14.021 37.544 14.077a2.335 2.335 0 0 0 1.5.021l.021-.006 42.187-14.062a2.344 2.344 0 0 0 1.6-2.224V66.581l13.828-4.345a2.344 2.344 0 0 0 .955-3.893zM85.78 23.437c0-.6-.025-1.19-.07-1.782l27.538 8.5-11.694 11.694-19.108-6.368a23.5 23.5 0 0 0 3.334-12.044zm-41.173-6.1a18.749 18.749 0 0 1 36.486 6.1 18.747 18.747 0 0 1-18.75 18.75 18.765 18.765 0 0 1-17.736-24.85zM6.741 30.146l32.414-10.107a23.631 23.631 0 0 0-.25 3.4 23.3 23.3 0 0 0 2.6 10.727l-23.06 7.683zm4.7 29.555l7.411-12.352 37.634 12.544-7.41 12.352zm46.212 54.573l-32.812-12.3V69.109c25.816 8.56 24.556 8.3 25.274 8.3a2.344 2.344 0 0 0 2.01-1.138l5.528-9.213zM60 56.123L25.224 44.531 44.16 38.22a23.431 23.431 0 0 0 35.314 1.212l15.3 5.1zm39.844 45.781l-37.5 12.5v-49.13l8.309 10.385a2.344 2.344 0 0 0 2.533.772l26.658-8.377zM73.31 71.479l-9.381-11.725 37.624-12.541 11.71 11.71z"/></g></g><g data-name="Group 79"><g data-name="Group 78"><path data-name="Path 17" d="M51.448 91.921l-5.212-1.955a2.344 2.344 0 0 0-1.646 4.389l5.213 1.955a2.344 2.344 0 1 0 1.646-4.389z"/></g></g><g data-name="Group 81"><g data-name="Group 80"><path data-name="Path 18" d="M51.447 101.931l-14.062-5.274a2.344 2.344 0 1 0-1.646 4.389l14.062 5.274a2.344 2.344 0 0 0 1.646-4.389z"/></g></g><g data-name="Group 83"><g data-name="Group 82"><path data-name="Path 19" d="M75.719 14.748a2.344 2.344 0 0 0-3.315 0L59.999 27.154l-3.029-3.03a2.344 2.344 0 1 0-3.315 3.315l4.688 4.687a2.344 2.344 0 0 0 3.315 0l14.061-14.065a2.344 2.344 0 0 0 0-3.313z"/></g></g></svg>