<svg xmlns="http://www.w3.org/2000/svg" width="31" height="56"><defs><filter id="a" x="860" y="262" width="31" height="56" filterUnits="userSpaceOnUse"><feOffset result="offset" dx="2.5" dy="4.33" in="SourceAlpha"/><feGaussianBlur result="blur" stdDeviation="2.236"/><feFlood result="flood" flood-opacity=".2"/><feComposite result="composite" operator="in" in2="blur"/><feBlend result="blend" in="SourceGraphic"/></filter></defs><path data-name="Btn _nav_ normal" d="M865.871 309a3.762 3.762 0 0 1-2.16-.685 4.166 4.166 0 0 1-1.071-5.629l11.026-17.186-11.026-17.191a4.166 4.166 0 0 1 1.071-5.629 3.792 3.792 0 0 1 5.4 1.115l12.255 19.1a4.205 4.205 0 0 1 .654 2.256v.678a4.21 4.21 0 0 1-.654 2.258l-12.255 19.1a3.851 3.851 0 0 1-3.24 1.813z" transform="translate(-860 -262)" fill="#fff" fill-rule="evenodd" filter="url(#a)"/></svg>