<svg xmlns="http://www.w3.org/2000/svg" width="29" height="56"><defs><filter id="a" x="394" y="262" width="29" height="56" filterUnits="userSpaceOnUse"><feOffset result="offset" dx="2.5" dy="4.33" in="SourceAlpha"/><feGaussianBlur result="blur" stdDeviation="2.236"/><feFlood result="flood" flood-opacity=".2"/><feComposite result="composite" operator="in" in2="blur"/><feBlend result="blend" in="SourceGraphic"/></filter></defs><path data-name="Btn _nav_ normal копия" d="M411.11 262a3.736 3.736 0 0 1 2.153.687 4.173 4.173 0 0 1 1.067 5.629L403.339 285.5l10.991 17.186a4.174 4.174 0 0 1-1.067 5.63 3.775 3.775 0 0 1-5.381-1.116l-12.216-19.1a4.2 4.2 0 0 1-.653-2.256v-.677a4.2 4.2 0 0 1 .653-2.257l12.216-19.1a3.835 3.835 0 0 1 3.228-1.81z" transform="translate(-394 -262)" fill="#fff" fill-rule="evenodd" filter="url(#a)"/></svg>