<svg width="41" height="40" fill="none" xmlns="http://www.w3.org/2000/svg"><path d="M2.872 17.886c1.042-5.914 5.217-10.755 10.743-12.75l-.26.45a1.31 1.31 0 0 0 2.268 1.309l1.805-3.125a1.309 1.309 0 0 0-.479-1.789L13.823.176a1.31 1.31 0 0 0-1.31 2.267l.326.189C6.388 4.916 1.507 10.546.293 17.432a19.224 19.224 0 0 0 .865 9.917 1.31 1.31 0 1 0 2.46-.898 16.602 16.602 0 0 1-.746-8.565zM33.807 31.29a1.31 1.31 0 0 0-1.845.16c-3.809 4.531-9.791 6.709-15.614 5.681a16.64 16.64 0 0 1-7.658-3.525h.421a1.31 1.31 0 1 0 0-2.619H5.625A1.305 1.305 0 0 0 4.2 32.16v.004a1.285 1.285 0 0 0-.006.113l-.001.02-.001 3.608a1.31 1.31 0 0 0 2.619.001v-.456a19.263 19.263 0 0 0 9.082 4.26c1.105.196 2.214.291 3.316.291 5.625 0 11.071-2.48 14.758-6.865a1.31 1.31 0 0 0-.16-1.845zm6.53-6.672a1.31 1.31 0 0 0-1.788-.48l-.431.249c.018-.093.039-.184.055-.277a19.108 19.108 0 0 0-3.186-14.372A19.102 19.102 0 0 0 22.573 1.83a1.31 1.31 0 1 0-.455 2.58 16.5 16.5 0 0 1 10.724 6.83 16.507 16.507 0 0 1 2.757 12.388l-.192-.332a1.31 1.31 0 0 0-2.268 1.31l1.804 3.126a1.31 1.31 0 0 0 1.789.48l3.126-1.806a1.31 1.31 0 0 0 .48-1.788z" fill="#00122D"/></svg>