<svg width="32" height="40" fill="none" xmlns="http://www.w3.org/2000/svg"><path d="M31.091 14.149l-3.041-3.144.612-4.33a1.24 1.24 0 0 0-1.013-1.396l-4.309-.755L21.29.659a1.24 1.24 0 0 0-1.64-.533l-3.93 1.92-3.93-1.92a1.24 1.24 0 0 0-1.64.533L8.1 4.524l-4.308.755a1.24 1.24 0 0 0-1.014 1.395l.613 4.33L.349 14.15a1.24 1.24 0 0 0 0 1.724l3.042 3.144-.613 4.333a1.24 1.24 0 0 0 1.014 1.395l3.448.604v13.41a1.24 1.24 0 0 0 1.795 1.11l6.686-3.343 6.685 3.342a1.24 1.24 0 0 0 1.794-1.11V25.35l3.449-.605a1.24 1.24 0 0 0 1.014-1.395l-.613-4.332 3.041-3.144a1.24 1.24 0 0 0 0-1.724zM16.275 34.032a1.24 1.24 0 0 0-1.109 0L9.72 36.754v-8.202l.43.812a1.24 1.24 0 0 0 1.64.533l3.93-1.922 3.93 1.922a1.237 1.237 0 0 0 1.64-.533l.43-.81v8.2l-5.445-2.722zm9.57-16.304a1.24 1.24 0 0 0-.336 1.036l.53 3.745-3.724.653a1.24 1.24 0 0 0-.881.64l-1.773 3.34-3.396-1.661a1.242 1.242 0 0 0-1.09 0l-3.396 1.66-1.772-3.339a1.24 1.24 0 0 0-.881-.64l-3.724-.653.529-3.745a1.24 1.24 0 0 0-.337-1.036l-2.629-2.717 2.63-2.718a1.24 1.24 0 0 0 .336-1.035l-.53-3.743 3.725-.653a1.24 1.24 0 0 0 .881-.64l1.772-3.34 3.397 1.659a1.24 1.24 0 0 0 1.09 0l3.395-1.66 1.773 3.34c.18.339.504.575.881.641l3.724.653-.53 3.743c-.053.378.07.76.337 1.035l2.629 2.718-2.63 2.717z" fill="#00122D"/><path d="M15.72 6.532c-4.676 0-8.48 3.803-8.48 8.479 0 4.677 3.804 8.481 8.48 8.481s8.48-3.804 8.48-8.481c0-4.675-3.804-8.48-8.48-8.48zm0 14.48c-3.308 0-6-2.692-6-6.001 0-3.308 2.692-6 6-6 3.309 0 6 2.692 6 6a6.007 6.007 0 0 1-6 6.001z" fill="#00122D"/><path d="M18.248 11.865l-3.663 3.662-1.394-1.392a1.24 1.24 0 1 0-1.752 1.755l2.27 2.268c.242.242.56.362.877.362.317 0 .634-.12.876-.363l4.54-4.538a1.24 1.24 0 1 0-1.754-1.754z" fill="#00122D"/></svg>