<svg width="27" height="40" fill="none" xmlns="http://www.w3.org/2000/svg"><path d="M13.353 0C5.99 0 0 5.99 0 13.353c0 7.362 5.99 13.353 13.353 13.353 7.362 0 13.353-5.99 13.353-13.353C26.706 5.99 20.716 0 13.353 0zm0 24.079c-5.914 0-10.726-4.812-10.726-10.726 0-5.914 4.812-10.726 10.726-10.726 5.914 0 10.726 4.812 10.726 10.726 0 5.914-4.812 10.726-10.726 10.726z" fill="#00122D"/><path d="M22.676 38.165l-.656-15.586-2.625.11.573 13.585-5.426-4.675a1.727 1.727 0 0 0-2.38 0l-5.425 4.675.573-13.585-2.625-.11-.656 15.586-.001.055c0 .696.404 1.33 1.03 1.618.628.29 1.35.186 1.885-.273l6.41-5.523 6.412 5.525a1.745 1.745 0 0 0 1.883.271 1.782 1.782 0 0 0 1.028-1.673zM19.185 9.36a1.313 1.313 0 0 0-1.857 0l-5.72 5.72-2.662-2.694a1.313 1.313 0 1 0-1.869 1.846l3.59 3.634c.246.249.58.39.93.39h.005c.348 0 .682-.138.928-.385l6.655-6.654a1.313 1.313 0 0 0 0-1.858z" fill="#00122D"/></svg>