<?xml version="1.0" standalone="no"?>
<!DOCTYPE svg PUBLIC "-//W3C//DTD SVG 1.1//EN" "http://www.w3.org/Graphics/SVG/1.1/DTD/svg11.dtd" >
<svg>
<metadata>
Created by FontForge 20090622 at Fri May  4 11:04:13 2018
 By deploy user
Copyright (c) 2005 by Frantisek Storm, www.stormtype.com. All rights reserved.
</metadata>
<defs>
<font id="Vida31Pro" horiz-adv-x="420" >
  <font-face 
    font-family="Vida 31 Pro"
    font-weight="400"
    font-stretch="normal"
    units-per-em="1000"
    panose-1="2 0 5 6 0 0 0 2 0 4"
    ascent="800"
    descent="-200"
    x-height="505"
    cap-height="697"
    bbox="-100.062 -299 1404 1059.45"
    underline-thickness="50"
    underline-position="-100"
    unicode-range="U+0020-U+FB04"
  />
<missing-glyph horiz-adv-x="500" 
d="M0 0v697h500v-697h-500zM250 394l170 253h-340zM280 349l170 -254v507zM80 50h340l-170 254zM50 602v-507l170 254z" />
    <glyph glyph-name="ff" unicode="ff" horiz-adv-x="592" 
d="M154 505h214v47q0 170 144 170q47 0 97 -10q8 -3 5 -13l-12 -43q-2 -9 -10 -6q-43 12 -80 12q-52 0 -65.5 -19t-13.5 -91v-47h151q9 0 9 -9v-37q0 -9 -9 -9h-151v-441q0 -9 -9 -9h-47q-9 0 -9 9v441h-214v-441q0 -9 -9 -9h-47q-9 0 -9 9v441h-60q-9 0 -9 9v37q0 9 9 9h60
v47q0 170 144 170q47 0 97 -10q8 -3 5 -13l-12 -43q-2 -9 -10 -6q-43 12 -80 12q-52 0 -65.5 -19t-13.5 -91v-47z" />
    <glyph glyph-name="fi" unicode="fi" horiz-adv-x="510" 
d="M433 496v-487q0 -9 -9 -9h-47q-9 0 -9 9v441h-214v-441q0 -9 -9 -9h-47q-9 0 -9 9v441h-60q-9 0 -9 9v37q0 9 9 9h60v47q0 92 48.5 131t145.5 39q103 0 157 -18q8 -3 5 -13l-12 -43q-2 -9 -10 -6q-64 20 -140 20q-83 0 -106 -19t-23 -91v-47h270q9 0 9 -9z" />
    <glyph glyph-name="fl" unicode="fl" horiz-adv-x="517" 
d="M368 89v562q-58 11 -115 11q-67 0 -83 -18.5t-16 -91.5v-47h151q9 0 9 -9v-37q0 -9 -9 -9h-151v-441q0 -9 -9 -9h-47q-9 0 -9 9v441h-60q-9 0 -9 9v37q0 9 9 9h60v47q0 92 41.5 131t122.5 39q72 0 171 -18q9 -2 9 -9v-613l24 -66q3 -8 -6 -12l-46 -11q-9 -4 -11 5l-22 62
q-4 16 -4 29z" />
    <glyph glyph-name="ffi" unicode="ffi" horiz-adv-x="789" 
d="M368 450h-214v-441q0 -9 -9 -9h-47q-9 0 -9 9v441h-60q-9 0 -9 9v37q0 9 9 9h60v47q0 170 144 170q47 0 97 -10q8 -3 5 -13l-12 -43q-2 -9 -10 -6q-43 12 -80 12q-52 0 -65.5 -19t-13.5 -91v-47h214v47q0 92 48.5 131t145.5 39q103 0 157 -18q8 -3 5 -13l-12 -43
q-2 -9 -10 -6q-64 20 -140 20q-83 0 -106 -19t-23 -91v-47h270q9 0 9 -9v-487q0 -9 -9 -9h-47q-9 0 -9 9v441h-214v-441q0 -9 -9 -9h-47q-9 0 -9 9v441z" />
    <glyph glyph-name="ffl" unicode="ffl" horiz-adv-x="796" 
d="M368 505v47q0 92 41.5 131t122.5 39q72 0 171 -18q9 -2 9 -9v-613l24 -66q3 -8 -6 -12l-46 -11q-9 -4 -11 5l-22 62q-4 16 -4 29v562q-58 11 -115 11q-67 0 -83 -18.5t-16 -91.5v-47h151q9 0 9 -9v-37q0 -9 -9 -9h-151v-441q0 -9 -9 -9h-47q-9 0 -9 9v441h-214v-441
q0 -9 -9 -9h-47q-9 0 -9 9v441h-60q-9 0 -9 9v37q0 9 9 9h60v47q0 170 144 170q47 0 97 -10q8 -3 5 -13l-12 -43q-2 -9 -10 -6q-43 12 -80 12q-52 0 -65.5 -19t-13.5 -91v-47h214z" />
    <glyph glyph-name="fb" unicode="fb" horiz-adv-x="837" 
d="M433 424v-343q60 -33 127 -33q39 0 61.5 4t40 14.5t25 35t11 58.5t3.5 92q0 49 -2 80t-8 55.5t-14.5 37t-26.5 20.5t-37.5 10t-52.5 2q-67 0 -127 -33zM368 9v642q-58 11 -115 11q-67 0 -83 -18.5t-16 -91.5v-47h151q9 0 9 -9v-37q0 -9 -9 -9h-151v-441q0 -9 -9 -9h-47
q-9 0 -9 9v441h-60q-9 0 -9 9v37q0 9 9 9h60v47q0 92 41.5 131t122.5 39q72 0 171 -18q9 -2 9 -9v-242q23 29 65 47.5t82 18.5q105 0 149 -58t44 -209t-44 -208.5t-149 -57.5q-40 0 -82 18.5t-65 47.5v-43q0 -9 -9 -9h-47q-9 0 -9 9z" />
    <glyph glyph-name="fh" unicode="fh" horiz-adv-x="821" 
d="M368 9v642q-58 11 -115 11q-67 0 -83 -18.5t-16 -91.5v-47h151q9 0 9 -9v-37q0 -9 -9 -9h-151v-441q0 -9 -9 -9h-47q-9 0 -9 9v441h-60q-9 0 -9 9v37q0 9 9 9h60v47q0 92 41.5 131t122.5 39q72 0 171 -18q9 -2 9 -9v-242q60 66 154 66q64 0 99.5 -17.5t55 -69
t19.5 -147.5v-276q0 -9 -9 -9h-47q-9 0 -9 9v263q0 70 -3.5 103.5t-20 54t-39.5 24t-73 3.5q-67 0 -127 -33v-415q0 -9 -9 -9h-47q-9 0 -9 9z" />
    <glyph glyph-name="fj" unicode="fj" horiz-adv-x="510" 
d="M368 -28v478h-214v-441q0 -9 -9 -9h-47q-9 0 -9 9v441h-60q-9 0 -9 9v37q0 9 9 9h60v47q0 92 48.5 131t145.5 39q103 0 157 -18q8 -3 5 -13l-12 -43q-2 -9 -10 -6q-64 20 -140 20q-83 0 -106 -19t-23 -91v-47h270q9 0 9 -9v-524q0 -81 -41.5 -128t-105.5 -47
q-10 0 -11 10l-7 43q-3 8 6 10q61 8 77.5 27t16.5 85z" />
    <glyph glyph-name="fk" unicode="fk" horiz-adv-x="740" 
d="M707 480l-194 -210l215 -242q5 -8 -2 -13l-38 -28q-7 -6 -13 2l-242 278v-258q0 -9 -9 -9h-47q-9 0 -9 9v642q-58 11 -115 11q-67 0 -83 -18.5t-16 -91.5v-47h151q9 0 9 -9v-37q0 -9 -9 -9h-151v-441q0 -9 -9 -9h-47q-9 0 -9 9v441h-60q-9 0 -9 9v37q0 9 9 9h60v47
q0 92 41.5 131t122.5 39q72 0 171 -18q9 -2 9 -9v-428l223 251q6 8 13 2l36 -27q7 -5 2 -13z" />
    <glyph glyph-name="ft" unicode="ft" horiz-adv-x="640" 
d="M433 631v-126h157q9 0 9 -9v-37q0 -9 -9 -9h-157v-280q0 -81 14.5 -101t63.5 -20q43 0 77 12q8 3 10 -6l11 -39q4 -11 -5 -13q-37 -17 -96 -17q-80 0 -110 37t-30 146v281h-214v-441q0 -9 -9 -9h-47q-9 0 -9 9v441h-60q-9 0 -9 9v37q0 9 9 9h60v47q0 170 144 170
q47 0 97 -10q8 -3 5 -13l-12 -43q-2 -9 -10 -6q-43 12 -80 12q-52 0 -65.5 -19t-13.5 -91v-47h214v102q0 10 6 12l49 18q10 4 10 -6z" />
    <glyph glyph-name="ffb" unicode="ffb" horiz-adv-x="1116" 
d="M712 424v-343q60 -33 127 -33q39 0 61.5 4t40 14.5t25 35t11 58.5t3.5 92q0 49 -2 80t-8 55.5t-14.5 37t-26.5 20.5t-37.5 10t-52.5 2q-67 0 -127 -33zM647 9v642q-58 11 -115 11q-67 0 -83 -18.5t-16 -91.5v-47h151q9 0 9 -9v-37q0 -9 -9 -9h-151v-441q0 -9 -9 -9h-47
q-9 0 -9 9v441h-214v-441q0 -9 -9 -9h-47q-9 0 -9 9v441h-60q-9 0 -9 9v37q0 9 9 9h60v47q0 170 144 170q47 0 97 -10q8 -3 5 -13l-12 -43q-2 -9 -10 -6q-43 12 -80 12q-52 0 -65.5 -19t-13.5 -91v-47h214v47q0 92 41.5 131t122.5 39q72 0 171 -18q9 -2 9 -9v-242
q23 29 65 47.5t82 18.5q105 0 149 -58t44 -209t-44 -208.5t-149 -57.5q-40 0 -82 18.5t-65 47.5v-43q0 -9 -9 -9h-47q-9 0 -9 9z" />
    <glyph glyph-name="ffh" unicode="ffh" horiz-adv-x="1100" 
d="M647 9v642q-58 11 -115 11q-67 0 -83 -18.5t-16 -91.5v-47h151q9 0 9 -9v-37q0 -9 -9 -9h-151v-441q0 -9 -9 -9h-47q-9 0 -9 9v441h-214v-441q0 -9 -9 -9h-47q-9 0 -9 9v441h-60q-9 0 -9 9v37q0 9 9 9h60v47q0 170 144 170q47 0 97 -10q8 -3 5 -13l-12 -43q-2 -9 -10 -6
q-43 12 -80 12q-52 0 -65.5 -19t-13.5 -91v-47h214v47q0 92 41.5 131t122.5 39q72 0 171 -18q9 -2 9 -9v-242q60 66 154 66q64 0 99.5 -17.5t55 -69t19.5 -147.5v-276q0 -9 -9 -9h-47q-9 0 -9 9v263q0 70 -3.5 103.5t-20 54t-39.5 24t-73 3.5q-67 0 -127 -33v-415
q0 -9 -9 -9h-47q-9 0 -9 9z" />
    <glyph glyph-name="ffj" unicode="ffj" horiz-adv-x="789" 
d="M433 450v-441q0 -9 -9 -9h-47q-9 0 -9 9v441h-214v-441q0 -9 -9 -9h-47q-9 0 -9 9v441h-60q-9 0 -9 9v37q0 9 9 9h60v47q0 170 144 170q47 0 97 -10q8 -3 5 -13l-12 -43q-2 -9 -10 -6q-43 12 -80 12q-52 0 -65.5 -19t-13.5 -91v-47h214v47q0 92 48.5 131t145.5 39
q103 0 157 -18q8 -3 5 -13l-12 -43q-2 -9 -10 -6q-64 20 -140 20q-83 0 -106 -19t-23 -91v-47h270q9 0 9 -9v-524q0 -81 -42 -128t-106 -47q-10 0 -11 10l-7 43q-3 8 6 10q61 8 78 27t17 85v478h-214z" />
    <glyph glyph-name="ffk" unicode="ffk" horiz-adv-x="1018" 
d="M647 9v642q-58 11 -115 11q-67 0 -83 -18.5t-16 -91.5v-47h151q9 0 9 -9v-37q0 -9 -9 -9h-151v-441q0 -9 -9 -9h-47q-9 0 -9 9v441h-214v-441q0 -9 -9 -9h-47q-9 0 -9 9v441h-60q-9 0 -9 9v37q0 9 9 9h60v47q0 170 144 170q47 0 97 -10q8 -3 5 -13l-12 -43q-2 -9 -10 -6
q-43 12 -80 12q-52 0 -65.5 -19t-13.5 -91v-47h214v47q0 92 41.5 131t122.5 39q72 0 171 -18q9 -2 9 -9v-427l222 250q6 8 13 2l36 -27q7 -5 2 -13l-194 -210l215 -242q5 -8 -2 -13l-38 -28q-7 -6 -13 2l-241 277v-257q0 -9 -9 -9h-47q-9 0 -9 9z" />
    <glyph glyph-name="Th" unicode="Th" horiz-adv-x="1010" 
d="M9 697h604q9 0 9 -9v-235q60 66 154 66q64 0 99.5 -17.5t55 -69t19.5 -147.5v-276q0 -9 -9 -9h-47q-9 0 -9 9v263q0 70 -3.5 103.5t-20 54t-39.5 24t-73 3.5q-67 0 -127 -33v-415q0 -9 -9 -9h-47q-9 0 -9 9v628h-272v-628q0 -9 -9 -9h-53q-9 0 -9 9v628h-205q-9 0 -9 9
v42q0 9 9 9z" />
    <glyph glyph-name=".notdef" horiz-adv-x="500" 
d="M0 0v697h500v-697h-500zM250 394l170 253h-340zM280 349l170 -254v507zM80 50h340l-170 254zM50 602v-507l170 254z" />
    <glyph glyph-name=".null" horiz-adv-x="0" 
 />
    <glyph glyph-name="nonmarkingreturn" horiz-adv-x="333" 
 />
    <glyph glyph-name="space" unicode=" " horiz-adv-x="286" 
 />
    <glyph glyph-name="exclam" unicode="!" horiz-adv-x="331" 
d="M164 90q31 0 39.5 -8.5t8.5 -37.5q0 -32 -9 -41.5t-39 -9.5q-28 0 -37 9.5t-9 41.5q0 29 8.5 37.5t37.5 8.5zM204 705l-10 -504q0 -9 -9 -9h-40q-9 0 -9 9l-10 504q0 9 9 9h60q9 0 9 -9z" />
    <glyph glyph-name="quotedbl" unicode="&#x22;" horiz-adv-x="309" 
d="M123 688l-12 -212q0 -9 -9 -9h-33q-9 0 -9 9l-10 212q0 9 9 9h55q9 0 9 -9zM259 688l-12 -212q0 -9 -9 -9h-33q-9 0 -9 9l-10 212q0 9 9 9h55q9 0 9 -9z" />
    <glyph glyph-name="numbersign" unicode="#" horiz-adv-x="554" 
d="M522 208h-108v-199q0 -9 -9 -9h-44q-9 0 -9 9v199h-147v-199q0 -9 -9 -9h-44q-9 0 -9 9v199h-111q-9 0 -9 9v37q0 9 9 9h111v187h-111q-9 0 -9 9v37q0 9 9 9h111v200q0 9 9 9h44q9 0 9 -9v-200h147v200q0 9 9 9h44q9 0 9 -9v-200h108q9 0 9 -9v-37q0 -9 -9 -9h-108v-187
h108q9 0 9 -9v-37q0 -9 -9 -9zM205 450v-187h147v187h-147z" />
    <glyph glyph-name="dollar" unicode="$" horiz-adv-x="554" 
d="M303 2v-108q0 -9 -9 -9h-37q-9 0 -9 9v106q-87 0 -165 24q-8 2 -5 12l12 41q2 9 10 6q64 -23 148 -23v271q-106 13 -145.5 49t-39.5 122q0 95 43.5 140t141.5 53v98q0 9 9 9h37q9 0 9 -9v-96q82 -1 163 -24q8 -2 5 -12l-13 -41q-2 -8 -9 -6q-64 21 -146 23v-258
q112 -13 153.5 -53t41.5 -131q0 -93 -48 -139t-147 -54zM429 194q0 68 -23.5 94.5t-102.5 36.5v-264q75 6 100.5 34.5t25.5 98.5zM132 504q0 -65 21.5 -87t94.5 -32v250q-74 -5 -95 -32t-21 -99z" />
    <glyph glyph-name="percent" unicode="%" horiz-adv-x="1003" 
d="M220 265q-94 0 -132 49.5t-38 179.5q0 128 37.5 174t132.5 46q96 0 133.5 -46t37.5 -174q0 -130 -38 -179.5t-133 -49.5zM219 662q-42 0 -61.5 -11.5t-28 -46t-8.5 -110.5q0 -106 19.5 -140.5t78.5 -34.5q61 0 81 34t20 141q0 76 -9 110.5t-28.5 46t-63.5 11.5zM784 697
l-517 -735q-6 -9 -13 -2l-38 26q-2 2 -5 3t-1 3l516 736q8 6 13 2l43 -20q8 -6 2 -13zM782 -14q-94 0 -132 49.5t-38 179.5q0 128 37.5 174t132.5 46q96 0 133.5 -46t37.5 -174q0 -130 -38 -179.5t-133 -49.5zM781 383q-42 0 -61.5 -11.5t-28 -46t-8.5 -110.5
q0 -106 19.5 -140.5t78.5 -34.5q61 0 81 34t20 141q0 76 -9 110.5t-28.5 46t-63.5 11.5z" />
    <glyph glyph-name="ampersand" unicode="&#x26;" horiz-adv-x="649" 
d="M340 714q84 0 154 -23q8 -3 5 -13l-13 -43q-2 -9 -10 -6q-58 23 -135 23q-86 0 -108.5 -17.5t-22.5 -85.5q0 -79 49 -138l180 -187l131 194q6 8 13 2l36 -27q7 -5 2 -13l-140 -200l146 -150q5 -8 -2 -13l-36 -30q-7 -6 -13 2l-132 137l-53 -75q-26 -37 -57.5 -51
t-89.5 -14q-95 0 -139.5 45.5t-44.5 155.5q0 86 29.5 132.5t106.5 69.5q-32 42 -46 77.5t-14 80.5q0 167 204 167zM225 354q-53 -19 -70.5 -49.5t-17.5 -104.5q0 -99 19 -125.5t87 -26.5q44 0 66.5 9t36.5 30l56 83z" />
    <glyph glyph-name="quotesingle" unicode="'" horiz-adv-x="173" 
d="M123 688l-12 -212q0 -9 -9 -9h-33q-9 0 -9 9l-10 212q0 9 9 9h55q9 0 9 -9z" />
    <glyph glyph-name="parenleft" unicode="(" horiz-adv-x="300" 
d="M139 249q0 -202 44 -313.5t110 -140.5q6 -3 3 -10l-24 -36q-4 -8 -14 -2q-190 109 -190 502t190 502q10 6 14 -2l24 -36q3 -7 -3 -10q-66 -29 -110 -140.5t-44 -313.5z" />
    <glyph glyph-name="parenright" unicode=")" horiz-adv-x="299" 
d="M160 249q0 202 -44 313.5t-110 140.5q-6 3 -3 10l24 36q4 8 14 2q190 -109 190 -502t-190 -502q-10 -6 -14 2l-24 36q-3 7 3 10q66 29 110 140.5t44 313.5z" />
    <glyph glyph-name="asterisk" unicode="*" 
d="M319 682l-64 -111h128q8 0 8 -7v-38q0 -7 -8 -7h-128l64 -111q5 -7 -2 -10l-32 -19q-6 -3 -11 3l-64 110l-63 -110q-4 -7 -10 -3l-33 19q-6 4 -3 10l63 111h-127q-7 0 -7 7v38q0 7 7 7h128l-64 111q-4 5 2 9l33 19q6 4 10 -2l63 -111l64 111q5 6 11 3l32 -18q6 -3 3 -11z
" />
    <glyph glyph-name="plus" unicode="+" horiz-adv-x="544" 
d="M242 65v180h-180q-9 0 -9 9v43q0 9 9 9h180v179q0 9 9 9h43q9 0 9 -9v-179h179q9 0 9 -9v-43q0 -9 -9 -9h-179v-180q0 -9 -9 -9h-43q-9 0 -9 9z" />
    <glyph glyph-name="comma" unicode="," horiz-adv-x="256" 
d="M172 67l-53 -195q-4 -11 -12 -11h-26q-10 0 -8 11l26 206q2 11 14 11l48 -8q6 0 9.5 -4.5t1.5 -9.5z" />
    <glyph glyph-name="hyphen" unicode="-" horiz-adv-x="324" 
d="M262 245h-200q-9 0 -9 9v43q0 9 9 9h200q9 0 9 -9v-43q0 -9 -9 -9z" />
    <glyph glyph-name="period" unicode="." horiz-adv-x="256" 
d="M127 90q31 0 39.5 -8.5t8.5 -37.5q0 -32 -9 -41.5t-39 -9.5q-28 0 -37 9.5t-9 41.5q0 29 8.5 37.5t37.5 8.5z" />
    <glyph glyph-name="slash" unicode="/" horiz-adv-x="459" 
d="M458 713l-398 -806q-4 -10 -12 -4l-42 20q-9 5 -4 12l397 807q5 7 12 4l43 -21q8 -4 4 -12z" />
    <glyph glyph-name="zero" unicode="0" horiz-adv-x="554" 
d="M277 -14q-126 0 -176.5 80.5t-50.5 291.5q0 141 23 218t70.5 107.5t133.5 30.5q87 0 134.5 -30.5t70 -107t22.5 -218.5q0 -212 -50 -292t-177 -80zM276 656q-49 0 -76.5 -10t-46 -43.5t-24.5 -89.5t-6 -155q0 -184 30.5 -247t122.5 -63q94 0 124.5 62.5t30.5 247.5
q0 131 -13 192.5t-44 83.5t-98 22z" />
    <glyph glyph-name="one" unicode="1" horiz-adv-x="554" 
d="M113 596l170 96q9 5 20 5h52q9 0 9 -9v-679q0 -9 -9 -9h-53q-9 0 -9 9v622l-151 -86q-7 -4 -13 3l-19 36q-6 8 3 12z" />
    <glyph glyph-name="two" unicode="2" horiz-adv-x="554" 
d="M256 652q-85 0 -155 -25q-8 -3 -10 6l-13 43q-3 10 5 13q84 25 174 25q123 0 176 -40.5t53 -144.5q0 -75 -11.5 -115t-46.5 -84.5t-122 -123.5l-160 -146h336q9 0 9 -9v-42q0 -9 -9 -9h-421q-9 0 -9 9v35q0 12 7 19l202 189l60.5 57t39.5 42t29 37.5t14 36t8.5 45.5
t0.5 57q0 78 -28.5 101.5t-128.5 23.5z" />
    <glyph glyph-name="three" unicode="3" horiz-adv-x="554" 
d="M241 340h-80q-9 0 -9 9v42q0 9 9 9h80q97 0 125 26.5t28 108.5q0 75 -27.5 96.5t-132.5 21.5q-90 0 -164 -23q-8 -3 -10 6l-10 42q-3 10 5 13q78 23 179 23q135 0 184.5 -40.5t49.5 -129.5q0 -155 -128 -169q142 -8 142 -183q0 -116 -56 -161t-197 -45q-90 0 -174 25
q-8 3 -5 13l13 43q2 9 10 6q70 -25 155 -25q62 0 94.5 4.5t52.5 22t25 43t5 76.5q0 94 -28 120t-136 26z" />
    <glyph glyph-name="four" unicode="4" horiz-adv-x="554" 
d="M439 688v-446h92q9 0 9 -9v-37q0 -9 -9 -9h-92v-178q0 -9 -9 -9h-53q-9 0 -9 9v178h-330q-9 0 -9 9v37q0 8 7 18l294 437q7 9 17 9h83q9 0 9 -9zM101 242h267v358l3 51l-28 -51z" />
    <glyph glyph-name="five" unicode="5" horiz-adv-x="554" 
d="M455 637h-306v-237h99q138 0 191 -42t53 -154q0 -121 -61.5 -169.5t-199.5 -48.5q-80 0 -164 25q-8 3 -5 13l13 43q2 9 10 6q73 -26 146 -26q66 0 100 4.5t54.5 23t25 43.5t4.5 77q0 36 -1.5 56.5t-8 39t-16 26.5t-30.5 14t-45.5 7.5t-65.5 1.5h-151q-18 0 -18 15v329
q0 5 4.5 9t9.5 4h362q9 0 9 -9v-42q0 -9 -9 -9z" />
    <glyph glyph-name="six" unicode="6" horiz-adv-x="554" 
d="M310 421q114 0 161.5 -51t47.5 -166q0 -116 -55 -167t-184 -51q-73 0 -116.5 16.5t-70 61t-35.5 111t-9 178.5q0 145 23 221.5t75.5 108t151.5 31.5t177 -23q8 -3 5 -13l-10 -42q-2 -9 -10 -6q-74 23 -162 23q-107 0 -141 -49t-34 -203v-46q63 66 186 66zM124 326
q1 -67 3.5 -111.5t11 -77t18 -49.5t29.5 -26.5t39.5 -12t54.5 -2.5q106 0 134 26.5t28 121.5q0 109 -26 137t-128 28t-164 -34z" />
    <glyph glyph-name="seven" unicode="7" horiz-adv-x="557" 
d="M143 22l287 615h-383q-10 0 -10 10v40q0 10 10 10h460q10 0 10 -10v-14q0 -10 -6 -22l-298 -649q-3 -10 -13 -6l-51 13q-9 3 -6 13z" />
    <glyph glyph-name="eight" unicode="8" horiz-adv-x="554" 
d="M277 47q106 0 134 23.5t28 119.5t-30 126t-135 30q-100 0 -129 -30.5t-29 -125.5q0 -52 4.5 -78t24 -42t47.5 -19.5t85 -3.5zM280 402q96 0 124 27.5t28 116.5q0 71 -26 89t-129 18t-129 -18t-26 -89q0 -89 29 -116.5t129 -27.5zM277 -14q-125 0 -181.5 45t-56.5 155
q0 87 35 135t128 54q-91 8 -122.5 51.5t-31.5 122.5q0 83 54.5 124t174.5 41q121 0 175.5 -41t54.5 -124q0 -80 -30.5 -122.5t-123.5 -49.5q95 -7 128.5 -54.5t33.5 -136.5q0 -110 -56.5 -155t-181.5 -45z" />
    <glyph glyph-name="nine" unicode="9" horiz-adv-x="554" 
d="M440 377q3 24 3 95q0 52 -4 83t-12.5 52t-29 30t-45 12.5t-69.5 3.5q-106 0 -134 -26.5t-28 -121.5q0 -57 4 -85t21.5 -47.5t46.5 -24.5t85 -5q100 0 162 34zM171 23l203 221q55 61 63 104q-63 -66 -181 -66q-115 0 -163.5 50t-48.5 164q0 116 55 167t184 51
q136 0 185 -56.5t49 -184.5q0 -176 -91 -276l-195 -211q-6 -8 -13 -2l-46 26q-7 5 -1 13z" />
    <glyph glyph-name="colon" unicode=":" horiz-adv-x="256" 
d="M127 90q31 0 39.5 -8.5t8.5 -37.5q0 -32 -9 -41.5t-39 -9.5q-28 0 -37 9.5t-9 41.5q0 29 8.5 37.5t37.5 8.5zM127 519q31 0 39.5 -8.5t8.5 -37.5q0 -32 -9 -41.5t-39 -9.5q-28 0 -37 9.5t-9 41.5q0 29 8.5 37.5t37.5 8.5z" />
    <glyph glyph-name="semicolon" unicode=";" horiz-adv-x="256" 
d="M127 519q31 0 39.5 -8.5t8.5 -37.5q0 -32 -9 -41.5t-39 -9.5q-28 0 -37 9.5t-9 41.5q0 29 8.5 37.5t37.5 8.5zM172 67l-53 -195q-4 -11 -12 -11h-26q-10 0 -8 11l26 206q2 11 14 11l48 -8q6 0 9.5 -4.5t1.5 -9.5z" />
    <glyph glyph-name="less" unicode="&#x3c;" horiz-adv-x="500" 
d="M447 617l-314 -259l314 -261q8 -6 -1 -13l-26 -31q-7 -6 -13 2l-352 280q-5 4 -5 12v21q0 7 5 11l352 280q6 8 13 2l26 -31q9 -7 1 -13z" />
    <glyph glyph-name="equal" unicode="=" horiz-adv-x="598" 
d="M509 185h-420q-9 0 -9 9v43q0 9 9 9h420q9 0 9 -9v-43q0 -9 -9 -9zM509 409h-420q-9 0 -9 9v43q0 9 9 9h420q9 0 9 -9v-43q0 -9 -9 -9z" />
    <glyph glyph-name="greater" unicode="&#x3e;" horiz-adv-x="500" 
d="M53 97l314 259l-314 261q-8 6 1 13l26 31q7 6 13 -2l352 -280q5 -4 5 -12v-21q0 -7 -5 -11l-352 -280q-6 -8 -13 -2l-26 31q-9 7 -1 13z" />
    <glyph glyph-name="question" unicode="?" horiz-adv-x="414" 
d="M178 90q31 0 39.5 -8.5t8.5 -37.5q0 -32 -9 -41.5t-39 -9.5q-28 0 -37 9.5t-9 41.5q0 29 8.5 37.5t37.5 8.5zM311 524q0 84 -20.5 105t-97.5 21q-69 0 -129 -23q-8 -3 -10 6l-12 47q-3 10 5 13q75 21 143 21q103 0 149 -42t46 -148q0 -72 -22 -120.5t-71 -101.5
l-106 -111q-6 -8 -13 -2l-36 29q-7 5 -1 13l107 115q49 53 58.5 78t9.5 100z" />
    <glyph glyph-name="at" unicode="@" horiz-adv-x="850" 
d="M456 330q-80 0 -103.5 -19.5t-23.5 -80.5t23.5 -80.5t103.5 -19.5q67 0 127 33v134q-60 33 -127 33zM820 252q0 -86 -9.5 -148.5t-31.5 -106.5t-51 -71.5t-76 -42.5t-97.5 -20.5t-124.5 -5.5q-108 0 -174 14.5t-111.5 56t-63.5 112.5t-18 186q0 83 7.5 143.5t25.5 104
t42.5 71t63.5 43t83 21.5t107 6q143 0 199.5 -49.5t56.5 -173.5v-301q0 -9 -9 -9h-47q-9 0 -9 9v43q-17 -24 -58.5 -45t-78.5 -21q-107 0 -146.5 37.5t-39.5 124.5t39.5 124.5t146.5 37.5q37 0 78.5 -21t58.5 -45v66q0 100 -36.5 131.5t-153.5 31.5q-58 0 -92.5 -3t-67 -15
t-48.5 -32.5t-29 -59t-17 -90t-4 -129.5q0 -72 4 -118.5t18 -83t32.5 -55.5t55 -31t78 -15.5t108.5 -3.5q75 0 121.5 4t86 17.5t60 34t35 60.5t19 89.5t4.5 127.5q0 9 9 9h45q9 0 9 -9z" />
    <glyph glyph-name="A" unicode="A" horiz-adv-x="565" 
d="M419 210h-277l-68 -213q-2 -7 -11 -5l-46 12q-10 2 -6 11l223 673q4 9 10 9h78q6 0 10 -9l222 -673q4 -9 -6 -11l-48 -12q-9 -2 -11 5zM401 267l-101 310l-20 79l-20 -79l-100 -310h241z" />
    <glyph glyph-name="B" unicode="B" horiz-adv-x="617" 
d="M161 340v-280h221q58 0 78 26t20 110q0 85 -22 114.5t-80 29.5h-217zM383 0h-284q-9 0 -9 9v679q0 9 9 9h273q95 0 130.5 -45t35.5 -122q0 -72 -26.5 -111.5t-111.5 -47.5q91 -4 124 -50t33 -126q0 -97 -44.5 -146t-129.5 -49zM161 637v-237h211q54 0 73 25.5t19 95.5
q0 74 -18 95t-74 21h-211z" />
    <glyph glyph-name="C" unicode="C" horiz-adv-x="552" 
d="M353 652q-48 0 -77.5 -3.5t-55.5 -15t-39.5 -30t-23.5 -53.5t-13 -80.5t-3 -114.5q0 -71 3 -118t13 -83t23.5 -55.5t39.5 -31t55.5 -15t77.5 -3.5q88 0 155 24q8 3 10 -6l13 -43q3 -10 -5 -13q-84 -25 -174 -25q-82 0 -133 15t-88 55.5t-52.5 112.5t-15.5 186
q0 110 15.5 180t52.5 110t88.5 54.5t132.5 14.5q90 0 174 -25q8 -3 5 -13l-13 -43q-2 -9 -10 -6q-70 25 -155 25z" />
    <glyph glyph-name="D" unicode="D" horiz-adv-x="640" 
d="M99 0q-9 0 -9 9v679q0 9 9 9h184q165 0 229.5 -73.5t64.5 -273.5t-64.5 -275t-229.5 -75h-184zM283 637h-122v-577h122q58 0 94 8t62 25t38.5 52.5t17.5 82t5 122.5q0 67 -3 109.5t-12.5 77t-23 52.5t-40 29.5t-57.5 15t-81 3.5z" />
    <glyph glyph-name="E" unicode="E" horiz-adv-x="527" 
d="M488 0h-389q-9 0 -9 9v679q0 9 9 9h389q9 0 9 -9v-42q0 -9 -9 -9h-327v-237h267q9 0 9 -9v-42q0 -9 -9 -9h-267v-280h327q9 0 9 -9v-42q0 -9 -9 -9z" />
    <glyph glyph-name="F" unicode="F" horiz-adv-x="512" 
d="M161 637v-267h267q9 0 9 -9v-42q0 -9 -9 -9h-267v-301q0 -9 -9 -9h-53q-9 0 -9 9v679q0 9 9 9h389q9 0 9 -9v-42q0 -9 -9 -9h-327z" />
    <glyph glyph-name="G" unicode="G" horiz-adv-x="632" 
d="M551 358v-333q0 -10 -9 -14q-84 -25 -190 -25q-82 0 -133 15t-88 55.5t-52.5 112.5t-15.5 186q0 110 15.5 180t52.5 110t88.5 54.5t132.5 14.5q110 0 194 -25q8 -3 5 -13l-13 -43q-2 -9 -10 -6q-70 25 -175 25q-48 0 -77.5 -3.5t-55.5 -15t-39.5 -30t-23.5 -53.5
t-13 -80.5t-3 -114.5q0 -86 6 -138t17.5 -88t38.5 -52.5t60 -22.5t90 -6q74 0 127 11v299q0 9 9 9h53q9 0 9 -9z" />
    <glyph glyph-name="H" unicode="H" horiz-adv-x="650" 
d="M560 688v-679q0 -9 -9 -9h-53q-9 0 -9 9v332h-328v-332q0 -9 -9 -9h-53q-9 0 -9 9v679q0 9 9 9h53q9 0 9 -9v-287h328v287q0 9 9 9h53q9 0 9 -9z" />
    <glyph glyph-name="I" unicode="I" horiz-adv-x="251" 
d="M161 688v-679q0 -9 -9 -9h-53q-9 0 -9 9v679q0 9 9 9h53q9 0 9 -9z" />
    <glyph glyph-name="J" unicode="J" horiz-adv-x="426" 
d="M265 192v496q0 9 9 9h53q9 0 9 -9v-496q0 -106 -50 -156t-137 -50q-75 0 -144 25q-8 3 -5 13l13 43q2 9 10 6q58 -24 125 -24q72 0 94.5 26.5t22.5 116.5z" />
    <glyph glyph-name="K" unicode="K" horiz-adv-x="560" 
d="M514 667l-266 -300l279 -337q5 -8 -2 -13l-40 -30q-8 -6 -14 2l-308 373l296 346q6 8 14 2l39 -29q6 -7 2 -14zM161 688v-679q0 -9 -9 -9h-53q-9 0 -9 9v679q0 9 9 9h53q9 0 9 -9z" />
    <glyph glyph-name="L" unicode="L" horiz-adv-x="467" 
d="M161 60h297q9 0 9 -9v-42q0 -9 -9 -9h-359q-9 0 -9 9v679q0 9 9 9h53q9 0 9 -9v-628z" />
    <glyph glyph-name="M" unicode="M" horiz-adv-x="762" 
d="M402 182l157 506q3 9 15 9h88q6 0 10 -9v-679q0 -9 -9 -9h-53q-9 0 -9 9v528l4 90l-23 -89l-157 -476q-4 -9 -10 -9h-66q-6 0 -10 9l-159 476l-23 89l4 -90v-528q0 -9 -9 -9h-53q-9 0 -9 9v679q4 9 10 9h88q12 0 15 -9l165 -506l17 -69z" />
    <glyph glyph-name="N" unicode="N" horiz-adv-x="651" 
d="M187 688l274 -532l33 -84l-4 88v528q0 9 9 9h53q9 0 9 -9v-679q-4 -9 -10 -9h-72q-10 0 -15 9l-274 532l-34 76l5 -80v-528q0 -9 -9 -9h-53q-9 0 -9 9v679q4 9 10 9h72q10 0 15 -9z" />
    <glyph glyph-name="O" unicode="O" horiz-adv-x="664" 
d="M333 52q48 0 76 5.5t52.5 22t36.5 50.5t18.5 87.5t6.5 137.5q0 81 -6.5 133t-18.5 85t-36.5 49t-52.5 21.5t-76 5.5t-76.5 -5.5t-53.5 -21.5t-37 -49t-18.5 -85t-6.5 -133q0 -104 8.5 -163.5t33.5 -91t57.5 -40t92.5 -8.5zM332 -14q-70 0 -117 15t-83 55t-52.5 113.5
t-16.5 185.5q0 109 16.5 180t52.5 110t83 54t117 15t117 -15t83 -54t52.5 -110t16.5 -180q0 -112 -16.5 -185.5t-52.5 -113.5t-83 -55t-117 -15z" />
    <glyph glyph-name="P" unicode="P" horiz-adv-x="581" 
d="M161 637v-280h215q56 0 77 28.5t21 113.5q0 82 -20.5 110t-77.5 28h-215zM161 297v-288q0 -9 -9 -9h-53q-9 0 -9 9v679q0 9 9 9h277q85 0 130 -50.5t45 -147.5q0 -99 -40 -150.5t-135 -51.5h-215z" />
    <glyph glyph-name="Q" unicode="Q" horiz-adv-x="664" 
d="M488 -204l-159 190q-69 0 -115.5 15.5t-82 55.5t-52 113t-16.5 185q0 109 16.5 180t52.5 110t83 54t117 15t117 -15t83 -54t52.5 -110t16.5 -180q0 -184 -46 -265t-143 -97l133 -155q5 -8 -2 -13l-42 -31q-7 -6 -13 2zM333 52q48 0 76 5.5t52.5 22t36.5 50.5t18.5 87.5
t6.5 137.5q0 81 -6.5 133t-18.5 85t-36.5 49t-52.5 21.5t-76 5.5t-76.5 -5.5t-53.5 -21.5t-37 -49t-18.5 -85t-6.5 -133q0 -104 8.5 -163.5t33.5 -91t57.5 -40t92.5 -8.5z" />
    <glyph glyph-name="R" unicode="R" horiz-adv-x="617" 
d="M161 297v-288q0 -9 -9 -9h-53q-9 0 -9 9v679q0 9 9 9h277q85 0 130 -50.5t45 -147.5q0 -189 -155 -200l174 -274q3 -8 -4 -13l-43 -24q-10 -6 -14 4l-190 305h-158zM161 637v-280h215q57 0 77.5 26.5t20.5 115.5q0 85 -20.5 111.5t-77.5 26.5h-215z" />
    <glyph glyph-name="S" unicode="S" horiz-adv-x="583" 
d="M262 48q112 0 146.5 29t34.5 112q0 76 -27.5 100.5t-128.5 34.5q-128 12 -175.5 51t-47.5 135q0 111 57 157.5t186 46.5q94 0 178 -25q8 -3 5 -13l-13 -43q-2 -9 -10 -6q-70 25 -159 25q-58 0 -91 -6t-50 -24.5t-21.5 -41.5t-4.5 -68q0 -73 25 -91t132 -29
q126 -13 173.5 -58t47.5 -144q0 -109 -62.5 -156.5t-193.5 -47.5q-94 0 -178 25q-8 3 -5 13l13 43q2 9 10 6q70 -25 159 -25z" />
    <glyph glyph-name="T" unicode="T" horiz-adv-x="499" 
d="M490 697q9 0 9 -9v-42q0 -9 -9 -9h-205v-628q0 -9 -9 -9h-53q-9 0 -9 9v628h-205q-9 0 -9 9v42q0 9 9 9h481z" />
    <glyph glyph-name="U" unicode="U" horiz-adv-x="638" 
d="M487 247v441q0 9 9 9h53q9 0 9 -9v-441q0 -141 -54 -201t-185 -60t-185 60t-54 201v441q0 9 9 9h53q9 0 9 -9v-441q0 -67 5.5 -102t25 -58t50 -29t88.5 -6q108 0 137.5 34.5t29.5 160.5z" />
    <glyph glyph-name="V" unicode="V" horiz-adv-x="565" 
d="M236 9l-225 673q-4 9 6 11l48 12q9 2 11 -5l192 -580l17 -69l17 69l189 580q2 7 11 5l46 -12q10 -2 6 -11l-226 -673q-4 -9 -10 -9h-72q-6 0 -10 9z" />
    <glyph glyph-name="W" unicode="W" horiz-adv-x="860" 
d="M412 561l-146 -552q-2 -9 -10 -9h-72q-6 0 -10 9l-153 673q-4 9 6 11l48 12q9 2 11 -5l120 -567l17 -80l17 80l146 555q4 9 10 9h72q6 0 10 -9l137 -555l17 -80l17 80l127 567q2 7 11 5l46 -12q10 -2 6 -11l-164 -673q-4 -9 -10 -9h-72q-6 0 -10 9l-137 552l-17 80z" />
    <glyph glyph-name="X" unicode="X" horiz-adv-x="569" 
d="M24 28l223 325l-217 317q-6 8 2 14l41 25q2 2 6.5 1.5t6.5 -2.5l175 -261l23 -45l23 45l176 261q2 2 6.5 2.5t6.5 -1.5l41 -25q8 -6 2 -14l-218 -317l224 -325q5 -9 -2 -14l-40 -25q-2 -2 -7 -1.5t-7 2.5l-177 261l-28 52l-27 -52l-177 -261q-7 -7 -13 -1l-41 25
q-7 5 -2 14z" />
    <glyph glyph-name="Y" unicode="Y" horiz-adv-x="545" 
d="M238 341l-226 329q-5 9 2 14l40 25q2 2 7 1.5t7 -2.5l178 -264l28 -54l27 54l176 264q7 7 13 1l41 -25q7 -5 2 -14l-224 -329v-332q0 -9 -9 -9h-53q-9 0 -9 9v332z" />
    <glyph glyph-name="Z" unicode="Z" horiz-adv-x="557" 
d="M28 42l408 595h-390q-10 0 -10 10v40q0 10 10 10h480q10 0 10 -10v-11q0 -9 -7 -21l-406 -595h404q10 0 10 -10v-40q0 -10 -10 -10h-497q-10 0 -10 10v11q0 11 8 21z" />
    <glyph glyph-name="bracketleft" unicode="[" horiz-adv-x="345" 
d="M90 -251v997q0 9 9 9h217q9 0 9 -9v-42q0 -9 -9 -9h-155v-895h155q9 0 9 -9v-42q0 -9 -9 -9h-217q-9 0 -9 9z" />
    <glyph glyph-name="backslash" unicode="\" horiz-adv-x="427" 
d="M349 11l-347 673q-6 13 6 13h54q10 0 16 -11l347 -673q2 -5 0.5 -9t-6.5 -4h-54q-11 0 -16 11z" />
    <glyph glyph-name="bracketright" unicode="]" horiz-adv-x="345" 
d="M255 746v-997q0 -9 -9 -9h-217q-9 0 -9 9v42q0 9 9 9h155v895h-155q-9 0 -9 9v42q0 9 9 9h217q9 0 9 -9z" />
    <glyph glyph-name="asciicircum" unicode="^" horiz-adv-x="479" 
d="M286 688l162 -397q4 -9 -6 -11l-46 -14q-9 -2 -11 5l-131 323l-17 56l-17 -56l-128 -323q-2 -7 -11 -5l-44 14q-10 2 -6 11l163 397q4 9 10 9h72q6 0 10 -9z" />
    <glyph glyph-name="underscore" unicode="_" horiz-adv-x="438" 
d="M429 -135h-420q-9 0 -9 9v43q0 9 9 9h420q9 0 9 -9v-43q0 -9 -9 -9z" />
    <glyph glyph-name="grave" unicode="`" horiz-adv-x="494" 
d="M254 561l-119 112q-4 3 -3.5 8.5t4.5 6.5l40 21q10 4 17 -3l104 -115q2 -3 2 -7.5t-4 -5.5l-27 -18q-8 -3 -14 1z" />
    <glyph glyph-name="a" unicode="a" horiz-adv-x="522" 
d="M256 248q-80 0 -103.5 -19.5t-23.5 -80.5t23.5 -80.5t103.5 -19.5q67 0 127 33v134q-60 33 -127 33zM252 519q109 0 152.5 -44t43.5 -165v-248l14 -46q3 -8 -6 -12l-46 -11q-9 -4 -11 5l-16 54q-17 -24 -58.5 -45t-78.5 -21q-107 0 -146.5 37.5t-39.5 124.5t39.5 124.5
t146.5 37.5q37 0 78.5 -21t58.5 -45v66q0 91 -25.5 119t-105.5 28q-73 0 -131 -21q-8 -3 -10 6l-12 42q-3 10 5 13q69 22 148 22z" />
    <glyph glyph-name="b" unicode="b" horiz-adv-x="535" 
d="M135 424v-343q60 -33 127 -33q39 0 61.5 4t40 14.5t25 35t11 58.5t3.5 92q0 49 -2 80t-8 55.5t-14.5 37t-26.5 20.5t-37.5 10t-52.5 2q-67 0 -127 -33zM70 9v696q0 9 9 9h47q9 0 9 -9v-252q23 29 65 47.5t82 18.5q105 0 149 -58t44 -209t-44 -208.5t-149 -57.5
q-40 0 -82 18.5t-65 47.5v-43q0 -9 -9 -9h-47q-9 0 -9 9z" />
    <glyph glyph-name="c" unicode="c" horiz-adv-x="439" 
d="M272 48q68 0 120 21q8 3 10 -6l12 -43q3 -10 -5 -13q-57 -21 -137 -21q-119 0 -165.5 57.5t-46.5 211.5q0 152 46.5 208t165.5 56q80 0 137 -21q8 -3 5 -13l-12 -43q-2 -9 -10 -6q-52 21 -120 21q-48 0 -72.5 -6t-41.5 -28.5t-21.5 -60.5t-4.5 -109q0 -60 4 -95t11 -59
t25.5 -34t39.5 -13.5t60 -3.5z" />
    <glyph glyph-name="d" unicode="d" horiz-adv-x="535" 
d="M400 81v343q-60 33 -127 33q-33 0 -52.5 -2t-37.5 -10t-26.5 -20.5t-14.5 -37t-8 -55.5t-2 -80q0 -58 3.5 -92t11 -58.5t25 -35t40 -14.5t61.5 -4q67 0 127 33zM465 705v-696q0 -9 -9 -9h-47q-9 0 -9 9v43q-23 -29 -65 -47.5t-82 -18.5q-105 0 -149 57.5t-44 208.5
t44 209t149 58q40 0 82 -18.5t65 -47.5v252q0 9 9 9h47q9 0 9 -9z" />
    <glyph glyph-name="e" unicode="e" horiz-adv-x="504" 
d="M440 253h-311q0 -50 2 -81.5t9.5 -56t16.5 -36.5t28 -19.5t39.5 -9.5t56.5 -2q66 0 124 24q8 3 10 -6l12 -43q3 -10 -5 -13q-61 -24 -141 -24q-126 0 -173.5 57t-47.5 212q0 149 47 206.5t157 57.5q74 0 113 -20t58 -74.5t19 -158.5q0 -13 -14 -13zM130 307h259
q-3 98 -26 125t-102 27q-78 0 -102.5 -28t-28.5 -124z" />
    <glyph glyph-name="f" unicode="f" horiz-adv-x="313" 
d="M89 450h-60q-9 0 -9 9v37q0 9 9 9h60v47q0 170 144 170q47 0 97 -10q8 -3 5 -13l-12 -43q-2 -9 -10 -6q-43 12 -80 12q-52 0 -65.5 -19t-13.5 -91v-47h151q9 0 9 -9v-37q0 -9 -9 -9h-151v-441q0 -9 -9 -9h-47q-9 0 -9 9v441z" />
    <glyph glyph-name="g" unicode="g" horiz-adv-x="539" 
d="M495 450h-102q64 -57 64 -122q0 -82 -50.5 -119t-154.5 -37q-64 0 -102 11q-5 -20 -5 -36q0 -23 6 -32.5t33.5 -15.5t89.5 -6q124 0 172.5 -28t48.5 -111q0 -84 -52.5 -120.5t-178.5 -36.5q-113 0 -164.5 30t-51.5 100q0 77 82 123q-30 11 -39.5 27.5t-9.5 41.5
q0 39 50 71q-42 16 -60 51.5t-18 95.5q0 94 49.5 131t149.5 37h243q9 0 9 -9v-37q0 -9 -9 -9zM386 339q0 65 -23 111h-108q-83 0 -107.5 -20.5t-24.5 -87.5q0 -68 23.5 -89.5t105.5 -21.5q87 0 110.5 20.5t23.5 87.5zM274 35q-85 0 -129 11q-23 -44 -23 -101q0 -50 30 -68
t118 -18q87 0 119.5 19.5t32.5 66.5q0 40 -9 57t-39.5 25t-99.5 8z" />
    <glyph glyph-name="h" unicode="h" horiz-adv-x="523" 
d="M463 285v-276q0 -9 -9 -9h-47q-9 0 -9 9v263q0 68 -3.5 100.5t-20 52.5t-39.5 23.5t-73 3.5q-76 0 -127 -28v-415q0 -9 -9 -9h-47q-9 0 -9 9v696q0 9 9 9h47q9 0 9 -9v-252q60 66 154 66q64 0 99.5 -17.5t55 -69t19.5 -147.5z" />
    <glyph glyph-name="i" unicode="i" horiz-adv-x="206" 
d="M103 695q25 0 33 -7t8 -31q0 -27 -8.5 -34.5t-32.5 -7.5q-25 0 -33 7.5t-8 34.5q0 25 8 31.5t33 6.5zM135 496v-487q0 -9 -9 -9h-47q-9 0 -9 9v487q0 9 9 9h47q9 0 9 -9z" />
    <glyph glyph-name="j" unicode="j" horiz-adv-x="206" 
d="M103 695q25 0 33 -7t8 -31q0 -27 -8.5 -34.5t-32.5 -7.5q-25 0 -33 7.5t-8 34.5q0 25 8 31.5t33 6.5zM-24 -140q61 8 77.5 27t16.5 85v524q0 9 9 9h47q9 0 9 -9v-524q0 -81 -41.5 -128t-105.5 -47q-10 0 -11 10l-7 43q-3 8 6 10z" />
    <glyph glyph-name="k" unicode="k" horiz-adv-x="441" 
d="M135 705v-437l222 250q6 8 13 2l36 -27q7 -5 2 -13l-194 -210l215 -242q5 -8 -2 -13l-38 -28q-7 -6 -13 2l-241 277v-257q0 -9 -9 -9h-47q-9 0 -9 9v696q0 9 9 9h47q9 0 9 -9z" />
    <glyph glyph-name="l" unicode="l" horiz-adv-x="219" 
d="M70 89v616q0 9 9 9h47q9 0 9 -9v-623l24 -66q3 -8 -6 -12l-46 -11q-9 -4 -11 5l-22 62q-4 16 -4 29z" />
    <glyph glyph-name="m" unicode="m" horiz-adv-x="775" 
d="M70 9v487q0 9 9 9h47q9 0 9 -9v-43q60 66 136 66q51 0 83.5 -17t49.5 -60q75 77 157 77q54 0 85.5 -17t50 -67t18.5 -140v-286q0 -9 -9 -9h-47q-9 0 -9 9v273q0 61 -3.5 93t-15.5 50.5t-28.5 22.5t-50.5 4q-81 0 -139 -35q12 -46 12 -122v-286q0 -9 -9 -9h-47q-9 0 -9 9
v273q0 80 -8 114.5t-25 45t-59 10.5q-82 0 -133 -28v-415q0 -9 -9 -9h-47q-9 0 -9 9z" />
    <glyph glyph-name="n" unicode="n" horiz-adv-x="523" 
d="M135 496v-43q60 66 154 66q64 0 99.5 -17.5t55 -69t19.5 -147.5v-276q0 -9 -9 -9h-47q-9 0 -9 9v263q0 68 -3.5 100.5t-20 52.5t-39.5 23.5t-73 3.5q-76 0 -127 -28v-415q0 -9 -9 -9h-47q-9 0 -9 9v487q0 9 9 9h47q9 0 9 -9z" />
    <glyph glyph-name="o" unicode="o" horiz-adv-x="542" 
d="M271 457q-48 0 -72 -5.5t-41 -28.5t-21.5 -61t-4.5 -109q0 -60 3.5 -95t11 -59t25.5 -34t39 -13.5t60 -3.5t60 3.5t39 13.5t25.5 34t11 59t3.5 95q0 71 -4.5 109t-21.5 61t-41 28.5t-72 5.5zM271 -14q-119 0 -165 57.5t-46 211.5q0 152 46 208t165 56t165 -56t46 -208
q0 -154 -46 -211.5t-165 -57.5z" />
    <glyph glyph-name="p" unicode="p" horiz-adv-x="539" 
d="M135 424v-343q60 -33 127 -33q33 0 52.5 2t37.5 10t26.5 20.5t14.5 37t8 55.5t2 80q0 58 -3.5 92t-11 58.5t-25 35t-40 14.5t-61.5 4q-67 0 -127 -33zM70 -183v679q0 9 9 9h47q9 0 9 -9v-43q23 29 65 47.5t82 18.5q105 0 149 -57.5t44 -208.5t-44 -209t-149 -58
q-40 0 -82 18.5t-65 47.5v-235q0 -9 -9 -9h-47q-9 0 -9 9z" />
    <glyph glyph-name="q" unicode="q" horiz-adv-x="535" 
d="M400 81v343q-60 33 -127 33q-39 0 -61.5 -4t-40 -14.5t-25 -35t-11 -58.5t-3.5 -92q0 -49 2 -80t8 -55.5t14.5 -37t26.5 -20.5t37.5 -10t52.5 -2q67 0 127 33zM465 496v-679q0 -9 -9 -9h-47q-9 0 -9 9v235q-23 -29 -65 -47.5t-82 -18.5q-105 0 -149 58t-44 209t44 208.5
t149 57.5q40 0 82 -18.5t65 -47.5v43q0 9 9 9h47q9 0 9 -9z" />
    <glyph glyph-name="r" unicode="r" horiz-adv-x="350" 
d="M330 442q-31 11 -68 11q-55 0 -119 -29v-415q0 -9 -9 -9h-47q-9 0 -9 9v424l-18 55q-3 8 6 12l45 12q9 4 11 -5l16 -54q77 66 140 66q45 0 69 -10q9 -2 7 -11l-13 -49q-2 -11 -11 -7z" />
    <glyph glyph-name="s" unicode="s" horiz-adv-x="464" 
d="M64 7q-9 2 -5 13l12 43q2 9 10 6q67 -24 150 -24q66 0 87.5 19t21.5 79q0 44 -18.5 59.5t-89.5 25.5q-94 14 -135 45t-41 96q0 150 182 150q68 0 143 -21q8 -3 5 -13l-12 -43q-2 -9 -10 -6q-60 23 -129 23q-67 0 -87.5 -17.5t-20.5 -72.5q0 -42 19.5 -56.5t93.5 -24.5
q96 -12 133.5 -46t37.5 -98q0 -79 -43 -118.5t-140 -39.5q-88 0 -164 21z" />
    <glyph glyph-name="t" unicode="t" horiz-adv-x="374" 
d="M167 631v-126h157q9 0 9 -9v-37q0 -9 -9 -9h-157v-280q0 -81 14.5 -101t63.5 -20q43 0 77 12q8 2 10 -6l11 -38q4 -11 -5 -14q-37 -17 -96 -17q-80 0 -110 37t-30 146v281h-64q-9 0 -9 9v37q0 9 9 9h64v102q0 10 6 12l49 18q10 4 10 -6z" />
    <glyph glyph-name="u" unicode="u" horiz-adv-x="527" 
d="M453 62l14 -46q3 -8 -6 -12l-46 -11q-9 -4 -11 5l-16 54q-60 -66 -154 -66q-64 0 -99.5 17.5t-55 69t-19.5 147.5v276q0 9 9 9h47q9 0 9 -9v-263q0 -68 3.5 -100.5t20 -52.5t39.5 -23.5t73 -3.5q76 0 127 28v415q0 9 9 9h47q9 0 9 -9v-434z" />
    <glyph glyph-name="v" unicode="v" horiz-adv-x="461" 
d="M184 9l-162 479q-4 9 6 11l48 12q9 2 11 -5l129 -386l17 -69l17 69l126 386q2 7 11 5l46 -12q10 -2 6 -11l-163 -479q-4 -9 -10 -9h-72q-6 0 -10 9z" />
    <glyph glyph-name="w" unicode="w" horiz-adv-x="749" 
d="M412 496l108 -374l16 -71l15 71l103 384q2 7 11 5l46 -12q8 -2 6 -11l-138 -479q-4 -9 -10 -9h-69q-6 0 -10 9l-104 360l-13 69l-13 -69l-102 -360q-4 -9 -10 -9h-69q-6 0 -10 9l-137 479q-4 9 6 11l48 12q9 2 11 -5l108 -384l13 -71l15 71l104 374q2 9 10 9h55
q8 0 10 -9z" />
    <glyph glyph-name="x" unicode="x" horiz-adv-x="453" 
d="M30 24l160 232l-154 225q-6 7 2 13l39 23q2 2 6 1.5t6 -2.5l116 -173l21 -41l21 41l117 173q2 2 6 2.5t6 -1.5l39 -23q8 -6 2 -13l-155 -225l161 -232q6 -7 -2 -13l-39 -23q-2 -2 -6 -1.5t-6 2.5l-118 173l-26 48l-25 -48l-118 -173q-2 -2 -6 -2.5t-6 1.5l-39 23
q-8 6 -2 13z" />
    <glyph glyph-name="y" unicode="y" horiz-adv-x="461" 
d="M439 488l-190 -567q-42 -124 -144 -124q-10 0 -11 10l-7 43q-1 4 1 7t5 3q53 0 71.5 23.5t45.5 116.5h-12q-10 0 -13 8l-163 480q-4 9 6 11l48 12q9 2 11 -5l129 -386l15 -75l19 75l126 386q2 7 11 5l46 -12q10 -2 6 -11z" />
    <glyph glyph-name="z" unicode="z" horiz-adv-x="448" 
d="M37 39l288 411h-271q-9 0 -9 9v37q0 9 9 9h356q9 0 9 -9v-11q0 -10 -7 -19l-285 -411h284q9 0 9 -9v-37q0 -9 -9 -9h-372q-9 0 -9 9v11q0 10 7 19z" />
    <glyph glyph-name="braceleft" unicode="{" horiz-adv-x="331" 
d="M324 -205q11 -3 5 -13l-22 -38q-4 -8 -15 -2q-68 23 -108.5 91.5t-40.5 188.5q0 112 -28 156.5t-78 44.5q-11 0 -11 13v26q0 13 11 13q50 0 78 44.5t28 156.5q0 120 40.5 188.5t108.5 91.5q11 6 15 -2l22 -38q6 -10 -5 -13q-56 -15 -84.5 -65t-28.5 -162t-27 -164.5
t-61 -62.5q34 -10 61 -62.5t27 -164.5t28.5 -162t84.5 -65z" />
    <glyph glyph-name="bar" unicode="|" horiz-adv-x="305" 
d="M185 705v-899q0 -9 -9 -9h-47q-9 0 -9 9v899q0 9 9 9h47q9 0 9 -9z" />
    <glyph glyph-name="braceright" unicode="}" horiz-adv-x="331" 
d="M7 -205q56 15 84.5 65t28.5 162t27 164.5t61 62.5q-34 10 -61 62.5t-27 164.5t-28.5 162t-84.5 65q-11 3 -5 13l22 38q4 8 15 2q68 -23 108.5 -91.5t40.5 -188.5q0 -112 28 -156.5t78 -44.5q11 0 11 -13v-26q0 -13 -11 -13q-50 0 -78 -44.5t-28 -156.5
q0 -120 -40.5 -188.5t-108.5 -91.5q-11 -6 -15 2l-22 38q-6 10 5 13z" />
    <glyph glyph-name="asciitilde" unicode="~" horiz-adv-x="612" 
d="M187 375q-61 0 -85 -73q-4 -11 -13 -4l-32 19q-6 4 -2 15q40 106 133 106q34 0 123 -43t114 -43q61 0 85 73q4 11 13 4l32 -19q6 -4 2 -15q-40 -106 -133 -106q-33 0 -124 43t-113 43z" />
    <glyph glyph-name="nbspace" unicode="&#xa0;" horiz-adv-x="286" 
 />
    <glyph glyph-name="exclamdown" unicode="&#xa1;" horiz-adv-x="331" 
d="M164 422q-29 0 -37.5 8.5t-8.5 37.5q0 32 9 41.5t37 9.5q30 0 39 -9.5t9 -41.5q0 -29 -8.5 -37.5t-39.5 -8.5zM194 311l10 -504q0 -9 -9 -9h-60q-9 0 -9 9l10 504q0 9 9 9h40q9 0 9 -9z" />
    <glyph glyph-name="cent" unicode="&#xa2;" horiz-adv-x="554" 
d="M345 744v-87q71 -4 114 -20q8 -3 5 -13l-12 -43q-2 -9 -10 -6q-42 17 -97 20v-408q52 3 97 21q8 3 10 -6l12 -43q3 -10 -5 -13q-46 -18 -114 -21v-80q0 -9 -9 -9h-40q-9 0 -9 9v81q-98 7 -137.5 66t-39.5 202q0 141 39.5 198.5t137.5 64.5v87q0 9 9 9h40q9 0 9 -9z
M182 392q0 -88 8.5 -129t29.5 -57t67 -19v408q-66 -4 -85.5 -42.5t-19.5 -160.5z" />
    <glyph glyph-name="sterling" unicode="&#xa3;" horiz-adv-x="554" 
d="M305 329h-124v-269h297q9 0 9 -9v-42q0 -9 -9 -9h-359q-9 0 -9 9v320h-35q-9 0 -9 9v40q0 9 9 9h35q1 101 14.5 166t44 100t70 48t101.5 13q77 0 164 -21q9 -2 5 -13l-13 -43q-2 -9 -10 -6q-59 21 -146 21q-38 0 -60 -2.5t-42 -12.5t-29.5 -25.5t-16.5 -47.5t-9 -72
t-2 -105h124q9 0 9 -9v-40q0 -9 -9 -9z" />
    <glyph glyph-name="currency" unicode="&#xa4;" horiz-adv-x="554" 
d="M277 86q-81 0 -123 23l-81 -119q-7 -7 -13 -1l-41 25q-7 5 -2 14l87 127q-38 59 -38 200q0 139 38 197l-81 118q-6 8 2 14l41 25q2 2 6.5 1.5t6.5 -2.5l74 -112q45 23 124 23q78 0 123 -23l76 112q2 2 6.5 2.5t6.5 -1.5l41 -25q8 -6 2 -14l-82 -119q38 -58 38 -196
q0 -139 -38 -200l88 -127q5 -9 -2 -14l-40 -25q-2 -2 -7 -1.5t-7 2.5l-81 119q-45 -23 -124 -23zM277 557q-48 0 -72 -5.5t-41 -28.5t-21.5 -61t-4.5 -109q0 -60 3.5 -95t11 -59t25.5 -34t39 -13.5t60 -3.5t60 3.5t39 13.5t25.5 34t11 59t3.5 95q0 71 -4.5 109t-21.5 61
t-41 28.5t-72 5.5z" />
    <glyph glyph-name="yen" unicode="&#xa5;" horiz-adv-x="554" 
d="M468 209h-154v-200q0 -9 -9 -9h-53q-9 0 -9 9v200h-155q-9 0 -9 9v39q0 9 9 9h155v75l-226 329q-5 9 2 14l40 25q2 2 7 1.5t7 -2.5l178 -264l28 -54l27 54l176 264q7 7 13 1l41 -25q7 -5 2 -14l-224 -329v-75h154q9 0 9 -9v-39q0 -9 -9 -9z" />
    <glyph glyph-name="brokenbar" unicode="&#xa6;" horiz-adv-x="305" 
d="M185 705v-319q0 -9 -9 -9h-47q-9 0 -9 9v319q0 9 9 9h47q9 0 9 -9zM185 125v-319q0 -9 -9 -9h-47q-9 0 -9 9v319q0 9 9 9h47q9 0 9 -9z" />
    <glyph glyph-name="section" unicode="&#xa7;" horiz-adv-x="596" 
d="M263 -151q66 0 98.5 5t55.5 28.5t29.5 62.5t7.5 116l-102 5q-67 3 -110 11.5t-80 28.5t-57 55.5t-31 90t-11 133.5q0 104 12.5 167t45.5 100t81.5 49.5t129.5 12.5q90 0 174 -25q8 -3 5 -13l-13 -43q-2 -9 -10 -6q-70 25 -155 25q-67 0 -99 -5t-55.5 -28.5t-30 -63
t-7.5 -115.5q19 -2 56.5 -3.5t46.5 -1.5q67 -3 110 -11.5t80 -29t57 -55.5t31 -89.5t11 -133.5q0 -104 -12.5 -167t-45.5 -100t-81.5 -49.5t-129.5 -12.5q-90 0 -174 25q-8 3 -5 13l13 43q2 9 10 6q70 -25 155 -25zM353 129q54 -2 102 -6q0 59 -3 97.5t-14 67t-23.5 43
t-40 24t-54.5 12.5t-77 5q-56 2 -102 6q0 -59 3 -97.5t14 -67t23.5 -43t40 -24t54.5 -12.5t77 -5z" />
    <glyph glyph-name="dieresis" unicode="&#xa8;" horiz-adv-x="408" 
d="M115 667q24 0 32.5 -7t8.5 -32q0 -27 -8.5 -35t-32.5 -8q-25 0 -33.5 8t-8.5 35q0 25 8.5 32t33.5 7zM294 667q24 0 32.5 -7t8.5 -32q0 -27 -8.5 -35t-32.5 -8q-25 0 -33.5 8t-8.5 35q0 25 8.5 32t33.5 7z" />
    <glyph glyph-name="copyright" unicode="&#xa9;" horiz-adv-x="873" 
d="M436 -14q-97 0 -161.5 17t-111 58t-67 112t-20.5 179q0 106 21 176.5t67 111.5t111 57.5t161 16.5q97 0 162 -16.5t111 -57.5t67 -111.5t21 -176.5q0 -108 -21 -179t-67 -112t-111 -58t-162 -17zM435 657q-89 0 -141 -11.5t-87 -46.5t-47 -92.5t-12 -156.5
q0 -182 58 -243t229 -61q173 0 232 61t59 243q0 98 -12.5 156t-47.5 93t-87.5 46.5t-143.5 11.5zM454 179q68 0 120 21q8 3 10 -6l12 -43q3 -10 -5 -13q-57 -21 -137 -21q-118 0 -165 53t-47 186q0 131 47 182.5t165 51.5q80 0 137 -21q8 -3 5 -13l-12 -43q-2 -9 -10 -6
q-52 21 -120 21q-47 0 -72 -5.5t-41.5 -25t-21.5 -51.5t-5 -92q0 -63 4.5 -95.5t22 -51.5t41 -23.5t72.5 -4.5z" />
    <glyph glyph-name="ordfeminine" unicode="&#xaa;" horiz-adv-x="381" 
d="M185 507q-51 0 -66 -12.5t-15 -51.5t15 -51.5t66 -12.5q36 0 80 20v88q-44 20 -80 20zM182 714q83 0 116 -32.5t33 -123.5v-174l9 -33l-1 1q3 -5 -0.5 -10.5t-9.5 -7.5l-31 -8q-15 -7 -22 9l-7 22q-40 -36 -91 -36q-82 0 -112 28t-30 94t30 94t112 28q48 0 87 -32v25
q0 61 -16 79.5t-67 18.5q-48 0 -91 -15q-16 0 -19 9l-8 28q-3 15 12 21q51 15 106 15z" />
    <glyph glyph-name="guillemotleft" unicode="&#xab;" horiz-adv-x="627" 
d="M367 557l-254 -259l254 -261q8 -6 -1 -13l-26 -31q-7 -6 -13 2l-282 280q-5 4 -5 12v21q0 7 5 11l282 280q6 8 13 2l26 -31q9 -7 1 -13zM584 557l-254 -259l254 -261q8 -6 -1 -13l-26 -31q-7 -6 -13 2l-282 280q-5 4 -5 12v21q0 7 5 11l282 280q6 8 13 2l26 -31
q9 -7 1 -13z" />
    <glyph glyph-name="logicalnot" unicode="&#xac;" horiz-adv-x="544" 
d="M62 306h420q9 0 9 -9v-288q0 -9 -9 -9h-53q-9 0 -9 9v236h-358q-9 0 -9 9v43q0 9 9 9z" />
    <glyph glyph-name="uni00AD" unicode="&#xad;" horiz-adv-x="0" 
 />
    <glyph glyph-name="registered" unicode="&#xae;" horiz-adv-x="513" 
d="M216 460v-100q0 -11 -12 -11h-26q-11 0 -11 11v255q0 12 11 12h109q76 0 76 -83q0 -70 -55 -82l57 -88q4 -6 4 -11q0 -4 -8 -8l-17 -8q-14 -7 -21 6l-67 107h-40zM216 587v-89h70q14 0 18.5 8.5t4.5 37.5q0 27 -4.5 35t-18.5 8h-70zM473 486q0 -130 -51 -180.5
t-166 -50.5t-165.5 50.5t-50.5 180.5q0 129 50.5 178.5t165.5 49.5t166 -49.5t51 -178.5zM426 486q0 113 -34 150.5t-136 37.5q-100 0 -134 -37.5t-34 -150.5q0 -109 34.5 -149t133.5 -40q101 0 135.5 39.5t34.5 149.5z" />
    <glyph glyph-name="macron" unicode="&#xaf;" horiz-adv-x="533" 
d="M378 598h-230q-9 0 -9 9v40q0 9 9 9h230q9 0 9 -9v-40q0 -9 -9 -9z" />
    <glyph glyph-name="macron" unicode="&#x2c9;" horiz-adv-x="533" 
d="M378 598h-230q-9 0 -9 9v40q0 9 9 9h230q9 0 9 -9v-40q0 -9 -9 -9z" />
    <glyph glyph-name="degree" unicode="&#xb0;" horiz-adv-x="408" 
d="M204 277q-79 0 -116.5 49t-37.5 173q0 122 37 168.5t117 46.5t117 -46t37 -169q0 -124 -37.5 -173t-116.5 -49zM204 661q-51 0 -72 -33t-21 -131q0 -94 21.5 -131t71.5 -37q52 0 72.5 36.5t20.5 131.5q0 99 -20 131.5t-73 32.5z" />
    <glyph glyph-name="plusminus" unicode="&#xb1;" horiz-adv-x="544" 
d="M242 139v180h-180q-9 0 -9 9v43q0 9 9 9h180v179q0 9 9 9h43q9 0 9 -9v-179h179q9 0 9 -9v-43q0 -9 -9 -9h-179v-180q0 -9 -9 -9h-43q-9 0 -9 9zM482 0h-420q-9 0 -9 9v43q0 9 9 9h420q9 0 9 -9v-43q0 -9 -9 -9z" />
    <glyph glyph-name="twosuperior" unicode="&#xb2;" 
d="M197 646q-56 0 -104 -16q-11 -2 -14 10l-9 33q-2 10 6 14q54 19 122 19q84 0 124 -30t40 -98q0 -57 -22 -98.5t-87 -93.5l-101 -81h193q13 0 13 -12v-32q0 -12 -13 -12h-278q-12 0 -12 12v31q0 9 11 18l152 124q48 39 61.5 64.5t13.5 76.5q0 43 -18.5 57t-77.5 14z" />
    <glyph glyph-name="threesuperior" unicode="&#xb3;" 
d="M191 457h-56q-13 0 -13 11v34q0 12 13 12h56q59 0 74.5 12.5t15.5 54.5q0 40 -17.5 53t-77.5 13q-52 0 -111 -13q-14 -2 -17 7l-6 33v-1q-3 15 7 18q59 15 127 15q96 0 130 -31t34 -91q0 -76 -60 -96q70 -20 70 -109q0 -73 -39.5 -107.5t-137.5 -34.5q-62 0 -126 16
q-8 4 -5 16l8 32q4 11 19 8q47 -14 104 -14q68 0 87.5 16t19.5 68q0 51 -16.5 64.5t-82.5 13.5z" />
    <glyph glyph-name="acute" unicode="&#xb4;" horiz-adv-x="494" 
d="M296 673l-119 -112q-6 -4 -14 -1l-27 18q-4 1 -4 5.5t2 7.5l104 115q7 7 17 3l40 -21q4 -1 4.5 -6.5t-3.5 -8.5z" />
    <glyph glyph-name="mu" unicode="&#xb5;" horiz-adv-x="523" 
d="M453 62l14 -46q3 -8 -6 -12l-46 -11q-9 -4 -11 5l-16 54q-60 -66 -154 -66q-82 0 -120 31l5 -213q0 -7 -7 -7h-45q-7 0 -7 7v692q0 9 9 9h47q9 0 9 -9v-263q0 -70 3.5 -103.5t20 -54t39.5 -24t73 -3.5q67 0 127 33v415q0 9 9 9h47q9 0 9 -9v-434z" />
    <glyph glyph-name="mu" unicode="&#x3bc;" horiz-adv-x="523" 
d="M453 62l14 -46q3 -8 -6 -12l-46 -11q-9 -4 -11 5l-16 54q-60 -66 -154 -66q-82 0 -120 31l5 -213q0 -7 -7 -7h-45q-7 0 -7 7v692q0 9 9 9h47q9 0 9 -9v-263q0 -70 3.5 -103.5t20 -54t39.5 -24t73 -3.5q67 0 127 33v415q0 9 9 9h47q9 0 9 -9v-434z" />
    <glyph glyph-name="paragraph" unicode="&#xb6;" horiz-adv-x="581" 
d="M205 697h277q9 0 9 -9v-715q0 -81 -43 -128.5t-107 -47.5q-10 0 -11 10l-11 43q-3 8 6 10q61 8 78 27t17 85v325h-215q-95 0 -135 51.5t-40 150.5q0 97 45 147.5t130 50.5z" />
    <glyph glyph-name="periodcentered" unicode="&#xb7;" horiz-adv-x="256" 
d="M127 354q31 0 39.5 -8.5t8.5 -37.5q0 -32 -9 -41.5t-39 -9.5q-28 0 -37 9.5t-9 41.5q0 29 8.5 37.5t37.5 8.5z" />
    <glyph glyph-name="periodcentered" unicode="&#x2219;" horiz-adv-x="256" 
d="M127 354q31 0 39.5 -8.5t8.5 -37.5q0 -32 -9 -41.5t-39 -9.5q-28 0 -37 9.5t-9 41.5q0 29 8.5 37.5t37.5 8.5z" />
    <glyph glyph-name="cedilla" unicode="&#xb8;" horiz-adv-x="654" 
d="M253 -176l12 29q3 6 9 4q39 -14 91 -14q34 0 42.5 5.5t8.5 27.5t-17.5 27.5t-95.5 5.5q-4 0 -7 3.5t-1 7.5l33 80h34v-49q67 0 93 -17t26 -56q0 -43 -26.5 -62t-92.5 -19q-75 0 -106 17q-5 3 -3 10z" />
    <glyph glyph-name="onesuperior" unicode="&#xb9;" 
d="M102 626l114 67q8 4 14 4h39q14 0 14 -15v-420q0 -13 -14 -13h-37q-13 0 -13 13v365l-88 -49q-9 -5 -15 3l-18 29q-7 10 4 16z" />
    <glyph glyph-name="ordmasculine" unicode="&#xba;" horiz-adv-x="396" 
d="M195 656q-58 0 -73.5 -23t-15.5 -115q0 -67 7.5 -95t23.5 -36t58 -8q41 0 57.5 8t24 36t7.5 95q0 64 -7.5 92t-24.5 37t-57 9zM195 321q-89 0 -124 42.5t-35 155.5q0 112 35 153.5t124 41.5q90 0 125 -41.5t35 -153.5q0 -113 -35.5 -155.5t-124.5 -42.5z" />
    <glyph glyph-name="guillemotright" unicode="&#xbb;" horiz-adv-x="627" 
d="M260 37l254 259l-254 261q-8 6 1 13l26 31q7 6 13 -2l282 -280q5 -4 5 -12v-21q0 -7 -5 -11l-282 -280q-6 -8 -13 -2l-26 31q-9 7 -1 13zM43 37l254 259l-254 261q-8 6 1 13l26 31q7 6 13 -2l282 -280q5 -4 5 -12v-21q0 -7 -5 -11l-282 -280q-6 -8 -13 -2l-26 31
q-9 7 -1 13z" />
    <glyph glyph-name="onequarter" unicode="&#xbc;" horiz-adv-x="967" 
d="M135 626l114 67q8 4 14 4h39q14 0 14 -15v-420q0 -13 -14 -13h-37q-13 0 -13 13v365l-88 -49q-9 -5 -15 3l-18 29q-7 10 4 16zM757 697l-517 -735q-6 -9 -13 -2l-38 26q-2 2 -5 3t-1 3l516 736q8 6 13 2l43 -20q8 -6 2 -13zM784 433v-268h47q14 0 14 -12v-29q0 -9 -3 -11
t-11 -2h-47v-97q0 -12 -6 -13q-3 -1 -7 -1h-39q-12 0 -12 14v97h-192q-13 0 -13 13v27q0 7 5 17l176 272q5 8 18 8h55q15 0 15 -15zM589 165h131v190l4 34l-15 -31z" />
    <glyph glyph-name="onehalf" unicode="&#xbd;" horiz-adv-x="967" 
d="M90 626l114 67q8 4 14 4h39q14 0 14 -15v-420q0 -13 -14 -13h-37q-13 0 -13 13v365l-88 -49q-9 -5 -15 3l-18 29q-7 10 4 16zM712 697l-517 -735q-6 -9 -13 -2l-38 26q-2 2 -5 3t-1 3l516 736q8 6 13 2l43 -20q8 -6 2 -13zM716 397q-56 0 -104 -16q-11 -2 -14 10l-9 33
q-2 10 6 14q54 19 122 19q84 0 124 -30t40 -98q0 -57 -22 -98.5t-87 -93.5l-101 -81h193q13 0 13 -12v-32q0 -12 -13 -12h-278q-12 0 -12 12v31q0 9 11 18l152 124q48 39 61.5 64.5t13.5 76.5q0 43 -18.5 57t-77.5 14z" />
    <glyph glyph-name="threequarters" unicode="&#xbe;" horiz-adv-x="967" 
d="M238 457h-56q-13 0 -13 11v34q0 12 13 12h56q59 0 74.5 12.5t15.5 54.5q0 40 -17.5 53t-77.5 13q-52 0 -111 -13q-14 -2 -17 7l-6 33v-1q-3 15 7 18q59 15 127 15q96 0 130 -31t34 -91q0 -76 -60 -96q70 -20 70 -109q0 -73 -39.5 -107.5t-137.5 -34.5q-62 0 -126 16
q-8 4 -5 16l8 32q4 11 19 8q47 -14 104 -14q68 0 87.5 16t19.5 68q0 51 -16.5 64.5t-82.5 13.5zM805 697l-517 -735q-6 -9 -13 -2l-38 26q-2 2 -5 3t-1 3l516 736q8 6 13 2l43 -20q8 -6 2 -13zM817 433v-268h47q14 0 14 -12v-29q0 -9 -3 -11t-11 -2h-47v-97q0 -12 -6 -13
q-3 -1 -7 -1h-39q-12 0 -12 14v97h-192q-13 0 -13 13v27q0 7 5 17l176 272q5 8 18 8h55q15 0 15 -15zM622 165h131v190l4 34l-15 -31z" />
    <glyph glyph-name="questiondown" unicode="&#xbf;" horiz-adv-x="414" 
d="M248 422q-31 0 -39.5 8.5t-8.5 37.5q0 32 9 41.5t39 9.5q28 0 37 -9.5t9 -41.5q0 -29 -8.5 -37.5t-37.5 -8.5zM115 -12q0 -84 20.5 -105t97.5 -21q69 0 129 23q8 3 10 -6l12 -47q3 -10 -5 -13q-75 -21 -143 -21q-103 0 -149 42t-46 148q0 72 22 120.5t71 101.5l106 111
q6 8 13 2l36 -29q7 -5 1 -13l-107 -115q-49 -53 -58.5 -78t-9.5 -100z" />
    <glyph glyph-name="Agrave" unicode="&#xc0;" horiz-adv-x="565" 
d="M419 210h-277l-68 -213q-2 -7 -11 -5l-46 12q-10 2 -6 11l223 673q4 9 10 9h78q6 0 10 -9l222 -673q4 -9 -6 -11l-48 -12q-9 -2 -11 5zM401 267l-101 310l-20 79l-20 -79l-100 -310h241zM309 743l-130 112q-4 3 -3.5 8.5t4.5 6.5l44 16q10 4 17 -3l115 -113q2 -3 2 -7.5
t-4 -5.5l-31 -15q-8 -3 -14 1z" />
    <glyph glyph-name="Aacute" unicode="&#xc1;" horiz-adv-x="565" 
d="M419 210h-277l-68 -213q-2 -7 -11 -5l-46 12q-10 2 -6 11l223 673q4 9 10 9h78q6 0 10 -9l222 -673q4 -9 -6 -11l-48 -12q-9 -2 -11 5zM401 267l-101 310l-20 79l-20 -79l-100 -310h241zM410 855l-130 -112q-6 -4 -14 -1l-31 15q-4 1 -4 5.5t2 7.5l115 113q7 7 17 3
l44 -16q4 -1 4.5 -6.5t-3.5 -8.5z" />
    <glyph glyph-name="Acircumflex" unicode="&#xc2;" horiz-adv-x="565" 
d="M419 210h-277l-68 -213q-2 -7 -11 -5l-46 12q-10 2 -6 11l223 673q4 9 10 9h78q6 0 10 -9l222 -673q4 -9 -6 -11l-48 -12q-9 -2 -11 5zM401 267l-101 310l-20 79l-20 -79l-100 -310h241zM257 876h44q14 0 22 -8l101 -84q3 -3 1.5 -7t-5.5 -6l-33 -22q-6 -3 -13 4l-95 82
l-95 -82q-8 -8 -13 -4l-33 22q-4 2 -5.5 6t1.5 7l101 84q8 8 22 8z" />
    <glyph glyph-name="Atilde" unicode="&#xc3;" horiz-adv-x="565" 
d="M419 210h-277l-68 -213q-2 -7 -11 -5l-46 12q-10 2 -6 11l223 673q4 9 10 9h78q6 0 10 -9l222 -673q4 -9 -6 -11l-48 -12q-9 -2 -11 5zM401 267l-101 310l-20 79l-20 -79l-100 -310h241zM213 808q-25 0 -38 -11t-22 -37q-4 -11 -13 -4l-32 19q-7 5 -2 15q36 75 96 75
q42 0 81 -27t63 -27q25 0 38 11t22 37q4 11 13 4l32 -19q7 -5 2 -15q-36 -75 -101 -75q-37 0 -77.5 27t-61.5 27z" />
    <glyph glyph-name="Adieresis" unicode="&#xc4;" horiz-adv-x="565" 
d="M419 210h-277l-68 -213q-2 -7 -11 -5l-46 12q-10 2 -6 11l223 673q4 9 10 9h78q6 0 10 -9l222 -673q4 -9 -6 -11l-48 -12q-9 -2 -11 5zM401 267l-101 310l-20 79l-20 -79l-100 -310h241zM185 847q24 0 32.5 -7t8.5 -32q0 -27 -8.5 -35t-32.5 -8q-25 0 -33.5 8t-8.5 35
q0 25 8.5 32t33.5 7zM374 847q24 0 32.5 -7t8.5 -32q0 -27 -8.5 -35t-32.5 -8q-25 0 -33.5 8t-8.5 35q0 25 8.5 32t33.5 7z" />
    <glyph glyph-name="Aring" unicode="&#xc5;" horiz-adv-x="565" 
d="M281 873q110 0 110 -94q0 -70 -61 -88l2 -3l222 -673q4 -9 -6 -11l-48 -12q-9 -2 -11 5l-70 213h-277l-68 -213q-2 -7 -11 -5l-46 12q-10 2 -6 11l223 673q0 2 1 2q-63 18 -63 89q0 48 25 71t84 23zM401 267l-101 310l-20 79l-20 -79l-100 -310h241zM281 828
q-32 0 -44.5 -12.5t-12.5 -38.5q0 -52 57 -52q59 0 59 52q0 26 -13 38.5t-46 12.5z" />
    <glyph glyph-name="AE" unicode="&#xc6;" horiz-adv-x="821" 
d="M782 0h-389q-9 0 -9 9v201h-277l-137 -213q-4 -7 -13 -5l-52 12q-9 2 -2 11l444 673q7 9 13 9h422q9 0 9 -9v-42q0 -9 -9 -9h-327v-237h267q9 0 9 -9v-42q0 -9 -9 -9h-267v-280h327q9 0 9 -9v-42q0 -9 -9 -9zM346 577l-202 -310h240v375z" />
    <glyph glyph-name="Ccedilla" unicode="&#xc7;" horiz-adv-x="552" 
d="M247 -176l12 29q3 6 9 4q39 -14 91 -14q34 0 42.5 5.5t8.5 27.5t-17.5 27.5t-95.5 5.5q-4 0 -7 3.5t-1 7.5l27 67q-71 3 -116 20.5t-77.5 59t-46 111.5t-13.5 177q0 110 15.5 180t52.5 110t88.5 54.5t132.5 14.5q90 0 174 -25q8 -3 5 -13l-13 -43q-2 -9 -10 -6
q-70 25 -155 25q-48 0 -77.5 -3.5t-55.5 -15t-39.5 -30t-23.5 -53.5t-13 -80.5t-3 -114.5q0 -71 3 -118t13 -83t23.5 -55.5t39.5 -31t55.5 -15t77.5 -3.5q88 0 155 24q8 3 10 -6l13 -43q3 -10 -5 -13q-83 -24 -170 -25v-35q67 0 93 -17t26 -56q0 -43 -26.5 -62t-92.5 -19
q-75 0 -106 17q-5 3 -3 10z" />
    <glyph glyph-name="Egrave" unicode="&#xc8;" horiz-adv-x="527" 
d="M488 0h-389q-9 0 -9 9v679q0 9 9 9h389q9 0 9 -9v-42q0 -9 -9 -9h-327v-237h267q9 0 9 -9v-42q0 -9 -9 -9h-267v-280h327q9 0 9 -9v-42q0 -9 -9 -9zM336 743l-130 112q-4 3 -3.5 8.5t4.5 6.5l44 16q10 4 17 -3l115 -113q2 -3 2 -7.5t-4 -5.5l-31 -15q-8 -3 -14 1z" />
    <glyph glyph-name="Eacute" unicode="&#xc9;" horiz-adv-x="527" 
d="M488 0h-389q-9 0 -9 9v679q0 9 9 9h389q9 0 9 -9v-42q0 -9 -9 -9h-327v-237h267q9 0 9 -9v-42q0 -9 -9 -9h-267v-280h327q9 0 9 -9v-42q0 -9 -9 -9zM418 855l-130 -112q-6 -4 -14 -1l-31 15q-4 1 -4 5.5t2 7.5l115 113q7 7 17 3l44 -16q4 -1 4.5 -6.5t-3.5 -8.5z" />
    <glyph glyph-name="Ecircumflex" unicode="&#xca;" horiz-adv-x="527" 
d="M488 0h-389q-9 0 -9 9v679q0 9 9 9h389q9 0 9 -9v-42q0 -9 -9 -9h-327v-237h267q9 0 9 -9v-42q0 -9 -9 -9h-267v-280h327q9 0 9 -9v-42q0 -9 -9 -9zM280 876h44q14 0 22 -8l101 -84q3 -3 1.5 -7t-5.5 -6l-33 -22q-6 -3 -13 4l-95 82l-95 -82q-8 -8 -13 -4l-33 22
q-4 2 -5.5 6t1.5 7l101 84q8 8 22 8z" />
    <glyph glyph-name="Edieresis" unicode="&#xcb;" horiz-adv-x="527" 
d="M488 0h-389q-9 0 -9 9v679q0 9 9 9h389q9 0 9 -9v-42q0 -9 -9 -9h-327v-237h267q9 0 9 -9v-42q0 -9 -9 -9h-267v-280h327q9 0 9 -9v-42q0 -9 -9 -9zM205 847q24 0 32.5 -7t8.5 -32q0 -27 -8.5 -35t-32.5 -8q-25 0 -33.5 8t-8.5 35q0 25 8.5 32t33.5 7zM394 847
q24 0 32.5 -7t8.5 -32q0 -27 -8.5 -35t-32.5 -8q-25 0 -33.5 8t-8.5 35q0 25 8.5 32t33.5 7z" />
    <glyph glyph-name="Igrave" unicode="&#xcc;" horiz-adv-x="251" 
d="M161 688v-679q0 -9 -9 -9h-53q-9 0 -9 9v679q0 9 9 9h53q9 0 9 -9zM133 743l-130 112q-4 3 -3.5 8.5t4.5 6.5l44 16q10 4 17 -3l115 -113q2 -3 2 -7.5t-4 -5.5l-31 -15q-8 -3 -14 1z" />
    <glyph glyph-name="Iacute" unicode="&#xcd;" horiz-adv-x="251" 
d="M161 688v-679q0 -9 -9 -9h-53q-9 0 -9 9v679q0 9 9 9h53q9 0 9 -9zM263 855l-130 -112q-6 -4 -14 -1l-31 15q-4 1 -4 5.5t2 7.5l115 113q7 7 17 3l44 -16q4 -1 4.5 -6.5t-3.5 -8.5z" />
    <glyph glyph-name="Icircumflex" unicode="&#xce;" horiz-adv-x="251" 
d="M161 688v-679q0 -9 -9 -9h-53q-9 0 -9 9v679q0 9 9 9h53q9 0 9 -9zM108 876h44q14 0 22 -8l101 -84q3 -3 1.5 -7t-5.5 -6l-33 -22q-6 -3 -13 4l-95 82l-95 -82q-8 -8 -13 -4l-33 22q-4 2 -5.5 6t1.5 7l101 84q8 8 22 8z" />
    <glyph glyph-name="Idieresis" unicode="&#xcf;" horiz-adv-x="251" 
d="M161 688v-679q0 -9 -9 -9h-53q-9 0 -9 9v679q0 9 9 9h53q9 0 9 -9zM34 847q24 0 32.5 -7t8.5 -32q0 -27 -8.5 -35t-32.5 -8q-25 0 -33.5 8t-8.5 35q0 25 8.5 32t33.5 7zM223 847q24 0 32.5 -7t8.5 -32q0 -27 -8.5 -35t-32.5 -8q-25 0 -33.5 8t-8.5 35q0 25 8.5 32t33.5 7
z" />
    <glyph glyph-name="Eth" unicode="&#xd0;" horiz-adv-x="640" 
d="M99 0q-9 0 -9 9v320h-50q-9 0 -9 9v40q0 9 9 9h50v301q0 9 9 9h184q165 0 229.5 -73.5t64.5 -273.5t-64.5 -275t-229.5 -75h-184zM280 329h-119v-269h122q58 0 94 8t62 25t38.5 52.5t17.5 82t5 122.5q0 67 -3 109.5t-12.5 77t-23 52.5t-40 29.5t-57.5 15t-81 3.5h-122
v-250h119q9 0 9 -9v-40q0 -9 -9 -9z" />
    <glyph glyph-name="Ntilde" unicode="&#xd1;" horiz-adv-x="651" 
d="M187 688l274 -532l33 -84l-4 88v528q0 9 9 9h53q9 0 9 -9v-679q-4 -9 -10 -9h-72q-10 0 -15 9l-274 532l-34 76l5 -80v-528q0 -9 -9 -9h-53q-9 0 -9 9v679q4 9 10 9h72q10 0 15 -9zM261 808q-25 0 -38 -11t-22 -37q-4 -11 -13 -4l-32 19q-7 5 -2 15q36 75 96 75
q42 0 81 -27t63 -27q25 0 38 11t22 37q4 11 13 4l32 -19q7 -5 2 -15q-36 -75 -101 -75q-37 0 -77.5 27t-61.5 27z" />
    <glyph glyph-name="Ograve" unicode="&#xd2;" horiz-adv-x="664" 
d="M333 52q48 0 76 5.5t52.5 22t36.5 50.5t18.5 87.5t6.5 137.5q0 81 -6.5 133t-18.5 85t-36.5 49t-52.5 21.5t-76 5.5t-76.5 -5.5t-53.5 -21.5t-37 -49t-18.5 -85t-6.5 -133q0 -104 8.5 -163.5t33.5 -91t57.5 -40t92.5 -8.5zM332 -14q-70 0 -117 15t-83 55t-52.5 113.5
t-16.5 185.5q0 109 16.5 180t52.5 110t83 54t117 15t117 -15t83 -54t52.5 -110t16.5 -180q0 -112 -16.5 -185.5t-52.5 -113.5t-83 -55t-117 -15zM384 743l-130 112q-4 3 -3.5 8.5t4.5 6.5l44 16q10 4 17 -3l115 -113q2 -3 2 -7.5t-4 -5.5l-31 -15q-8 -3 -14 1z" />
    <glyph glyph-name="Oacute" unicode="&#xd3;" horiz-adv-x="664" 
d="M333 52q48 0 76 5.5t52.5 22t36.5 50.5t18.5 87.5t6.5 137.5q0 81 -6.5 133t-18.5 85t-36.5 49t-52.5 21.5t-76 5.5t-76.5 -5.5t-53.5 -21.5t-37 -49t-18.5 -85t-6.5 -133q0 -104 8.5 -163.5t33.5 -91t57.5 -40t92.5 -8.5zM332 -14q-70 0 -117 15t-83 55t-52.5 113.5
t-16.5 185.5q0 109 16.5 180t52.5 110t83 54t117 15t117 -15t83 -54t52.5 -110t16.5 -180q0 -112 -16.5 -185.5t-52.5 -113.5t-83 -55t-117 -15zM440 855l-130 -112q-6 -4 -14 -1l-31 15q-4 1 -4 5.5t2 7.5l115 113q7 7 17 3l44 -16q4 -1 4.5 -6.5t-3.5 -8.5z" />
    <glyph glyph-name="Ocircumflex" unicode="&#xd4;" horiz-adv-x="664" 
d="M333 52q48 0 76 5.5t52.5 22t36.5 50.5t18.5 87.5t6.5 137.5q0 81 -6.5 133t-18.5 85t-36.5 49t-52.5 21.5t-76 5.5t-76.5 -5.5t-53.5 -21.5t-37 -49t-18.5 -85t-6.5 -133q0 -104 8.5 -163.5t33.5 -91t57.5 -40t92.5 -8.5zM332 -14q-70 0 -117 15t-83 55t-52.5 113.5
t-16.5 185.5q0 109 16.5 180t52.5 110t83 54t117 15t117 -15t83 -54t52.5 -110t16.5 -180q0 -112 -16.5 -185.5t-52.5 -113.5t-83 -55t-117 -15zM310 876h44q14 0 22 -8l101 -84q3 -3 1.5 -7t-5.5 -6l-33 -22q-6 -3 -13 4l-95 82l-95 -82q-8 -8 -13 -4l-33 22q-4 2 -5.5 6
t1.5 7l101 84q8 8 22 8z" />
    <glyph glyph-name="Otilde" unicode="&#xd5;" horiz-adv-x="664" 
d="M333 52q48 0 76 5.5t52.5 22t36.5 50.5t18.5 87.5t6.5 137.5q0 81 -6.5 133t-18.5 85t-36.5 49t-52.5 21.5t-76 5.5t-76.5 -5.5t-53.5 -21.5t-37 -49t-18.5 -85t-6.5 -133q0 -104 8.5 -163.5t33.5 -91t57.5 -40t92.5 -8.5zM332 -14q-70 0 -117 15t-83 55t-52.5 113.5
t-16.5 185.5q0 109 16.5 180t52.5 110t83 54t117 15t117 -15t83 -54t52.5 -110t16.5 -180q0 -112 -16.5 -185.5t-52.5 -113.5t-83 -55t-117 -15zM269 808q-25 0 -38 -11t-22 -37q-4 -11 -13 -4l-32 19q-7 5 -2 15q36 75 96 75q42 0 81 -27t63 -27q25 0 38 11t22 37
q4 11 13 4l32 -19q7 -5 2 -15q-36 -75 -101 -75q-37 0 -77.5 27t-61.5 27z" />
    <glyph glyph-name="Odieresis" unicode="&#xd6;" horiz-adv-x="664" 
d="M333 52q48 0 76 5.5t52.5 22t36.5 50.5t18.5 87.5t6.5 137.5q0 81 -6.5 133t-18.5 85t-36.5 49t-52.5 21.5t-76 5.5t-76.5 -5.5t-53.5 -21.5t-37 -49t-18.5 -85t-6.5 -133q0 -104 8.5 -163.5t33.5 -91t57.5 -40t92.5 -8.5zM332 -14q-70 0 -117 15t-83 55t-52.5 113.5
t-16.5 185.5q0 109 16.5 180t52.5 110t83 54t117 15t117 -15t83 -54t52.5 -110t16.5 -180q0 -112 -16.5 -185.5t-52.5 -113.5t-83 -55t-117 -15zM237 847q24 0 32.5 -7t8.5 -32q0 -27 -8.5 -35t-32.5 -8q-25 0 -33.5 8t-8.5 35q0 25 8.5 32t33.5 7zM426 847q24 0 32.5 -7
t8.5 -32q0 -27 -8.5 -35t-32.5 -8q-25 0 -33.5 8t-8.5 35q0 25 8.5 32t33.5 7z" />
    <glyph glyph-name="multiply" unicode="&#xd7;" horiz-adv-x="544" 
d="M399 105l-127 128l-127 -128q-7 -5 -13 0l-30 31q-8 6 0 12l127 128l-127 126q-5 6 0 13l31 30q6 8 12 0l127 -126l127 126q6 8 12 0l31 -30q5 -7 0 -13l-127 -126l127 -128q8 -6 0 -12l-30 -31q-6 -5 -13 0z" />
    <glyph glyph-name="Oslash" unicode="&#xd8;" horiz-adv-x="664" 
d="M600 715l-56 -86q57 -83 57 -274q0 -112 -16.5 -185.5t-52.5 -113.5t-83 -55t-117 -15q-116 0 -173 44l-50 -77q-4 -10 -12 -4l-39 19q-9 6 -4 11l63 97q-54 84 -54 279q0 109 16.5 180t52.5 110t83 54t117 15q111 0 168 -40l44 68q5 7 12 4l40 -20q8 -4 4 -11zM333 52
q48 0 76 5.5t52.5 22t36.5 50.5t18.5 87.5t6.5 137.5q0 145 -21 207l-307 -476q35 -34 138 -34zM141 355q0 -146 20 -210l304 474q-35 30 -132 30q-48 0 -76.5 -5.5t-53.5 -21.5t-37 -49t-18.5 -85t-6.5 -133z" />
    <glyph glyph-name="Ugrave" unicode="&#xd9;" horiz-adv-x="638" 
d="M487 247v441q0 9 9 9h53q9 0 9 -9v-441q0 -141 -54 -201t-185 -60t-185 60t-54 201v441q0 9 9 9h53q9 0 9 -9v-441q0 -67 5.5 -102t25 -58t50 -29t88.5 -6q108 0 137.5 34.5t29.5 160.5zM351 743l-130 112q-4 3 -3.5 8.5t4.5 6.5l44 16q10 4 17 -3l115 -113q2 -3 2 -7.5
t-4 -5.5l-31 -15q-8 -3 -14 1z" />
    <glyph glyph-name="Uacute" unicode="&#xda;" horiz-adv-x="638" 
d="M487 247v441q0 9 9 9h53q9 0 9 -9v-441q0 -141 -54 -201t-185 -60t-185 60t-54 201v441q0 9 9 9h53q9 0 9 -9v-441q0 -67 5.5 -102t25 -58t50 -29t88.5 -6q108 0 137.5 34.5t29.5 160.5zM447 855l-130 -112q-6 -4 -14 -1l-31 15q-4 1 -4 5.5t2 7.5l115 113q7 7 17 3
l44 -16q4 -1 4.5 -6.5t-3.5 -8.5z" />
    <glyph glyph-name="Ucircumflex" unicode="&#xdb;" horiz-adv-x="638" 
d="M487 247v441q0 9 9 9h53q9 0 9 -9v-441q0 -141 -54 -201t-185 -60t-185 60t-54 201v441q0 9 9 9h53q9 0 9 -9v-441q0 -67 5.5 -102t25 -58t50 -29t88.5 -6q108 0 137.5 34.5t29.5 160.5zM301 876h44q14 0 22 -8l101 -84q3 -3 1.5 -7t-5.5 -6l-33 -22q-6 -3 -13 4l-95 82
l-95 -82q-8 -8 -13 -4l-33 22q-4 2 -5.5 6t1.5 7l101 84q8 8 22 8z" />
    <glyph glyph-name="Udieresis" unicode="&#xdc;" horiz-adv-x="638" 
d="M487 247v441q0 9 9 9h53q9 0 9 -9v-441q0 -141 -54 -201t-185 -60t-185 60t-54 201v441q0 9 9 9h53q9 0 9 -9v-441q0 -67 5.5 -102t25 -58t50 -29t88.5 -6q108 0 137.5 34.5t29.5 160.5zM228 847q24 0 32.5 -7t8.5 -32q0 -27 -8.5 -35t-32.5 -8q-25 0 -33.5 8t-8.5 35
q0 25 8.5 32t33.5 7zM417 847q24 0 32.5 -7t8.5 -32q0 -27 -8.5 -35t-32.5 -8q-25 0 -33.5 8t-8.5 35q0 25 8.5 32t33.5 7z" />
    <glyph glyph-name="Yacute" unicode="&#xdd;" horiz-adv-x="545" 
d="M238 341l-226 329q-5 9 2 14l40 25q2 2 7 1.5t7 -2.5l178 -264l28 -54l27 54l176 264q7 7 13 1l41 -25q7 -5 2 -14l-224 -329v-332q0 -9 -9 -9h-53q-9 0 -9 9v332zM397 855l-130 -112q-6 -4 -14 -1l-31 15q-4 1 -4 5.5t2 7.5l115 113q7 7 17 3l44 -16q4 -1 4.5 -6.5
t-3.5 -8.5z" />
    <glyph glyph-name="Thorn" unicode="&#xde;" horiz-adv-x="581" 
d="M161 688v-117h215q85 0 130 -50.5t45 -147.5q0 -99 -40 -150.5t-135 -51.5h-215v-162q0 -9 -9 -9h-53q-9 0 -9 9v679q0 9 9 9h53q9 0 9 -9zM376 511h-215v-280h215q56 0 77 28.5t21 113.5q0 82 -20.5 110t-77.5 28z" />
    <glyph glyph-name="germandbls" unicode="&#xdf;" horiz-adv-x="572" 
d="M258 0q-9 0 -9 9v42q0 9 9 9q65 0 96.5 3t54.5 17.5t29 40t6 73.5q0 50 -4.5 75.5t-21.5 43.5t-46 22.5t-84 4.5h-30q-9 0 -9 9v42q0 9 9 9h30q92 0 117.5 26t25.5 109q0 76 -25 97t-125 21q-79 0 -103 -21t-24 -92v-531q0 -9 -9 -9h-47q-9 0 -9 9v531q0 90 44 132
t148 42q127 0 175.5 -41t48.5 -129q0 -155 -128 -169q142 -8 142 -181q0 -113 -58 -153.5t-203 -40.5z" />
    <glyph glyph-name="agrave" unicode="&#xe0;" horiz-adv-x="522" 
d="M256 248q-80 0 -103.5 -19.5t-23.5 -80.5t23.5 -80.5t103.5 -19.5q67 0 127 33v134q-60 33 -127 33zM252 519q109 0 152.5 -44t43.5 -165v-248l14 -46q3 -8 -6 -12l-46 -11q-9 -4 -11 5l-16 54q-17 -24 -58.5 -45t-78.5 -21q-107 0 -146.5 37.5t-39.5 124.5t39.5 124.5
t146.5 37.5q37 0 78.5 -21t58.5 -45v66q0 91 -25.5 119t-105.5 28q-73 0 -131 -21q-8 -3 -10 6l-12 42q-3 10 5 13q69 22 148 22zM279 561l-119 112q-4 3 -3.5 8.5t4.5 6.5l40 21q10 4 17 -3l104 -115q2 -3 2 -7.5t-4 -5.5l-27 -18q-8 -3 -14 1z" />
    <glyph glyph-name="aacute" unicode="&#xe1;" horiz-adv-x="522" 
d="M256 248q-80 0 -103.5 -19.5t-23.5 -80.5t23.5 -80.5t103.5 -19.5q67 0 127 33v134q-60 33 -127 33zM252 519q109 0 152.5 -44t43.5 -165v-248l14 -46q3 -8 -6 -12l-46 -11q-9 -4 -11 5l-16 54q-17 -24 -58.5 -45t-78.5 -21q-107 0 -146.5 37.5t-39.5 124.5t39.5 124.5
t146.5 37.5q37 0 78.5 -21t58.5 -45v66q0 91 -25.5 119t-105.5 28q-73 0 -131 -21q-8 -3 -10 6l-12 42q-3 10 5 13q69 22 148 22zM378 673l-119 -112q-6 -4 -14 -1l-27 18q-4 1 -4 5.5t2 7.5l104 115q7 7 17 3l40 -21q4 -1 4.5 -6.5t-3.5 -8.5z" />
    <glyph glyph-name="acircumflex" unicode="&#xe2;" horiz-adv-x="522" 
d="M256 248q-80 0 -103.5 -19.5t-23.5 -80.5t23.5 -80.5t103.5 -19.5q67 0 127 33v134q-60 33 -127 33zM252 519q109 0 152.5 -44t43.5 -165v-248l14 -46q3 -8 -6 -12l-46 -11q-9 -4 -11 5l-16 54q-17 -24 -58.5 -45t-78.5 -21q-107 0 -146.5 37.5t-39.5 124.5t39.5 124.5
t146.5 37.5q37 0 78.5 -21t58.5 -45v66q0 91 -25.5 119t-105.5 28q-73 0 -131 -21q-8 -3 -10 6l-12 42q-3 10 5 13q69 22 148 22zM238 708h44q14 0 22 -8l91 -98q3 -3 1.5 -7t-5.5 -6l-33 -18q-6 -3 -13 4l-85 90l-85 -90q-8 -8 -13 -4l-33 18q-4 2 -5.5 6t1.5 7l91 98
q8 8 22 8z" />
    <glyph glyph-name="atilde" unicode="&#xe3;" horiz-adv-x="522" 
d="M256 248q-80 0 -103.5 -19.5t-23.5 -80.5t23.5 -80.5t103.5 -19.5q67 0 127 33v134q-60 33 -127 33zM252 519q109 0 152.5 -44t43.5 -165v-248l14 -46q3 -8 -6 -12l-46 -11q-9 -4 -11 5l-16 54q-17 -24 -58.5 -45t-78.5 -21q-107 0 -146.5 37.5t-39.5 124.5t39.5 124.5
t146.5 37.5q37 0 78.5 -21t58.5 -45v66q0 91 -25.5 119t-105.5 28q-73 0 -131 -21q-8 -3 -10 6l-12 42q-3 10 5 13q69 22 148 22zM205 636q-30 0 -47 -48q-4 -11 -13 -4l-32 19q-7 5 -2 15q36 75 94 75q28 0 61.5 -27t55.5 -27q32 0 49 48q4 11 13 4l32 -19q7 -5 2 -15
q-36 -75 -88 -75q-31 0 -54.5 13.5t-40 27t-30.5 13.5z" />
    <glyph glyph-name="adieresis" unicode="&#xe4;" horiz-adv-x="522" 
d="M256 248q-80 0 -103.5 -19.5t-23.5 -80.5t23.5 -80.5t103.5 -19.5q67 0 127 33v134q-60 33 -127 33zM252 519q109 0 152.5 -44t43.5 -165v-248l14 -46q3 -8 -6 -12l-46 -11q-9 -4 -11 5l-16 54q-17 -24 -58.5 -45t-78.5 -21q-107 0 -146.5 37.5t-39.5 124.5t39.5 124.5
t146.5 37.5q37 0 78.5 -21t58.5 -45v66q0 91 -25.5 119t-105.5 28q-73 0 -131 -21q-8 -3 -10 6l-12 42q-3 10 5 13q69 22 148 22zM178 667q24 0 32.5 -7t8.5 -32q0 -27 -8.5 -35t-32.5 -8q-25 0 -33.5 8t-8.5 35q0 25 8.5 32t33.5 7zM357 667q24 0 32.5 -7t8.5 -32
q0 -27 -8.5 -35t-32.5 -8q-25 0 -33.5 8t-8.5 35q0 25 8.5 32t33.5 7z" />
    <glyph glyph-name="aring" unicode="&#xe5;" horiz-adv-x="522" 
d="M256 248q-80 0 -103.5 -19.5t-23.5 -80.5t23.5 -80.5t103.5 -19.5q67 0 127 33v134q-60 33 -127 33zM252 519q109 0 152.5 -44t43.5 -165v-248l14 -46q3 -8 -6 -12l-46 -11q-9 -4 -11 5l-16 54q-17 -24 -58.5 -45t-78.5 -21q-107 0 -146.5 37.5t-39.5 124.5t39.5 124.5
t146.5 37.5q37 0 78.5 -21t58.5 -45v66q0 91 -25.5 119t-105.5 28q-73 0 -131 -21q-8 -3 -10 6l-12 42q-3 10 5 13q69 22 148 22zM265 738q110 0 110 -94t-110 -94q-109 0 -109 94q0 48 25 71t84 23zM265 692q-36 0 -45.5 -8.5t-9.5 -41.5q0 -32 10 -40.5t45 -8.5
q37 0 47 8.5t10 40.5q0 33 -10 41.5t-47 8.5z" />
    <glyph glyph-name="ae" unicode="&#xe6;" horiz-adv-x="825" 
d="M761 253h-311q0 -50 2 -81.5t9.5 -56t16.5 -36.5t28 -19.5t39.5 -9.5t56.5 -2q66 0 124 24q8 3 10 -6l12 -43q3 -10 -5 -13q-61 -24 -141 -24q-149 0 -186 78q-62 -78 -170 -78q-107 0 -146.5 37.5t-39.5 124.5t39.5 124.5t146.5 37.5q37 0 78.5 -21t58.5 -45v66
q0 91 -25.5 119t-105.5 28q-73 0 -131 -21q-8 -3 -10 6l-12 42q-3 10 5 13q69 22 148 22q74 0 114 -19t58 -66q18 46 56.5 65.5t104.5 19.5q74 0 113 -20t58 -74.5t19 -158.5q0 -13 -14 -13zM256 248q-80 0 -103.5 -19.5t-23.5 -80.5t23.5 -80.5t103.5 -19.5q67 0 127 33
v134q-60 33 -127 33zM451 307h259q-3 98 -26 125t-102 27q-78 0 -102.5 -28t-28.5 -124z" />
    <glyph glyph-name="ccedilla" unicode="&#xe7;" horiz-adv-x="439" 
d="M169 -176l12 29q3 6 9 4q39 -14 91 -14q34 0 42.5 5.5t8.5 27.5t-17.5 27.5t-95.5 5.5q-4 0 -7 3.5t-1 7.5l27 67q-99 7 -138.5 66t-39.5 202q0 152 46.5 208t165.5 56q80 0 137 -21q8 -3 5 -13l-12 -43q-2 -9 -10 -6q-52 21 -120 21q-48 0 -72.5 -6t-41.5 -28.5
t-21.5 -60.5t-4.5 -109q0 -60 4 -95t11 -59t25.5 -34t39.5 -13.5t60 -3.5q68 0 120 21q8 3 10 -6l12 -43q3 -10 -5 -13q-54 -19 -131 -21v-35q67 0 93 -17t26 -56q0 -43 -26.5 -62t-92.5 -19q-75 0 -106 17q-5 3 -3 10z" />
    <glyph glyph-name="egrave" unicode="&#xe8;" horiz-adv-x="504" 
d="M440 253h-311q0 -50 2 -81.5t9.5 -56t16.5 -36.5t28 -19.5t39.5 -9.5t56.5 -2q66 0 124 24q8 3 10 -6l12 -43q3 -10 -5 -13q-61 -24 -141 -24q-126 0 -173.5 57t-47.5 212q0 149 47 206.5t157 57.5q74 0 113 -20t58 -74.5t19 -158.5q0 -13 -14 -13zM130 307h259
q-3 98 -26 125t-102 27q-78 0 -102.5 -28t-28.5 -124zM307 561l-119 112q-4 3 -3.5 8.5t4.5 6.5l40 21q10 4 17 -3l104 -115q2 -3 2 -7.5t-4 -5.5l-27 -18q-8 -3 -14 1z" />
    <glyph glyph-name="eacute" unicode="&#xe9;" horiz-adv-x="504" 
d="M440 253h-311q0 -50 2 -81.5t9.5 -56t16.5 -36.5t28 -19.5t39.5 -9.5t56.5 -2q66 0 124 24q8 3 10 -6l12 -43q3 -10 -5 -13q-61 -24 -141 -24q-126 0 -173.5 57t-47.5 212q0 149 47 206.5t157 57.5q74 0 113 -20t58 -74.5t19 -158.5q0 -13 -14 -13zM130 307h259
q-3 98 -26 125t-102 27q-78 0 -102.5 -28t-28.5 -124zM374 673l-119 -112q-6 -4 -14 -1l-27 18q-4 1 -4 5.5t2 7.5l104 115q7 7 17 3l40 -21q4 -1 4.5 -6.5t-3.5 -8.5z" />
    <glyph glyph-name="ecircumflex" unicode="&#xea;" horiz-adv-x="504" 
d="M440 253h-311q0 -50 2 -81.5t9.5 -56t16.5 -36.5t28 -19.5t39.5 -9.5t56.5 -2q66 0 124 24q8 3 10 -6l12 -43q3 -10 -5 -13q-61 -24 -141 -24q-126 0 -173.5 57t-47.5 212q0 149 47 206.5t157 57.5q74 0 113 -20t58 -74.5t19 -158.5q0 -13 -14 -13zM130 307h259
q-3 98 -26 125t-102 27q-78 0 -102.5 -28t-28.5 -124zM245 708h44q14 0 22 -8l91 -98q3 -3 1.5 -7t-5.5 -6l-33 -18q-6 -3 -13 4l-85 90l-85 -90q-8 -8 -13 -4l-33 18q-4 2 -5.5 6t1.5 7l91 98q8 8 22 8z" />
    <glyph glyph-name="edieresis" unicode="&#xeb;" horiz-adv-x="504" 
d="M440 253h-311q0 -50 2 -81.5t9.5 -56t16.5 -36.5t28 -19.5t39.5 -9.5t56.5 -2q66 0 124 24q8 3 10 -6l12 -43q3 -10 -5 -13q-61 -24 -141 -24q-126 0 -173.5 57t-47.5 212q0 149 47 206.5t157 57.5q74 0 113 -20t58 -74.5t19 -158.5q0 -13 -14 -13zM130 307h259
q-3 98 -26 125t-102 27q-78 0 -102.5 -28t-28.5 -124zM174 667q24 0 32.5 -7t8.5 -32q0 -27 -8.5 -35t-32.5 -8q-25 0 -33.5 8t-8.5 35q0 25 8.5 32t33.5 7zM353 667q24 0 32.5 -7t8.5 -32q0 -27 -8.5 -35t-32.5 -8q-25 0 -33.5 8t-8.5 35q0 25 8.5 32t33.5 7z" />
    <glyph glyph-name="igrave" unicode="&#xec;" horiz-adv-x="206" 
d="M135 496v-487q0 -9 -9 -9h-47q-9 0 -9 9v487q0 9 9 9h47q9 0 9 -9zM111 561l-119 112q-4 3 -3.5 8.5t4.5 6.5l40 21q10 4 17 -3l104 -115q2 -3 2 -7.5t-4 -5.5l-27 -18q-8 -3 -14 1z" />
    <glyph glyph-name="iacute" unicode="&#xed;" horiz-adv-x="206" 
d="M135 496v-487q0 -9 -9 -9h-47q-9 0 -9 9v487q0 9 9 9h47q9 0 9 -9zM208 673l-119 -112q-6 -4 -14 -1l-27 18q-4 1 -4 5.5t2 7.5l104 115q7 7 17 3l40 -21q4 -1 4.5 -6.5t-3.5 -8.5z" />
    <glyph glyph-name="icircumflex" unicode="&#xee;" horiz-adv-x="206" 
d="M135 496v-487q0 -9 -9 -9h-47q-9 0 -9 9v487q0 9 9 9h47q9 0 9 -9zM74 708h44q14 0 22 -8l91 -98q3 -3 1.5 -7t-5.5 -6l-33 -18q-6 -3 -13 4l-85 90l-85 -90q-8 -8 -13 -4l-33 18q-4 2 -5.5 6t1.5 7l91 98q8 8 22 8z" />
    <glyph glyph-name="idieresis" unicode="&#xef;" horiz-adv-x="206" 
d="M135 496v-487q0 -9 -9 -9h-47q-9 0 -9 9v487q0 9 9 9h47q9 0 9 -9zM7 667q24 0 32.5 -7t8.5 -32q0 -27 -8.5 -35t-32.5 -8q-25 0 -33.5 8t-8.5 35q0 25 8.5 32t33.5 7zM186 667q24 0 32.5 -7t8.5 -32q0 -27 -8.5 -35t-32.5 -8q-25 0 -33.5 8t-8.5 35q0 25 8.5 32t33.5 7z
" />
    <glyph glyph-name="eth" unicode="&#xf0;" horiz-adv-x="554" 
d="M401 652l-73 -44l98 -105q91 -100 91 -276q0 -128 -49 -184.5t-185 -56.5q-129 0 -184 51t-55 167q0 114 48.5 164t163.5 50q118 0 181 -66q-8 43 -63 104l-107 116l-89 -53q-6 -5 -12 3l-19 29q-5 6 3 12l81 48l-60 66q-6 8 1 13l46 26q7 6 13 -2l61 -66l81 48
q8 5 12 -4l20 -28q4 -9 -4 -12zM440 323q-62 34 -162 34q-56 0 -85 -5t-46.5 -24.5t-21.5 -47.5t-4 -85q0 -95 28 -121.5t134 -26.5q45 0 69.5 3.5t45 12.5t29 30t12.5 52t4 83q0 71 -3 95z" />
    <glyph glyph-name="ntilde" unicode="&#xf1;" horiz-adv-x="523" 
d="M135 496v-43q60 66 154 66q64 0 99.5 -17.5t55 -69t19.5 -147.5v-276q0 -9 -9 -9h-47q-9 0 -9 9v263q0 68 -3.5 100.5t-20 52.5t-39.5 23.5t-73 3.5q-76 0 -127 -28v-415q0 -9 -9 -9h-47q-9 0 -9 9v487q0 9 9 9h47q9 0 9 -9zM207 636q-30 0 -47 -48q-4 -11 -13 -4l-32 19
q-7 5 -2 15q36 75 94 75q28 0 61.5 -27t55.5 -27q32 0 49 48q4 11 13 4l32 -19q7 -5 2 -15q-36 -75 -88 -75q-31 0 -54.5 13.5t-40 27t-30.5 13.5z" />
    <glyph glyph-name="ograve" unicode="&#xf2;" horiz-adv-x="542" 
d="M271 457q-48 0 -72 -5.5t-41 -28.5t-21.5 -61t-4.5 -109q0 -60 3.5 -95t11 -59t25.5 -34t39 -13.5t60 -3.5t60 3.5t39 13.5t25.5 34t11 59t3.5 95q0 71 -4.5 109t-21.5 61t-41 28.5t-72 5.5zM271 -14q-119 0 -165 57.5t-46 211.5q0 152 46 208t165 56t165 -56t46 -208
q0 -154 -46 -211.5t-165 -57.5zM313 561l-119 112q-4 3 -3.5 8.5t4.5 6.5l40 21q10 4 17 -3l104 -115q2 -3 2 -7.5t-4 -5.5l-27 -18q-8 -3 -14 1z" />
    <glyph glyph-name="oacute" unicode="&#xf3;" horiz-adv-x="542" 
d="M271 457q-48 0 -72 -5.5t-41 -28.5t-21.5 -61t-4.5 -109q0 -60 3.5 -95t11 -59t25.5 -34t39 -13.5t60 -3.5t60 3.5t39 13.5t25.5 34t11 59t3.5 95q0 71 -4.5 109t-21.5 61t-41 28.5t-72 5.5zM271 -14q-119 0 -165 57.5t-46 211.5q0 152 46 208t165 56t165 -56t46 -208
q0 -154 -46 -211.5t-165 -57.5zM370 673l-119 -112q-6 -4 -14 -1l-27 18q-4 1 -4 5.5t2 7.5l104 115q7 7 17 3l40 -21q4 -1 4.5 -6.5t-3.5 -8.5z" />
    <glyph glyph-name="ocircumflex" unicode="&#xf4;" horiz-adv-x="542" 
d="M271 457q-48 0 -72 -5.5t-41 -28.5t-21.5 -61t-4.5 -109q0 -60 3.5 -95t11 -59t25.5 -34t39 -13.5t60 -3.5t60 3.5t39 13.5t25.5 34t11 59t3.5 95q0 71 -4.5 109t-21.5 61t-41 28.5t-72 5.5zM271 -14q-119 0 -165 57.5t-46 211.5q0 152 46 208t165 56t165 -56t46 -208
q0 -154 -46 -211.5t-165 -57.5zM254 708h44q14 0 22 -8l91 -98q3 -3 1.5 -7t-5.5 -6l-33 -18q-6 -3 -13 4l-85 90l-85 -90q-8 -8 -13 -4l-33 18q-4 2 -5.5 6t1.5 7l91 98q8 8 22 8z" />
    <glyph glyph-name="otilde" unicode="&#xf5;" horiz-adv-x="542" 
d="M271 457q-48 0 -72 -5.5t-41 -28.5t-21.5 -61t-4.5 -109q0 -60 3.5 -95t11 -59t25.5 -34t39 -13.5t60 -3.5t60 3.5t39 13.5t25.5 34t11 59t3.5 95q0 71 -4.5 109t-21.5 61t-41 28.5t-72 5.5zM271 -14q-119 0 -165 57.5t-46 211.5q0 152 46 208t165 56t165 -56t46 -208
q0 -154 -46 -211.5t-165 -57.5zM214 636q-30 0 -47 -48q-4 -11 -13 -4l-32 19q-7 5 -2 15q36 75 94 75q28 0 61.5 -27t55.5 -27q32 0 49 48q4 11 13 4l32 -19q7 -5 2 -15q-36 -75 -88 -75q-31 0 -54.5 13.5t-40 27t-30.5 13.5z" />
    <glyph glyph-name="odieresis" unicode="&#xf6;" horiz-adv-x="542" 
d="M271 457q-48 0 -72 -5.5t-41 -28.5t-21.5 -61t-4.5 -109q0 -60 3.5 -95t11 -59t25.5 -34t39 -13.5t60 -3.5t60 3.5t39 13.5t25.5 34t11 59t3.5 95q0 71 -4.5 109t-21.5 61t-41 28.5t-72 5.5zM271 -14q-119 0 -165 57.5t-46 211.5q0 152 46 208t165 56t165 -56t46 -208
q0 -154 -46 -211.5t-165 -57.5zM186 667q24 0 32.5 -7t8.5 -32q0 -27 -8.5 -35t-32.5 -8q-25 0 -33.5 8t-8.5 35q0 25 8.5 32t33.5 7zM365 667q24 0 32.5 -7t8.5 -32q0 -27 -8.5 -35t-32.5 -8q-25 0 -33.5 8t-8.5 35q0 25 8.5 32t33.5 7z" />
    <glyph glyph-name="divide" unicode="&#xf7;" horiz-adv-x="544" 
d="M482 245h-420q-9 0 -9 9v43q0 9 9 9h420q9 0 9 -9v-43q0 -9 -9 -9zM275 176q31 0 39.5 -8.5t8.5 -37.5q0 -32 -9 -41.5t-39 -9.5q-28 0 -37 9.5t-9 41.5q0 29 8.5 37.5t37.5 8.5zM275 472q31 0 39.5 -8.5t8.5 -37.5q0 -32 -9 -41.5t-39 -9.5q-28 0 -37 9.5t-9 41.5
q0 29 8.5 37.5t37.5 8.5z" />
    <glyph glyph-name="oslash" unicode="&#xf8;" horiz-adv-x="542" 
d="M490 536l-51 -77q43 -59 43 -204q0 -154 -46 -211.5t-165 -57.5q-81 0 -127 25l-49 -74q-3 -8 -10 -4l-36 17q-7 6 -3 10l57 87q-43 60 -43 208q0 152 46 208t165 56q82 0 126 -24l44 66q4 6 10 3l36 -18q7 -2 3 -10zM410 253q0 103 -13 143l-220 -334q24 -14 94 -14
q39 0 60 3.5t39 13.5t25.5 34t11 59t3.5 95zM271 457q-48 0 -72 -5.5t-41 -28.5t-21.5 -61t-4.5 -109q0 -107 11 -145l220 334q-26 15 -92 15z" />
    <glyph glyph-name="ugrave" unicode="&#xf9;" horiz-adv-x="527" 
d="M453 62l14 -46q3 -8 -6 -12l-46 -11q-9 -4 -11 5l-16 54q-60 -66 -154 -66q-64 0 -99.5 17.5t-55 69t-19.5 147.5v276q0 9 9 9h47q9 0 9 -9v-263q0 -68 3.5 -100.5t20 -52.5t39.5 -23.5t73 -3.5q76 0 127 28v415q0 9 9 9h47q9 0 9 -9v-434zM292 561l-119 112
q-4 3 -3.5 8.5t4.5 6.5l40 21q10 4 17 -3l104 -115q2 -3 2 -7.5t-4 -5.5l-27 -18q-8 -3 -14 1z" />
    <glyph glyph-name="uacute" unicode="&#xfa;" horiz-adv-x="527" 
d="M453 62l14 -46q3 -8 -6 -12l-46 -11q-9 -4 -11 5l-16 54q-60 -66 -154 -66q-64 0 -99.5 17.5t-55 69t-19.5 147.5v276q0 9 9 9h47q9 0 9 -9v-263q0 -68 3.5 -100.5t20 -52.5t39.5 -23.5t73 -3.5q76 0 127 28v415q0 9 9 9h47q9 0 9 -9v-434zM363 673l-119 -112
q-6 -4 -14 -1l-27 18q-4 1 -4 5.5t2 7.5l104 115q7 7 17 3l40 -21q4 -1 4.5 -6.5t-3.5 -8.5z" />
    <glyph glyph-name="ucircumflex" unicode="&#xfb;" horiz-adv-x="527" 
d="M453 62l14 -46q3 -8 -6 -12l-46 -11q-9 -4 -11 5l-16 54q-60 -66 -154 -66q-64 0 -99.5 17.5t-55 69t-19.5 147.5v276q0 9 9 9h47q9 0 9 -9v-263q0 -68 3.5 -100.5t20 -52.5t39.5 -23.5t73 -3.5q76 0 127 28v415q0 9 9 9h47q9 0 9 -9v-434zM244 708h44q14 0 22 -8l91 -98
q3 -3 1.5 -7t-5.5 -6l-33 -18q-6 -3 -13 4l-85 90l-85 -90q-8 -8 -13 -4l-33 18q-4 2 -5.5 6t1.5 7l91 98q8 8 22 8z" />
    <glyph glyph-name="udieresis" unicode="&#xfc;" horiz-adv-x="527" 
d="M453 62l14 -46q3 -8 -6 -12l-46 -11q-9 -4 -11 5l-16 54q-60 -66 -154 -66q-64 0 -99.5 17.5t-55 69t-19.5 147.5v276q0 9 9 9h47q9 0 9 -9v-263q0 -68 3.5 -100.5t20 -52.5t39.5 -23.5t73 -3.5q76 0 127 28v415q0 9 9 9h47q9 0 9 -9v-434zM174 667q24 0 32.5 -7t8.5 -32
q0 -27 -8.5 -35t-32.5 -8q-25 0 -33.5 8t-8.5 35q0 25 8.5 32t33.5 7zM353 667q24 0 32.5 -7t8.5 -32q0 -27 -8.5 -35t-32.5 -8q-25 0 -33.5 8t-8.5 35q0 25 8.5 32t33.5 7z" />
    <glyph glyph-name="yacute" unicode="&#xfd;" horiz-adv-x="461" 
d="M439 488l-190 -567q-42 -124 -144 -124q-10 0 -11 10l-7 43q-1 4 1 7t5 3q53 0 71.5 23.5t45.5 116.5h-12q-10 0 -13 8l-163 480q-4 9 6 11l48 12q9 2 11 -5l129 -386l15 -75l19 75l126 386q2 7 11 5l46 -12q10 -2 6 -11zM348 673l-119 -112q-6 -4 -14 -1l-27 18
q-4 1 -4 5.5t2 7.5l104 115q7 7 17 3l40 -21q4 -1 4.5 -6.5t-3.5 -8.5z" />
    <glyph glyph-name="thorn" unicode="&#xfe;" horiz-adv-x="539" 
d="M135 424v-343q60 -33 127 -33q33 0 52.5 2t37.5 10t26.5 20.5t14.5 37t8 55.5t2 80q0 58 -3.5 92t-11 58.5t-25 35t-40 14.5t-61.5 4q-67 0 -127 -33zM70 -194v899q0 9 9 9h47q9 0 9 -9v-252q23 29 65 47.5t82 18.5q105 0 149 -57.5t44 -208.5t-44 -209t-149 -58
q-40 0 -82 18.5t-65 47.5v-246q0 -9 -9 -9h-47q-9 0 -9 9z" />
    <glyph glyph-name="ydieresis" unicode="&#xff;" horiz-adv-x="461" 
d="M439 488l-190 -567q-42 -124 -144 -124q-10 0 -11 10l-7 43q-1 4 1 7t5 3q53 0 71.5 23.5t45.5 116.5h-12q-10 0 -13 8l-163 480q-4 9 6 11l48 12q9 2 11 -5l129 -386l15 -75l19 75l126 386q2 7 11 5l46 -12q10 -2 6 -11zM143 667q24 0 32.5 -7t8.5 -32q0 -27 -8.5 -35
t-32.5 -8q-25 0 -33.5 8t-8.5 35q0 25 8.5 32t33.5 7zM322 667q24 0 32.5 -7t8.5 -32q0 -27 -8.5 -35t-32.5 -8q-25 0 -33.5 8t-8.5 35q0 25 8.5 32t33.5 7z" />
    <glyph glyph-name="Amacron" unicode="&#x100;" horiz-adv-x="565" 
d="M419 210h-277l-68 -213q-2 -7 -11 -5l-46 12q-10 2 -6 11l223 673q4 9 10 9h78q6 0 10 -9l222 -673q4 -9 -6 -11l-48 -12q-9 -2 -11 5zM401 267l-101 310l-20 79l-20 -79l-100 -310h241zM395 771h-230q-9 0 -9 9v40q0 9 9 9h230q9 0 9 -9v-40q0 -9 -9 -9z" />
    <glyph glyph-name="amacron" unicode="&#x101;" horiz-adv-x="522" 
d="M256 248q-80 0 -103.5 -19.5t-23.5 -80.5t23.5 -80.5t103.5 -19.5q67 0 127 33v134q-60 33 -127 33zM252 519q109 0 152.5 -44t43.5 -165v-248l14 -46q3 -8 -6 -12l-46 -11q-9 -4 -11 5l-16 54q-17 -24 -58.5 -45t-78.5 -21q-107 0 -146.5 37.5t-39.5 124.5t39.5 124.5
t146.5 37.5q37 0 78.5 -21t58.5 -45v66q0 91 -25.5 119t-105.5 28q-73 0 -131 -21q-8 -3 -10 6l-12 42q-3 10 5 13q69 22 148 22zM382 598h-230q-9 0 -9 9v40q0 9 9 9h230q9 0 9 -9v-40q0 -9 -9 -9z" />
    <glyph glyph-name="Abreve" unicode="&#x102;" horiz-adv-x="565" 
d="M419 210h-277l-68 -213q-2 -7 -11 -5l-46 12q-10 2 -6 11l223 673q4 9 10 9h78q6 0 10 -9l222 -673q4 -9 -6 -11l-48 -12q-9 -2 -11 5zM401 267l-101 310l-20 79l-20 -79l-100 -310h241zM277 745q-68 0 -101 27t-33 90q0 9 11 9h37q10 0 10 -9q0 -41 13 -50.5t64 -9.5
t64 9.5t13 50.5q0 9 10 9h37q11 0 11 -9q0 -63 -33.5 -90t-102.5 -27z" />
    <glyph glyph-name="abreve" unicode="&#x103;" horiz-adv-x="522" 
d="M256 248q-80 0 -103.5 -19.5t-23.5 -80.5t23.5 -80.5t103.5 -19.5q67 0 127 33v134q-60 33 -127 33zM252 519q109 0 152.5 -44t43.5 -165v-248l14 -46q3 -8 -6 -12l-46 -11q-9 -4 -11 5l-16 54q-17 -24 -58.5 -45t-78.5 -21q-107 0 -146.5 37.5t-39.5 124.5t39.5 124.5
t146.5 37.5q37 0 78.5 -21t58.5 -45v66q0 91 -25.5 119t-105.5 28q-73 0 -131 -21q-8 -3 -10 6l-12 42q-3 10 5 13q69 22 148 22zM274 579q-66 0 -97 28.5t-31 90.5q0 9 11 9h34q10 0 10 -9q0 -41 12.5 -53t61.5 -12t61.5 12t12.5 53q0 9 10 9h34q11 0 11 -9
q0 -63 -31.5 -91t-98.5 -28z" />
    <glyph glyph-name="Aogonek" unicode="&#x104;" horiz-adv-x="565" 
d="M419 210h-277l-68 -213q-2 -7 -11 -5l-46 12q-10 2 -6 11l223 673q4 9 10 9h78q6 0 10 -9l222 -673q4 -9 -6 -11l-34 -8q-38 -25 -48.5 -44t-10.5 -50q0 -27 10 -39t48 -12q44 0 75 10q11 3 13 -4l9 -30q5 -13 -5 -16q-46 -14 -97 -14q-69 0 -93 23t-24 72q0 80 95 114z
M401 267l-101 310l-20 79l-20 -79l-100 -310h241z" />
    <glyph glyph-name="aogonek" unicode="&#x105;" horiz-adv-x="522" 
d="M505 -143l9 -30q5 -13 -5 -16q-46 -14 -97 -14q-69 0 -93 23t-24 72q0 84 101 116l-13 44q-17 -24 -58.5 -45t-78.5 -21q-107 0 -146.5 37.5t-39.5 124.5t39.5 124.5t146.5 37.5q37 0 78.5 -21t58.5 -45v66q0 91 -25.5 119t-105.5 28q-73 0 -131 -21q-8 -3 -10 6l-12 42
q-3 10 5 13q69 22 148 22q109 0 152.5 -44t43.5 -165v-248l14 -46q3 -8 -6 -12l-40 -9q-37 -25 -47 -43.5t-10 -49.5q0 -27 10 -39t48 -12q44 0 75 10q11 3 13 -4zM256 248q-80 0 -103.5 -19.5t-23.5 -80.5t23.5 -80.5t103.5 -19.5q67 0 127 33v134q-60 33 -127 33z" />
    <glyph glyph-name="Cacute" unicode="&#x106;" horiz-adv-x="552" 
d="M353 652q-48 0 -77.5 -3.5t-55.5 -15t-39.5 -30t-23.5 -53.5t-13 -80.5t-3 -114.5q0 -71 3 -118t13 -83t23.5 -55.5t39.5 -31t55.5 -15t77.5 -3.5q88 0 155 24q8 3 10 -6l13 -43q3 -10 -5 -13q-84 -25 -174 -25q-82 0 -133 15t-88 55.5t-52.5 112.5t-15.5 186
q0 110 15.5 180t52.5 110t88.5 54.5t132.5 14.5q90 0 174 -25q8 -3 5 -13l-13 -43q-2 -9 -10 -6q-70 25 -155 25zM453 855l-130 -112q-6 -4 -14 -1l-31 15q-4 1 -4 5.5t2 7.5l115 113q7 7 17 3l44 -16q4 -1 4.5 -6.5t-3.5 -8.5z" />
    <glyph glyph-name="cacute" unicode="&#x107;" horiz-adv-x="439" 
d="M272 48q68 0 120 21q8 3 10 -6l12 -43q3 -10 -5 -13q-57 -21 -137 -21q-119 0 -165.5 57.5t-46.5 211.5q0 152 46.5 208t165.5 56q80 0 137 -21q8 -3 5 -13l-12 -43q-2 -9 -10 -6q-52 21 -120 21q-48 0 -72.5 -6t-41.5 -28.5t-21.5 -60.5t-4.5 -109q0 -60 4 -95t11 -59
t25.5 -34t39.5 -13.5t60 -3.5zM372 673l-119 -112q-6 -4 -14 -1l-27 18q-4 1 -4 5.5t2 7.5l104 115q7 7 17 3l40 -21q4 -1 4.5 -6.5t-3.5 -8.5z" />
    <glyph glyph-name="Ccircumflex" unicode="&#x108;" horiz-adv-x="552" 
d="M353 652q-48 0 -77.5 -3.5t-55.5 -15t-39.5 -30t-23.5 -53.5t-13 -80.5t-3 -114.5q0 -71 3 -118t13 -83t23.5 -55.5t39.5 -31t55.5 -15t77.5 -3.5q88 0 155 24q8 3 10 -6l13 -43q3 -10 -5 -13q-84 -25 -174 -25q-82 0 -133 15t-88 55.5t-52.5 112.5t-15.5 186
q0 110 15.5 180t52.5 110t88.5 54.5t132.5 14.5q90 0 174 -25q8 -3 5 -13l-13 -43q-2 -9 -10 -6q-70 25 -155 25zM317 876h44q14 0 22 -8l101 -84q3 -3 1.5 -7t-5.5 -6l-33 -22q-6 -3 -13 4l-95 82l-95 -82q-8 -8 -13 -4l-33 22q-4 2 -5.5 6t1.5 7l101 84q8 8 22 8z" />
    <glyph glyph-name="ccircumflex" unicode="&#x109;" horiz-adv-x="439" 
d="M272 48q68 0 120 21q8 3 10 -6l12 -43q3 -10 -5 -13q-57 -21 -137 -21q-119 0 -165.5 57.5t-46.5 211.5q0 152 46.5 208t165.5 56q80 0 137 -21q8 -3 5 -13l-12 -43q-2 -9 -10 -6q-52 21 -120 21q-48 0 -72.5 -6t-41.5 -28.5t-21.5 -60.5t-4.5 -109q0 -60 4 -95t11 -59
t25.5 -34t39.5 -13.5t60 -3.5zM253 708h44q14 0 22 -8l91 -98q3 -3 1.5 -7t-5.5 -6l-33 -18q-6 -3 -13 4l-85 90l-85 -90q-8 -8 -13 -4l-33 18q-4 2 -5.5 6t1.5 7l91 98q8 8 22 8z" />
    <glyph glyph-name="Cdotaccent" unicode="&#x10a;" horiz-adv-x="552" 
d="M353 652q-48 0 -77.5 -3.5t-55.5 -15t-39.5 -30t-23.5 -53.5t-13 -80.5t-3 -114.5q0 -71 3 -118t13 -83t23.5 -55.5t39.5 -31t55.5 -15t77.5 -3.5q88 0 155 24q8 3 10 -6l13 -43q3 -10 -5 -13q-84 -25 -174 -25q-82 0 -133 15t-88 55.5t-52.5 112.5t-15.5 186
q0 110 15.5 180t52.5 110t88.5 54.5t132.5 14.5q90 0 174 -25q8 -3 5 -13l-13 -43q-2 -9 -10 -6q-70 25 -155 25zM345 847q24 0 32.5 -7t8.5 -32q0 -27 -8.5 -35t-32.5 -8q-25 0 -33.5 8t-8.5 35q0 25 8.5 32t33.5 7z" />
    <glyph glyph-name="cdotaccent" unicode="&#x10b;" horiz-adv-x="439" 
d="M272 48q68 0 120 21q8 3 10 -6l12 -43q3 -10 -5 -13q-57 -21 -137 -21q-119 0 -165.5 57.5t-46.5 211.5q0 152 46.5 208t165.5 56q80 0 137 -21q8 -3 5 -13l-12 -43q-2 -9 -10 -6q-52 21 -120 21q-48 0 -72.5 -6t-41.5 -28.5t-21.5 -60.5t-4.5 -109q0 -60 4 -95t11 -59
t25.5 -34t39.5 -13.5t60 -3.5zM269 666q24 0 32.5 -7t8.5 -32q0 -27 -8.5 -35t-32.5 -8q-25 0 -33.5 8t-8.5 35q0 25 8.5 32t33.5 7z" />
    <glyph glyph-name="Ccaron" unicode="&#x10c;" horiz-adv-x="552" 
d="M353 652q-48 0 -77.5 -3.5t-55.5 -15t-39.5 -30t-23.5 -53.5t-13 -80.5t-3 -114.5q0 -71 3 -118t13 -83t23.5 -55.5t39.5 -31t55.5 -15t77.5 -3.5q88 0 155 24q8 3 10 -6l13 -43q3 -10 -5 -13q-84 -25 -174 -25q-82 0 -133 15t-88 55.5t-52.5 112.5t-15.5 186
q0 110 15.5 180t52.5 110t88.5 54.5t132.5 14.5q90 0 174 -25q8 -3 5 -13l-13 -43q-2 -9 -10 -6q-70 25 -155 25zM371 747h-44q-14 0 -22 8l-101 84q-3 3 -1.5 7t5.5 6l33 22q6 3 13 -4l95 -82l95 82q8 8 13 4l33 -22q4 -2 5.5 -6t-1.5 -7l-101 -84q-8 -8 -22 -8z" />
    <glyph glyph-name="ccaron" unicode="&#x10d;" horiz-adv-x="439" 
d="M272 48q68 0 120 21q8 3 10 -6l12 -43q3 -10 -5 -13q-57 -21 -137 -21q-119 0 -165.5 57.5t-46.5 211.5q0 152 46.5 208t165.5 56q80 0 137 -21q8 -3 5 -13l-12 -43q-2 -9 -10 -6q-52 21 -120 21q-48 0 -72.5 -6t-41.5 -28.5t-21.5 -60.5t-4.5 -109q0 -60 4 -95t11 -59
t25.5 -34t39.5 -13.5t60 -3.5zM294 568h-44q-14 0 -22 8l-91 98q-3 3 -1.5 7t5.5 6l33 18q6 3 13 -4l85 -90l85 90q8 8 13 4l33 -18q4 -2 5.5 -6t-1.5 -7l-91 -98q-8 -8 -22 -8z" />
    <glyph glyph-name="Dcaron" unicode="&#x10e;" horiz-adv-x="640" 
d="M99 0q-9 0 -9 9v679q0 9 9 9h184q165 0 229.5 -73.5t64.5 -273.5t-64.5 -275t-229.5 -75h-184zM283 637h-122v-577h122q58 0 94 8t62 25t38.5 52.5t17.5 82t5 122.5q0 67 -3 109.5t-12.5 77t-23 52.5t-40 29.5t-57.5 15t-81 3.5zM324 747h-44q-14 0 -22 8l-101 84
q-3 3 -1.5 7t5.5 6l33 22q6 3 13 -4l95 -82l95 82q8 8 13 4l33 -22q4 -2 5.5 -6t-1.5 -7l-101 -84q-8 -8 -22 -8z" />
    <glyph glyph-name="dcaron" unicode="&#x10f;" horiz-adv-x="535" 
d="M400 81v343q-60 33 -127 33q-33 0 -52.5 -2t-37.5 -10t-26.5 -20.5t-14.5 -37t-8 -55.5t-2 -80q0 -58 3.5 -92t11 -58.5t25 -35t40 -14.5t61.5 -4q67 0 127 33zM465 705v-696q0 -9 -9 -9h-47q-9 0 -9 9v43q-23 -29 -65 -47.5t-82 -18.5q-105 0 -149 57.5t-44 208.5
t44 209t149 58q40 0 82 -18.5t65 -47.5v252q0 9 9 9h47q9 0 9 -9zM587 700l-40 -147q-4 -11 -12 -11h-21q-10 0 -8 11l14 148q2 13 13 13h43q6 0 9.5 -4.5t1.5 -9.5z" />
    <glyph glyph-name="Dcroat" unicode="&#x110;" horiz-adv-x="640" 
d="M99 0q-9 0 -9 9v320h-50q-9 0 -9 9v40q0 9 9 9h50v301q0 9 9 9h184q165 0 229.5 -73.5t64.5 -273.5t-64.5 -275t-229.5 -75h-184zM280 329h-119v-269h122q58 0 94 8t62 25t38.5 52.5t17.5 82t5 122.5q0 67 -3 109.5t-12.5 77t-23 52.5t-40 29.5t-57.5 15t-81 3.5h-122
v-250h119q9 0 9 -9v-40q0 -9 -9 -9z" />
    <glyph glyph-name="dcroat" unicode="&#x111;" horiz-adv-x="535" 
d="M521 598h-56v-589q0 -9 -9 -9h-47q-9 0 -9 9v43q-23 -29 -65 -47.5t-82 -18.5q-105 0 -149 57.5t-44 208.5t44 209t149 58q40 0 82 -18.5t65 -47.5v145h-109q-9 0 -9 9v40q0 9 9 9h109v49q0 9 9 9h47q9 0 9 -9v-49h56q9 0 9 -9v-40q0 -9 -9 -9zM400 81v343
q-60 33 -127 33q-33 0 -52.5 -2t-37.5 -10t-26.5 -20.5t-14.5 -37t-8 -55.5t-2 -80q0 -58 3.5 -92t11 -58.5t25 -35t40 -14.5t61.5 -4q67 0 127 33z" />
    <glyph glyph-name="Emacron" unicode="&#x112;" horiz-adv-x="527" 
d="M488 0h-389q-9 0 -9 9v679q0 9 9 9h389q9 0 9 -9v-42q0 -9 -9 -9h-327v-237h267q9 0 9 -9v-42q0 -9 -9 -9h-267v-280h327q9 0 9 -9v-42q0 -9 -9 -9zM414 771h-230q-9 0 -9 9v40q0 9 9 9h230q9 0 9 -9v-40q0 -9 -9 -9z" />
    <glyph glyph-name="emacron" unicode="&#x113;" horiz-adv-x="504" 
d="M440 253h-311q0 -50 2 -81.5t9.5 -56t16.5 -36.5t28 -19.5t39.5 -9.5t56.5 -2q66 0 124 24q8 3 10 -6l12 -43q3 -10 -5 -13q-61 -24 -141 -24q-126 0 -173.5 57t-47.5 212q0 149 47 206.5t157 57.5q74 0 113 -20t58 -74.5t19 -158.5q0 -13 -14 -13zM130 307h259
q-3 98 -26 125t-102 27q-78 0 -102.5 -28t-28.5 -124zM382 598h-230q-9 0 -9 9v40q0 9 9 9h230q9 0 9 -9v-40q0 -9 -9 -9z" />
    <glyph glyph-name="Ebreve" unicode="&#x114;" horiz-adv-x="527" 
d="M488 0h-389q-9 0 -9 9v679q0 9 9 9h389q9 0 9 -9v-42q0 -9 -9 -9h-327v-237h267q9 0 9 -9v-42q0 -9 -9 -9h-267v-280h327q9 0 9 -9v-42q0 -9 -9 -9zM299 745q-68 0 -101 27t-33 90q0 9 11 9h37q10 0 10 -9q0 -41 13 -50.5t64 -9.5t64 9.5t13 50.5q0 9 10 9h37q11 0 11 -9
q0 -63 -33.5 -90t-102.5 -27z" />
    <glyph glyph-name="ebreve" unicode="&#x115;" horiz-adv-x="504" 
d="M440 253h-311q0 -50 2 -81.5t9.5 -56t16.5 -36.5t28 -19.5t39.5 -9.5t56.5 -2q66 0 124 24q8 3 10 -6l12 -43q3 -10 -5 -13q-61 -24 -141 -24q-126 0 -173.5 57t-47.5 212q0 149 47 206.5t157 57.5q74 0 113 -20t58 -74.5t19 -158.5q0 -13 -14 -13zM130 307h259
q-3 98 -26 125t-102 27q-78 0 -102.5 -28t-28.5 -124zM267 579q-66 0 -97 28.5t-31 90.5q0 9 11 9h34q10 0 10 -9q0 -41 12.5 -53t61.5 -12t61.5 12t12.5 53q0 9 10 9h34q11 0 11 -9q0 -63 -31.5 -91t-98.5 -28z" />
    <glyph glyph-name="Edotaccent" unicode="&#x116;" horiz-adv-x="527" 
d="M488 0h-389q-9 0 -9 9v679q0 9 9 9h389q9 0 9 -9v-42q0 -9 -9 -9h-327v-237h267q9 0 9 -9v-42q0 -9 -9 -9h-267v-280h327q9 0 9 -9v-42q0 -9 -9 -9zM302 847q24 0 32.5 -7t8.5 -32q0 -27 -8.5 -35t-32.5 -8q-25 0 -33.5 8t-8.5 35q0 25 8.5 32t33.5 7z" />
    <glyph glyph-name="edotaccent" unicode="&#x117;" horiz-adv-x="504" 
d="M440 253h-311q0 -50 2 -81.5t9.5 -56t16.5 -36.5t28 -19.5t39.5 -9.5t56.5 -2q66 0 124 24q8 3 10 -6l12 -43q3 -10 -5 -13q-61 -24 -141 -24q-126 0 -173.5 57t-47.5 212q0 149 47 206.5t157 57.5q74 0 113 -20t58 -74.5t19 -158.5q0 -13 -14 -13zM130 307h259
q-3 98 -26 125t-102 27q-78 0 -102.5 -28t-28.5 -124zM270 666q24 0 32.5 -7t8.5 -32q0 -27 -8.5 -35t-32.5 -8q-25 0 -33.5 8t-8.5 35q0 25 8.5 32t33.5 7z" />
    <glyph glyph-name="Eogonek" unicode="&#x118;" horiz-adv-x="527" 
d="M514 -143l9 -30q5 -13 -5 -16q-46 -14 -97 -14q-69 0 -93 23t-24 72q0 74 80 108h-285q-9 0 -9 9v679q0 9 9 9h389q9 0 9 -9v-42q0 -9 -9 -9h-327v-237h267q9 0 9 -9v-42q0 -9 -9 -9h-267v-280h327q9 0 9 -9v-42q0 -9 -9 -9h-55q-42 -27 -53.5 -46.5t-11.5 -51.5
q0 -27 10 -39t48 -12q44 0 75 10q11 3 13 -4z" />
    <glyph glyph-name="eogonek" unicode="&#x119;" horiz-adv-x="504" 
d="M422 -143l9 -30q5 -13 -5 -16q-46 -14 -97 -14q-69 0 -93 23t-24 72q0 61 53 94q-117 3 -161 61t-44 208q0 149 47 206.5t157 57.5q74 0 113 -20t58 -74.5t19 -158.5q0 -13 -14 -13h-311q0 -50 2 -81.5t9.5 -56t16.5 -36.5t28 -19.5t39.5 -9.5t56.5 -2q66 0 124 24
q8 3 10 -6l12 -43q3 -10 -5 -13q-44 -16 -98 -21q-31 -22 -39.5 -40t-8.5 -47q0 -27 10 -39t48 -12q44 0 75 10q11 3 13 -4zM130 307h259q-3 98 -26 125t-102 27q-78 0 -102.5 -28t-28.5 -124z" />
    <glyph glyph-name="Ecaron" unicode="&#x11a;" horiz-adv-x="527" 
d="M488 0h-389q-9 0 -9 9v679q0 9 9 9h389q9 0 9 -9v-42q0 -9 -9 -9h-327v-237h267q9 0 9 -9v-42q0 -9 -9 -9h-267v-280h327q9 0 9 -9v-42q0 -9 -9 -9zM323 747h-44q-14 0 -22 8l-101 84q-3 3 -1.5 7t5.5 6l33 22q6 3 13 -4l95 -82l95 82q8 8 13 4l33 -22q4 -2 5.5 -6
t-1.5 -7l-101 -84q-8 -8 -22 -8z" />
    <glyph glyph-name="ecaron" unicode="&#x11b;" horiz-adv-x="504" 
d="M440 253h-311q0 -50 2 -81.5t9.5 -56t16.5 -36.5t28 -19.5t39.5 -9.5t56.5 -2q66 0 124 24q8 3 10 -6l12 -43q3 -10 -5 -13q-61 -24 -141 -24q-126 0 -173.5 57t-47.5 212q0 149 47 206.5t157 57.5q74 0 113 -20t58 -74.5t19 -158.5q0 -13 -14 -13zM130 307h259
q-3 98 -26 125t-102 27q-78 0 -102.5 -28t-28.5 -124zM287 568h-44q-14 0 -22 8l-91 98q-3 3 -1.5 7t5.5 6l33 18q6 3 13 -4l85 -90l85 90q8 8 13 4l33 -18q4 -2 5.5 -6t-1.5 -7l-91 -98q-8 -8 -22 -8z" />
    <glyph glyph-name="Gcircumflex" unicode="&#x11c;" horiz-adv-x="632" 
d="M551 358v-333q0 -10 -9 -14q-84 -25 -190 -25q-82 0 -133 15t-88 55.5t-52.5 112.5t-15.5 186q0 110 15.5 180t52.5 110t88.5 54.5t132.5 14.5q110 0 194 -25q8 -3 5 -13l-13 -43q-2 -9 -10 -6q-70 25 -175 25q-48 0 -77.5 -3.5t-55.5 -15t-39.5 -30t-23.5 -53.5
t-13 -80.5t-3 -114.5q0 -86 6 -138t17.5 -88t38.5 -52.5t60 -22.5t90 -6q74 0 127 11v299q0 9 9 9h53q9 0 9 -9zM332 876h44q14 0 22 -8l101 -84q3 -3 1.5 -7t-5.5 -6l-33 -22q-6 -3 -13 4l-95 82l-95 -82q-8 -8 -13 -4l-33 22q-4 2 -5.5 6t1.5 7l101 84q8 8 22 8z" />
    <glyph glyph-name="gcircumflex" unicode="&#x11d;" horiz-adv-x="539" 
d="M495 450h-102q64 -57 64 -122q0 -82 -50.5 -119t-154.5 -37q-64 0 -102 11q-5 -20 -5 -36q0 -23 6 -32.5t33.5 -15.5t89.5 -6q124 0 172.5 -28t48.5 -111q0 -84 -52.5 -120.5t-178.5 -36.5q-113 0 -164.5 30t-51.5 100q0 77 82 123q-30 11 -39.5 27.5t-9.5 41.5
q0 39 50 71q-42 16 -60 51.5t-18 95.5q0 94 49.5 131t149.5 37h243q9 0 9 -9v-37q0 -9 -9 -9zM386 339q0 65 -23 111h-108q-83 0 -107.5 -20.5t-24.5 -87.5q0 -68 23.5 -89.5t105.5 -21.5q87 0 110.5 20.5t23.5 87.5zM274 35q-85 0 -129 11q-23 -44 -23 -101q0 -50 30 -68
t118 -18q87 0 119.5 19.5t32.5 66.5q0 40 -9 57t-39.5 25t-99.5 8zM248 708h44q14 0 22 -8l91 -98q3 -3 1.5 -7t-5.5 -6l-33 -18q-6 -3 -13 4l-85 90l-85 -90q-8 -8 -13 -4l-33 18q-4 2 -5.5 6t1.5 7l91 98q8 8 22 8z" />
    <glyph glyph-name="Gbreve" unicode="&#x11e;" horiz-adv-x="632" 
d="M551 358v-333q0 -10 -9 -14q-84 -25 -190 -25q-82 0 -133 15t-88 55.5t-52.5 112.5t-15.5 186q0 110 15.5 180t52.5 110t88.5 54.5t132.5 14.5q110 0 194 -25q8 -3 5 -13l-13 -43q-2 -9 -10 -6q-70 25 -175 25q-48 0 -77.5 -3.5t-55.5 -15t-39.5 -30t-23.5 -53.5
t-13 -80.5t-3 -114.5q0 -86 6 -138t17.5 -88t38.5 -52.5t60 -22.5t90 -6q74 0 127 11v299q0 9 9 9h53q9 0 9 -9zM341 745q-68 0 -101 27t-33 90q0 9 11 9h37q10 0 10 -9q0 -41 13 -50.5t64 -9.5t64 9.5t13 50.5q0 9 10 9h37q11 0 11 -9q0 -63 -33.5 -90t-102.5 -27z" />
    <glyph glyph-name="gbreve" unicode="&#x11f;" horiz-adv-x="539" 
d="M495 450h-102q64 -57 64 -122q0 -82 -50.5 -119t-154.5 -37q-64 0 -102 11q-5 -20 -5 -36q0 -23 6 -32.5t33.5 -15.5t89.5 -6q124 0 172.5 -28t48.5 -111q0 -84 -52.5 -120.5t-178.5 -36.5q-113 0 -164.5 30t-51.5 100q0 77 82 123q-30 11 -39.5 27.5t-9.5 41.5
q0 39 50 71q-42 16 -60 51.5t-18 95.5q0 94 49.5 131t149.5 37h243q9 0 9 -9v-37q0 -9 -9 -9zM386 339q0 65 -23 111h-108q-83 0 -107.5 -20.5t-24.5 -87.5q0 -68 23.5 -89.5t105.5 -21.5q87 0 110.5 20.5t23.5 87.5zM274 35q-85 0 -129 11q-23 -44 -23 -101q0 -50 30 -68
t118 -18q87 0 119.5 19.5t32.5 66.5q0 40 -9 57t-39.5 25t-99.5 8zM268 579q-66 0 -97 28.5t-31 90.5q0 9 11 9h34q10 0 10 -9q0 -41 12.5 -53t61.5 -12t61.5 12t12.5 53q0 9 10 9h34q11 0 11 -9q0 -63 -31.5 -91t-98.5 -28z" />
    <glyph glyph-name="Gdotaccent" unicode="&#x120;" horiz-adv-x="632" 
d="M551 358v-333q0 -10 -9 -14q-84 -25 -190 -25q-82 0 -133 15t-88 55.5t-52.5 112.5t-15.5 186q0 110 15.5 180t52.5 110t88.5 54.5t132.5 14.5q110 0 194 -25q8 -3 5 -13l-13 -43q-2 -9 -10 -6q-70 25 -175 25q-48 0 -77.5 -3.5t-55.5 -15t-39.5 -30t-23.5 -53.5
t-13 -80.5t-3 -114.5q0 -86 6 -138t17.5 -88t38.5 -52.5t60 -22.5t90 -6q74 0 127 11v299q0 9 9 9h53q9 0 9 -9zM343 847q24 0 32.5 -7t8.5 -32q0 -27 -8.5 -35t-32.5 -8q-25 0 -33.5 8t-8.5 35q0 25 8.5 32t33.5 7z" />
    <glyph glyph-name="gdotaccent" unicode="&#x121;" horiz-adv-x="539" 
d="M495 450h-102q64 -57 64 -122q0 -82 -50.5 -119t-154.5 -37q-64 0 -102 11q-5 -20 -5 -36q0 -23 6 -32.5t33.5 -15.5t89.5 -6q124 0 172.5 -28t48.5 -111q0 -84 -52.5 -120.5t-178.5 -36.5q-113 0 -164.5 30t-51.5 100q0 77 82 123q-30 11 -39.5 27.5t-9.5 41.5
q0 39 50 71q-42 16 -60 51.5t-18 95.5q0 94 49.5 131t149.5 37h243q9 0 9 -9v-37q0 -9 -9 -9zM386 339q0 65 -23 111h-108q-83 0 -107.5 -20.5t-24.5 -87.5q0 -68 23.5 -89.5t105.5 -21.5q87 0 110.5 20.5t23.5 87.5zM274 35q-85 0 -129 11q-23 -44 -23 -101q0 -50 30 -68
t118 -18q87 0 119.5 19.5t32.5 66.5q0 40 -9 57t-39.5 25t-99.5 8zM270 666q24 0 32.5 -7t8.5 -32q0 -27 -8.5 -35t-32.5 -8q-25 0 -33.5 8t-8.5 35q0 25 8.5 32t33.5 7z" />
    <glyph glyph-name="Gcommaaccent" unicode="&#x122;" horiz-adv-x="632" 
d="M551 358v-333q0 -10 -9 -14q-84 -25 -190 -25q-82 0 -133 15t-88 55.5t-52.5 112.5t-15.5 186q0 110 15.5 180t52.5 110t88.5 54.5t132.5 14.5q110 0 194 -25q8 -3 5 -13l-13 -43q-2 -9 -10 -6q-70 25 -175 25q-48 0 -77.5 -3.5t-55.5 -15t-39.5 -30t-23.5 -53.5
t-13 -80.5t-3 -114.5q0 -86 6 -138t17.5 -88t38.5 -52.5t60 -22.5t90 -6q74 0 127 11v299q0 9 9 9h53q9 0 9 -9zM398 -73l-63 -155q-4 -11 -12 -11h-26q-10 0 -8 11l36 166q2 13 14 11l48 -8q15 -2 11 -14z" />
    <glyph glyph-name="gcommaaccent" unicode="&#x123;" horiz-adv-x="539" 
d="M495 450h-102q64 -57 64 -122q0 -82 -50.5 -119t-154.5 -37q-64 0 -102 11q-5 -20 -5 -36q0 -23 6 -32.5t33.5 -15.5t89.5 -6q124 0 172.5 -28t48.5 -111q0 -84 -52.5 -120.5t-178.5 -36.5q-113 0 -164.5 30t-51.5 100q0 77 82 123q-30 11 -39.5 27.5t-9.5 41.5
q0 39 50 71q-42 16 -60 51.5t-18 95.5q0 94 49.5 131t149.5 37h243q9 0 9 -9v-37q0 -9 -9 -9zM386 339q0 65 -23 111h-108q-83 0 -107.5 -20.5t-24.5 -87.5q0 -68 23.5 -89.5t105.5 -21.5q87 0 110.5 20.5t23.5 87.5zM274 35q-85 0 -129 11q-23 -44 -23 -101q0 -50 30 -68
t118 -18q87 0 119.5 19.5t32.5 66.5q0 40 -9 57t-39.5 25t-99.5 8zM226 576l63 155q4 11 12 11h26q10 0 8 -11l-36 -166q-2 -13 -14 -11l-48 8q-15 2 -11 14z" />
    <glyph glyph-name="Hcircumflex" unicode="&#x124;" horiz-adv-x="650" 
d="M560 688v-679q0 -9 -9 -9h-53q-9 0 -9 9v332h-328v-332q0 -9 -9 -9h-53q-9 0 -9 9v679q0 9 9 9h53q9 0 9 -9v-287h328v287q0 9 9 9h53q9 0 9 -9zM304 876h44q14 0 22 -8l101 -84q3 -3 1.5 -7t-5.5 -6l-33 -22q-6 -3 -13 4l-95 82l-95 -82q-8 -8 -13 -4l-33 22
q-4 2 -5.5 6t1.5 7l101 84q8 8 22 8z" />
    <glyph glyph-name="hcircumflex" unicode="&#x125;" horiz-adv-x="523" 
d="M463 285v-276q0 -9 -9 -9h-47q-9 0 -9 9v263q0 68 -3.5 100.5t-20 52.5t-39.5 23.5t-73 3.5q-76 0 -127 -28v-415q0 -9 -9 -9h-47q-9 0 -9 9v696q0 9 9 9h47q9 0 9 -9v-252q60 66 154 66q64 0 99.5 -17.5t55 -69t19.5 -147.5zM147 876h44q14 0 22 -8l101 -84q3 -3 1.5 -7
t-5.5 -6l-33 -22q-6 -3 -13 4l-95 82l-95 -82q-8 -8 -13 -4l-33 22q-4 2 -5.5 6t1.5 7l101 84q8 8 22 8z" />
    <glyph glyph-name="Hbar" unicode="&#x126;" horiz-adv-x="650" 
d="M622 537h-62v-528q0 -9 -9 -9h-53q-9 0 -9 9v332h-328v-332q0 -9 -9 -9h-53q-9 0 -9 9v528h-62q-9 0 -9 9v33q0 9 9 9h62v100q0 9 9 9h53q9 0 9 -9v-100h328v100q0 9 9 9h53q9 0 9 -9v-100h62q9 0 9 -9v-33q0 -9 -9 -9zM161 406h328v131h-328v-131z" />
    <glyph glyph-name="hbar" unicode="&#x127;" horiz-adv-x="537" 
d="M264 598h-115v-145q60 66 154 66q64 0 99.5 -17.5t55 -69t19.5 -147.5v-276q0 -9 -9 -9h-47q-9 0 -9 9v263q0 70 -3.5 103.5t-20 54t-39.5 24t-73 3.5q-67 0 -127 -33v-415q0 -9 -9 -9h-47q-9 0 -9 9v589h-50q-9 0 -9 9v40q0 9 9 9h50v49q0 9 9 9h47q9 0 9 -9v-49h115
q9 0 9 -9v-40q0 -9 -9 -9z" />
    <glyph glyph-name="Itilde" unicode="&#x128;" horiz-adv-x="251" 
d="M161 688v-679q0 -9 -9 -9h-53q-9 0 -9 9v679q0 9 9 9h53q9 0 9 -9zM59 808q-25 0 -38 -11t-22 -37q-4 -11 -13 -4l-32 19q-7 5 -2 15q36 75 96 75q42 0 81 -27t63 -27q25 0 38 11t22 37q4 11 13 4l32 -19q7 -5 2 -15q-36 -75 -101 -75q-37 0 -77.5 27t-61.5 27z" />
    <glyph glyph-name="itilde" unicode="&#x129;" horiz-adv-x="206" 
d="M135 496v-487q0 -9 -9 -9h-47q-9 0 -9 9v487q0 9 9 9h47q9 0 9 -9zM44 636q-30 0 -47 -48q-4 -11 -13 -4l-32 19q-7 5 -2 15q36 75 94 75q28 0 61.5 -27t55.5 -27q32 0 49 48q4 11 13 4l32 -19q7 -5 2 -15q-36 -75 -88 -75q-31 0 -54.5 13.5t-40 27t-30.5 13.5z" />
    <glyph glyph-name="Imacron" unicode="&#x12a;" horiz-adv-x="251" 
d="M161 688v-679q0 -9 -9 -9h-53q-9 0 -9 9v679q0 9 9 9h53q9 0 9 -9zM241 771h-230q-9 0 -9 9v40q0 9 9 9h230q9 0 9 -9v-40q0 -9 -9 -9z" />
    <glyph glyph-name="imacron" unicode="&#x12b;" horiz-adv-x="206" 
d="M135 496v-487q0 -9 -9 -9h-47q-9 0 -9 9v487q0 9 9 9h47q9 0 9 -9zM218 598h-230q-9 0 -9 9v40q0 9 9 9h230q9 0 9 -9v-40q0 -9 -9 -9z" />
    <glyph glyph-name="Ibreve" unicode="&#x12c;" horiz-adv-x="251" 
d="M161 688v-679q0 -9 -9 -9h-53q-9 0 -9 9v679q0 9 9 9h53q9 0 9 -9zM128 745q-68 0 -101 27t-33 90q0 9 11 9h37q10 0 10 -9q0 -41 13 -50.5t64 -9.5t64 9.5t13 50.5q0 9 10 9h37q11 0 11 -9q0 -63 -33.5 -90t-102.5 -27z" />
    <glyph glyph-name="ibreve" unicode="&#x12d;" horiz-adv-x="206" 
d="M135 496v-487q0 -9 -9 -9h-47q-9 0 -9 9v487q0 9 9 9h47q9 0 9 -9zM101 579q-66 0 -97 28.5t-31 90.5q0 9 11 9h34q10 0 10 -9q0 -41 12.5 -53t61.5 -12t61.5 12t12.5 53q0 9 10 9h34q11 0 11 -9q0 -63 -31.5 -91t-98.5 -28z" />
    <glyph glyph-name="Iogonek" unicode="&#x12e;" horiz-adv-x="251" 
d="M220 -143l9 -30q5 -13 -5 -16q-46 -14 -97 -14q-69 0 -93 23t-24 72q0 76 84 109q-4 3 -4 8v679q0 9 9 9h53q9 0 9 -9v-679q0 -9 -9 -9h-13q-42 -27 -53.5 -46.5t-11.5 -51.5q0 -27 10 -39t48 -12q44 0 75 10q11 3 13 -4z" />
    <glyph glyph-name="iogonek" unicode="&#x12f;" horiz-adv-x="206" 
d="M189 -143l9 -30q5 -13 -5 -16q-46 -14 -97 -14q-69 0 -93 23t-24 72q0 80 92 112q-1 2 -1 5v487q0 9 9 9h47q9 0 9 -9v-487q0 -9 -9 -9h-18q-42 -27 -53.5 -46.5t-11.5 -51.5q0 -27 10 -39t48 -12q44 0 75 10q11 3 13 -4zM103 695q25 0 33 -7t8 -31q0 -27 -8.5 -34.5
t-32.5 -7.5q-25 0 -33 7.5t-8 34.5q0 25 8 31.5t33 6.5z" />
    <glyph glyph-name="Idotaccent" unicode="&#x130;" horiz-adv-x="251" 
d="M161 688v-679q0 -9 -9 -9h-53q-9 0 -9 9v679q0 9 9 9h53q9 0 9 -9zM127 847q24 0 32.5 -7t8.5 -32q0 -27 -8.5 -35t-32.5 -8q-25 0 -33.5 8t-8.5 35q0 25 8.5 32t33.5 7z" />
    <glyph glyph-name="dotlessi" unicode="&#x131;" horiz-adv-x="206" 
d="M135 496v-487q0 -9 -9 -9h-47q-9 0 -9 9v487q0 9 9 9h47q9 0 9 -9z" />
    <glyph glyph-name="IJ" unicode="&#x132;" horiz-adv-x="680" 
d="M161 688v-679q0 -9 -9 -9h-53q-9 0 -9 9v679q0 9 9 9h53q9 0 9 -9zM519 192v496q0 9 9 9h53q9 0 9 -9v-496q0 -106 -50 -156t-137 -50q-75 0 -144 25q-8 3 -5 13l13 43q2 9 10 6q58 -24 125 -24q72 0 94.5 26.5t22.5 116.5z" />
    <glyph glyph-name="ij" unicode="&#x133;" horiz-adv-x="387" 
d="M96 695q25 0 33 -7t8 -31q0 -27 -8.5 -34.5t-32.5 -7.5q-25 0 -33 7.5t-8 34.5q0 25 8 31.5t33 6.5zM128 496v-487q0 -9 -9 -9h-47q-9 0 -9 9v487q0 9 9 9h47q9 0 9 -9zM286 695q25 0 33 -7t8 -31q0 -27 -8.5 -34.5t-32.5 -7.5q-25 0 -33 7.5t-8 34.5q0 25 8 31.5t33 6.5
zM159 -140q61 8 77.5 27t16.5 85v524q0 9 9 9h47q9 0 9 -9v-524q0 -81 -41.5 -128t-105.5 -47q-10 0 -11 10l-7 43q-3 8 6 10z" />
    <glyph glyph-name="Jcircumflex" unicode="&#x134;" horiz-adv-x="426" 
d="M265 192v496q0 9 9 9h53q9 0 9 -9v-496q0 -106 -50 -156t-137 -50q-75 0 -144 25q-8 3 -5 13l13 43q2 9 10 6q58 -24 125 -24q72 0 94.5 26.5t22.5 116.5zM279 876h44q14 0 22 -8l101 -84q3 -3 1.5 -7t-5.5 -6l-33 -22q-6 -3 -13 4l-95 82l-95 -82q-8 -8 -13 -4l-33 22
q-4 2 -5.5 6t1.5 7l101 84q8 8 22 8z" />
    <glyph glyph-name="jcircumflex" unicode="&#x135;" horiz-adv-x="197" 
d="M-31 -140q61 8 77.5 27t16.5 85v524q0 9 9 9h47q9 0 9 -9v-524q0 -81 -41.5 -128t-105.5 -47q-10 0 -11 10l-7 43q-3 8 6 10zM71 708h44q14 0 22 -8l91 -98q3 -3 1.5 -7t-5.5 -6l-33 -18q-6 -3 -13 4l-85 87l-85 -87q-8 -8 -13 -4l-33 18q-4 2 -5.5 6t1.5 7l91 98
q8 8 22 8z" />
    <glyph glyph-name="Kcommaaccent" unicode="&#x136;" horiz-adv-x="560" 
d="M514 667l-266 -300l279 -337q5 -8 -2 -13l-40 -30q-8 -6 -14 2l-308 373l296 346q6 8 14 2l39 -29q6 -7 2 -14zM161 688v-679q0 -9 -9 -9h-53q-9 0 -9 9v679q0 9 9 9h53q9 0 9 -9zM323 -73l-63 -155q-4 -11 -12 -11h-26q-10 0 -8 11l36 166q2 13 14 11l48 -8
q15 -2 11 -14z" />
    <glyph glyph-name="kcommaaccent" unicode="&#x137;" horiz-adv-x="441" 
d="M135 705v-437l222 250q6 8 13 2l36 -27q7 -5 2 -13l-194 -210l215 -242q5 -8 -2 -13l-38 -28q-7 -6 -13 2l-241 277v-257q0 -9 -9 -9h-47q-9 0 -9 9v696q0 9 9 9h47q9 0 9 -9zM260 -73l-63 -155q-4 -11 -12 -11h-26q-10 0 -8 11l36 166q2 13 14 11l48 -8q15 -2 11 -14z
" />
    <glyph glyph-name="Lacute" unicode="&#x139;" horiz-adv-x="467" 
d="M161 60h297q9 0 9 -9v-42q0 -9 -9 -9h-359q-9 0 -9 9v679q0 9 9 9h53q9 0 9 -9v-628zM267 855l-130 -112q-6 -4 -14 -1l-31 15q-4 1 -4 5.5t2 7.5l115 113q7 7 17 3l44 -16q4 -1 4.5 -6.5t-3.5 -8.5z" />
    <glyph glyph-name="lacute" unicode="&#x13a;" horiz-adv-x="219" 
d="M70 89v616q0 9 9 9h47q9 0 9 -9v-623l24 -66q3 -8 -6 -12l-46 -11q-9 -4 -11 5l-22 62q-4 16 -4 29zM255 855l-130 -112q-6 -4 -14 -1l-31 15q-4 1 -4 5.5t2 7.5l115 113q7 7 17 3l44 -16q4 -1 4.5 -6.5t-3.5 -8.5z" />
    <glyph glyph-name="Lcommaaccent" unicode="&#x13b;" horiz-adv-x="467" 
d="M161 60h297q9 0 9 -9v-42q0 -9 -9 -9h-359q-9 0 -9 9v679q0 9 9 9h53q9 0 9 -9v-628zM312 -73l-63 -155q-4 -11 -12 -11h-26q-10 0 -8 11l36 166q2 13 14 11l48 -8q15 -2 11 -14z" />
    <glyph glyph-name="lcommaaccent" unicode="&#x13c;" horiz-adv-x="219" 
d="M70 89v616q0 9 9 9h47q9 0 9 -9v-623l24 -66q3 -8 -6 -12l-46 -11q-9 -4 -11 5l-22 62q-4 16 -4 29zM155 -73l-63 -155q-4 -11 -12 -11h-26q-10 0 -8 11l36 166q2 13 14 11l48 -8q15 -2 11 -14z" />
    <glyph glyph-name="Lcaron" unicode="&#x13d;" horiz-adv-x="467" 
d="M161 60h297q9 0 9 -9v-42q0 -9 -9 -9h-359q-9 0 -9 9v679q0 9 9 9h53q9 0 9 -9v-628zM322 700l-40 -147q-4 -11 -12 -11h-21q-10 0 -8 11l14 148q2 13 13 13h43q6 0 9.5 -4.5t1.5 -9.5z" />
    <glyph glyph-name="lcaron" unicode="&#x13e;" horiz-adv-x="219" 
d="M70 89v616q0 9 9 9h47q9 0 9 -9v-623l24 -66q3 -8 -6 -12l-46 -11q-9 -4 -11 5l-22 62q-4 16 -4 29zM257 700l-40 -147q-4 -11 -12 -11h-21q-10 0 -8 11l14 148q2 13 13 13h43q6 0 9.5 -4.5t1.5 -9.5z" />
    <glyph glyph-name="Ldot" unicode="&#x13f;" horiz-adv-x="467" 
d="M161 60h297q9 0 9 -9v-42q0 -9 -9 -9h-359q-9 0 -9 9v679q0 9 9 9h53q9 0 9 -9v-628zM301 421q24 0 32.5 -7t8.5 -32q0 -27 -8.5 -35t-32.5 -8q-25 0 -33.5 8t-8.5 35q0 25 8.5 32t33.5 7z" />
    <glyph glyph-name="ldot" unicode="&#x140;" horiz-adv-x="219" 
d="M70 89v616q0 9 9 9h47q9 0 9 -9v-623l24 -66q3 -8 -6 -12l-46 -11q-9 -4 -11 5l-22 62q-4 16 -4 29zM215 443q24 0 32.5 -7t8.5 -32q0 -27 -8.5 -35t-32.5 -8q-25 0 -33.5 8t-8.5 35q0 25 8.5 32t33.5 7z" />
    <glyph glyph-name="Lslash" unicode="&#x141;" horiz-adv-x="467" 
d="M161 60h297q9 0 9 -9v-42q0 -9 -9 -9h-359q-9 0 -9 9v207l-48 -48q-6 -6 -10 -2l-26 32q-7 5 -2 11l86 87v392q0 9 9 9h53q9 0 9 -9v-320l151 154q7 4 10 1l27 -32q5 -4 2 -11l-190 -192v-228z" />
    <glyph glyph-name="lslash" unicode="&#x142;" horiz-adv-x="219" 
d="M254 487l-108 -119v-286l24 -66q3 -8 -6 -12l-46 -11q-9 -4 -11 5l-22 62q-4 16 -4 29v208l-76 -86q-7 -9 -13 -1l-25 34q-8 7 -1 12l115 130v319q0 9 9 9h47q9 0 9 -9v-247l68 76q8 6 13 1l26 -35q3 -2 3 -6.5t-2 -6.5z" />
    <glyph glyph-name="Nacute" unicode="&#x143;" horiz-adv-x="651" 
d="M187 688l274 -532l33 -84l-4 88v528q0 9 9 9h53q9 0 9 -9v-679q-4 -9 -10 -9h-72q-10 0 -15 9l-274 532l-34 76l5 -80v-528q0 -9 -9 -9h-53q-9 0 -9 9v679q4 9 10 9h72q10 0 15 -9zM452 855l-130 -112q-6 -4 -14 -1l-31 15q-4 1 -4 5.5t2 7.5l115 113q7 7 17 3l44 -16
q4 -1 4.5 -6.5t-3.5 -8.5z" />
    <glyph glyph-name="nacute" unicode="&#x144;" horiz-adv-x="523" 
d="M135 496v-43q60 66 154 66q64 0 99.5 -17.5t55 -69t19.5 -147.5v-276q0 -9 -9 -9h-47q-9 0 -9 9v263q0 68 -3.5 100.5t-20 52.5t-39.5 23.5t-73 3.5q-76 0 -127 -28v-415q0 -9 -9 -9h-47q-9 0 -9 9v487q0 9 9 9h47q9 0 9 -9zM361 673l-119 -112q-6 -4 -14 -1l-27 18
q-4 1 -4 5.5t2 7.5l104 115q7 7 17 3l40 -21q4 -1 4.5 -6.5t-3.5 -8.5z" />
    <glyph glyph-name="Ncommaaccent" unicode="&#x145;" horiz-adv-x="651" 
d="M187 688l274 -532l33 -84l-4 88v528q0 9 9 9h53q9 0 9 -9v-679q-4 -9 -10 -9h-72q-10 0 -15 9l-274 532l-34 76l5 -80v-528q0 -9 -9 -9h-53q-9 0 -9 9v679q4 9 10 9h72q10 0 15 -9zM362 -73l-63 -155q-4 -11 -12 -11h-26q-10 0 -8 11l36 166q2 13 14 11l48 -8
q15 -2 11 -14z" />
    <glyph glyph-name="ncommaaccent" unicode="&#x146;" horiz-adv-x="523" 
d="M135 496v-43q60 66 154 66q64 0 99.5 -17.5t55 -69t19.5 -147.5v-276q0 -9 -9 -9h-47q-9 0 -9 9v263q0 68 -3.5 100.5t-20 52.5t-39.5 23.5t-73 3.5q-76 0 -127 -28v-415q0 -9 -9 -9h-47q-9 0 -9 9v487q0 9 9 9h47q9 0 9 -9zM299 -73l-63 -155q-4 -11 -12 -11h-26
q-10 0 -8 11l36 166q2 13 14 11l48 -8q15 -2 11 -14z" />
    <glyph glyph-name="Ncaron" unicode="&#x147;" horiz-adv-x="651" 
d="M187 688l274 -532l33 -84l-4 88v528q0 9 9 9h53q9 0 9 -9v-679q-4 -9 -10 -9h-72q-10 0 -15 9l-274 532l-34 76l5 -80v-528q0 -9 -9 -9h-53q-9 0 -9 9v679q4 9 10 9h72q10 0 15 -9zM366 747h-44q-14 0 -22 8l-101 84q-3 3 -1.5 7t5.5 6l33 22q6 3 13 -4l95 -82l95 82
q8 8 13 4l33 -22q4 -2 5.5 -6t-1.5 -7l-101 -84q-8 -8 -22 -8z" />
    <glyph glyph-name="ncaron" unicode="&#x148;" horiz-adv-x="523" 
d="M135 496v-43q60 66 154 66q64 0 99.5 -17.5t55 -69t19.5 -147.5v-276q0 -9 -9 -9h-47q-9 0 -9 9v263q0 68 -3.5 100.5t-20 52.5t-39.5 23.5t-73 3.5q-76 0 -127 -28v-415q0 -9 -9 -9h-47q-9 0 -9 9v487q0 9 9 9h47q9 0 9 -9zM297 568h-44q-14 0 -22 8l-91 98q-3 3 -1.5 7
t5.5 6l33 18q6 3 13 -4l85 -90l85 90q8 8 13 4l33 -18q4 -2 5.5 -6t-1.5 -7l-91 -98q-8 -8 -22 -8z" />
    <glyph glyph-name="napostrophe" unicode="&#x149;" horiz-adv-x="523" 
d="M135 496v-43q60 66 154 66q64 0 99.5 -17.5t55 -69t19.5 -147.5v-276q0 -9 -9 -9h-47q-9 0 -9 9v263q0 68 -3.5 100.5t-20 52.5t-39.5 23.5t-73 3.5q-76 0 -127 -28v-415q0 -9 -9 -9h-47q-9 0 -9 9v487q0 9 9 9h47q9 0 9 -9zM172 713l-63 -155q-4 -11 -12 -11h-26
q-10 0 -8 11l36 166q2 13 14 11l48 -8q15 -2 11 -14z" />
    <glyph glyph-name="Eng" unicode="&#x14a;" horiz-adv-x="651" 
d="M187 688l274 -532l33 -84l-4 88v528q0 9 9 9h53q9 0 9 -9v-685q0 -106 -50 -156t-137 -50q-75 0 -144 25q-8 3 -5 13l13 43q2 9 10 6q58 -24 125 -24q71 0 93.5 26t23.5 114h-11q-10 0 -15 9l-274 532l-34 76l5 -80v-528q0 -9 -9 -9h-53q-9 0 -9 9v679q4 9 10 9h72
q10 0 15 -9z" />
    <glyph glyph-name="eng" unicode="&#x14b;" horiz-adv-x="523" 
d="M398 -28v300q0 70 -3.5 103.5t-20 54t-39.5 24t-73 3.5q-67 0 -127 -33v-415q0 -9 -9 -9h-47q-9 0 -9 9v487q0 9 9 9h47q9 0 9 -9v-43q60 66 154 66q64 0 99.5 -17.5t55 -69t19.5 -147.5v-313q0 -81 -41.5 -128t-105.5 -47q-10 0 -11 10l-7 43q-3 8 6 10q61 8 77.5 27
t16.5 85z" />
    <glyph glyph-name="Omacron" unicode="&#x14c;" horiz-adv-x="664" 
d="M333 52q48 0 76 5.5t52.5 22t36.5 50.5t18.5 87.5t6.5 137.5q0 81 -6.5 133t-18.5 85t-36.5 49t-52.5 21.5t-76 5.5t-76.5 -5.5t-53.5 -21.5t-37 -49t-18.5 -85t-6.5 -133q0 -104 8.5 -163.5t33.5 -91t57.5 -40t92.5 -8.5zM332 -14q-70 0 -117 15t-83 55t-52.5 113.5
t-16.5 185.5q0 109 16.5 180t52.5 110t83 54t117 15t117 -15t83 -54t52.5 -110t16.5 -180q0 -112 -16.5 -185.5t-52.5 -113.5t-83 -55t-117 -15zM446 771h-230q-9 0 -9 9v40q0 9 9 9h230q9 0 9 -9v-40q0 -9 -9 -9z" />
    <glyph glyph-name="omacron" unicode="&#x14d;" horiz-adv-x="542" 
d="M271 457q-48 0 -72 -5.5t-41 -28.5t-21.5 -61t-4.5 -109q0 -60 3.5 -95t11 -59t25.5 -34t39 -13.5t60 -3.5t60 3.5t39 13.5t25.5 34t11 59t3.5 95q0 71 -4.5 109t-21.5 61t-41 28.5t-72 5.5zM271 -14q-119 0 -165 57.5t-46 211.5q0 152 46 208t165 56t165 -56t46 -208
q0 -154 -46 -211.5t-165 -57.5zM384 598h-230q-9 0 -9 9v40q0 9 9 9h230q9 0 9 -9v-40q0 -9 -9 -9z" />
    <glyph glyph-name="Obreve" unicode="&#x14e;" horiz-adv-x="664" 
d="M333 52q48 0 76 5.5t52.5 22t36.5 50.5t18.5 87.5t6.5 137.5q0 81 -6.5 133t-18.5 85t-36.5 49t-52.5 21.5t-76 5.5t-76.5 -5.5t-53.5 -21.5t-37 -49t-18.5 -85t-6.5 -133q0 -104 8.5 -163.5t33.5 -91t57.5 -40t92.5 -8.5zM332 -14q-70 0 -117 15t-83 55t-52.5 113.5
t-16.5 185.5q0 109 16.5 180t52.5 110t83 54t117 15t117 -15t83 -54t52.5 -110t16.5 -180q0 -112 -16.5 -185.5t-52.5 -113.5t-83 -55t-117 -15zM331 745q-68 0 -101 27t-33 90q0 9 11 9h37q10 0 10 -9q0 -41 13 -50.5t64 -9.5t64 9.5t13 50.5q0 9 10 9h37q11 0 11 -9
q0 -63 -33.5 -90t-102.5 -27z" />
    <glyph glyph-name="obreve" unicode="&#x14f;" horiz-adv-x="542" 
d="M271 457q-48 0 -72 -5.5t-41 -28.5t-21.5 -61t-4.5 -109q0 -60 3.5 -95t11 -59t25.5 -34t39 -13.5t60 -3.5t60 3.5t39 13.5t25.5 34t11 59t3.5 95q0 71 -4.5 109t-21.5 61t-41 28.5t-72 5.5zM271 -14q-119 0 -165 57.5t-46 211.5q0 152 46 208t165 56t165 -56t46 -208
q0 -154 -46 -211.5t-165 -57.5zM270 579q-66 0 -97 28.5t-31 90.5q0 9 11 9h34q10 0 10 -9q0 -41 12.5 -53t61.5 -12t61.5 12t12.5 53q0 9 10 9h34q11 0 11 -9q0 -63 -31.5 -91t-98.5 -28z" />
    <glyph glyph-name="Ohungarumlaut" unicode="&#x150;" horiz-adv-x="664" 
d="M333 52q48 0 76 5.5t52.5 22t36.5 50.5t18.5 87.5t6.5 137.5q0 81 -6.5 133t-18.5 85t-36.5 49t-52.5 21.5t-76 5.5t-76.5 -5.5t-53.5 -21.5t-37 -49t-18.5 -85t-6.5 -133q0 -104 8.5 -163.5t33.5 -91t57.5 -40t92.5 -8.5zM332 -14q-70 0 -117 15t-83 55t-52.5 113.5
t-16.5 185.5q0 109 16.5 180t52.5 110t83 54t117 15t117 -15t83 -54t52.5 -110t16.5 -180q0 -112 -16.5 -185.5t-52.5 -113.5t-83 -55t-117 -15zM374 854l-110 -112q-5 -5 -12 -1l-26 15q-3 1 -3 5.5t2 7.5l97 113q5 7 14 3l37 -16q4 -1 4 -6.5t-3 -8.5zM513 854l-110 -112
q-5 -5 -12 -1l-26 15q-3 1 -3 5.5t2 7.5l97 113q5 7 14 3l37 -16q4 -1 4 -6.5t-3 -8.5z" />
    <glyph glyph-name="ohungarumlaut" unicode="&#x151;" horiz-adv-x="542" 
d="M271 457q-48 0 -72 -5.5t-41 -28.5t-21.5 -61t-4.5 -109q0 -60 3.5 -95t11 -59t25.5 -34t39 -13.5t60 -3.5t60 3.5t39 13.5t25.5 34t11 59t3.5 95q0 71 -4.5 109t-21.5 61t-41 28.5t-72 5.5zM271 -14q-119 0 -165 57.5t-46 211.5q0 152 46 208t165 56t165 -56t46 -208
q0 -154 -46 -211.5t-165 -57.5zM288 674l-100 -112q-5 -5 -12 -1l-26 15q-3 1 -3 5.5t2 7.5l87 113q5 7 14 3l37 -16q4 -1 4 -6.5t-3 -8.5zM427 674l-100 -112q-5 -5 -12 -1l-26 15q-3 1 -3 5.5t2 7.5l87 113q5 7 14 3l37 -16q4 -1 4 -6.5t-3 -8.5z" />
    <glyph glyph-name="OE" unicode="&#x152;" horiz-adv-x="972" 
d="M933 0h-488q-46 -14 -113 -14q-70 0 -117 15t-83 55t-52.5 113.5t-16.5 185.5q0 109 16.5 180t52.5 110t83 54t117 15q73 0 123 -17h478q9 0 9 -9v-42q0 -9 -9 -9h-395q56 -73 62 -237h273q9 0 9 -9v-42q0 -9 -9 -9h-272q-3 -200 -66 -280h398q9 0 9 -9v-42q0 -9 -9 -9z
M333 52q48 0 76 5.5t52.5 22t36.5 50.5t18.5 87.5t6.5 137.5q0 81 -6.5 133t-18.5 85t-36.5 49t-52.5 21.5t-76 5.5t-76.5 -5.5t-53.5 -21.5t-37 -49t-18.5 -85t-6.5 -133q0 -104 8.5 -163.5t33.5 -91t57.5 -40t92.5 -8.5z" />
    <glyph glyph-name="oe" unicode="&#x153;" horiz-adv-x="846" 
d="M782 253h-311q0 -50 2 -81.5t9.5 -56t16.5 -36.5t28 -19.5t39.5 -9.5t56.5 -2q66 0 124 24q8 3 10 -6l12 -43q3 -10 -5 -13q-61 -24 -141 -24q-76 0 -119 19t-64 64q-19 -45 -58.5 -64t-110.5 -19q-119 0 -165 57.5t-46 211.5q0 152 46 208t165 56q71 0 111 -18.5
t58 -63.5q21 44 61 63t105 19q74 0 113 -20t58 -74.5t19 -158.5q0 -13 -14 -13zM271 457q-48 0 -72 -5.5t-41 -28.5t-21.5 -61t-4.5 -109q0 -60 3.5 -95t11 -59t25.5 -34t39 -13.5t60 -3.5t60 3.5t39 13.5t25.5 34t11 59t3.5 95q0 71 -4.5 109t-21.5 61t-41 28.5t-72 5.5z
M472 307h259q-3 98 -26 125t-102 27q-78 0 -102.5 -28t-28.5 -124z" />
    <glyph glyph-name="Racute" unicode="&#x154;" horiz-adv-x="617" 
d="M161 297v-288q0 -9 -9 -9h-53q-9 0 -9 9v679q0 9 9 9h277q85 0 130 -50.5t45 -147.5q0 -189 -155 -200l174 -274q3 -8 -4 -13l-43 -24q-10 -6 -14 4l-190 305h-158zM161 637v-280h215q57 0 77.5 26.5t20.5 115.5q0 85 -20.5 111.5t-77.5 26.5h-215zM404 855l-130 -112
q-6 -4 -14 -1l-31 15q-4 1 -4 5.5t2 7.5l115 113q7 7 17 3l44 -16q4 -1 4.5 -6.5t-3.5 -8.5z" />
    <glyph glyph-name="racute" unicode="&#x155;" horiz-adv-x="350" 
d="M330 442q-31 11 -68 11q-55 0 -119 -29v-415q0 -9 -9 -9h-47q-9 0 -9 9v424l-18 55q-3 8 6 12l45 12q9 4 11 -5l16 -54q77 66 140 66q45 0 69 -10q9 -2 7 -11l-13 -49q-2 -11 -11 -7zM317 673l-119 -112q-6 -4 -14 -1l-27 18q-4 1 -4 5.5t2 7.5l104 115q7 7 17 3l40 -21
q4 -1 4.5 -6.5t-3.5 -8.5z" />
    <glyph glyph-name="Rcommaaccent" unicode="&#x156;" horiz-adv-x="617" 
d="M161 297v-288q0 -9 -9 -9h-53q-9 0 -9 9v679q0 9 9 9h277q85 0 130 -50.5t45 -147.5q0 -189 -155 -200l174 -274q3 -8 -4 -13l-43 -24q-10 -6 -14 4l-190 305h-158zM161 637v-280h215q57 0 77.5 26.5t20.5 115.5q0 85 -20.5 111.5t-77.5 26.5h-215zM341 -73l-63 -155
q-4 -11 -12 -11h-26q-10 0 -8 11l36 166q2 13 14 11l48 -8q15 -2 11 -14z" />
    <glyph glyph-name="rcommaaccent" unicode="&#x157;" horiz-adv-x="350" 
d="M330 442q-31 11 -68 11q-55 0 -119 -29v-415q0 -9 -9 -9h-47q-9 0 -9 9v424l-18 55q-3 8 6 12l45 12q9 4 11 -5l16 -54q77 66 140 66q45 0 69 -10q9 -2 7 -11l-13 -49q-2 -11 -11 -7zM167 -73l-63 -155q-4 -11 -12 -11h-26q-10 0 -8 11l36 166q2 13 14 11l48 -8
q15 -2 11 -14z" />
    <glyph glyph-name="Rcaron" unicode="&#x158;" horiz-adv-x="617" 
d="M161 297v-288q0 -9 -9 -9h-53q-9 0 -9 9v679q0 9 9 9h277q85 0 130 -50.5t45 -147.5q0 -189 -155 -200l174 -274q3 -8 -4 -13l-43 -24q-10 -6 -14 4l-190 305h-158zM161 637v-280h215q57 0 77.5 26.5t20.5 115.5q0 85 -20.5 111.5t-77.5 26.5h-215zM322 747h-44
q-14 0 -22 8l-101 84q-3 3 -1.5 7t5.5 6l33 22q6 3 13 -4l95 -82l95 82q8 8 13 4l33 -22q4 -2 5.5 -6t-1.5 -7l-101 -84q-8 -8 -22 -8z" />
    <glyph glyph-name="rcaron" unicode="&#x159;" horiz-adv-x="350" 
d="M330 442q-31 11 -68 11q-55 0 -119 -29v-415q0 -9 -9 -9h-47q-9 0 -9 9v424l-18 55q-3 8 6 12l45 12q9 4 11 -5l16 -54q77 66 140 66q45 0 69 -10q9 -2 7 -11l-13 -49q-2 -11 -11 -7zM231 568h-44q-14 0 -22 8l-91 98q-3 3 -1.5 7t5.5 6l33 18q6 3 13 -4l85 -90l85 90
q8 8 13 4l33 -18q4 -2 5.5 -6t-1.5 -7l-91 -98q-8 -8 -22 -8z" />
    <glyph glyph-name="Sacute" unicode="&#x15a;" horiz-adv-x="583" 
d="M262 48q112 0 146.5 29t34.5 112q0 76 -27.5 100.5t-128.5 34.5q-128 12 -175.5 51t-47.5 135q0 111 57 157.5t186 46.5q94 0 178 -25q8 -3 5 -13l-13 -43q-2 -9 -10 -6q-70 25 -159 25q-58 0 -91 -6t-50 -24.5t-21.5 -41.5t-4.5 -68q0 -73 25 -91t132 -29
q126 -13 173.5 -58t47.5 -144q0 -109 -62.5 -156.5t-193.5 -47.5q-94 0 -178 25q-8 3 -5 13l13 43q2 9 10 6q70 -25 159 -25zM404 855l-130 -112q-6 -4 -14 -1l-31 15q-4 1 -4 5.5t2 7.5l115 113q7 7 17 3l44 -16q4 -1 4.5 -6.5t-3.5 -8.5z" />
    <glyph glyph-name="sacute" unicode="&#x15b;" horiz-adv-x="464" 
d="M64 7q-9 2 -5 13l12 43q2 9 10 6q67 -24 150 -24q66 0 87.5 19t21.5 79q0 44 -18.5 59.5t-89.5 25.5q-94 14 -135 45t-41 96q0 150 182 150q68 0 143 -21q8 -3 5 -13l-12 -43q-2 -9 -10 -6q-60 23 -129 23q-67 0 -87.5 -17.5t-20.5 -72.5q0 -42 19.5 -56.5t93.5 -24.5
q96 -12 133.5 -46t37.5 -98q0 -79 -43 -118.5t-140 -39.5q-88 0 -164 21zM334 673l-119 -112q-6 -4 -14 -1l-27 18q-4 1 -4 5.5t2 7.5l104 115q7 7 17 3l40 -21q4 -1 4.5 -6.5t-3.5 -8.5z" />
    <glyph glyph-name="Scircumflex" unicode="&#x15c;" horiz-adv-x="583" 
d="M262 48q112 0 146.5 29t34.5 112q0 76 -27.5 100.5t-128.5 34.5q-128 12 -175.5 51t-47.5 135q0 111 57 157.5t186 46.5q94 0 178 -25q8 -3 5 -13l-13 -43q-2 -9 -10 -6q-70 25 -159 25q-58 0 -91 -6t-50 -24.5t-21.5 -41.5t-4.5 -68q0 -73 25 -91t132 -29
q126 -13 173.5 -58t47.5 -144q0 -109 -62.5 -156.5t-193.5 -47.5q-94 0 -178 25q-8 3 -5 13l13 43q2 9 10 6q70 -25 159 -25zM280 876h44q14 0 22 -8l101 -84q3 -3 1.5 -7t-5.5 -6l-33 -22q-6 -3 -13 4l-95 82l-95 -82q-8 -8 -13 -4l-33 22q-4 2 -5.5 6t1.5 7l101 84
q8 8 22 8z" />
    <glyph glyph-name="scircumflex" unicode="&#x15d;" horiz-adv-x="464" 
d="M64 7q-9 2 -5 13l12 43q2 9 10 6q67 -24 150 -24q66 0 87.5 19t21.5 79q0 44 -18.5 59.5t-89.5 25.5q-94 14 -135 45t-41 96q0 150 182 150q68 0 143 -21q8 -3 5 -13l-12 -43q-2 -9 -10 -6q-60 23 -129 23q-67 0 -87.5 -17.5t-20.5 -72.5q0 -42 19.5 -56.5t93.5 -24.5
q96 -12 133.5 -46t37.5 -98q0 -79 -43 -118.5t-140 -39.5q-88 0 -164 21zM218 708h44q14 0 22 -8l91 -98q3 -3 1.5 -7t-5.5 -6l-33 -18q-6 -3 -13 4l-85 90l-85 -90q-8 -8 -13 -4l-33 18q-4 2 -5.5 6t1.5 7l91 98q8 8 22 8z" />
    <glyph glyph-name="Scedilla" unicode="&#x15e;" horiz-adv-x="583" 
d="M183 -176l12 29q3 6 9 4q39 -14 91 -14q34 0 42.5 5.5t8.5 27.5t-17.5 27.5t-95.5 5.5q-4 0 -7 3.5t-1 7.5l27 66q-87 1 -167 25q-8 3 -5 13l13 43q2 9 10 6q70 -25 159 -25q112 0 146.5 29t34.5 112q0 76 -27.5 100.5t-128.5 34.5q-128 12 -175.5 51t-47.5 135
q0 111 57 157.5t186 46.5q94 0 178 -25q8 -3 5 -13l-13 -43q-2 -9 -10 -6q-70 25 -159 25q-58 0 -91 -6t-50 -24.5t-21.5 -41.5t-4.5 -68q0 -73 25 -91t132 -29q126 -13 173.5 -58t47.5 -144q0 -103 -55.5 -150.5t-171.5 -52.5v-36q67 0 93 -17t26 -56q0 -43 -26.5 -62
t-92.5 -19q-75 0 -106 17q-5 3 -3 10z" />
    <glyph glyph-name="Scedilla" unicode="&#xf6c1;" horiz-adv-x="583" 
d="M183 -176l12 29q3 6 9 4q39 -14 91 -14q34 0 42.5 5.5t8.5 27.5t-17.5 27.5t-95.5 5.5q-4 0 -7 3.5t-1 7.5l27 66q-87 1 -167 25q-8 3 -5 13l13 43q2 9 10 6q70 -25 159 -25q112 0 146.5 29t34.5 112q0 76 -27.5 100.5t-128.5 34.5q-128 12 -175.5 51t-47.5 135
q0 111 57 157.5t186 46.5q94 0 178 -25q8 -3 5 -13l-13 -43q-2 -9 -10 -6q-70 25 -159 25q-58 0 -91 -6t-50 -24.5t-21.5 -41.5t-4.5 -68q0 -73 25 -91t132 -29q126 -13 173.5 -58t47.5 -144q0 -103 -55.5 -150.5t-171.5 -52.5v-36q67 0 93 -17t26 -56q0 -43 -26.5 -62
t-92.5 -19q-75 0 -106 17q-5 3 -3 10z" />
    <glyph glyph-name="scedilla" unicode="&#x15f;" horiz-adv-x="464" 
d="M121 -176l12 29q3 6 9 4q39 -14 91 -14q34 0 42.5 5.5t8.5 27.5t-17.5 27.5t-95.5 5.5q-4 0 -7 3.5t-1 7.5l27 67q-71 5 -126 20q-9 2 -5 13l12 43q2 9 10 6q67 -24 150 -24q66 0 87.5 19t21.5 79q0 44 -18.5 59.5t-89.5 25.5q-94 14 -135 45t-41 96q0 150 182 150
q68 0 143 -21q8 -3 5 -13l-12 -43q-2 -9 -10 -6q-60 23 -129 23q-67 0 -87.5 -17.5t-20.5 -72.5q0 -42 19.5 -56.5t93.5 -24.5q96 -12 133.5 -46t37.5 -98q0 -78 -42.5 -117.5t-138.5 -40.5v-35q67 0 93 -17t26 -56q0 -43 -26.5 -62t-92.5 -19q-75 0 -106 17q-5 3 -3 10z
" />
    <glyph glyph-name="scedilla" unicode="&#xf6c2;" horiz-adv-x="464" 
d="M121 -176l12 29q3 6 9 4q39 -14 91 -14q34 0 42.5 5.5t8.5 27.5t-17.5 27.5t-95.5 5.5q-4 0 -7 3.5t-1 7.5l27 67q-71 5 -126 20q-9 2 -5 13l12 43q2 9 10 6q67 -24 150 -24q66 0 87.5 19t21.5 79q0 44 -18.5 59.5t-89.5 25.5q-94 14 -135 45t-41 96q0 150 182 150
q68 0 143 -21q8 -3 5 -13l-12 -43q-2 -9 -10 -6q-60 23 -129 23q-67 0 -87.5 -17.5t-20.5 -72.5q0 -42 19.5 -56.5t93.5 -24.5q96 -12 133.5 -46t37.5 -98q0 -78 -42.5 -117.5t-138.5 -40.5v-35q67 0 93 -17t26 -56q0 -43 -26.5 -62t-92.5 -19q-75 0 -106 17q-5 3 -3 10z
" />
    <glyph glyph-name="Scaron" unicode="&#x160;" horiz-adv-x="583" 
d="M262 48q112 0 146.5 29t34.5 112q0 76 -27.5 100.5t-128.5 34.5q-128 12 -175.5 51t-47.5 135q0 111 57 157.5t186 46.5q94 0 178 -25q8 -3 5 -13l-13 -43q-2 -9 -10 -6q-70 25 -159 25q-58 0 -91 -6t-50 -24.5t-21.5 -41.5t-4.5 -68q0 -73 25 -91t132 -29
q126 -13 173.5 -58t47.5 -144q0 -109 -62.5 -156.5t-193.5 -47.5q-94 0 -178 25q-8 3 -5 13l13 43q2 9 10 6q70 -25 159 -25zM327 747h-44q-14 0 -22 8l-101 84q-3 3 -1.5 7t5.5 6l33 22q6 3 13 -4l95 -82l95 82q8 8 13 4l33 -22q4 -2 5.5 -6t-1.5 -7l-101 -84q-8 -8 -22 -8
z" />
    <glyph glyph-name="scaron" unicode="&#x161;" horiz-adv-x="464" 
d="M64 7q-9 2 -5 13l12 43q2 9 10 6q67 -24 150 -24q66 0 87.5 19t21.5 79q0 44 -18.5 59.5t-89.5 25.5q-94 14 -135 45t-41 96q0 150 182 150q68 0 143 -21q8 -3 5 -13l-12 -43q-2 -9 -10 -6q-60 23 -129 23q-67 0 -87.5 -17.5t-20.5 -72.5q0 -42 19.5 -56.5t93.5 -24.5
q96 -12 133.5 -46t37.5 -98q0 -79 -43 -118.5t-140 -39.5q-88 0 -164 21zM256 568h-44q-14 0 -22 8l-91 98q-3 3 -1.5 7t5.5 6l33 18q6 3 13 -4l85 -90l85 90q8 8 13 4l33 -18q4 -2 5.5 -6t-1.5 -7l-91 -98q-8 -8 -22 -8z" />
    <glyph glyph-name="Tcommaaccent" unicode="&#x162;" horiz-adv-x="499" 
d="M490 697q9 0 9 -9v-42q0 -9 -9 -9h-205v-628q0 -9 -9 -9h-53q-9 0 -9 9v628h-205q-9 0 -9 9v42q0 9 9 9h481zM296 -73l-63 -155q-4 -11 -12 -11h-26q-10 0 -8 11l36 166q2 13 14 11l48 -8q15 -2 11 -14z" />
    <glyph glyph-name="Tcommaaccent" unicode="&#x21a;" horiz-adv-x="499" 
d="M490 697q9 0 9 -9v-42q0 -9 -9 -9h-205v-628q0 -9 -9 -9h-53q-9 0 -9 9v628h-205q-9 0 -9 9v42q0 9 9 9h481zM296 -73l-63 -155q-4 -11 -12 -11h-26q-10 0 -8 11l36 166q2 13 14 11l48 -8q15 -2 11 -14z" />
    <glyph glyph-name="tcommaaccent" unicode="&#x163;" horiz-adv-x="374" 
d="M167 631v-126h157q9 0 9 -9v-37q0 -9 -9 -9h-157v-280q0 -81 14.5 -101t63.5 -20q43 0 77 12q8 2 10 -6l11 -38q4 -11 -5 -14q-37 -17 -96 -17q-80 0 -110 37t-30 146v281h-64q-9 0 -9 9v37q0 9 9 9h64v102q0 10 6 12l49 18q10 4 10 -6zM232 -73l-63 -155q-4 -11 -12 -11
h-26q-10 0 -8 11l36 166q2 13 14 11l48 -8q15 -2 11 -14z" />
    <glyph glyph-name="tcommaaccent" unicode="&#x21b;" horiz-adv-x="374" 
d="M167 631v-126h157q9 0 9 -9v-37q0 -9 -9 -9h-157v-280q0 -81 14.5 -101t63.5 -20q43 0 77 12q8 2 10 -6l11 -38q4 -11 -5 -14q-37 -17 -96 -17q-80 0 -110 37t-30 146v281h-64q-9 0 -9 9v37q0 9 9 9h64v102q0 10 6 12l49 18q10 4 10 -6zM232 -73l-63 -155q-4 -11 -12 -11
h-26q-10 0 -8 11l36 166q2 13 14 11l48 -8q15 -2 11 -14z" />
    <glyph glyph-name="Tcaron" unicode="&#x164;" horiz-adv-x="499" 
d="M490 697q9 0 9 -9v-42q0 -9 -9 -9h-205v-628q0 -9 -9 -9h-53q-9 0 -9 9v628h-205q-9 0 -9 9v42q0 9 9 9h481zM271 747h-44q-14 0 -22 8l-101 84q-3 3 -1.5 7t5.5 6l33 22q6 3 13 -4l95 -82l95 82q8 8 13 4l33 -22q4 -2 5.5 -6t-1.5 -7l-101 -84q-8 -8 -22 -8z" />
    <glyph glyph-name="tcaron" unicode="&#x165;" horiz-adv-x="374" 
d="M167 631v-126h157q9 0 9 -9v-37q0 -9 -9 -9h-157v-280q0 -81 14.5 -101t63.5 -20q43 0 77 12q8 2 10 -6l11 -38q4 -11 -5 -14q-37 -17 -96 -17q-80 0 -110 37t-30 146v281h-64q-9 0 -9 9v37q0 9 9 9h64v102q0 10 6 12l49 18q10 4 10 -6zM321 700l-40 -147q-4 -11 -12 -11
h-21q-10 0 -8 11l14 148q2 13 13 13h43q6 0 9.5 -4.5t1.5 -9.5z" />
    <glyph glyph-name="Tbar" unicode="&#x166;" horiz-adv-x="499" 
d="M406 295h-121v-286q0 -9 -9 -9h-53q-9 0 -9 9v286h-122q-9 0 -9 9v43q0 9 9 9h122v281h-205q-9 0 -9 9v42q0 9 9 9h481q9 0 9 -9v-42q0 -9 -9 -9h-205v-281h121q9 0 9 -9v-43q0 -9 -9 -9z" />
    <glyph glyph-name="tbar" unicode="&#x167;" horiz-adv-x="374" 
d="M284 230h-117v-60q0 -81 14.5 -101t63.5 -20q43 0 77 12q8 3 10 -6l11 -39q4 -11 -5 -13q-37 -17 -96 -17q-80 0 -110 37t-30 146v61h-48q-9 0 -9 9v40q0 9 9 9h48v162h-64q-9 0 -9 9v37q0 9 9 9h64v102q0 10 6 12l49 18q10 4 10 -6v-126h157q9 0 9 -9v-37q0 -9 -9 -9
h-157v-162h117q9 0 9 -9v-40q0 -9 -9 -9z" />
    <glyph glyph-name="Utilde" unicode="&#x168;" horiz-adv-x="638" 
d="M487 247v441q0 9 9 9h53q9 0 9 -9v-441q0 -141 -54 -201t-185 -60t-185 60t-54 201v441q0 9 9 9h53q9 0 9 -9v-441q0 -67 5.5 -102t25 -58t50 -29t88.5 -6q108 0 137.5 34.5t29.5 160.5zM260 808q-25 0 -38 -11t-22 -37q-4 -11 -13 -4l-32 19q-7 5 -2 15q36 75 96 75
q42 0 81 -27t63 -27q25 0 38 11t22 37q4 11 13 4l32 -19q7 -5 2 -15q-36 -75 -101 -75q-37 0 -77.5 27t-61.5 27z" />
    <glyph glyph-name="utilde" unicode="&#x169;" horiz-adv-x="527" 
d="M453 62l14 -46q3 -8 -6 -12l-46 -11q-9 -4 -11 5l-16 54q-60 -66 -154 -66q-64 0 -99.5 17.5t-55 69t-19.5 147.5v276q0 9 9 9h47q9 0 9 -9v-263q0 -68 3.5 -100.5t20 -52.5t39.5 -23.5t73 -3.5q76 0 127 28v415q0 9 9 9h47q9 0 9 -9v-434zM199 636q-30 0 -47 -48
q-4 -11 -13 -4l-32 19q-7 5 -2 15q36 75 94 75q28 0 61.5 -27t55.5 -27q32 0 49 48q4 11 13 4l32 -19q7 -5 2 -15q-36 -75 -88 -75q-31 0 -54.5 13.5t-40 27t-30.5 13.5z" />
    <glyph glyph-name="Umacron" unicode="&#x16a;" horiz-adv-x="638" 
d="M487 247v441q0 9 9 9h53q9 0 9 -9v-441q0 -141 -54 -201t-185 -60t-185 60t-54 201v441q0 9 9 9h53q9 0 9 -9v-441q0 -67 5.5 -102t25 -58t50 -29t88.5 -6q108 0 137.5 34.5t29.5 160.5zM427 771h-230q-9 0 -9 9v40q0 9 9 9h230q9 0 9 -9v-40q0 -9 -9 -9z" />
    <glyph glyph-name="umacron" unicode="&#x16b;" horiz-adv-x="527" 
d="M453 62l14 -46q3 -8 -6 -12l-46 -11q-9 -4 -11 5l-16 54q-60 -66 -154 -66q-64 0 -99.5 17.5t-55 69t-19.5 147.5v276q0 9 9 9h47q9 0 9 -9v-263q0 -68 3.5 -100.5t20 -52.5t39.5 -23.5t73 -3.5q76 0 127 28v415q0 9 9 9h47q9 0 9 -9v-434zM375 598h-230q-9 0 -9 9v40
q0 9 9 9h230q9 0 9 -9v-40q0 -9 -9 -9z" />
    <glyph glyph-name="Ubreve" unicode="&#x16c;" horiz-adv-x="638" 
d="M487 247v441q0 9 9 9h53q9 0 9 -9v-441q0 -141 -54 -201t-185 -60t-185 60t-54 201v441q0 9 9 9h53q9 0 9 -9v-441q0 -67 5.5 -102t25 -58t50 -29t88.5 -6q108 0 137.5 34.5t29.5 160.5zM315 745q-68 0 -101 27t-33 90q0 9 11 9h37q10 0 10 -9q0 -41 13 -50.5t64 -9.5
t64 9.5t13 50.5q0 9 10 9h37q11 0 11 -9q0 -63 -33.5 -90t-102.5 -27z" />
    <glyph glyph-name="ubreve" unicode="&#x16d;" horiz-adv-x="527" 
d="M453 62l14 -46q3 -8 -6 -12l-46 -11q-9 -4 -11 5l-16 54q-60 -66 -154 -66q-64 0 -99.5 17.5t-55 69t-19.5 147.5v276q0 9 9 9h47q9 0 9 -9v-263q0 -68 3.5 -100.5t20 -52.5t39.5 -23.5t73 -3.5q76 0 127 28v415q0 9 9 9h47q9 0 9 -9v-434zM254 579q-66 0 -97 28.5
t-31 90.5q0 9 11 9h34q10 0 10 -9q0 -41 12.5 -53t61.5 -12t61.5 12t12.5 53q0 9 10 9h34q11 0 11 -9q0 -63 -31.5 -91t-98.5 -28z" />
    <glyph glyph-name="Uring" unicode="&#x16e;" horiz-adv-x="638" 
d="M487 247v441q0 9 9 9h53q9 0 9 -9v-441q0 -141 -54 -201t-185 -60t-185 60t-54 201v441q0 9 9 9h53q9 0 9 -9v-441q0 -67 5.5 -102t25 -58t50 -29t88.5 -6q108 0 137.5 34.5t29.5 160.5zM322 873q110 0 110 -94t-110 -94q-109 0 -109 94q0 48 25 71t84 23zM322 828
q-32 0 -44.5 -12.5t-12.5 -38.5q0 -52 57 -52q59 0 59 52q0 26 -13 38.5t-46 12.5z" />
    <glyph glyph-name="uring" unicode="&#x16f;" horiz-adv-x="527" 
d="M453 62l14 -46q3 -8 -6 -12l-46 -11q-9 -4 -11 5l-16 54q-60 -66 -154 -66q-64 0 -99.5 17.5t-55 69t-19.5 147.5v276q0 9 9 9h47q9 0 9 -9v-263q0 -68 3.5 -100.5t20 -52.5t39.5 -23.5t73 -3.5q76 0 127 28v415q0 9 9 9h47q9 0 9 -9v-434zM258 738q110 0 110 -94
t-110 -94q-109 0 -109 94q0 48 25 71t84 23zM258 692q-36 0 -45.5 -8.5t-9.5 -41.5q0 -32 10 -40.5t45 -8.5q37 0 47 8.5t10 40.5q0 33 -10 41.5t-47 8.5z" />
    <glyph glyph-name="Uhungarumlaut" unicode="&#x170;" horiz-adv-x="638" 
d="M487 247v441q0 9 9 9h53q9 0 9 -9v-441q0 -141 -54 -201t-185 -60t-185 60t-54 201v441q0 9 9 9h53q9 0 9 -9v-441q0 -67 5.5 -102t25 -58t50 -29t88.5 -6q108 0 137.5 34.5t29.5 160.5zM349 854l-110 -112q-5 -5 -12 -1l-26 15q-3 1 -3 5.5t2 7.5l97 113q5 7 14 3
l37 -16q4 -1 4 -6.5t-3 -8.5zM488 854l-110 -112q-5 -5 -12 -1l-26 15q-3 1 -3 5.5t2 7.5l97 113q5 7 14 3l37 -16q4 -1 4 -6.5t-3 -8.5z" />
    <glyph glyph-name="uhungarumlaut" unicode="&#x171;" horiz-adv-x="527" 
d="M453 62l14 -46q3 -8 -6 -12l-46 -11q-9 -4 -11 5l-16 54q-60 -66 -154 -66q-64 0 -99.5 17.5t-55 69t-19.5 147.5v276q0 9 9 9h47q9 0 9 -9v-263q0 -68 3.5 -100.5t20 -52.5t39.5 -23.5t73 -3.5q76 0 127 28v415q0 9 9 9h47q9 0 9 -9v-434zM273 674l-100 -112
q-5 -5 -12 -1l-26 15q-3 1 -3 5.5t2 7.5l87 113q5 7 14 3l37 -16q4 -1 4 -6.5t-3 -8.5zM412 674l-100 -112q-5 -5 -12 -1l-26 15q-3 1 -3 5.5t2 7.5l87 113q5 7 14 3l37 -16q4 -1 4 -6.5t-3 -8.5z" />
    <glyph glyph-name="Uogonek" unicode="&#x172;" horiz-adv-x="638" 
d="M457 -143l9 -30q5 -13 -5 -16q-46 -14 -97 -14q-69 0 -93 23t-24 72q0 61 53 94q-120 4 -170 64t-50 197v441q0 9 9 9h53q9 0 9 -9v-441q0 -67 5.5 -102t25 -58t50 -29t88.5 -6q108 0 137.5 34.5t29.5 160.5v441q0 9 9 9h53q9 0 9 -9v-441q0 -130 -45.5 -190.5
t-154.5 -68.5q-30 -22 -38.5 -40t-8.5 -46q0 -27 10 -39t48 -12q44 0 75 10q11 3 13 -4z" />
    <glyph glyph-name="uogonek" unicode="&#x173;" horiz-adv-x="527" 
d="M513 -143l9 -30q5 -13 -5 -16q-46 -14 -97 -14q-69 0 -93 23t-24 72q0 82 98 115l-13 45q-60 -66 -154 -66q-64 0 -99.5 17.5t-55 69t-19.5 147.5v276q0 9 9 9h47q9 0 9 -9v-263q0 -68 3.5 -100.5t20 -52.5t39.5 -23.5t73 -3.5q76 0 127 28v415q0 9 9 9h47q9 0 9 -9v-434
l14 -46q3 -8 -6 -12l-36 -8q-38 -25 -48 -44t-10 -50q0 -27 10 -39t48 -12q44 0 75 10q11 3 13 -4z" />
    <glyph glyph-name="Wcircumflex" unicode="&#x174;" horiz-adv-x="860" 
d="M412 561l-146 -552q-2 -9 -10 -9h-72q-6 0 -10 9l-153 673q-4 9 6 11l48 12q9 2 11 -5l120 -567l17 -80l17 80l146 555q4 9 10 9h72q6 0 10 -9l137 -555l17 -80l17 80l127 567q2 7 11 5l46 -12q10 -2 6 -11l-164 -673q-4 -9 -10 -9h-72q-6 0 -10 9l-137 552l-17 80z
M408 876h44q14 0 22 -8l101 -84q3 -3 1.5 -7t-5.5 -6l-33 -22q-6 -3 -13 4l-95 82l-95 -82q-8 -8 -13 -4l-33 22q-4 2 -5.5 6t1.5 7l101 84q8 8 22 8z" />
    <glyph glyph-name="wcircumflex" unicode="&#x175;" horiz-adv-x="749" 
d="M412 496l108 -374l16 -71l15 71l103 384q2 7 11 5l46 -12q8 -2 6 -11l-138 -479q-4 -9 -10 -9h-69q-6 0 -10 9l-104 360l-13 69l-13 -69l-102 -360q-4 -9 -10 -9h-69q-6 0 -10 9l-137 479q-4 9 6 11l48 12q9 2 11 -5l108 -384l13 -71l15 71l104 374q2 9 10 9h55
q8 0 10 -9zM349 708h44q14 0 22 -8l91 -98q3 -3 1.5 -7t-5.5 -6l-33 -18q-6 -3 -13 4l-85 90l-85 -90q-8 -8 -13 -4l-33 18q-4 2 -5.5 6t1.5 7l91 98q8 8 22 8z" />
    <glyph glyph-name="Ycircumflex" unicode="&#x176;" horiz-adv-x="545" 
d="M238 341l-226 329q-5 9 2 14l40 25q2 2 7 1.5t7 -2.5l178 -264l28 -54l27 54l176 264q7 7 13 1l41 -25q7 -5 2 -14l-224 -329v-332q0 -9 -9 -9h-53q-9 0 -9 9v332zM252 876h44q14 0 22 -8l101 -84q3 -3 1.5 -7t-5.5 -6l-33 -22q-6 -3 -13 4l-95 82l-95 -82q-8 -8 -13 -4
l-33 22q-4 2 -5.5 6t1.5 7l101 84q8 8 22 8z" />
    <glyph glyph-name="ycircumflex" unicode="&#x177;" horiz-adv-x="461" 
d="M439 488l-190 -567q-42 -124 -144 -124q-10 0 -11 10l-7 43q-1 4 1 7t5 3q53 0 71.5 23.5t45.5 116.5h-12q-10 0 -13 8l-163 480q-4 9 6 11l48 12q9 2 11 -5l129 -386l15 -75l19 75l126 386q2 7 11 5l46 -12q10 -2 6 -11zM208 708h44q14 0 22 -8l91 -98q3 -3 1.5 -7
t-5.5 -6l-33 -18q-6 -3 -13 4l-85 90l-85 -90q-8 -8 -13 -4l-33 18q-4 2 -5.5 6t1.5 7l91 98q8 8 22 8z" />
    <glyph glyph-name="Ydieresis" unicode="&#x178;" horiz-adv-x="545" 
d="M238 341l-226 329q-5 9 2 14l40 25q2 2 7 1.5t7 -2.5l178 -264l28 -54l27 54l176 264q7 7 13 1l41 -25q7 -5 2 -14l-224 -329v-332q0 -9 -9 -9h-53q-9 0 -9 9v332zM180 847q24 0 32.5 -7t8.5 -32q0 -27 -8.5 -35t-32.5 -8q-25 0 -33.5 8t-8.5 35q0 25 8.5 32t33.5 7z
M369 847q24 0 32.5 -7t8.5 -32q0 -27 -8.5 -35t-32.5 -8q-25 0 -33.5 8t-8.5 35q0 25 8.5 32t33.5 7z" />
    <glyph glyph-name="Zacute" unicode="&#x179;" horiz-adv-x="557" 
d="M28 42l408 595h-390q-10 0 -10 10v40q0 10 10 10h480q10 0 10 -10v-11q0 -9 -7 -21l-406 -595h404q10 0 10 -10v-40q0 -10 -10 -10h-497q-10 0 -10 10v11q0 11 8 21zM402 855l-130 -112q-6 -4 -14 -1l-31 15q-4 1 -4 5.5t2 7.5l115 113q7 7 17 3l44 -16q4 -1 4.5 -6.5
t-3.5 -8.5z" />
    <glyph glyph-name="zacute" unicode="&#x17a;" horiz-adv-x="448" 
d="M37 39l288 411h-271q-9 0 -9 9v37q0 9 9 9h356q9 0 9 -9v-11q0 -10 -7 -19l-285 -411h284q9 0 9 -9v-37q0 -9 -9 -9h-372q-9 0 -9 9v11q0 10 7 19zM328 673l-119 -112q-6 -4 -14 -1l-27 18q-4 1 -4 5.5t2 7.5l104 115q7 7 17 3l40 -21q4 -1 4.5 -6.5t-3.5 -8.5z" />
    <glyph glyph-name="Zdotaccent" unicode="&#x17b;" horiz-adv-x="557" 
d="M28 42l408 595h-390q-10 0 -10 10v40q0 10 10 10h480q10 0 10 -10v-11q0 -9 -7 -21l-406 -595h404q10 0 10 -10v-40q0 -10 -10 -10h-497q-10 0 -10 10v11q0 11 8 21zM288 847q24 0 32.5 -7t8.5 -32q0 -27 -8.5 -35t-32.5 -8q-25 0 -33.5 8t-8.5 35q0 25 8.5 32t33.5 7z
" />
    <glyph glyph-name="zdotaccent" unicode="&#x17c;" horiz-adv-x="448" 
d="M37 39l288 411h-271q-9 0 -9 9v37q0 9 9 9h356q9 0 9 -9v-11q0 -10 -7 -19l-285 -411h284q9 0 9 -9v-37q0 -9 -9 -9h-372q-9 0 -9 9v11q0 10 7 19zM238 666q24 0 32.5 -7t8.5 -32q0 -27 -8.5 -35t-32.5 -8q-25 0 -33.5 8t-8.5 35q0 25 8.5 32t33.5 7z" />
    <glyph glyph-name="Zcaron" unicode="&#x17d;" horiz-adv-x="557" 
d="M28 42l408 595h-390q-10 0 -10 10v40q0 10 10 10h480q10 0 10 -10v-11q0 -9 -7 -21l-406 -595h404q10 0 10 -10v-40q0 -10 -10 -10h-497q-10 0 -10 10v11q0 11 8 21zM315 747h-44q-14 0 -22 8l-101 84q-3 3 -1.5 7t5.5 6l33 22q6 3 13 -4l95 -82l95 82q8 8 13 4l33 -22
q4 -2 5.5 -6t-1.5 -7l-101 -84q-8 -8 -22 -8z" />
    <glyph glyph-name="zcaron" unicode="&#x17e;" horiz-adv-x="448" 
d="M37 39l288 411h-271q-9 0 -9 9v37q0 9 9 9h356q9 0 9 -9v-11q0 -10 -7 -19l-285 -411h284q9 0 9 -9v-37q0 -9 -9 -9h-372q-9 0 -9 9v11q0 10 7 19zM255 568h-44q-14 0 -22 8l-91 98q-3 3 -1.5 7t5.5 6l33 18q6 3 13 -4l85 -90l85 90q8 8 13 4l33 -18q4 -2 5.5 -6t-1.5 -7
l-91 -98q-8 -8 -22 -8z" />
    <glyph glyph-name="florin" unicode="&#x192;" horiz-adv-x="554" 
d="M227 -28v478h-60q-9 0 -9 9v37q0 9 9 9h60v47q0 170 144 170q47 0 97 -10q8 -3 5 -13l-12 -43q-2 -9 -10 -6q-43 12 -80 12q-52 0 -65.5 -19t-13.5 -91v-47h151q9 0 9 -9v-37q0 -9 -9 -9h-151v-478q0 -81 -41.5 -128t-105.5 -47q-10 0 -11 10l-7 43q-3 8 6 10
q61 8 77.5 27t16.5 85z" />
    <glyph glyph-name="Ohorn" unicode="&#x1a0;" horiz-adv-x="664" 
d="M721 697l-53 -195q-4 -11 -12 -11h-26q-10 0 -8 11l26 206q2 11 14 11l48 -8q6 0 9.5 -4.5t1.5 -9.5zM333 52q48 0 76 5.5t52.5 22t36.5 50.5t18.5 87.5t6.5 137.5q0 81 -6.5 133t-18.5 85t-36.5 49t-52.5 21.5t-76 5.5t-76.5 -5.5t-53.5 -21.5t-37 -49t-18.5 -85
t-6.5 -133q0 -104 8.5 -163.5t33.5 -91t57.5 -40t92.5 -8.5zM332 -14q-70 0 -117 15t-83 55t-52.5 113.5t-16.5 185.5q0 109 16.5 180t52.5 110t83 54t117 15t117 -15t83 -54t52.5 -110t16.5 -180q0 -112 -16.5 -185.5t-52.5 -113.5t-83 -55t-117 -15z" />
    <glyph glyph-name="ohorn" unicode="&#x1a1;" horiz-adv-x="542" 
d="M584 697l-53 -195q-4 -11 -12 -11h-26q-10 0 -8 11l26 206q2 11 14 11l48 -8q6 0 9.5 -4.5t1.5 -9.5zM271 457q-48 0 -72 -5.5t-41 -28.5t-21.5 -61t-4.5 -109q0 -60 3.5 -95t11 -59t25.5 -34t39 -13.5t60 -3.5t60 3.5t39 13.5t25.5 34t11 59t3.5 95q0 71 -4.5 109
t-21.5 61t-41 28.5t-72 5.5zM271 -14q-119 0 -165 57.5t-46 211.5q0 152 46 208t165 56t165 -56t46 -208q0 -154 -46 -211.5t-165 -57.5z" />
    <glyph glyph-name="Uhorn" unicode="&#x1af;" horiz-adv-x="638" 
d="M701 697l-53 -195q-4 -11 -12 -11h-26q-10 0 -8 11l26 206q2 11 14 11l48 -8q6 0 9.5 -4.5t1.5 -9.5zM487 247v441q0 9 9 9h53q9 0 9 -9v-441q0 -141 -54 -201t-185 -60t-185 60t-54 201v441q0 9 9 9h53q9 0 9 -9v-441q0 -67 5.5 -102t25 -58t50 -29t88.5 -6
q108 0 137.5 34.5t29.5 160.5z" />
    <glyph glyph-name="uhorn" unicode="&#x1b0;" horiz-adv-x="527" 
d="M600 697l-53 -195q-4 -11 -12 -11h-26q-10 0 -8 11l26 206q2 11 14 11l48 -8q6 0 9.5 -4.5t1.5 -9.5zM453 62l14 -46q3 -8 -6 -12l-46 -11q-9 -4 -11 5l-16 54q-60 -66 -154 -66q-64 0 -99.5 17.5t-55 69t-19.5 147.5v276q0 9 9 9h47q9 0 9 -9v-263q0 -68 3.5 -100.5
t20 -52.5t39.5 -23.5t73 -3.5q76 0 127 28v415q0 9 9 9h47q9 0 9 -9v-434z" />
    <glyph glyph-name="AEacute" unicode="&#x1fc;" horiz-adv-x="821" 
d="M782 0h-389q-9 0 -9 9v201h-277l-137 -213q-4 -7 -13 -5l-52 12q-9 2 -2 11l444 673q7 9 13 9h422q9 0 9 -9v-42q0 -9 -9 -9h-327v-237h267q9 0 9 -9v-42q0 -9 -9 -9h-267v-280h327q9 0 9 -9v-42q0 -9 -9 -9zM346 577l-202 -310h240v375zM676 855l-130 -112q-6 -4 -14 -1
l-31 15q-4 1 -4 5.5t2 7.5l115 113q7 7 17 3l44 -16q4 -1 4.5 -6.5t-3.5 -8.5z" />
    <glyph glyph-name="aeacute" unicode="&#x1fd;" horiz-adv-x="825" 
d="M761 253h-311q0 -50 2 -81.5t9.5 -56t16.5 -36.5t28 -19.5t39.5 -9.5t56.5 -2q66 0 124 24q8 3 10 -6l12 -43q3 -10 -5 -13q-61 -24 -141 -24q-149 0 -186 78q-62 -78 -170 -78q-107 0 -146.5 37.5t-39.5 124.5t39.5 124.5t146.5 37.5q37 0 78.5 -21t58.5 -45v66
q0 91 -25.5 119t-105.5 28q-73 0 -131 -21q-8 -3 -10 6l-12 42q-3 10 5 13q69 22 148 22q74 0 114 -19t58 -66q18 46 56.5 65.5t104.5 19.5q74 0 113 -20t58 -74.5t19 -158.5q0 -13 -14 -13zM256 248q-80 0 -103.5 -19.5t-23.5 -80.5t23.5 -80.5t103.5 -19.5q67 0 127 33
v134q-60 33 -127 33zM451 307h259q-3 98 -26 125t-102 27q-78 0 -102.5 -28t-28.5 -124zM527 673l-119 -112q-6 -4 -14 -1l-27 18q-4 1 -4 5.5t2 7.5l104 115q7 7 17 3l40 -21q4 -1 4.5 -6.5t-3.5 -8.5z" />
    <glyph glyph-name="Oslashacute" unicode="&#x1fe;" horiz-adv-x="664" 
d="M600 715l-56 -86q57 -83 57 -274q0 -112 -16.5 -185.5t-52.5 -113.5t-83 -55t-117 -15q-116 0 -173 44l-50 -77q-4 -10 -12 -4l-39 19q-9 6 -4 11l63 97q-54 84 -54 279q0 109 16.5 180t52.5 110t83 54t117 15q111 0 168 -40l44 68q5 7 12 4l40 -20q8 -4 4 -11zM333 52
q48 0 76 5.5t52.5 22t36.5 50.5t18.5 87.5t6.5 137.5q0 145 -21 207l-307 -476q35 -34 138 -34zM141 355q0 -146 20 -210l304 474q-35 30 -132 30q-48 0 -76.5 -5.5t-53.5 -21.5t-37 -49t-18.5 -85t-6.5 -133zM440 855l-130 -112q-6 -4 -14 -1l-31 15q-4 1 -4 5.5t2 7.5
l115 113q7 7 17 3l44 -16q4 -1 4.5 -6.5t-3.5 -8.5z" />
    <glyph glyph-name="oslashacute" unicode="&#x1ff;" horiz-adv-x="542" 
d="M490 536l-51 -77q43 -59 43 -204q0 -154 -46 -211.5t-165 -57.5q-81 0 -127 25l-49 -74q-3 -8 -10 -4l-36 17q-7 6 -3 10l57 87q-43 60 -43 208q0 152 46 208t165 56q82 0 126 -24l44 66q4 6 10 3l36 -18q7 -2 3 -10zM410 253q0 103 -13 143l-220 -334q24 -14 94 -14
q39 0 60 3.5t39 13.5t25.5 34t11 59t3.5 95zM271 457q-48 0 -72 -5.5t-41 -28.5t-21.5 -61t-4.5 -109q0 -107 11 -145l220 334q-26 15 -92 15zM376 673l-119 -112q-6 -4 -14 -1l-27 18q-4 1 -4 5.5t2 7.5l104 115q7 7 17 3l40 -21q4 -1 4.5 -6.5t-3.5 -8.5z" />
    <glyph glyph-name="Scommaaccent" unicode="&#x218;" horiz-adv-x="583" 
d="M262 48q112 0 146.5 29t34.5 112q0 76 -27.5 100.5t-128.5 34.5q-128 12 -175.5 51t-47.5 135q0 111 57 157.5t186 46.5q94 0 178 -25q8 -3 5 -13l-13 -43q-2 -9 -10 -6q-70 25 -159 25q-58 0 -91 -6t-50 -24.5t-21.5 -41.5t-4.5 -68q0 -73 25 -91t132 -29
q126 -13 173.5 -58t47.5 -144q0 -109 -62.5 -156.5t-193.5 -47.5q-94 0 -178 25q-8 3 -5 13l13 43q2 9 10 6q70 -25 159 -25zM337 -73l-63 -155q-4 -11 -12 -11h-26q-10 0 -8 11l36 166q2 13 14 11l48 -8q15 -2 11 -14z" />
    <glyph glyph-name="scommaaccent" unicode="&#x219;" horiz-adv-x="464" 
d="M64 7q-9 2 -5 13l12 43q2 9 10 6q67 -24 150 -24q66 0 87.5 19t21.5 79q0 44 -18.5 59.5t-89.5 25.5q-94 14 -135 45t-41 96q0 150 182 150q68 0 143 -21q8 -3 5 -13l-12 -43q-2 -9 -10 -6q-60 23 -129 23q-67 0 -87.5 -17.5t-20.5 -72.5q0 -42 19.5 -56.5t93.5 -24.5
q96 -12 133.5 -46t37.5 -98q0 -79 -43 -118.5t-140 -39.5q-88 0 -164 21zM273 -73l-63 -155q-4 -11 -12 -11h-26q-10 0 -8 11l36 166q2 13 14 11l48 -8q15 -2 11 -14z" />
    <glyph glyph-name="circumflex" unicode="&#x2c6;" horiz-adv-x="667" 
d="M330 708h44q14 0 22 -8l91 -98q3 -3 1.5 -7t-5.5 -6l-33 -18q-6 -3 -13 4l-85 90l-85 -90q-8 -8 -13 -4l-33 18q-4 2 -5.5 6t1.5 7l91 98q8 8 22 8z" />
    <glyph glyph-name="caron" unicode="&#x2c7;" horiz-adv-x="667" 
d="M374 568h-44q-14 0 -22 8l-91 98q-3 3 -1.5 7t5.5 6l33 18q6 3 13 -4l85 -90l85 90q8 8 13 4l33 -18q4 -2 5.5 -6t-1.5 -7l-91 -98q-8 -8 -22 -8z" />
    <glyph glyph-name="breve" unicode="&#x2d8;" horiz-adv-x="537" 
d="M254 579q-66 0 -97 28.5t-31 90.5q0 9 11 9h34q10 0 10 -9q0 -41 12.5 -53t61.5 -12t61.5 12t12.5 53q0 9 10 9h34q11 0 11 -9q0 -63 -31.5 -91t-98.5 -28z" />
    <glyph glyph-name="dotaccent" unicode="&#x2d9;" horiz-adv-x="408" 
d="M110 666q24 0 32.5 -7t8.5 -32q0 -27 -8.5 -35t-32.5 -8q-25 0 -33.5 8t-8.5 35q0 25 8.5 32t33.5 7z" />
    <glyph glyph-name="ring" unicode="&#x2da;" horiz-adv-x="727" 
d="M360 738q110 0 110 -94t-110 -94q-109 0 -109 94q0 48 25 71t84 23zM360 692q-36 0 -45.5 -8.5t-9.5 -41.5q0 -32 10 -40.5t45 -8.5q37 0 47 8.5t10 40.5q0 33 -10 41.5t-47 8.5z" />
    <glyph glyph-name="ogonek" unicode="&#x2db;" horiz-adv-x="654" 
d="M487 -143l9 -30q5 -13 -5 -16q-46 -14 -97 -14q-69 0 -93 23t-24 72q0 88 115 120h34q-56 -33 -70.5 -54t-14.5 -56q0 -27 10 -39t48 -12q44 0 75 10q11 3 13 -4z" />
    <glyph glyph-name="tilde" unicode="&#x2dc;" horiz-adv-x="533" 
d="M207 636q-30 0 -47 -48q-4 -11 -13 -4l-32 19q-7 5 -2 15q36 75 94 75q28 0 61.5 -27t55.5 -27q32 0 49 48q4 11 13 4l32 -19q7 -5 2 -15q-36 -75 -88 -75q-31 0 -54.5 13.5t-40 27t-30.5 13.5z" />
    <glyph glyph-name="hungarumlaut" unicode="&#x2dd;" horiz-adv-x="494" 
d="M269 674l-100 -112q-5 -5 -12 -1l-26 15q-3 1 -3 5.5t2 7.5l87 113q5 7 14 3l37 -16q4 -1 4 -6.5t-3 -8.5zM408 674l-100 -112q-5 -5 -12 -1l-26 15q-3 1 -3 5.5t2 7.5l87 113q5 7 14 3l37 -16q4 -1 4 -6.5t-3 -8.5z" />
    <glyph glyph-name="gravecomb" unicode="&#x300;" horiz-adv-x="494" 
d="M254 561l-119 112q-4 3 -3.5 8.5t4.5 6.5l40 21q10 4 17 -3l104 -115q2 -3 2 -7.5t-4 -5.5l-27 -18q-8 -3 -14 1z" />
    <glyph glyph-name="acutecomb" unicode="&#x301;" horiz-adv-x="494" 
d="M296 673l-119 -112q-6 -4 -14 -1l-27 18q-4 1 -4 5.5t2 7.5l104 115q7 7 17 3l40 -21q4 -1 4.5 -6.5t-3.5 -8.5z" />
    <glyph glyph-name="tildecomb" unicode="&#x303;" horiz-adv-x="533" 
d="M207 636q-30 0 -47 -48q-4 -11 -13 -4l-32 19q-7 5 -2 15q36 75 94 75q28 0 61.5 -27t55.5 -27q32 0 49 48q4 11 13 4l32 -19q7 -5 2 -15q-36 -75 -88 -75q-31 0 -54.5 13.5t-40 27t-30.5 13.5z" />
    <glyph glyph-name="hookabovecomb" unicode="&#x309;" horiz-adv-x="654" 
d="M261 587l12 29q3 6 9 4q39 -14 83 -14q34 0 42.5 5.5t8.5 27.5t-17.5 27.5t-95.5 5.5q-4 0 -7 3.5t-1 7.5l11 31h56q67 0 93 -17t26 -56q0 -43 -26.5 -62t-92.5 -19q-67 0 -98 17q-5 3 -3 10z" />
    <glyph glyph-name="dotbelowcomb" unicode="&#x323;" horiz-adv-x="408" 
d="M203 -67q24 0 32.5 -7t8.5 -32q0 -27 -8.5 -35t-32.5 -8q-25 0 -33.5 8t-8.5 35q0 25 8.5 32t33.5 7z" />
    <glyph glyph-name="Delta" unicode="&#x394;" horiz-adv-x="565" 
d="M329 697l229 -685q0 -12 -9 -12h-533q-4 0 -7 4t-2 8l230 685q4 9 10 9h72q6 0 10 -9zM263 586l-171 -525h378l-173 525l-17 69z" />
    <glyph glyph-name="Delta" unicode="&#x2206;" horiz-adv-x="565" 
d="M329 697l229 -685q0 -12 -9 -12h-533q-4 0 -7 4t-2 8l230 685q4 9 10 9h72q6 0 10 -9zM263 586l-171 -525h378l-173 525l-17 69z" />
    <glyph glyph-name="uni03A9" unicode="&#x3a9;" horiz-adv-x="776" 
d="M42 55h179q-129 85 -129 327q0 181 72 256.5t224 75.5q153 0 225 -75.5t72 -256.5q0 -241 -130 -327h179q12 0 12 -12v-31q0 -12 -12 -12h-271q-13 0 -13 12v37q0 11 12 11q82 27 115.5 108.5t33.5 211.5q0 113 -21.5 171.5t-67.5 80t-134 21.5t-133.5 -21.5t-67 -80
t-21.5 -171.5q0 -130 33 -211.5t115 -108.5q12 0 12 -11v-37q0 -12 -13 -12h-271q-12 0 -12 12v31q0 12 12 12z" />
    <glyph glyph-name="pi" unicode="&#x3c0;" horiz-adv-x="508" 
d="M32 49q61 8 77.5 27t16.5 85v289h-61q-9 0 -9 9v37q0 9 9 9h417q9 0 9 -9v-37q0 -9 -9 -9h-54v-441q0 -9 -9 -9h-47q-9 0 -9 9v441h-172v-289q0 -81 -41.5 -128t-105.5 -47q-10 0 -11 10l-7 43q-3 8 6 10z" />
    <glyph glyph-name="afii10023" unicode="&#x401;" horiz-adv-x="527" 
d="M488 0h-389q-9 0 -9 9v679q0 9 9 9h389q9 0 9 -9v-42q0 -9 -9 -9h-327v-237h267q9 0 9 -9v-42q0 -9 -9 -9h-267v-280h327q9 0 9 -9v-42q0 -9 -9 -9zM209 847q24 0 32.5 -7t8.5 -32q0 -27 -8.5 -35t-32.5 -8q-25 0 -33.5 8t-8.5 35q0 25 8.5 32t33.5 7zM398 847
q24 0 32.5 -7t8.5 -32q0 -27 -8.5 -35t-32.5 -8q-25 0 -33.5 8t-8.5 35q0 25 8.5 32t33.5 7z" />
    <glyph glyph-name="afii10051" unicode="&#x402;" horiz-adv-x="673" 
d="M548 -28v300q0 70 -3.5 103.5t-20 54t-39.5 24t-73 3.5q-67 0 -127 -33v-415q0 -9 -9 -9h-53q-9 0 -9 9v628h-205q-9 0 -9 9v42q0 9 9 9h481q9 0 9 -9v-42q0 -9 -9 -9h-205v-184q60 66 154 66q64 0 99.5 -17.5t55 -69t19.5 -147.5v-313q0 -81 -41.5 -128t-105.5 -47
q-10 0 -11 10l-7 43q-3 8 6 10q61 8 77.5 27t16.5 85z" />
    <glyph glyph-name="afii10052" unicode="&#x403;" horiz-adv-x="467" 
d="M458 637h-297v-628q0 -9 -9 -9h-53q-9 0 -9 9v679q0 9 9 9h359q9 0 9 -9v-42q0 -9 -9 -9zM422 855l-130 -112q-6 -4 -14 -1l-31 15q-4 1 -4 5.5t2 7.5l115 113q7 7 17 3l44 -16q4 -1 4.5 -6.5t-3.5 -8.5z" />
    <glyph glyph-name="afii10053" unicode="&#x404;" horiz-adv-x="552" 
d="M353 652q-89 0 -129.5 -16.5t-60 -69t-21.5 -166.5h286q9 0 9 -9v-42q0 -9 -9 -9h-287q1 -101 9 -156t34 -87t62.5 -40t106.5 -8q88 0 155 24q8 3 10 -6l13 -43q3 -10 -5 -13q-84 -25 -174 -25q-82 0 -133 15t-88 55.5t-52.5 112.5t-15.5 186q0 110 15.5 180t52.5 110
t88.5 54.5t132.5 14.5q90 0 174 -25q8 -3 5 -13l-13 -43q-2 -9 -10 -6q-70 25 -155 25z" />
    <glyph glyph-name="afii10054" unicode="&#x405;" horiz-adv-x="583" 
d="M262 48q112 0 146.5 29t34.5 112q0 76 -27.5 100.5t-128.5 34.5q-128 12 -175.5 51t-47.5 135q0 111 57 157.5t186 46.5q94 0 178 -25q8 -3 5 -13l-13 -43q-2 -9 -10 -6q-70 25 -159 25q-58 0 -91 -6t-50 -24.5t-21.5 -41.5t-4.5 -68q0 -73 25 -91t132 -29
q126 -13 173.5 -58t47.5 -144q0 -109 -62.5 -156.5t-193.5 -47.5q-94 0 -178 25q-8 3 -5 13l13 43q2 9 10 6q70 -25 159 -25z" />
    <glyph glyph-name="afii10055" unicode="&#x406;" horiz-adv-x="251" 
d="M161 688v-679q0 -9 -9 -9h-53q-9 0 -9 9v679q0 9 9 9h53q9 0 9 -9z" />
    <glyph glyph-name="afii10056" unicode="&#x407;" horiz-adv-x="251" 
d="M161 688v-679q0 -9 -9 -9h-53q-9 0 -9 9v679q0 9 9 9h53q9 0 9 -9zM31 847q24 0 32.5 -7t8.5 -32q0 -27 -8.5 -35t-32.5 -8q-25 0 -33.5 8t-8.5 35q0 25 8.5 32t33.5 7zM220 847q24 0 32.5 -7t8.5 -32q0 -27 -8.5 -35t-32.5 -8q-25 0 -33.5 8t-8.5 35q0 25 8.5 32t33.5 7
z" />
    <glyph glyph-name="afii10057" unicode="&#x408;" horiz-adv-x="426" 
d="M265 192v496q0 9 9 9h53q9 0 9 -9v-496q0 -106 -50 -156t-137 -50q-75 0 -144 25q-8 3 -5 13l13 43q2 9 10 6q58 -24 125 -24q72 0 94.5 26.5t22.5 116.5z" />
    <glyph glyph-name="afii10058" unicode="&#x409;" horiz-adv-x="966" 
d="M546 340v-280h215q57 0 77.5 28t20.5 110q0 85 -21 113.5t-77 28.5h-215zM761 0h-277q-9 0 -9 9v628h-247q-7 -362 -103 -627q-4 -10 -10 -10h-61q-9 0 -9 9q116 312 116 679q0 9 9 9h367q9 0 9 -9v-288h215q95 0 135 -51.5t40 -150.5q0 -97 -45 -147.5t-130 -50.5z" />
    <glyph glyph-name="afii10059" unicode="&#x40a;" horiz-adv-x="930" 
d="M510 341v-281h215q57 0 77.5 28t20.5 110q0 85 -21 114t-77 29h-215zM725 0h-277q-9 0 -9 9v332h-278v-332q0 -9 -9 -9h-53q-9 0 -9 9v679q0 9 9 9h53q9 0 9 -9v-288h278v288q0 9 9 9h53q9 0 9 -9v-288h215q95 0 135 -51.5t40 -150.5q0 -97 -45 -147.5t-130 -50.5z" />
    <glyph glyph-name="afii10060" unicode="&#x40b;" horiz-adv-x="673" 
d="M613 285v-276q0 -9 -9 -9h-47q-9 0 -9 9v263q0 70 -3.5 103.5t-20 54t-39.5 24t-73 3.5q-67 0 -127 -33v-415q0 -9 -9 -9h-53q-9 0 -9 9v628h-205q-9 0 -9 9v42q0 9 9 9h481q9 0 9 -9v-42q0 -9 -9 -9h-205v-184q60 66 154 66q64 0 99.5 -17.5t55 -69t19.5 -147.5z" />
    <glyph glyph-name="afii10061" unicode="&#x40c;" horiz-adv-x="560" 
d="M161 362v-353q0 -9 -9 -9h-53q-9 0 -9 9v679q0 9 9 9h53q9 0 9 -9v-316q40 25 75.5 71t60 91t52.5 86.5t68.5 67.5t92.5 26q9 0 9 -9l7 -42q0 -9 -9 -9q-42 0 -81.5 -37.5t-65.5 -84t-60.5 -97t-63.5 -68.5q30 -18 66.5 -73.5t65 -109t66.5 -96t73 -42.5q9 0 9 -9l-7 -42
q0 -9 -9 -9q-52 0 -92.5 29.5t-68.5 76t-53 96.5t-59.5 99t-75.5 75zM421 855l-130 -112q-6 -4 -14 -1l-31 15q-4 1 -4 5.5t2 7.5l115 113q7 7 17 3l44 -16q4 -1 4.5 -6.5t-3.5 -8.5z" />
    <glyph glyph-name="afii10062" unicode="&#x40e;" horiz-adv-x="472" 
d="M238 747q-67 0 -99 27.5t-32 91.5q0 9 11 9h44q10 0 10 -9q0 -46 10 -60t57 -14t57 14t10 60q0 9 10 9h44q11 0 11 -9q0 -64 -32.5 -91.5t-100.5 -27.5zM466 687l-215 -577q-46 -124 -160 -124q-11 0 -12 10l-8 43q-1 4 1.5 7t5.5 3q58 0 81 26.5t53 120.5h-14
q-11 0 -14 8l-181 483q-4 9 7 11l49 12q10 2 12 -5l143 -386l22 -77l24 77l140 386q2 8 12 5l47 -12q11 -2 7 -11z" />
    <glyph glyph-name="afii10145" unicode="&#x40f;" horiz-adv-x="650" 
d="M560 688v-679q0 -9 -9 -9h-191l-9 -117q0 -9 -9 -9h-34q-9 0 -9 9l-10 117h-190q-9 0 -9 9v679q0 9 9 9h53q9 0 9 -9v-628h328v628q0 9 9 9h53q9 0 9 -9z" />
    <glyph glyph-name="afii10017" unicode="&#x410;" horiz-adv-x="565" 
d="M419 210h-277l-68 -213q-2 -7 -11 -5l-46 12q-10 2 -6 11l223 673q4 9 10 9h78q6 0 10 -9l222 -673q4 -9 -6 -11l-48 -12q-9 -2 -11 5zM401 267l-101 310l-20 79l-20 -79l-100 -310h241z" />
    <glyph glyph-name="afii10018" unicode="&#x411;" horiz-adv-x="581" 
d="M161 340v-280h215q57 0 77.5 28t20.5 110q0 85 -21 113.5t-77 28.5h-215zM161 637v-237h215q95 0 135 -51.5t40 -150.5q0 -97 -45 -147.5t-130 -50.5h-277q-9 0 -9 9v679q0 9 9 9h401q9 0 9 -9v-42q0 -9 -9 -9h-339z" />
    <glyph glyph-name="afii10019" unicode="&#x412;" horiz-adv-x="617" 
d="M161 340v-280h221q58 0 78 26t20 110q0 85 -22 114.5t-80 29.5h-217zM383 0h-284q-9 0 -9 9v679q0 9 9 9h273q95 0 130.5 -45t35.5 -122q0 -72 -26.5 -111.5t-111.5 -47.5q91 -4 124 -50t33 -126q0 -97 -44.5 -146t-129.5 -49zM161 637v-237h211q54 0 73 25.5t19 95.5
q0 74 -18 95t-74 21h-211z" />
    <glyph glyph-name="afii10020" unicode="&#x413;" horiz-adv-x="467" 
d="M458 637h-297v-628q0 -9 -9 -9h-53q-9 0 -9 9v679q0 9 9 9h359q9 0 9 -9v-42q0 -9 -9 -9z" />
    <glyph glyph-name="afii10021" unicode="&#x414;" horiz-adv-x="708" 
d="M608 0h-517v-138q0 -9 -9 -9h-42q-9 0 -9 9l-20 189q0 9 9 9h95q52 141 67.5 282t15.5 346q0 9 9 9h352q9 0 9 -9v-628h111q9 0 9 -9l-20 -189q0 -9 -9 -9h-42q-9 0 -9 9v138zM270 637q-4 -182 -22 -314.5t-72 -262.5h321v577h-227z" />
    <glyph glyph-name="afii10022" unicode="&#x415;" horiz-adv-x="527" 
d="M488 0h-389q-9 0 -9 9v679q0 9 9 9h389q9 0 9 -9v-42q0 -9 -9 -9h-327v-237h267q9 0 9 -9v-42q0 -9 -9 -9h-267v-280h327q9 0 9 -9v-42q0 -9 -9 -9z" />
    <glyph glyph-name="afii10024" unicode="&#x416;" horiz-adv-x="851" 
d="M390 688q0 9 9 9h53q9 0 9 -9v-316q40 25 75 71t59.5 91t52.5 86.5t68 67.5t92 26q9 0 9 -9l7 -42q0 -9 -9 -9q-42 0 -81 -37.5t-65 -84t-60 -97t-63 -68.5q30 -18 66.5 -73.5t64.5 -109t65.5 -96t72.5 -42.5q9 0 9 -9l-7 -42q0 -9 -9 -9q-52 0 -92 29.5t-68 76
t-52.5 96.5t-59 99t-75.5 75v-353q0 -9 -9 -9h-53q-9 0 -9 9v353q-41 -26 -75.5 -75t-59 -99t-52.5 -96.5t-68 -76t-92 -29.5q-9 0 -9 9l-7 42q0 9 9 9q35 0 72.5 42.5t65.5 96t64.5 109t66.5 73.5q-29 18 -63 68.5t-60 97t-65 84t-81 37.5q-9 0 -9 9l7 42q0 9 9 9
q52 0 92 -26t68 -67.5t52.5 -86.5t59.5 -91t75 -71v316z" />
    <glyph glyph-name="afii10025" unicode="&#x417;" horiz-adv-x="542" 
d="M241 340h-80q-9 0 -9 9v42q0 9 9 9h80q97 0 125 26.5t28 108.5q0 75 -27.5 96.5t-132.5 21.5q-90 0 -164 -23q-8 -3 -10 6l-10 42q-3 10 5 13q78 23 179 23q135 0 184.5 -40.5t49.5 -129.5q0 -155 -128 -169q142 -8 142 -183q0 -116 -56 -161t-197 -45q-90 0 -174 25
q-8 3 -5 13l13 43q2 9 10 6q70 -25 155 -25q62 0 94.5 4.5t52.5 22t25 43t5 76.5q0 94 -28 120t-136 26z" />
    <glyph glyph-name="afii10026" unicode="&#x418;" horiz-adv-x="651" 
d="M190 156l274 532q5 9 15 9h72q6 0 10 -9v-679q0 -9 -9 -9h-53q-9 0 -9 9v528l5 80l-34 -76l-274 -532q-5 -9 -15 -9h-72q-6 0 -10 9v679q0 9 9 9h53q9 0 9 -9v-528l-4 -88z" />
    <glyph glyph-name="afii10027" unicode="&#x419;" horiz-adv-x="651" 
d="M190 156l274 532q5 9 15 9h72q6 0 10 -9v-679q0 -9 -9 -9h-53q-9 0 -9 9v528l5 80l-34 -76l-274 -532q-5 -9 -15 -9h-72q-6 0 -10 9v679q0 9 9 9h53q9 0 9 -9v-528l-4 -88zM337 747q-67 0 -99 27.5t-32 91.5q0 9 11 9h44q10 0 10 -9q0 -46 10 -60t57 -14t57 14t10 60
q0 9 10 9h44q11 0 11 -9q0 -64 -32.5 -91.5t-100.5 -27.5z" />
    <glyph glyph-name="afii10028" unicode="&#x41a;" horiz-adv-x="560" 
d="M161 362v-353q0 -9 -9 -9h-53q-9 0 -9 9v679q0 9 9 9h53q9 0 9 -9v-316q40 25 75.5 71t60 91t52.5 86.5t68.5 67.5t92.5 26q9 0 9 -9l7 -42q0 -9 -9 -9q-42 0 -81.5 -37.5t-65.5 -84t-60.5 -97t-63.5 -68.5q30 -18 66.5 -73.5t65 -109t66.5 -96t73 -42.5q9 0 9 -9l-7 -42
q0 -9 -9 -9q-52 0 -92.5 29.5t-68.5 76t-53 96.5t-59.5 99t-75.5 75z" />
    <glyph glyph-name="afii10029" unicode="&#x41b;" horiz-adv-x="636" 
d="M45 14q57 135 86.5 315t29.5 359q0 9 9 9h367q9 0 9 -9v-679q0 -9 -9 -9h-53q-9 0 -9 9v628h-247q-7 -368 -103 -632q-4 -10 -10 -10l-61 10q-9 0 -9 9z" />
    <glyph glyph-name="afii10030" unicode="&#x41c;" horiz-adv-x="762" 
d="M402 182l157 506q3 9 15 9h88q6 0 10 -9v-679q0 -9 -9 -9h-53q-9 0 -9 9v528l4 90l-23 -89l-157 -476q-4 -9 -10 -9h-66q-6 0 -10 9l-159 476l-23 89l4 -90v-528q0 -9 -9 -9h-53q-9 0 -9 9v679q4 9 10 9h88q12 0 15 -9l165 -506l17 -69z" />
    <glyph glyph-name="afii10031" unicode="&#x41d;" horiz-adv-x="650" 
d="M560 688v-679q0 -9 -9 -9h-53q-9 0 -9 9v332h-328v-332q0 -9 -9 -9h-53q-9 0 -9 9v679q0 9 9 9h53q9 0 9 -9v-287h328v287q0 9 9 9h53q9 0 9 -9z" />
    <glyph glyph-name="afii10032" unicode="&#x41e;" horiz-adv-x="664" 
d="M333 52q48 0 76 5.5t52.5 22t36.5 50.5t18.5 87.5t6.5 137.5q0 81 -6.5 133t-18.5 85t-36.5 49t-52.5 21.5t-76 5.5t-76.5 -5.5t-53.5 -21.5t-37 -49t-18.5 -85t-6.5 -133q0 -104 8.5 -163.5t33.5 -91t57.5 -40t92.5 -8.5zM332 -14q-70 0 -117 15t-83 55t-52.5 113.5
t-16.5 185.5q0 109 16.5 180t52.5 110t83 54t117 15t117 -15t83 -54t52.5 -110t16.5 -180q0 -112 -16.5 -185.5t-52.5 -113.5t-83 -55t-117 -15z" />
    <glyph glyph-name="afii10033" unicode="&#x41f;" horiz-adv-x="650" 
d="M560 688v-679q0 -9 -9 -9h-53q-9 0 -9 9v628h-328v-628q0 -9 -9 -9h-53q-9 0 -9 9v679q0 9 9 9h452q9 0 9 -9z" />
    <glyph glyph-name="afii10034" unicode="&#x420;" horiz-adv-x="581" 
d="M161 637v-280h215q56 0 77 28.5t21 113.5q0 82 -20.5 110t-77.5 28h-215zM161 297v-288q0 -9 -9 -9h-53q-9 0 -9 9v679q0 9 9 9h277q85 0 130 -50.5t45 -147.5q0 -99 -40 -150.5t-135 -51.5h-215z" />
    <glyph glyph-name="afii10035" unicode="&#x421;" horiz-adv-x="552" 
d="M353 652q-48 0 -77.5 -3.5t-55.5 -15t-39.5 -30t-23.5 -53.5t-13 -80.5t-3 -114.5q0 -71 3 -118t13 -83t23.5 -55.5t39.5 -31t55.5 -15t77.5 -3.5q88 0 155 24q8 3 10 -6l13 -43q3 -10 -5 -13q-84 -25 -174 -25q-82 0 -133 15t-88 55.5t-52.5 112.5t-15.5 186
q0 110 15.5 180t52.5 110t88.5 54.5t132.5 14.5q90 0 174 -25q8 -3 5 -13l-13 -43q-2 -9 -10 -6q-70 25 -155 25z" />
    <glyph glyph-name="afii10036" unicode="&#x422;" horiz-adv-x="499" 
d="M490 697q9 0 9 -9v-42q0 -9 -9 -9h-205v-628q0 -9 -9 -9h-53q-9 0 -9 9v628h-205q-9 0 -9 9v42q0 9 9 9h481z" />
    <glyph glyph-name="afii10037" unicode="&#x423;" horiz-adv-x="472" 
d="M466 687l-215 -577q-46 -124 -160 -124q-11 0 -12 10l-8 43q-1 4 1.5 7t5.5 3q58 0 81 26.5t53 120.5h-14q-11 0 -14 8l-181 483q-4 9 7 11l49 12q10 2 12 -5l143 -386l22 -77l24 77l140 386q2 8 12 5l47 -12q11 -2 7 -11z" />
    <glyph glyph-name="afii10038" unicode="&#x424;" horiz-adv-x="883" 
d="M477 523v-343q60 -33 127 -33q39 0 61.5 4t40 14.5t25 35t11 58.5t3.5 92q0 49 -2 80t-8 55.5t-14.5 37t-26.5 20.5t-37.5 10t-52.5 2q-67 0 -127 -33zM406 180v343q-60 33 -127 33q-33 0 -52.5 -2t-37.5 -10t-26.5 -20.5t-14.5 -37t-8 -55.5t-2 -80q0 -58 3.5 -92
t11 -58.5t25 -35t40 -14.5t61.5 -4q67 0 127 33zM468 0h-53q-9 0 -9 9v142q-22 -29 -67.5 -47.5t-86.5 -18.5q-105 0 -148.5 57.5t-43.5 208.5t43.5 209t148.5 58q41 0 86.5 -18.5t67.5 -47.5v136q0 9 9 9h53q9 0 9 -9v-136q22 29 67.5 47.5t86.5 18.5q105 0 148.5 -58
t43.5 -209t-43.5 -208.5t-148.5 -57.5q-41 0 -86.5 18.5t-67.5 47.5v-142q0 -9 -9 -9z" />
    <glyph glyph-name="afii10039" unicode="&#x425;" horiz-adv-x="569" 
d="M24 28l223 325l-217 317q-6 8 2 14l41 25q2 2 6.5 1.5t6.5 -2.5l175 -261l23 -45l23 45l176 261q2 2 6.5 2.5t6.5 -1.5l41 -25q8 -6 2 -14l-218 -317l224 -325q5 -9 -2 -14l-40 -25q-2 -2 -7 -1.5t-7 2.5l-177 261l-28 52l-27 -52l-177 -261q-7 -7 -13 -1l-41 25
q-7 5 -2 14z" />
    <glyph glyph-name="afii10040" unicode="&#x426;" horiz-adv-x="698" 
d="M560 60h119q9 0 9 -9l-20 -189q0 -9 -9 -9h-42q-9 0 -9 9v138h-509q-9 0 -9 9v679q0 9 9 9h53q9 0 9 -9v-628h328v628q0 9 9 9h53q9 0 9 -9v-628z" />
    <glyph glyph-name="afii10041" unicode="&#x427;" horiz-adv-x="606" 
d="M136 688v-205q0 -68 4.5 -102.5t24.5 -55t46.5 -24.5t83.5 -4q89 0 150 33v358q0 9 9 9h53q9 0 9 -9v-679q0 -9 -9 -9h-53q-9 0 -9 9v292q-26 -27 -76.5 -48.5t-101.5 -21.5q-71 0 -112.5 18.5t-65.5 72t-24 148.5v218q0 9 9 9h53q9 0 9 -9z" />
    <glyph glyph-name="afii10042" unicode="&#x428;" horiz-adv-x="889" 
d="M480 60h248v628q0 9 9 9h53q9 0 9 -9v-679q0 -9 -9 -9h-691q-9 0 -9 9v679q0 9 9 9h53q9 0 9 -9v-628h248v628q0 9 9 9h53q9 0 9 -9v-628z" />
    <glyph glyph-name="afii10043" unicode="&#x429;" horiz-adv-x="937" 
d="M847 0h-748q-9 0 -9 9v679q0 9 9 9h53q9 0 9 -9v-628h248v628q0 9 9 9h53q9 0 9 -9v-628h248v628q0 9 9 9h53q9 0 9 -9v-628h119q9 0 9 -9l-20 -189q0 -9 -9 -9h-42q-9 0 -9 9v138z" />
    <glyph glyph-name="afii10044" unicode="&#x42a;" horiz-adv-x="601" 
d="M181 340v-280h215q57 0 77.5 28t20.5 110q0 85 -21 113.5t-77 28.5h-215zM181 688v-288h215q95 0 135 -51.5t40 -150.5q0 -97 -45 -147.5t-130 -50.5h-277q-9 0 -9 9v628h-91q-9 0 -9 9v42q0 9 9 9h153q9 0 9 -9z" />
    <glyph glyph-name="afii10045" unicode="&#x42b;" horiz-adv-x="780" 
d="M161 340v-280h215q57 0 77.5 28t20.5 110q0 85 -21 113.5t-77 28.5h-215zM90 9v679q0 9 9 9h53q9 0 9 -9v-288h215q95 0 135 -51.5t40 -150.5q0 -97 -45 -147.5t-130 -50.5h-277q-9 0 -9 9zM690 688v-679q0 -9 -9 -9h-53q-9 0 -9 9v679q0 9 9 9h53q9 0 9 -9z" />
    <glyph glyph-name="afii10046" unicode="&#x42c;" horiz-adv-x="581" 
d="M161 340v-280h215q57 0 77.5 28t20.5 110q0 85 -21 113.5t-77 28.5h-215zM90 9v679q0 9 9 9h53q9 0 9 -9v-288h215q95 0 135 -51.5t40 -150.5q0 -97 -45 -147.5t-130 -50.5h-277q-9 0 -9 9z" />
    <glyph glyph-name="afii10047" unicode="&#x42d;" horiz-adv-x="552" 
d="M199 652q-85 0 -155 -25q-8 -3 -10 6l-13 43q-3 10 5 13q84 25 174 25q81 0 132.5 -14.5t88.5 -54.5t52.5 -110t15.5 -180q0 -114 -15.5 -186t-52.5 -112.5t-88 -55.5t-133 -15q-90 0 -174 25q-8 3 -5 13l13 43q2 9 10 6q67 -24 155 -24q70 0 106.5 8t62.5 40t34 87
t9 156h-287q-9 0 -9 9v42q0 9 9 9h286q-2 114 -21.5 166.5t-60 69t-129.5 16.5z" />
    <glyph glyph-name="afii10048" unicode="&#x42e;" horiz-adv-x="905" 
d="M573 -14q-69 0 -115.5 14.5t-82.5 53t-53 109t-18 178.5h-143v-332q0 -9 -9 -9h-53q-9 0 -9 9v679q0 9 9 9h53q9 0 9 -9v-287h144q4 92 22.5 154t53.5 96.5t81 48.5t111 14q70 0 117 -15t83 -54t52.5 -110t16.5 -180q0 -112 -16.5 -185.5t-52.5 -113.5t-83 -55t-117 -15z
M574 52q48 0 76 5.5t52.5 22t36.5 50.5t18.5 87.5t6.5 137.5q0 81 -6.5 133t-18.5 85t-36.5 49t-52.5 21.5t-76 5.5t-76.5 -5.5t-53.5 -21.5t-37 -49t-18.5 -85t-6.5 -133q0 -104 8.5 -163.5t33.5 -91t57.5 -40t92.5 -8.5z" />
    <glyph glyph-name="afii10049" unicode="&#x42f;" horiz-adv-x="617" 
d="M241 697h277q9 0 9 -9v-679q0 -9 -9 -9h-53q-9 0 -9 9v288h-132q-42 0 -71 -32t-46.5 -77.5t-37 -90.5t-55 -77t-86.5 -32q-9 0 -9 9l-6 42q0 9 9 9q28 0 50 22.5t37 56t29 68.5t33.5 64t43.5 38q-73 0 -111 55t-38 147q0 97 45 147.5t130 50.5zM456 357v280h-215
q-57 0 -77.5 -26.5t-20.5 -111.5q0 -89 20.5 -115.5t77.5 -26.5h215z" />
    <glyph glyph-name="afii10065" unicode="&#x430;" horiz-adv-x="522" 
d="M256 248q-80 0 -103.5 -19.5t-23.5 -80.5t23.5 -80.5t103.5 -19.5q67 0 127 33v134q-60 33 -127 33zM252 519q109 0 152.5 -44t43.5 -165v-248l14 -46q3 -8 -6 -12l-46 -11q-9 -4 -11 5l-16 54q-17 -24 -58.5 -45t-78.5 -21q-107 0 -146.5 37.5t-39.5 124.5t39.5 124.5
t146.5 37.5q37 0 78.5 -21t58.5 -45v66q0 91 -25.5 119t-105.5 28q-73 0 -131 -21q-8 -3 -10 6l-12 42q-3 10 5 13q69 22 148 22z" />
    <glyph glyph-name="afii10066" unicode="&#x431;" horiz-adv-x="539" 
d="M134 326q1 -80 6 -130t13 -81t26 -45.5t37 -18.5t54 -4q91 0 116.5 26.5t25.5 121.5q0 58 -4 87.5t-20 48.5t-40 24t-70 5q-82 0 -144 -34zM289 684q68 0 142 23q8 3 10 -6l10 -42q3 -10 -5 -13q-78 -23 -157 -23q-92 0 -123.5 -45.5t-31.5 -176.5v-46q63 66 166 66
q99 0 141.5 -51t42.5 -166q0 -116 -49.5 -167t-164.5 -51q-125 0 -164.5 74.5t-39.5 292.5q0 190 48 260.5t175 70.5z" />
    <glyph glyph-name="afii10067" unicode="&#x432;" horiz-adv-x="509" 
d="M135 243v-188h172q45 0 59.5 17.5t14.5 71.5q0 59 -15.5 79t-61.5 20h-169zM309 0h-225q-14 0 -14 12v481q0 12 14 12h216q81 0 110.5 -33t29.5 -91q0 -93 -85 -111q100 -21 100 -127q0 -71 -37.5 -107t-108.5 -36zM135 450v-153h165q41 0 54.5 16t13.5 63t-12.5 60.5
t-55.5 13.5h-165z" />
    <glyph glyph-name="afii10068" unicode="&#x433;" horiz-adv-x="358" 
d="M366 450h-231v-438q0 -12 -13 -12h-39q-13 0 -13 12v481q0 12 13 12h283q12 0 12 -12v-31q0 -12 -12 -12z" />
    <glyph glyph-name="afii10069" unicode="&#x434;" horiz-adv-x="601" 
d="M510 0h-433v-128q0 -9 -9 -9h-39q-9 0 -9 9l-20 174q0 9 9 9h88q77 174 77 441q0 9 9 9h286q9 0 9 -9v-441h100q9 0 9 -9l-20 -174q0 -9 -9 -9h-39q-9 0 -9 9v128zM242 450q0 -220 -84 -395h255v395h-171z" />
    <glyph glyph-name="afii10070" unicode="&#x435;" horiz-adv-x="504" 
d="M440 253h-311q0 -50 2 -81.5t9.5 -56t16.5 -36.5t28 -19.5t39.5 -9.5t56.5 -2q66 0 124 24q8 3 10 -6l12 -43q3 -10 -5 -13q-61 -24 -141 -24q-126 0 -173.5 57t-47.5 212q0 149 47 206.5t157 57.5q74 0 113 -20t58 -74.5t19 -158.5q0 -13 -14 -13zM130 307h259
q-3 98 -26 125t-102 27q-78 0 -102.5 -28t-28.5 -124z" />
    <glyph glyph-name="afii10072" unicode="&#x436;" horiz-adv-x="751" 
d="M343 496q0 9 9 9h47q9 0 9 -9v-229q46 26 77.5 62.5t46.5 68t32 60t47.5 45t79.5 16.5q9 0 9 -9l5 -39q0 -9 -9 -9q-38 0 -64.5 -23t-39.5 -53t-40 -65.5t-64 -54.5q37 -19 66.5 -58.5t45 -74.5t40.5 -62.5t56 -27.5q9 0 9 -9l-5 -39q0 -9 -9 -9q-49 0 -79.5 18.5
t-47.5 50t-32.5 65.5t-46.5 72.5t-77 64.5v-248q0 -9 -9 -9h-47q-9 0 -9 9v248q-46 -26 -77 -64.5t-46.5 -72.5t-32.5 -65.5t-47.5 -50t-79.5 -18.5q-9 0 -9 9l-5 39q0 9 9 9q31 0 56 27.5t40.5 62.5t45 74.5t66.5 58.5q-37 19 -64 54.5t-40 65.5t-39.5 53t-64.5 23
q-9 0 -9 9l5 39q0 9 9 9q49 0 79.5 -16.5t47.5 -45t32 -60t46.5 -68t77.5 -62.5v229z" />
    <glyph glyph-name="afii10073" unicode="&#x437;" horiz-adv-x="446" 
d="M199 243h-66q-12 0 -12 10v33q0 11 12 11h66q76 0 95.5 14.5t19.5 68.5q0 49 -23 65t-98 16q-74 0 -137 -17q-10 -3 -14 7l-6 38q-4 10 8 14q67 16 149 16q112 0 151.5 -34.5t39.5 -101.5q0 -46 -16 -72.5t-62 -37.5q50 -10 70 -42.5t20 -85.5q0 -85 -46 -122t-161 -37
q-71 0 -147 19q-8 4 -6 13l9 35q1 4 5.5 6.5t7.5 1.5q57 -18 131 -18q86 0 110.5 18.5t24.5 80.5q0 64 -22 82.5t-103 18.5z" />
    <glyph glyph-name="afii10074" unicode="&#x438;" horiz-adv-x="524" 
d="M454 496v-487q0 -9 -9 -9h-47q-9 0 -9 9v339l6 76l-34 -69l-222 -346q0 -9 -9 -9h-51q-9 0 -9 9v487q0 9 9 9h47q9 0 9 -9v-335l-4 -74l34 67l219 342q0 9 9 9h52q9 0 9 -9z" />
    <glyph glyph-name="afii10075" unicode="&#x439;" horiz-adv-x="524" 
d="M262 569q-67 0 -99 27.5t-32 91.5q0 9 11 9h44q10 0 10 -9q0 -46 10 -60t57 -14t57 14t10 60q0 9 10 9h44q11 0 11 -9q0 -64 -32.5 -91.5t-100.5 -27.5zM454 496v-487q0 -9 -9 -9h-47q-9 0 -9 9v339l6 76l-34 -69l-222 -346q0 -9 -9 -9h-51q-9 0 -9 9v487q0 9 9 9h47
q9 0 9 -9v-335l-4 -74l34 67l219 342q0 9 9 9h52q9 0 9 -9z" />
    <glyph glyph-name="afii10076" unicode="&#x43a;" horiz-adv-x="494" 
d="M135 258v-249q0 -9 -9 -9h-47q-9 0 -9 9v487q0 9 9 9h47q9 0 9 -9v-228q46 26 79.5 62.5t51.5 67.5t38 59.5t52.5 45t81.5 16.5q9 0 9 -9l5 -39q0 -9 -9 -9q-38 0 -67.5 -23t-46.5 -52.5t-47.5 -65t-66.5 -54.5q37 -19 69.5 -58.5t52 -75t47.5 -63t59 -27.5q9 0 9 -9
l-5 -39q0 -9 -9 -9q-49 0 -81.5 18.5t-52.5 50t-38 66t-51.5 73t-79.5 64.5z" />
    <glyph glyph-name="afii10077" unicode="&#x43b;" horiz-adv-x="517" 
d="M34 15q61 121 80 223.5t19 257.5q0 9 9 9h296q9 0 9 -9v-487q0 -9 -9 -9h-47q-9 0 -9 9v441h-184q0 -97 -22.5 -220t-68.5 -228q-4 -9 -12 -9l-54 10q-4 0 -6.5 4t-0.5 8z" />
    <glyph glyph-name="afii10078" unicode="&#x43c;" horiz-adv-x="650" 
d="M515 434l-151 -385q-4 -9 -12 -9h-55q-7 0 -12 9l-150 385v-425q0 -9 -9 -9h-47q-9 0 -9 9v487q0 9 9 9h86q9 0 9 -9l151 -392l151 392q0 9 9 9h86q9 0 9 -9v-487q0 -9 -9 -9h-47q-9 0 -9 9v425z" />
    <glyph glyph-name="afii10079" unicode="&#x43d;" horiz-adv-x="524" 
d="M454 496v-487q0 -9 -9 -9h-47q-9 0 -9 9v234h-254v-234q0 -9 -9 -9h-47q-9 0 -9 9v487q0 9 9 9h47q9 0 9 -9v-199h254v199q0 9 9 9h47q9 0 9 -9z" />
    <glyph glyph-name="afii10080" unicode="&#x43e;" horiz-adv-x="542" 
d="M271 457q-48 0 -72 -5.5t-41 -28.5t-21.5 -61t-4.5 -109q0 -60 3.5 -95t11 -59t25.5 -34t39 -13.5t60 -3.5t60 3.5t39 13.5t25.5 34t11 59t3.5 95q0 71 -4.5 109t-21.5 61t-41 28.5t-72 5.5zM271 -14q-119 0 -165 57.5t-46 211.5q0 152 46 208t165 56t165 -56t46 -208
q0 -154 -46 -211.5t-165 -57.5z" />
    <glyph glyph-name="afii10081" unicode="&#x43f;" horiz-adv-x="524" 
d="M454 496v-487q0 -9 -9 -9h-47q-9 0 -9 9v441h-254v-441q0 -9 -9 -9h-47q-9 0 -9 9v487q0 9 9 9h366q9 0 9 -9z" />
    <glyph glyph-name="afii10082" unicode="&#x440;" horiz-adv-x="539" 
d="M135 424v-343q60 -33 127 -33q33 0 52.5 2t37.5 10t26.5 20.5t14.5 37t8 55.5t2 80q0 58 -3.5 92t-11 58.5t-25 35t-40 14.5t-61.5 4q-67 0 -127 -33zM70 -183v679q0 9 9 9h47q9 0 9 -9v-43q23 29 65 47.5t82 18.5q105 0 149 -57.5t44 -208.5t-44 -209t-149 -58
q-40 0 -82 18.5t-65 47.5v-235q0 -9 -9 -9h-47q-9 0 -9 9z" />
    <glyph glyph-name="afii10083" unicode="&#x441;" horiz-adv-x="439" 
d="M272 48q68 0 120 21q8 3 10 -6l12 -43q3 -10 -5 -13q-57 -21 -137 -21q-119 0 -165.5 57.5t-46.5 211.5q0 152 46.5 208t165.5 56q80 0 137 -21q8 -3 5 -13l-12 -43q-2 -9 -10 -6q-52 21 -120 21q-48 0 -72.5 -6t-41.5 -28.5t-21.5 -60.5t-4.5 -109q0 -60 4 -95t11 -59
t25.5 -34t39.5 -13.5t60 -3.5z" />
    <glyph glyph-name="afii10084" unicode="&#x442;" horiz-adv-x="435" 
d="M426 450h-176v-441q0 -9 -9 -9h-47q-9 0 -9 9v441h-176q-9 0 -9 9v37q0 9 9 9h417q9 0 9 -9v-37q0 -9 -9 -9z" />
    <glyph glyph-name="afii10085" unicode="&#x443;" horiz-adv-x="461" 
d="M439 488l-190 -567q-42 -124 -144 -124q-10 0 -11 10l-7 43q-1 4 1 7t5 3q53 0 71.5 23.5t45.5 116.5h-12q-10 0 -13 8l-163 480q-4 9 6 11l48 12q9 2 11 -5l129 -386l15 -75l19 75l126 386q2 7 11 5l46 -12q10 -2 6 -11z" />
    <glyph glyph-name="afii10086" unicode="&#x444;" horiz-adv-x="873" 
d="M469 424v-343q60 -33 127 -33q39 0 61.5 4t40 14.5t25 35t11 58.5t3.5 92q0 49 -2 80t-8 55.5t-14.5 37t-26.5 20.5t-37.5 10t-52.5 2q-67 0 -127 -33zM404 81v343q-60 33 -127 33q-33 0 -52.5 -2t-37.5 -10t-26.5 -20.5t-14.5 -37t-8 -55.5t-2 -80q0 -58 3.5 -92
t11 -58.5t25 -35t40 -14.5t61.5 -4q67 0 127 33zM460 -192h-47q-9 0 -9 9v235q-22 -29 -67.5 -47.5t-86.5 -18.5q-99 0 -142.5 58t-43.5 208t43.5 208.5t142.5 58.5q41 0 86.5 -18.5t67.5 -47.5v235q0 9 9 9h47q9 0 9 -9v-235q22 29 67.5 47.5t86.5 18.5q99 0 142.5 -58.5
t43.5 -208.5t-43.5 -208t-142.5 -58q-41 0 -86.5 18.5t-67.5 47.5v-235q0 -9 -9 -9z" />
    <glyph glyph-name="afii10087" unicode="&#x445;" horiz-adv-x="453" 
d="M30 24l160 232l-154 225q-6 7 2 13l39 23q2 2 6 1.5t6 -2.5l116 -173l21 -41l21 41l117 173q2 2 6 2.5t6 -1.5l39 -23q8 -6 2 -13l-155 -225l161 -232q6 -7 -2 -13l-39 -23q-2 -2 -6 -1.5t-6 2.5l-118 173l-26 48l-25 -48l-118 -173q-2 -2 -6 -2.5t-6 1.5l-39 23
q-8 6 -2 13z" />
    <glyph glyph-name="afii10088" unicode="&#x446;" horiz-adv-x="563" 
d="M486 -128v128h-407q-9 0 -9 9v487q0 9 9 9h47q9 0 9 -9v-441h254v441q0 9 9 9h47q9 0 9 -9v-441h100q9 0 9 -9l-20 -174q0 -9 -9 -9h-39q-9 0 -9 9z" />
    <glyph glyph-name="afii10089" unicode="&#x447;" horiz-adv-x="513" 
d="M378 9v217q-60 -66 -154 -66q-64 0 -99.5 17.5t-55 69t-19.5 147.5v102q0 9 9 9h47q9 0 9 -9v-89q0 -45 1.5 -72.5t7.5 -50t13.5 -33t24.5 -18t36.5 -9t52.5 -1.5q69 0 127 32v241q0 9 9 9h47q9 0 9 -9v-487q0 -9 -9 -9h-47q-9 0 -9 9z" />
    <glyph glyph-name="afii10090" unicode="&#x448;" horiz-adv-x="743" 
d="M664 0h-585q-9 0 -9 9v487q0 9 9 9h47q9 0 9 -9v-441h204v441q0 9 9 9h47q9 0 9 -9v-441h204v441q0 9 9 9h47q9 0 9 -9v-487q0 -9 -9 -9z" />
    <glyph glyph-name="afii10091" unicode="&#x449;" horiz-adv-x="782" 
d="M705 -128v128h-626q-9 0 -9 9v487q0 9 9 9h47q9 0 9 -9v-441h204v441q0 9 9 9h47q9 0 9 -9v-441h204v441q0 9 9 9h47q9 0 9 -9v-441h100q9 0 9 -9l-20 -174q0 -9 -9 -9h-39q-9 0 -9 9z" />
    <glyph glyph-name="afii10092" unicode="&#x44a;" horiz-adv-x="541" 
d="M167 243v-188h170q45 0 59.5 17.5t14.5 71.5q0 59 -15.5 79t-61.5 20h-167zM102 450h-93q-9 0 -9 9v37q0 9 9 9h149q9 0 9 -9v-199h163q80 0 117.5 -33.5t37.5 -112.5q0 -72 -38 -111.5t-108 -39.5h-223q-14 0 -14 12v438z" />
    <glyph glyph-name="afii10093" unicode="&#x44b;" horiz-adv-x="655" 
d="M135 243v-188h170q45 0 59.5 17.5t14.5 71.5q0 59 -15.5 79t-61.5 20h-167zM135 496v-199h163q80 0 117.5 -33.5t37.5 -112.5q0 -72 -38 -111.5t-108 -39.5h-223q-14 0 -14 12v484q0 9 9 9h47q9 0 9 -9zM585 496v-487q0 -9 -9 -9h-47q-9 0 -9 9v487q0 9 9 9h47q9 0 9 -9z
" />
    <glyph glyph-name="afii10094" unicode="&#x44c;" horiz-adv-x="509" 
d="M135 243v-188h170q45 0 59.5 17.5t14.5 71.5q0 59 -15.5 79t-61.5 20h-167zM135 496v-199h163q80 0 117.5 -33.5t37.5 -112.5q0 -72 -38 -111.5t-108 -39.5h-223q-14 0 -14 12v484q0 9 9 9h47q9 0 9 -9z" />
    <glyph glyph-name="afii10095" unicode="&#x44d;" horiz-adv-x="450" 
d="M178 48q48 0 71.5 4.5t41 25.5t22.5 58t5 107h-215q-9 0 -9 9v36q0 9 9 9h214q-3 103 -29.5 131.5t-109.5 28.5q-68 0 -120 -21q-8 -3 -10 6l-12 43q-3 10 5 13q57 21 137 21q119 0 165.5 -56t46.5 -208q0 -154 -46.5 -211.5t-165.5 -57.5q-80 0 -137 21q-8 3 -5 13
l12 43q2 9 10 6q52 -21 120 -21z" />
    <glyph glyph-name="afii10096" unicode="&#x44e;" horiz-adv-x="726" 
d="M455 -14q-117 0 -163.5 55t-47.5 202h-109v-234q0 -9 -9 -9h-47q-9 0 -9 9v487q0 9 9 9h47q9 0 9 -9v-199h110q5 127 52 174.5t158 47.5q119 0 165 -56t46 -208q0 -154 -46 -211.5t-165 -57.5zM455 457q-48 0 -72 -5.5t-41 -28.5t-21.5 -61t-4.5 -109q0 -60 3.5 -95
t11 -59t25.5 -34t39 -13.5t60 -3.5t60 3.5t39 13.5t25.5 34t11 59t3.5 95q0 71 -4.5 109t-21.5 61t-41 28.5t-72 5.5z" />
    <glyph glyph-name="afii10097" unicode="&#x44f;" horiz-adv-x="524" 
d="M389 272v178h-165q-42 0 -55 -17.5t-13 -69.5q0 -53 13.5 -72t54.5 -19h165zM212 225q-56 0 -92 35.5t-36 97.5q0 67 30 107t110 40h216q14 0 14 -12v-484q0 -9 -9 -9h-47q-9 0 -9 9v209h-98q-38 0 -60.5 -24t-34 -58t-25 -67.5t-43.5 -57.5t-79 -24q-9 0 -9 9l-5 39
q0 9 9 9q31 0 51.5 26.5t30 58.5t31.5 61.5t55 34.5z" />
    <glyph glyph-name="afii10071" unicode="&#x451;" horiz-adv-x="504" 
d="M440 253h-311q0 -50 2 -81.5t9.5 -56t16.5 -36.5t28 -19.5t39.5 -9.5t56.5 -2q66 0 124 24q8 3 10 -6l12 -43q3 -10 -5 -13q-61 -24 -141 -24q-126 0 -173.5 57t-47.5 212q0 149 47 206.5t157 57.5q74 0 113 -20t58 -74.5t19 -158.5q0 -13 -14 -13zM130 307h259
q-3 98 -26 125t-102 27q-78 0 -102.5 -28t-28.5 -124zM175 667q24 0 32.5 -7t8.5 -32q0 -27 -8.5 -35t-32.5 -8q-25 0 -33.5 8t-8.5 35q0 25 8.5 32t33.5 7zM354 667q24 0 32.5 -7t8.5 -32q0 -27 -8.5 -35t-32.5 -8q-25 0 -33.5 8t-8.5 35q0 25 8.5 32t33.5 7z" />
    <glyph glyph-name="afii10099" unicode="&#x452;" horiz-adv-x="537" 
d="M412 -28v300q0 70 -3.5 103.5t-20 54t-39.5 24t-73 3.5q-67 0 -127 -33v-415q0 -9 -9 -9h-47q-9 0 -9 9v589h-50q-9 0 -9 9v40q0 9 9 9h50v49q0 9 9 9h47q9 0 9 -9v-49h115q9 0 9 -9v-40q0 -9 -9 -9h-115v-145q60 66 154 66q64 0 99.5 -17.5t55 -69t19.5 -147.5v-313
q0 -81 -41.5 -128t-105.5 -47q-10 0 -11 10l-7 43q-3 8 6 10q61 8 77.5 27t16.5 85z" />
    <glyph glyph-name="afii10100" unicode="&#x453;" horiz-adv-x="350" 
d="M358 450h-231v-438q0 -12 -13 -12h-39q-13 0 -13 12v481q0 12 13 12h283q12 0 12 -12v-31q0 -12 -12 -12zM338 673l-119 -112q-6 -4 -14 -1l-27 18q-4 1 -4 5.5t2 7.5l104 115q7 7 17 3l40 -21q4 -1 4.5 -6.5t-3.5 -8.5z" />
    <glyph glyph-name="afii10101" unicode="&#x454;" horiz-adv-x="450" 
d="M272 48q68 0 120 21q8 3 10 -6l12 -43q3 -10 -5 -13q-57 -21 -137 -21q-119 0 -165.5 57.5t-46.5 211.5q0 152 46.5 208t165.5 56q80 0 137 -21q8 -3 5 -13l-12 -43q-2 -9 -10 -6q-52 21 -120 21q-83 0 -109.5 -28.5t-29.5 -131.5h214q9 0 9 -9v-36q0 -9 -9 -9h-215
q0 -70 5 -107t22.5 -58t41 -25.5t71.5 -4.5z" />
    <glyph glyph-name="afii10102" unicode="&#x455;" horiz-adv-x="464" 
d="M64 7q-9 2 -5 13l12 43q2 9 10 6q67 -24 150 -24q66 0 87.5 19t21.5 79q0 44 -18.5 59.5t-89.5 25.5q-94 14 -135 45t-41 96q0 150 182 150q68 0 143 -21q8 -3 5 -13l-12 -43q-2 -9 -10 -6q-60 23 -129 23q-67 0 -87.5 -17.5t-20.5 -72.5q0 -42 19.5 -56.5t93.5 -24.5
q96 -12 133.5 -46t37.5 -98q0 -79 -43 -118.5t-140 -39.5q-88 0 -164 21z" />
    <glyph glyph-name="afii10103" unicode="&#x456;" horiz-adv-x="206" 
d="M103 695q25 0 33 -7t8 -31q0 -27 -8.5 -34.5t-32.5 -7.5q-25 0 -33 7.5t-8 34.5q0 25 8 31.5t33 6.5zM135 496v-487q0 -9 -9 -9h-47q-9 0 -9 9v487q0 9 9 9h47q9 0 9 -9z" />
    <glyph glyph-name="afii10104" unicode="&#x457;" horiz-adv-x="206" 
d="M135 496v-487q0 -9 -9 -9h-47q-9 0 -9 9v487q0 9 9 9h47q9 0 9 -9zM14 667q24 0 32.5 -7t8.5 -32q0 -27 -8.5 -35t-32.5 -8q-25 0 -33.5 8t-8.5 35q0 25 8.5 32t33.5 7zM193 667q24 0 32.5 -7t8.5 -32q0 -27 -8.5 -35t-32.5 -8q-25 0 -33.5 8t-8.5 35q0 25 8.5 32t33.5 7
z" />
    <glyph glyph-name="afii10105" unicode="&#x458;" horiz-adv-x="206" 
d="M103 695q25 0 33 -7t8 -31q0 -27 -8.5 -34.5t-32.5 -7.5q-25 0 -33 7.5t-8 34.5q0 25 8 31.5t33 6.5zM-24 -140q61 8 77.5 27t16.5 85v524q0 9 9 9h47q9 0 9 -9v-524q0 -81 -41.5 -128t-105.5 -47q-10 0 -11 10l-7 43q-3 8 6 10z" />
    <glyph glyph-name="afii10106" unicode="&#x459;" horiz-adv-x="816" 
d="M142 505h291q9 0 9 -9v-199h163q80 0 117.5 -33.5t37.5 -112.5q0 -72 -38 -111.5t-108 -39.5h-223q-9 0 -9 9v441h-184q0 -99 -21 -218t-67 -223q-4 -9 -12 -9h-60q-4 0 -6.5 4t-0.5 8q61 122 81.5 227t20.5 257q0 9 9 9zM442 243v-188h170q45 0 59.5 17.5t14.5 71.5
q0 59 -15.5 79t-61.5 20h-167z" />
    <glyph glyph-name="afii10107" unicode="&#x45a;" horiz-adv-x="823" 
d="M398 505h42q9 0 9 -9v-199h163q80 0 117.5 -33.5t37.5 -112.5q0 -72 -38 -111.5t-108 -39.5h-223q-9 0 -9 9v234h-254v-234q0 -9 -9 -9h-47q-9 0 -9 9v487q0 9 9 9h47q9 0 9 -9v-199h254v199q0 9 9 9zM449 243v-188h170q45 0 59.5 17.5t14.5 71.5q0 59 -15.5 79t-61.5 20
h-167z" />
    <glyph glyph-name="afii10108" unicode="&#x45b;" horiz-adv-x="537" 
d="M264 598h-115v-145q60 66 154 66q64 0 99.5 -17.5t55 -69t19.5 -147.5v-276q0 -9 -9 -9h-47q-9 0 -9 9v263q0 70 -3.5 103.5t-20 54t-39.5 24t-73 3.5q-67 0 -127 -33v-415q0 -9 -9 -9h-47q-9 0 -9 9v589h-50q-9 0 -9 9v40q0 9 9 9h50v49q0 9 9 9h47q9 0 9 -9v-49h115
q9 0 9 -9v-40q0 -9 -9 -9z" />
    <glyph glyph-name="afii10109" unicode="&#x45c;" horiz-adv-x="494" 
d="M135 258v-249q0 -9 -9 -9h-47q-9 0 -9 9v487q0 9 9 9h47q9 0 9 -9v-228q46 26 79.5 62.5t51.5 67.5t38 59.5t52.5 45t81.5 16.5q9 0 9 -9l5 -39q0 -9 -9 -9q-38 0 -67.5 -23t-46.5 -52.5t-47.5 -65t-66.5 -54.5q37 -19 69.5 -58.5t52 -75t47.5 -63t59 -27.5q9 0 9 -9
l-5 -39q0 -9 -9 -9q-49 0 -81.5 18.5t-52.5 50t-38 66t-51.5 73t-79.5 64.5zM376 673l-119 -112q-6 -4 -14 -1l-27 18q-4 1 -4 5.5t2 7.5l104 115q7 7 17 3l40 -21q4 -1 4.5 -6.5t-3.5 -8.5z" />
    <glyph glyph-name="afii10110" unicode="&#x45e;" horiz-adv-x="461" 
d="M230 569q-67 0 -99 27.5t-32 91.5q0 9 11 9h44q10 0 10 -9q0 -46 10 -60t57 -14t57 14t10 60q0 9 10 9h44q11 0 11 -9q0 -64 -32.5 -91.5t-100.5 -27.5zM439 488l-190 -567q-42 -124 -144 -124q-10 0 -11 10l-7 43q-1 4 1 7t5 3q53 0 71.5 23.5t45.5 116.5h-12
q-10 0 -13 8l-163 480q-4 9 6 11l48 12q9 2 11 -5l129 -386l15 -75l19 75l126 386q2 7 11 5l46 -12q10 -2 6 -11z" />
    <glyph glyph-name="afii10193" unicode="&#x45f;" horiz-adv-x="555" 
d="M445 0h-149l-9 -109q0 -9 -9 -9h-31q-9 0 -9 9l-10 109h-149q-9 0 -9 9v487q0 9 9 9h47q9 0 9 -9v-441h254v441q0 9 9 9h47q9 0 9 -9v-487q0 -9 -9 -9z" />
    <glyph glyph-name="afii10050" unicode="&#x490;" horiz-adv-x="467" 
d="M469 637h-308v-628q0 -9 -9 -9h-53q-9 0 -9 9v679q0 9 9 9h319l10 98q0 9 9 9h32q9 0 9 -9v-149q0 -9 -9 -9z" />
    <glyph glyph-name="afii10098" unicode="&#x491;" horiz-adv-x="350" 
d="M75 505h247l8 83q0 9 9 9h30q9 0 9 -9v-129q0 -9 -9 -9h-242v-438q0 -12 -13 -12h-39q-13 0 -13 12v481q0 12 13 12z" />
    <glyph glyph-name="uni1EA6" unicode="&#x1ea6;" horiz-adv-x="565" 
d="M419 210h-277l-68 -213q-2 -7 -11 -5l-46 12q-10 2 -6 11l223 673q4 9 10 9h78q6 0 10 -9l222 -673q4 -9 -6 -11l-48 -12q-9 -2 -11 5zM401 267l-101 310l-20 79l-20 -79l-100 -310h241zM257 876h44q14 0 22 -8l101 -84q3 -3 1.5 -7t-5.5 -6l-33 -22q-6 -3 -13 4l-95 82
l-95 -82q-8 -8 -13 -4l-33 22q-4 2 -5.5 6t1.5 7l101 84q8 8 22 8zM327 910l-119 112q-4 3 -3.5 8.5t4.5 6.5l40 21q10 4 17 -3l104 -115q2 -3 2 -7.5t-4 -5.5l-27 -18q-8 -3 -14 1z" />
    <glyph glyph-name="uni1EA7" unicode="&#x1ea7;" horiz-adv-x="522" 
d="M256 248q-80 0 -103.5 -19.5t-23.5 -80.5t23.5 -80.5t103.5 -19.5q67 0 127 33v134q-60 33 -127 33zM252 519q109 0 152.5 -44t43.5 -165v-248l14 -46q3 -8 -6 -12l-46 -11q-9 -4 -11 5l-16 54q-17 -24 -58.5 -45t-78.5 -21q-107 0 -146.5 37.5t-39.5 124.5t39.5 124.5
t146.5 37.5q37 0 78.5 -21t58.5 -45v66q0 91 -25.5 119t-105.5 28q-73 0 -131 -21q-8 -3 -10 6l-12 42q-3 10 5 13q69 22 148 22zM238 708h44q14 0 22 -8l91 -98q3 -3 1.5 -7t-5.5 -6l-33 -18q-6 -3 -13 4l-85 90l-85 -90q-8 -8 -13 -4l-33 18q-4 2 -5.5 6t1.5 7l91 98
q8 8 22 8zM301 761l-119 112q-4 3 -3.5 8.5t4.5 6.5l40 21q10 4 17 -3l104 -115q2 -3 2 -7.5t-4 -5.5l-27 -18q-8 -3 -14 1z" />
    <glyph glyph-name="endash" unicode="&#x2013;" horiz-adv-x="544" 
d="M482 245h-420q-9 0 -9 9v43q0 9 9 9h420q9 0 9 -9v-43q0 -9 -9 -9z" />
    <glyph glyph-name="emdash" unicode="&#x2014;" horiz-adv-x="837" 
d="M776 245h-714q-9 0 -9 9v43q0 9 9 9h714q9 0 9 -9v-43q0 -9 -9 -9z" />
    <glyph glyph-name="quoteleft" unicode="&#x2018;" horiz-adv-x="256" 
d="M73 513l53 195q4 11 12 11h26q10 0 8 -11l-26 -206q-2 -11 -14 -11l-48 8q-6 0 -9.5 4.5t-1.5 9.5z" />
    <glyph glyph-name="quoteright" unicode="&#x2019;" horiz-adv-x="256" 
d="M172 697l-53 -195q-4 -11 -12 -11h-26q-10 0 -8 11l26 206q2 11 14 11l48 -8q6 0 9.5 -4.5t1.5 -9.5z" />
    <glyph glyph-name="quotesinglbase" unicode="&#x201a;" horiz-adv-x="256" 
d="M172 67l-53 -195q-4 -11 -12 -11h-26q-10 0 -8 11l26 206q2 11 14 11l48 -8q6 0 9.5 -4.5t1.5 -9.5z" />
    <glyph glyph-name="quotedblleft" unicode="&#x201c;" horiz-adv-x="387" 
d="M215 513l53 195q4 11 12 11h26q10 0 8 -11l-26 -206q-2 -11 -14 -11l-48 8q-6 0 -9.5 4.5t-1.5 9.5zM73 513l53 195q4 11 12 11h26q10 0 8 -11l-26 -206q-2 -11 -14 -11l-48 8q-6 0 -9.5 4.5t-1.5 9.5z" />
    <glyph glyph-name="quotedblright" unicode="&#x201d;" horiz-adv-x="387" 
d="M172 697l-53 -195q-4 -11 -12 -11h-26q-10 0 -8 11l26 206q2 11 14 11l48 -8q6 0 9.5 -4.5t1.5 -9.5zM314 697l-53 -195q-4 -11 -12 -11h-26q-10 0 -8 11l26 206q2 11 14 11l48 -8q6 0 9.5 -4.5t1.5 -9.5z" />
    <glyph glyph-name="quotedblbase" unicode="&#x201e;" horiz-adv-x="387" 
d="M172 67l-53 -195q-4 -11 -12 -11h-26q-10 0 -8 11l26 206q2 11 14 11l48 -8q6 0 9.5 -4.5t1.5 -9.5zM314 67l-53 -195q-4 -11 -12 -11h-26q-10 0 -8 11l26 206q2 11 14 11l48 -8q6 0 9.5 -4.5t1.5 -9.5z" />
    <glyph glyph-name="dagger" unicode="&#x2020;" horiz-adv-x="544" 
d="M242 185v280h-180q-9 0 -9 9v43q0 9 9 9h180v179q0 9 9 9h43q9 0 9 -9v-179h179q9 0 9 -9v-43q0 -9 -9 -9h-179v-280q0 -9 -9 -9h-43q-9 0 -9 9z" />
    <glyph glyph-name="daggerdbl" unicode="&#x2021;" horiz-adv-x="544" 
d="M242 9v236h-180q-9 0 -9 9v43q0 9 9 9h180v159h-180q-9 0 -9 9v43q0 9 9 9h180v179q0 9 9 9h43q9 0 9 -9v-179h179q9 0 9 -9v-43q0 -9 -9 -9h-179v-159h179q9 0 9 -9v-43q0 -9 -9 -9h-179v-236q0 -9 -9 -9h-43q-9 0 -9 9z" />
    <glyph glyph-name="bullet" unicode="&#x2022;" horiz-adv-x="585" 
d="M292 56q-122 0 -175.5 59t-53.5 210q0 150 53.5 207t175.5 57t176 -57t54 -207q0 -151 -54 -210t-176 -59z" />
    <glyph glyph-name="ellipsis" unicode="&#x2026;" horiz-adv-x="1213" 
d="M254 90q31 0 39.5 -8.5t8.5 -37.5q0 -32 -9 -41.5t-39 -9.5q-28 0 -37 9.5t-9 41.5q0 29 8.5 37.5t37.5 8.5zM604 90q31 0 39.5 -8.5t8.5 -37.5q0 -32 -9 -41.5t-39 -9.5q-28 0 -37 9.5t-9 41.5q0 29 8.5 37.5t37.5 8.5zM957 90q31 0 39.5 -8.5t8.5 -37.5q0 -32 -9 -41.5
t-39 -9.5q-28 0 -37 9.5t-9 41.5q0 29 8.5 37.5t37.5 8.5z" />
    <glyph glyph-name="perthousand" unicode="&#x2030;" horiz-adv-x="1413" 
d="M220 265q-94 0 -132 49.5t-38 179.5q0 128 37.5 174t132.5 46q96 0 133.5 -46t37.5 -174q0 -130 -38 -179.5t-133 -49.5zM219 662q-42 0 -61.5 -11.5t-28 -46t-8.5 -110.5q0 -106 19.5 -140.5t78.5 -34.5q61 0 81 34t20 141q0 76 -9 110.5t-28.5 46t-63.5 11.5zM784 697
l-517 -735q-6 -9 -13 -2l-38 26q-2 2 -5 3t-1 3l516 736q8 6 13 2l43 -20q8 -6 2 -13zM782 -14q-94 0 -132 49.5t-38 179.5q0 128 37.5 174t132.5 46q96 0 133.5 -46t37.5 -174q0 -130 -38 -179.5t-133 -49.5zM781 383q-42 0 -61.5 -11.5t-28 -46t-8.5 -110.5
q0 -106 19.5 -140.5t78.5 -34.5q61 0 81 34t20 141q0 76 -9 110.5t-28.5 46t-63.5 11.5zM1192 -14q-94 0 -132 49.5t-38 179.5q0 128 37.5 174t132.5 46q96 0 133.5 -46t37.5 -174q0 -130 -38 -179.5t-133 -49.5zM1191 383q-42 0 -61.5 -11.5t-28 -46t-8.5 -110.5
q0 -106 19.5 -140.5t78.5 -34.5q61 0 81 34t20 141q0 76 -9 110.5t-28.5 46t-63.5 11.5z" />
    <glyph glyph-name="guilsinglleft" unicode="&#x2039;" horiz-adv-x="410" 
d="M367 557l-254 -259l254 -261q8 -6 -1 -13l-26 -31q-7 -6 -13 2l-282 280q-5 4 -5 12v21q0 7 5 11l282 280q6 8 13 2l26 -31q9 -7 1 -13z" />
    <glyph glyph-name="guilsinglright" unicode="&#x203a;" horiz-adv-x="410" 
d="M43 37l254 259l-254 261q-8 6 1 13l26 31q7 6 13 -2l282 -280q5 -4 5 -12v-21q0 -7 -5 -11l-282 -280q-6 -8 -13 -2l-26 31q-9 7 -1 13z" />
    <glyph glyph-name="fraction" unicode="&#x2044;" horiz-adv-x="578" 
d="M576 697l-517 -735q-6 -9 -13 -2l-38 26q-2 2 -4.5 2.5t-2.5 1t1 2.5l516 736q8 6 13 2l43 -20q8 -6 2 -13z" />
    <glyph glyph-name="fraction" unicode="&#x2215;" horiz-adv-x="578" 
d="M576 697l-517 -735q-6 -9 -13 -2l-38 26q-2 2 -4.5 2.5t-2.5 1t1 2.5l516 736q8 6 13 2l43 -20q8 -6 2 -13z" />
    <glyph glyph-name="franc" unicode="&#x20a3;" horiz-adv-x="512" 
d="M307 155h-146v-146q0 -9 -9 -9h-53q-9 0 -9 9v146h-63q-9 0 -9 9v40q0 9 9 9h63v475q0 9 9 9h389q9 0 9 -9v-42q0 -9 -9 -9h-327v-267h267q9 0 9 -9v-42q0 -9 -9 -9h-267v-97h146q9 0 9 -9v-40q0 -9 -9 -9z" />
    <glyph glyph-name="dong" unicode="&#x20ab;" horiz-adv-x="535" 
d="M521 598h-56v-589q0 -9 -9 -9h-47q-9 0 -9 9v43q-23 -29 -65 -47.5t-82 -18.5q-105 0 -149 57.5t-44 208.5t44 209t149 58q40 0 82 -18.5t65 -47.5v145h-109q-9 0 -9 9v40q0 9 9 9h109v49q0 9 9 9h47q9 0 9 -9v-49h56q9 0 9 -9v-40q0 -9 -9 -9zM400 81v343
q-60 33 -127 33q-33 0 -52.5 -2t-37.5 -10t-26.5 -20.5t-14.5 -37t-8 -55.5t-2 -80q0 -58 3.5 -92t11 -58.5t25 -35t40 -14.5t61.5 -4q67 0 127 33z" />
    <glyph glyph-name="Euro" unicode="&#x20ac;" horiz-adv-x="554" 
d="M352 714q90 0 174 -25q8 -3 5 -13l-13 -43q-2 -9 -10 -6q-70 25 -155 25q-59 0 -92.5 -5.5t-60 -24.5t-38.5 -53.5t-17 -93.5h287q9 0 9 -9v-40q0 -9 -9 -9h-292v-123h292q9 0 9 -9v-40q0 -9 -9 -9h-288q5 -63 16.5 -99.5t38.5 -56t60.5 -25.5t93.5 -6q88 0 155 24
q8 3 10 -6l13 -43q3 -10 -5 -13q-84 -25 -174 -25q-82 0 -133 15t-88 55.5t-52.5 112.5t-15.5 186q0 110 15.5 180t52.5 110t88.5 54.5t132.5 14.5z" />
    <glyph glyph-name="afii61289" unicode="&#x2113;" horiz-adv-x="219" 
d="M135 629v-196q27 27 48.5 90t21.5 113q0 21 -7.5 28t-25.5 7q-21 0 -29 -8.5t-8 -33.5zM70 227v390q0 57 19.5 77t71.5 20q45 0 61.5 -13.5t16.5 -63.5q0 -146 -104 -251v-304l24 -66q3 -8 -6 -12l-46 -11q-9 -4 -11 5l-22 62q-4 16 -4 167z" />
    <glyph glyph-name="afii61352" unicode="&#x2116;" horiz-adv-x="1021" 
d="M187 688l274 -532l33 -84l-4 88v528q0 9 9 9h53q9 0 9 -9v-679q-4 -9 -10 -9h-72q-10 0 -15 9l-274 532l-34 76l5 -80v-528q0 -9 -9 -9h-53q-9 0 -9 9v679q4 9 10 9h72q10 0 15 -9zM803 349q-81 0 -119 39t-38 147q0 106 37.5 142.5t119.5 36.5q83 0 120 -36t37 -143
q0 -108 -37.5 -147t-119.5 -39zM803 652q-53 0 -70.5 -20t-17.5 -99q0 -78 18.5 -100.5t69.5 -22.5q53 0 70.5 22.5t17.5 100.5q0 55 -9 80.5t-25 32t-54 6.5zM957 195h-307q-9 0 -9 9v43q0 9 9 9h307q9 0 9 -9v-43q0 -9 -9 -9z" />
    <glyph glyph-name="trademark" unicode="&#x2122;" horiz-adv-x="723" 
d="M499 443l75 242q4 12 15 12h43q7 0 11 -8v-331q0 -9 -11 -9h-26q-11 0 -11 9v243l-71 -217q-5 -9 -13 -9h-32q-9 0 -11 7l-73 220v-244q0 -9 -12 -9h-25q-11 0 -11 9v331q2 8 11 8h43q11 0 14 -8l81 -246l1 -3q-1 2 0 1q0 -1 1 -4zM270 697q10 0 10 -9v-20q0 -9 -10 -9
h-94v-301q0 -9 -11 -9h-25q-12 0 -12 9v301h-92q-12 0 -12 9v20q0 9 12 9h234z" />
    <glyph glyph-name="Omega" unicode="&#x2126;" horiz-adv-x="776" 
d="M42 55h179q-129 85 -129 327q0 181 72 256.5t224 75.5q153 0 225 -75.5t72 -256.5q0 -241 -130 -327h179q12 0 12 -12v-31q0 -12 -12 -12h-271q-13 0 -13 12v37q0 11 12 11q82 27 115.5 108.5t33.5 211.5q0 113 -21.5 171.5t-67.5 80t-134 21.5t-133.5 -21.5t-67 -80
t-21.5 -171.5q0 -130 33 -211.5t115 -108.5q12 0 12 -11v-37q0 -12 -13 -12h-271q-12 0 -12 12v31q0 12 12 12z" />
    <glyph glyph-name="estimated" unicode="&#x212e;" horiz-adv-x="690" 
d="M559 65l14 -40q3 -12 -8 -15q-85 -24 -183 -24q-168 0 -243.5 81t-75.5 285q0 105 19.5 176.5t59.5 111.5t92 57t125 17q147 0 217 -80.5t70 -285.5q0 -10 -10 -10h-495q1 -124 22 -183.5t69.5 -81t150.5 -21.5q87 0 160 22q11 5 16 -9zM359 653q-52 0 -85.5 -6.5
t-59.5 -21.5t-40 -45t-22 -73t-10 -109h427q-2 81 -11 128.5t-33.5 77t-62.5 39.5t-103 10z" />
    <glyph glyph-name="onethird" unicode="&#x2153;" horiz-adv-x="967" 
d="M84 626l114 67q8 4 14 4h39q14 0 14 -15v-420q0 -13 -14 -13h-37q-13 0 -13 13v365l-88 -49q-9 -5 -15 3l-18 29q-7 10 4 16zM709 697l-517 -735q-6 -9 -13 -2l-38 26q-2 2 -5 3t-1 3l516 736q8 6 13 2l43 -20q8 -6 2 -13zM712 208h-56q-13 0 -13 11v34q0 12 13 12h56
q59 0 74.5 12.5t15.5 54.5q0 40 -17.5 53t-77.5 13q-52 0 -111 -13q-14 -2 -17 7l-6 33v-1q-3 15 7 18q58 15 127 15q96 0 130 -31t34 -91q0 -76 -60 -96q70 -20 70 -109q0 -73 -39.5 -107.5t-137.5 -34.5q-62 0 -126 16q-8 4 -5 16l8 32q4 11 19 8q47 -14 104 -14
q68 0 87.5 16t19.5 68q0 51 -16.5 64.5t-82.5 13.5z" />
    <glyph glyph-name="twothirds" unicode="&#x2154;" horiz-adv-x="967" 
d="M166 646q-56 0 -104 -16q-11 -2 -14 10l-9 33q-2 10 6 14q54 19 122 19q84 0 124 -30t40 -98q0 -57 -22 -98.5t-87 -93.5l-101 -81h193q13 0 13 -12v-32q0 -12 -13 -12h-278q-12 0 -12 12v31q0 9 11 18l152 124q48 39 61.5 64.5t13.5 76.5q0 43 -18.5 57t-77.5 14z
M756 697l-517 -735q-6 -9 -13 -2l-38 26q-2 2 -5 3t-1 3l516 736q8 6 13 2l43 -20q8 -6 2 -13zM772 208h-56q-13 0 -13 11v34q0 12 13 12h56q59 0 74.5 12.5t15.5 54.5q0 40 -17.5 53t-77.5 13q-52 0 -111 -13q-14 -2 -17 7l-6 33v-1q-3 15 7 18q58 15 127 15q96 0 130 -31
t34 -91q0 -76 -60 -96q70 -20 70 -109q0 -73 -39.5 -107.5t-137.5 -34.5q-62 0 -126 16q-8 4 -5 16l8 32q4 11 19 8q47 -14 104 -14q68 0 87.5 16t19.5 68q0 51 -16.5 64.5t-82.5 13.5z" />
    <glyph glyph-name="oneeighth" unicode="&#x215b;" horiz-adv-x="967" 
d="M71 626l114 67q8 4 14 4h39q14 0 14 -15v-420q0 -13 -14 -13h-37q-13 0 -13 13v365l-88 -49q-9 -5 -15 3l-18 29q-7 10 4 16zM695 697l-517 -735q-6 -9 -13 -2l-38 26q-2 2 -5 3t-1 3l516 736q8 6 13 2l43 -20q8 -6 2 -13zM703 47q61 0 78 14t17 64q0 53 -18 70t-77 17
q-58 0 -75.5 -17t-17.5 -70q0 -50 16.5 -64t76.5 -14zM703 263q57 0 74.5 15t17.5 62q0 36 -16.5 47t-75.5 11q-57 0 -73 -11t-16 -47q0 -48 16 -62.5t73 -14.5zM703 -12q-82 0 -122.5 31.5t-40.5 102.5q0 48 19 75t60 41q-39 13 -56 37t-17 69q0 113 157 113
q159 0 159 -113q0 -46 -16 -69t-55 -35q40 -14 58.5 -41.5t18.5 -76.5q0 -71 -40.5 -102.5t-124.5 -31.5z" />
    <glyph glyph-name="threeeighths" unicode="&#x215c;" horiz-adv-x="967" 
d="M188 457h-56q-13 0 -13 11v34q0 12 13 12h56q59 0 74.5 12.5t15.5 54.5q0 40 -17.5 53t-77.5 13q-52 0 -111 -13q-14 -2 -17 7l-6 33v-1q-3 15 7 18q58 15 127 15q96 0 130 -31t34 -91q0 -76 -60 -96q70 -20 70 -109q0 -73 -39.5 -107.5t-137.5 -34.5q-62 0 -126 16
q-8 4 -5 16l8 32q4 11 19 8q47 -14 104 -14q68 0 87.5 16t19.5 68q0 51 -16.5 64.5t-82.5 13.5zM752 697l-517 -735q-6 -9 -13 -2l-38 26q-2 2 -5 3t-1 3l516 736q8 6 13 2l43 -20q8 -6 2 -13zM749 47q61 0 78 14t17 64q0 53 -18 70t-77 17q-58 0 -75.5 -17t-17.5 -70
q0 -50 16.5 -64t76.5 -14zM749 263q57 0 74.5 15t17.5 62q0 36 -16.5 47t-75.5 11q-57 0 -73 -11t-16 -47q0 -48 16 -62.5t73 -14.5zM749 -12q-82 0 -122.5 31.5t-40.5 102.5q0 48 19 75t60 41q-39 13 -56 37t-17 69q0 113 157 113q159 0 159 -113q0 -46 -16 -69t-55 -35
q40 -14 58.5 -41.5t18.5 -76.5q0 -71 -40.5 -102.5t-124.5 -31.5z" />
    <glyph glyph-name="fiveeighths" unicode="&#x215d;" horiz-adv-x="967" 
d="M340 640h-195v-122h57q92 0 132 -31t40 -104q0 -78 -45 -111.5t-138 -33.5q-63 0 -112 15q-12 5 -9 16l11 38q3 9 18 7q45 -16 92 -16q74 0 93.5 14t19.5 67q0 54 -17.5 69t-84.5 15h-104q-15 0 -15 14v205q0 15 16 15h241q12 0 12 -12v-34q0 -11 -12 -11zM767 697
l-517 -735q-6 -9 -13 -2l-38 26q-2 2 -5 3t-1 3l516 736q8 6 13 2l43 -20q8 -6 2 -13zM757 47q61 0 78 14t17 64q0 53 -18 70t-77 17q-58 0 -75.5 -17t-17.5 -70q0 -50 16.5 -64t76.5 -14zM757 263q57 0 74.5 15t17.5 62q0 36 -16.5 47t-75.5 11q-57 0 -73 -11t-16 -47
q0 -48 16 -62.5t73 -14.5zM757 -12q-82 0 -122.5 31.5t-40.5 102.5q0 48 19 75t60 41q-39 13 -56 37t-17 69q0 113 157 113q159 0 159 -113q0 -46 -16 -69t-55 -35q40 -14 58.5 -41.5t18.5 -76.5q0 -71 -40.5 -102.5t-124.5 -31.5z" />
    <glyph glyph-name="seveneighths" unicode="&#x215e;" horiz-adv-x="967" 
d="M162 277l176 363h-240q-12 0 -12 11v33q0 13 12 13h307q11 0 11 -12v-17q0 -10 -4 -18l-191 -400q-5 -9 -17 -5l-35 13q-5 2 -7.5 7.5t0.5 11.5zM693 697l-517 -735q-6 -9 -13 -2l-38 26q-2 2 -4.5 2.5t-2.5 1t1 2.5l516 736q8 6 13 2l43 -20q8 -6 2 -13zM712 47
q61 0 78 14t17 64q0 53 -18 70t-77 17q-58 0 -75.5 -17t-17.5 -70q0 -50 16.5 -64t76.5 -14zM712 263q57 0 74.5 15t17.5 62q0 36 -16.5 47t-75.5 11q-57 0 -73 -11t-16 -47q0 -48 16 -62.5t73 -14.5zM712 -12q-82 0 -122.5 31.5t-40.5 102.5q0 48 19 75t60 41
q-39 13 -56 37t-17 69q0 113 157 113q159 0 159 -113q0 -46 -16 -69t-55 -35q40 -14 58.5 -41.5t18.5 -76.5q0 -71 -40.5 -102.5t-124.5 -31.5z" />
    <glyph glyph-name="arrowleft" unicode="&#x2190;" horiz-adv-x="666" 
d="M352 531l-192 -190l-52 -39l69 7h460q9 0 9 -9v-41q0 -9 -9 -9h-461l-68 7l51 -38l194 -193q6 -6 0 -12l-29 -29q-6 -7 -13 0l-288 288q-3 3 -3 7q0 3 3 6l287 286q6 7 13 0l29 -29q6 -6 0 -12z" />
    <glyph glyph-name="arrowup" unicode="&#x2191;" horiz-adv-x="666" 
d="M585 259l-190 192l-39 52l7 -69v-460q0 -9 -9 -9h-41q-9 0 -9 9v461l7 68l-38 -51l-193 -194q-6 -6 -12 0l-29 29q-7 7 0 13l288 288q3 3 7 3q3 0 6 -3l286 -288q8 -4 0 -12l-29 -29q-6 -6 -12 0z" />
    <glyph glyph-name="arrowright" unicode="&#x2192;" horiz-adv-x="666" 
d="M506 341l-192 190q-6 6 0 12l29 29q7 7 13 0l287 -286q3 -3 3 -6q0 -4 -3 -7l-288 -288q-7 -7 -13 0l-29 29q-6 6 0 12l194 193l51 38l-68 -7h-461q-9 0 -9 9v41q0 9 9 9h460l69 -7z" />
    <glyph glyph-name="arrowdown" unicode="&#x2193;" horiz-adv-x="666" 
d="M395 105l190 192q6 6 12 0l29 -29q8 -8 0 -12l-286 -288q-3 -3 -6 -3q-4 0 -7 3l-288 288q-7 6 0 13l29 29q6 6 12 0l193 -194l38 -51l-7 68v461q0 9 9 9h41q9 0 9 -9v-460l-7 -69z" />
    <glyph glyph-name="partialdiff" unicode="&#x2202;" horiz-adv-x="554" 
d="M440 323q-62 34 -162 34q-56 0 -85 -5t-46.5 -24.5t-21.5 -47.5t-4 -85q0 -95 28 -121.5t134 -26.5q45 0 69.5 3.5t45 12.5t29 30t12.5 52t4 83q0 71 -3 95zM374 456l-203 221q-6 8 1 13l46 26q7 6 13 -2l195 -211q91 -100 91 -276q0 -128 -49 -184.5t-185 -56.5
q-129 0 -184 51t-55 167q0 114 48.5 164t163.5 50q118 0 181 -66q-8 43 -63 104z" />
    <glyph glyph-name="product" unicode="&#x220f;" horiz-adv-x="650" 
d="M560 688v-679q0 -9 -9 -9h-53q-9 0 -9 9v628h-328v-628q0 -9 -9 -9h-53q-9 0 -9 9v679q0 9 9 9h452q9 0 9 -9z" />
    <glyph glyph-name="summation" unicode="&#x2211;" horiz-adv-x="557" 
d="M28 42l217 313l-205 300q-7 12 -7 21v11q0 10 10 10h480q10 0 10 -10v-40q0 -10 -10 -10h-390l193 -282l-203 -295h404q10 0 10 -10v-40q0 -10 -10 -10h-497q-10 0 -10 10v11q0 11 8 21z" />
    <glyph glyph-name="minus" unicode="&#x2212;" horiz-adv-x="544" 
d="M482 245h-420q-9 0 -9 9v43q0 9 9 9h420q9 0 9 -9v-43q0 -9 -9 -9z" />
    <glyph glyph-name="radical" unicode="&#x221a;" horiz-adv-x="490" 
d="M-23 505h117q11 0 15 -10l127 -375l17 -69l17 69l189 578q2 7 11 5l46 -12q10 -2 6 -11l-226 -671q-4 -9 -10 -9h-72q-6 0 -10 9l-149 441h-78q-9 0 -9 9v37q0 9 9 9z" />
    <glyph glyph-name="infinity" unicode="&#x221e;" horiz-adv-x="772" 
d="M357 350q0 73 -32.5 104.5t-106.5 31.5q-67 0 -95.5 -30t-28.5 -106t28.5 -106t95.5 -30q74 0 106.5 32t32.5 104zM415 351q0 -73 32.5 -104.5t106.5 -31.5q67 0 95.5 30t28.5 106t-28.5 106t-95.5 30q-74 0 -106.5 -32t-32.5 -104zM386 275q-8 -75 -53.5 -100.5
t-123.5 -25.5q-90 0 -134.5 47.5t-44.5 153.5t44.5 154t134.5 48q77 0 123 -25.5t54 -100.5q8 75 53.5 100.5t123.5 25.5q90 0 134.5 -47.5t44.5 -153.5t-44.5 -154t-134.5 -48q-77 0 -123 25.5t-54 100.5z" />
    <glyph glyph-name="integral" unicode="&#x222b;" horiz-adv-x="313" 
d="M154 450v-478q0 -81 -41.5 -128t-105.5 -47q-10 0 -11 10l-7 43q-3 8 6 10q61 8 77.5 27t16.5 85v478h-60q-9 0 -9 9v37q0 9 9 9h60v47q0 170 144 170q47 0 97 -10q8 -3 5 -13l-12 -43q-2 -9 -10 -6q-43 12 -80 12q-52 0 -65.5 -19t-13.5 -91v-47h151q9 0 9 -9v-37
q0 -9 -9 -9h-151z" />
    <glyph glyph-name="approxequal" unicode="&#x2248;" horiz-adv-x="612" 
d="M187 456q-61 0 -85 -73q-4 -11 -13 -4l-32 19q-6 4 -2 15q40 106 133 106q34 0 123 -43t114 -43q61 0 85 73q4 11 13 4l32 -19q6 -4 2 -15q-40 -106 -133 -106q-33 0 -124 43t-113 43zM187 259q-61 0 -85 -73q-4 -11 -13 -4l-32 19q-6 4 -2 15q40 106 133 106
q34 0 123 -43t114 -43q61 0 85 73q4 11 13 4l32 -19q6 -4 2 -15q-40 -106 -133 -106q-33 0 -124 43t-113 43z" />
    <glyph glyph-name="notequal" unicode="&#x2260;" horiz-adv-x="598" 
d="M509 409h-132l-90 -163h222q9 0 9 -9v-43q0 -9 -9 -9h-256l-59 -107q-4 -10 -12 -4l-42 20q-9 5 -4 12l43 79h-90q-9 0 -9 9v43q0 9 9 9h124l90 163h-214q-9 0 -9 9v43q0 9 9 9h247l58 104q5 7 12 4l43 -21q8 -4 4 -12l-42 -75h98q9 0 9 -9v-43q0 -9 -9 -9z" />
    <glyph glyph-name="lessequal" unicode="&#x2264;" horiz-adv-x="544" 
d="M482 0h-420q-9 0 -9 9v43q0 9 9 9h420q9 0 9 -9v-43q0 -9 -9 -9zM447 680l-314 -259l314 -261q8 -6 -1 -13l-26 -31q-7 -6 -13 2l-352 280q-5 4 -5 12v21q0 7 5 11l352 280q6 8 13 2l26 -31q9 -7 1 -13z" />
    <glyph glyph-name="greaterequal" unicode="&#x2265;" horiz-adv-x="544" 
d="M479 0h-420q-9 0 -9 9v43q0 9 9 9h420q9 0 9 -9v-43q0 -9 -9 -9zM408 421l-314 259q-8 6 1 13l26 31q7 6 13 -2l352 -280q5 -4 5 -11v-21q0 -8 -5 -12l-352 -280q-6 -8 -13 -2l-26 31q-9 7 -1 13z" />
    <glyph glyph-name="lozenge" unicode="&#x25ca;" horiz-adv-x="461" 
d="M277 688l161 -429q3 -8 -1 -17l-161 -436q-4 -9 -10 -9h-72q-6 0 -10 9l-161 436q-3 10 0 18l162 428q4 9 10 9h72q6 0 10 -9zM233 -152l17 69l120 331l-125 329l-17 69l-17 -69l-120 -323l125 -337z" />
    <glyph glyph-name="commaaccent" unicode="&#xf6c3;" horiz-adv-x="256" 
d="M172 -73l-63 -155q-4 -11 -12 -11h-26q-10 0 -8 11l36 166q2 13 14 11l48 -8q15 -2 11 -14z" />
    <glyph glyph-name="Acute" unicode="&#xf6c9;" horiz-adv-x="348" 
d="M307 855l-130 -112q-6 -4 -14 -1l-31 15q-4 1 -4 5.5t2 7.5l115 113q7 7 17 3l44 -16q4 -1 4.5 -6.5t-3.5 -8.5z" />
    <glyph glyph-name="Caron" unicode="&#xf6ca;" horiz-adv-x="667" 
d="M374 747h-44q-14 0 -22 8l-101 84q-3 3 -1.5 7t5.5 6l33 22q6 3 13 -4l95 -82l95 82q8 8 13 4l33 -22q4 -2 5.5 -6t-1.5 -7l-101 -84q-8 -8 -22 -8z" />
    <glyph glyph-name="Dieresis" unicode="&#xf6cb;" horiz-adv-x="336" 
d="M148 847q24 0 32.5 -7t8.5 -32q0 -27 -8.5 -35t-32.5 -8q-25 0 -33.5 8t-8.5 35q0 25 8.5 32t33.5 7zM337 847q24 0 32.5 -7t8.5 -32q0 -27 -8.5 -35t-32.5 -8q-25 0 -33.5 8t-8.5 35q0 25 8.5 32t33.5 7z" />
    <glyph glyph-name="Grave" unicode="&#xf6ce;" horiz-adv-x="348" 
d="M261 743l-130 112q-4 3 -3.5 8.5t4.5 6.5l44 16q10 4 17 -3l115 -113q2 -3 2 -7.5t-4 -5.5l-31 -15q-8 -3 -14 1z" />
    <glyph glyph-name="Hungarumlaut" unicode="&#xf6cf;" horiz-adv-x="631" 
d="M279 854l-110 -112q-5 -5 -12 -1l-26 15q-3 1 -3 5.5t2 7.5l97 113q5 7 14 3l37 -16q4 -1 4 -6.5t-3 -8.5zM418 854l-110 -112q-5 -5 -12 -1l-26 15q-3 1 -3 5.5t2 7.5l97 113q5 7 14 3l37 -16q4 -1 4 -6.5t-3 -8.5z" />
    <glyph glyph-name="Macron" unicode="&#xf6d0;" horiz-adv-x="522" 
d="M376 771h-230q-9 0 -9 9v40q0 9 9 9h230q9 0 9 -9v-40q0 -9 -9 -9z" />
    <glyph glyph-name="Lslashsmall" unicode="&#xf6f9;" horiz-adv-x="358" 
d="M-21 189l91 98v225q0 11 12 11h41q12 0 12 -11v-154l92 100q8 6 13 1l23 -31q3 -2 3 -6.5t-2 -6.5l-129 -139v-221h231q12 0 12 -12v-31q0 -12 -12 -12h-283q-13 0 -13 12v195l-55 -59q-7 -9 -13 -1l-22 30q-8 7 -1 12z" />
    <glyph glyph-name="OEsmall" unicode="&#xf6fa;" horiz-adv-x="747" 
d="M706 0h-345q-38 -14 -94 -14q-53 0 -89 12t-64 42.5t-41 86t-13 139.5q0 82 13 135.5t41 82.5t64 40t89 11q52 0 91 -12h348q13 0 13 -12v-32q0 -11 -13 -11h-274q37 -55 41 -164h189q13 0 13 -12v-30q0 -12 -13 -12h-188q-3 -133 -43 -195h275q13 0 13 -12v-31
q0 -12 -13 -12zM268 48q42 0 64 6t39.5 29t23.5 65.5t6 117.5q0 72 -6 113t-23.5 63t-39.5 27.5t-64 5.5q-43 0 -65.5 -5.5t-40.5 -27.5t-24 -63t-6 -113q0 -60 4.5 -98.5t13 -63t26.5 -36.5t38 -16t54 -4z" />
    <glyph glyph-name="Scaronsmall" unicode="&#xf6fd;" horiz-adv-x="437" 
d="M371 517q12 -3 8 -16l-9 -35q-4 -13 -16 -9q-52 19 -120 19q-78 0 -97 -17.5t-19 -76.5q0 -45 19.5 -61.5t89.5 -25.5q96 -12 132 -45t36 -106q0 -83 -48 -120.5t-147 -37.5q-84 0 -138 17q-13 4 -8 16l9 36q2 14 15 9q48 -17 121 -17q79 0 103 19.5t24 77.5
q0 46 -21 62.5t-88 25.5q-94 13 -131.5 45.5t-37.5 102.5q0 84 43.5 119.5t141.5 35.5q78 0 138 -18zM249 568h-44q-14 0 -22 8l-91 98q-3 3 -1.5 7t5.5 6l33 18q6 3 13 -4l85 -90l85 90q8 8 13 4l33 -18q4 -2 5.5 -6t-1.5 -7l-91 -98q-8 -8 -22 -8z" />
    <glyph glyph-name="Zcaronsmall" unicode="&#xf6ff;" horiz-adv-x="448" 
d="M37 39l289 429h-272q-9 0 -9 9v37q0 9 9 9h356q9 0 9 -9v-11q0 -10 -7 -19l-286 -429h285q9 0 9 -9v-37q0 -9 -9 -9h-372q-9 0 -9 9v11q0 10 7 19zM261 568h-44q-14 0 -22 8l-91 98q-3 3 -1.5 7t5.5 6l33 18q6 3 13 -4l85 -90l85 90q8 8 13 4l33 -18q4 -2 5.5 -6t-1.5 -7
l-91 -98q-8 -8 -22 -8z" />
    <glyph glyph-name="exclamsmall" unicode="&#xf721;" horiz-adv-x="331" 
d="M164 90q31 0 39.5 -8.5t8.5 -37.5q0 -32 -9 -41.5t-39 -9.5q-28 0 -37 9.5t-9 41.5q0 29 8.5 37.5t37.5 8.5zM205 514l-11 -333q0 -9 -9 -9h-40q-9 0 -9 9l-11 333q0 9 9 9h62q9 0 9 -9z" />
    <glyph glyph-name="ampersandsmall" unicode="&#xf726;" horiz-adv-x="487" 
d="M253 535q63 0 113 -17q13 -5 9 -17l-10 -30q-4 -13 -15 -8q-49 17 -96 17q-61 0 -76.5 -12t-15.5 -59q0 -62 35 -99l126 -131l93 136q9 9 18 3l30 -22q4 -6 -1 -16l-100 -143l107 -111q5 -5 -4 -12l-27 -23q-2 -2 -7 -2t-9 4l-93 96l-35 -50q-37 -53 -117 -53
q-72 0 -104.5 35.5t-32.5 120.5q0 64 20.5 99t75.5 52q-40 52 -40 114q0 128 156 128zM291 130l-124 129q-35 -13 -46.5 -34.5t-11.5 -72.5q0 -70 13 -88.5t59 -18.5q53 0 71 27z" />
    <glyph glyph-name="zerooldstyle" unicode="&#xf730;" horiz-adv-x="549" 
d="M279 -14q-115 0 -172 63t-57 213q0 149 57 211t172 62q114 0 167 -61.5t53 -211.5q0 -151 -53 -213.5t-167 -62.5zM279 475q-51 0 -79 -7.5t-47 -32t-25 -64.5t-6 -111q0 -131 30.5 -172.5t126.5 -41.5q95 0 121.5 40.5t26.5 173.5q0 138 -26 176.5t-122 38.5z" />
    <glyph glyph-name="oneoldstyle" unicode="&#xf731;" horiz-adv-x="549" 
d="M109 422l170 96q9 5 20 5h52q9 0 9 -9v-505q0 -9 -9 -9h-53q-9 0 -9 9v448l-151 -86q-7 -4 -13 3l-19 36q-6 8 3 12z" />
    <glyph glyph-name="twooldstyle" unicode="&#xf732;" horiz-adv-x="549" 
d="M258 473q-82 0 -142 -25q-9 -3 -11 5l-15 43q-3 9 6 14q73 25 162 25q108 0 157 -41t49 -144q0 -73 -36.5 -121.5t-129.5 -102.5l-112 -66h271q11 0 11 -9v-42q0 -9 -11 -9h-370q-10 0 -10 11v36q0 10 8 16l174 109q88 55 110 85t22 91q0 79 -23.5 102t-109.5 23z" />
    <glyph glyph-name="threeoldstyle" unicode="&#xf733;" horiz-adv-x="549" 
d="M241 161h-80q-9 0 -9 9v42q0 9 9 9h80q97 0 125 26.5t28 108.5q0 75 -27.5 96.5t-132.5 21.5q-90 0 -164 -23q-8 -3 -10 6l-10 42q-3 10 5 13q78 23 179 23q135 0 184.5 -40.5t49.5 -129.5q0 -155 -128 -169q142 -8 142 -183q0 -116 -56 -161t-197 -45q-90 0 -174 25
q-8 3 -5 13l13 43q2 9 10 6q70 -25 155 -25q62 0 94.5 4.5t52.5 22t25 43t5 76.5q0 94 -28 120t-136 26z" />
    <glyph glyph-name="fouroldstyle" unicode="&#xf734;" horiz-adv-x="549" 
d="M440 514v-459h92q9 0 9 -9v-37q0 -9 -9 -9h-92v-178q0 -9 -9 -9h-53q-9 0 -9 9v178h-330q-9 0 -9 9v37q0 8 7 18l294 450q7 9 17 9h83q9 0 9 -9zM102 55h267v371l3 49l-28 -49z" />
    <glyph glyph-name="fiveoldstyle" unicode="&#xf735;" horiz-adv-x="549" 
d="M456 463h-306v-237h99q138 0 191 -42t53 -154q0 -121 -61.5 -169.5t-199.5 -48.5q-80 0 -164 25q-8 3 -5 13l13 43q2 9 10 6q73 -26 146 -26q66 0 100 4.5t54.5 23t25 43.5t4.5 77q0 36 -1.5 56.5t-8 39t-16 26.5t-30.5 14t-45.5 7.5t-65.5 1.5h-151q-18 0 -18 15v329
q0 5 4.5 9t9.5 4h362q9 0 9 -9v-42q0 -9 -9 -9z" />
    <glyph glyph-name="sixoldstyle" unicode="&#xf736;" horiz-adv-x="549" 
d="M301 421q114 0 161.5 -51t47.5 -166q0 -116 -55 -167t-184 -51q-73 0 -116.5 16.5t-70 61t-35.5 111t-9 178.5q0 145 23 221.5t75.5 108t151.5 31.5t177 -23q8 -3 5 -13l-10 -42q-2 -9 -10 -6q-74 23 -162 23q-107 0 -141 -49t-34 -203v-46q63 66 186 66zM115 326
q1 -67 3.5 -111.5t11 -77t18 -49.5t29.5 -26.5t39.5 -12t54.5 -2.5q106 0 134 26.5t28 121.5q0 109 -26 137t-128 28t-164 -34z" />
    <glyph glyph-name="sevenoldstyle" unicode="&#xf737;" horiz-adv-x="549" 
d="M140 -152l287 615h-383q-10 0 -10 10v40q0 10 10 10h460q10 0 10 -10v-14q0 -10 -6 -22l-298 -649q-3 -10 -13 -6l-51 13q-9 3 -6 13z" />
    <glyph glyph-name="eightoldstyle" unicode="&#xf738;" horiz-adv-x="549" 
d="M275 47q106 0 134 23.5t28 119.5t-30 126t-135 30q-100 0 -129 -30.5t-29 -125.5q0 -52 4.5 -78t24 -42t47.5 -19.5t85 -3.5zM278 402q96 0 124 27.5t28 116.5q0 71 -26 89t-129 18t-129 -18t-26 -89q0 -89 29 -116.5t129 -27.5zM275 -14q-125 0 -181.5 45t-56.5 155
q0 87 35 135t128 54q-91 8 -122.5 51.5t-31.5 122.5q0 83 54.5 124t174.5 41q121 0 175.5 -41t54.5 -124q0 -80 -30.5 -122.5t-123.5 -49.5q95 -7 128.5 -54.5t33.5 -136.5q0 -110 -56.5 -155t-181.5 -45z" />
    <glyph glyph-name="nineoldstyle" unicode="&#xf739;" horiz-adv-x="549" 
d="M435 198q3 24 3 95q0 52 -4 83t-12.5 52t-29 30t-45 12.5t-69.5 3.5q-106 0 -134 -26.5t-28 -121.5q0 -57 4 -85t21.5 -47.5t46.5 -24.5t85 -5q100 0 162 34zM166 -156l203 221q55 61 63 104q-63 -66 -181 -66q-115 0 -163.5 50t-48.5 164q0 116 55 167t184 51
q136 0 185 -56.5t49 -184.5q0 -176 -91 -276l-195 -211q-6 -8 -13 -2l-46 26q-7 5 -1 13z" />
    <glyph glyph-name="questionsmall" unicode="&#xf73f;" horiz-adv-x="445" 
d="M183 90q31 0 39.5 -8.5t8.5 -37.5q0 -32 -9 -41.5t-39 -9.5q-28 0 -37 9.5t-9 41.5q0 29 8.5 37.5t37.5 8.5zM313 373q0 54 -22.5 71t-95.5 17q-68 0 -131 -18q-8 -3 -10 5l-12 45q-3 8 5 10q76 16 148 16q103 0 146.5 -31.5t43.5 -112.5q0 -49 -21 -80.5t-72 -72.5
l-106 -84q-6 -6 -13 -2l-28 29q-6 5 -1 10l107 87q42 34 52 53t10 58z" />
    <glyph glyph-name="Asmall" unicode="&#xf761;" horiz-adv-x="467" 
d="M280 514l172 -497q4 -9 -6 -11l-48 -12q-9 -2 -11 5l-52 154h-206l-51 -154q-2 -7 -11 -5l-46 12q-10 2 -6 11l173 497q4 9 10 9h72q6 0 10 -9zM214 403l-68 -195h172l-70 195l-17 69z" />
    <glyph glyph-name="Bsmall" unicode="&#xf762;" horiz-adv-x="510" 
d="M135 250v-195h172q45 0 59.5 18t14.5 75q0 61 -15.5 81.5t-61.5 20.5h-169zM309 0h-225q-14 0 -14 12v499q0 12 14 12h216q80 0 110 -35.5t30 -94.5q0 -98 -85 -116q100 -21 100 -130q0 -71 -37.5 -109t-108.5 -38zM135 468v-164h165q41 0 54.5 17t13.5 67q0 48 -13 64
t-55 16h-165z" />
    <glyph glyph-name="Csmall" unicode="&#xf763;" horiz-adv-x="445" 
d="M278 48q74 0 126 21q8 3 10 -6l12 -43q3 -10 -5 -13q-57 -21 -143 -21q-119 0 -168.5 62.5t-49.5 216.5q0 152 49.5 211t168.5 59q86 0 143 -21q8 -3 5 -13l-12 -43q-2 -9 -10 -6q-52 21 -126 21q-49 0 -75.5 -6.5t-43.5 -30.5t-22 -62.5t-5 -110.5q0 -98 11.5 -141.5
t40 -58.5t94.5 -15z" />
    <glyph glyph-name="Dsmall" unicode="&#xf764;" horiz-adv-x="510" 
d="M83 0q-13 0 -13 12v499q0 12 13 12h138q126 0 177.5 -56t51.5 -205q0 -148 -51.5 -205t-177.5 -57h-138zM221 468h-86v-413h86q99 0 129.5 39t30.5 168q0 93 -13.5 135.5t-45 56.5t-101.5 14z" />
    <glyph glyph-name="Esmall" unicode="&#xf765;" horiz-adv-x="410" 
d="M369 0h-286q-13 0 -13 12v499q0 12 13 12h286q13 0 13 -12v-32q0 -11 -13 -11h-234v-164h190q13 0 13 -12v-30q0 -12 -13 -12h-190v-195h234q13 0 13 -12v-31q0 -12 -13 -12z" />
    <glyph glyph-name="Fsmall" unicode="&#xf766;" horiz-adv-x="392" 
d="M135 468v-184h190q5 0 9 -3.5t4 -7.5v-34q0 -11 -13 -11h-190v-216q0 -12 -13 -12h-39q-13 0 -13 12v499q0 12 13 12h286q13 0 13 -12v-32q0 -11 -13 -11h-234z" />
    <glyph glyph-name="Gsmall" unicode="&#xf767;" horiz-adv-x="502" 
d="M440 270v-243q0 -11 -13 -16q-71 -25 -149 -25q-122 0 -170 57t-48 223q0 110 23.5 168.5t68.5 79.5t127 21q87 0 148 -18q12 -4 8 -16l-10 -38q-2 -12 -14 -9q-59 21 -131 21q-40 0 -62 -3.5t-41.5 -14.5t-27.5 -35t-12.5 -60.5t-4.5 -95.5q0 -77 5 -118t23 -65
t43.5 -30t76.5 -6q40 0 95 11v212q0 10 11 10h43q11 0 11 -10z" />
    <glyph glyph-name="Hsmall" unicode="&#xf768;" horiz-adv-x="524" 
d="M454 514v-505q0 -9 -9 -9h-47q-9 0 -9 9v242h-254v-242q0 -9 -9 -9h-47q-9 0 -9 9v505q0 9 9 9h47q9 0 9 -9v-209h254v209q0 9 9 9h47q9 0 9 -9z" />
    <glyph glyph-name="Ismall" unicode="&#xf769;" horiz-adv-x="205" 
d="M135 513v-503q0 -10 -10 -10h-45q-10 0 -10 10v503q0 10 10 10h45q10 0 10 -10z" />
    <glyph glyph-name="Jsmall" unicode="&#xf76a;" horiz-adv-x="321" 
d="M256 513v-370q0 -81 -39 -119t-106 -38q-61 0 -110 19q-11 4 -6 14l8 34q1 5 5.5 8t9.5 1q39 -18 92 -18q50 0 65.5 18t15.5 81v370q0 10 10 10h45q10 0 10 -10z" />
    <glyph glyph-name="Ksmall" unicode="&#xf76b;" horiz-adv-x="436" 
d="M135 514v-246l228 263q6 8 13 2l36 -27q7 -5 2 -13l-200 -223l212 -242q5 -8 -2 -13l-38 -28q-7 -6 -13 2l-238 277v-257q0 -9 -9 -9h-47q-9 0 -9 9v505q0 9 9 9h47q9 0 9 -9z" />
    <glyph glyph-name="Lsmall" unicode="&#xf76c;" horiz-adv-x="358" 
d="M135 55h231q12 0 12 -12v-31q0 -12 -12 -12h-283q-13 0 -13 12v500q0 11 12 11h41q12 0 12 -11v-457z" />
    <glyph glyph-name="Msmall" unicode="&#xf76d;" horiz-adv-x="650" 
d="M515 452l-148 -404q-5 -9 -12 -9h-61q-8 0 -12 9l-147 404v-443q0 -9 -9 -9h-47q-9 0 -9 9v505q0 9 9 9h86q7 0 11 -9l149 -404l149 404q4 9 11 9h86q9 0 9 -9v-505q0 -9 -9 -9h-47q-9 0 -9 9v443z" />
    <glyph glyph-name="Nsmall" unicode="&#xf76e;" horiz-adv-x="524" 
d="M70 9v505q0 9 9 9h72q9 0 13 -9l195 -370l34 -77l-4 84v363q0 9 9 9h47q9 0 9 -9v-505q0 -9 -9 -9h-71q-8 0 -13 9l-198 374l-34 79l6 -86v-367q0 -9 -9 -9h-47q-9 0 -9 9z" />
    <glyph glyph-name="Osmall" unicode="&#xf76f;" horiz-adv-x="534" 
d="M268 48q42 0 64 6t39.5 29t23.5 65.5t6 117.5q0 72 -6 113t-23.5 63t-39.5 27.5t-64 5.5q-43 0 -65.5 -5.5t-40.5 -27.5t-24 -63t-6 -113q0 -60 4.5 -98.5t13 -63t26.5 -36.5t38 -16t54 -4zM267 -14q-53 0 -89 12t-64 42.5t-41 86t-13 139.5q0 82 13 135.5t41 82.5t64 40
t89 11t89 -11t64 -40t41 -83t13 -135q0 -84 -13 -139.5t-41 -86t-64 -42.5t-89 -12z" />
    <glyph glyph-name="Psmall" unicode="&#xf770;" horiz-adv-x="475" 
d="M135 468v-206h156q46 0 63.5 21.5t17.5 80.5q0 61 -17.5 82.5t-63.5 21.5h-156zM135 208v-199q0 -9 -9 -9h-47q-9 0 -9 9v502q0 12 14 12h207q76 0 115.5 -40.5t39.5 -113.5q0 -161 -155 -161h-156z" />
    <glyph glyph-name="Qsmall" unicode="&#xf771;" horiz-adv-x="534" 
d="M474 266q0 -134 -34 -196.5t-105 -77.5l106 -122q5 -9 -1 -14l-38 -27q-7 -6 -13 2l-132 155q-103 2 -150 61.5t-47 218.5q0 82 13 135.5t41 82.5t64 40t89 11t89 -11t64 -40t41 -83t13 -135zM268 48q42 0 64 6t39.5 29t23.5 65.5t6 117.5q0 72 -6 113t-23.5 63
t-39.5 27.5t-64 5.5q-43 0 -65.5 -5.5t-40.5 -27.5t-24 -63t-6 -113q0 -60 4.5 -98.5t13 -63t26.5 -36.5t38 -16t54 -4z" />
    </font>
</defs>
</svg>
