<svg xmlns="http://www.w3.org/2000/svg" width="53.368" height="64"><g data-name="Group 6"><path data-name="Path 26" d="M19.553 35.135V25.064a1.3 1.3 0 0 0-.575-1.071 3.423 3.423 0 0 1-1.528-2.847V10.7a8.119 8.119 0 0 1 8.111-8.111h2.247a8.119 8.119 0 0 1 8.11 8.111v10.446a3.423 3.423 0 0 1-1.528 2.847 1.265 1.265 0 0 0-.575 1.071v10.07a1.756 1.756 0 0 0 .98 1.58 80.978 80.978 0 0 1 14.616 9.378 3.744 3.744 0 0 1 1.371 2.913v7.158a1.293 1.293 0 0 0 2.586 0v-7.157a6.372 6.372 0 0 0-2.312-4.911 84.447 84.447 0 0 0-14.656-9.47V25.7a5.981 5.981 0 0 0 2.1-4.558V10.7A10.711 10.711 0 0 0 27.807 0h-2.246a10.711 10.711 0 0 0-10.7 10.7v10.446a5.981 5.981 0 0 0 2.1 4.558v8.921a84.447 84.447 0 0 0-14.655 9.469A6.291 6.291 0 0 0 0 49.006v7.158a1.293 1.293 0 0 0 2.586 0v-7.158a3.744 3.744 0 0 1 1.371-2.913 81.778 81.778 0 0 1 14.616-9.378 1.756 1.756 0 0 0 .98-1.58z" fill="#2c2f33"/><path data-name="Path 27" d="M34.22 49.92L23.262 60.879l-4.114-4.114a1.293 1.293 0 1 0-1.829 1.829l5.029 5.029a1.293 1.293 0 0 0 1.829 0L36.05 51.75a1.285 1.285 0 0 0 0-1.829 1.309 1.309 0 0 0-1.83-.001z" fill="#f3ca40"/></g></svg>