<svg xmlns="http://www.w3.org/2000/svg" width="70.125" height="64"><g data-name="Group 7"><path data-name="Path 28" d="M40.687 12.823h-12.05a1.417 1.417 0 1 0 0 2.834h12.05a1.417 1.417 0 1 0 0-2.834z" fill="#2c2f33"/><path data-name="Path 29" d="M55.184 61.166a1.417 1.417 0 1 0 0 2.834h4.494a1.411 1.411 0 0 0 1.417-1.417V42.962h3.191a1.411 1.411 0 0 0 1.414-1.416v-5.224h3.005a1.417 1.417 0 1 0 0-2.834H56.372l-1.5-8.315a4.109 4.109 0 0 0-4.038-3.373h-1.66l-.959-16.172A5.986 5.986 0 0 0 42.247 0H27.893a5.975 5.975 0 0 0-5.968 5.624L20.966 21.8h-1.66a4.086 4.086 0 0 0-4.036 3.377l-1.5 8.315H1.417a1.417 1.417 0 1 0 0 2.834h3.005v5.224a1.411 1.411 0 0 0 1.417 1.417h3.077v19.616A1.411 1.411 0 0 0 10.333 64h4.494a1.417 1.417 0 0 0 0-2.834H11.75v-18.2h46.511v18.2zM50.819 24.63a1.287 1.287 0 0 1 1.259 1.045l1.422 7.813h-3.625l-.53-8.859zM24.758 5.8a3.136 3.136 0 0 1 3.134-2.948h14.34A3.147 3.147 0 0 1 45.367 5.8l1.66 27.692H23.1zm-6.711 19.874a1.276 1.276 0 0 1 1.259-1.045h1.488l-.53 8.859h-3.62zM7.256 40.129v-3.807h55.613v3.807z" fill="#2c2f33"/><path data-name="Path 30" d="M49.946 47.213a1.411 1.411 0 0 0-1.417-1.417H21.596a1.417 1.417 0 0 0 0 2.834h12.05v5.41h-5.8a1.411 1.411 0 0 0-1.417 1.417v7.113a1.417 1.417 0 1 0 2.834 0v-5.7h4.379v5.7a1.417 1.417 0 1 0 2.834 0v-5.7h4.379v5.7a1.417 1.417 0 1 0 2.834 0v-7.114a1.411 1.411 0 0 0-1.417-1.417h-5.8v-5.41h12.05a1.411 1.411 0 0 0 1.424-1.416z" fill="#f3ca40"/></g></svg>