<svg xmlns="http://www.w3.org/2000/svg" width="17.264" height="16"><g data-name="Group 1" fill="#0f1020"><path data-name="Path 1" d="M16.769 7.8a.493.493 0 0 0-.495.495v4.5a2.22 2.22 0 0 1-2.217 2.217H3.206a2.22 2.22 0 0 1-2.217-2.217V8.223a.495.495 0 0 0-.989 0v4.572a3.209 3.209 0 0 0 3.206 3.206h10.852a3.209 3.209 0 0 0 3.206-3.206v-4.5a.5.5 0 0 0-.495-.495z"/><path data-name="Path 2" d="M8.284 12.072a.5.5 0 0 0 .348.147.483.483 0 0 0 .348-.147l3.144-3.144a.495.495 0 0 0-.7-.7l-2.3 2.3V.495a.495.495 0 0 0-.989 0V10.53l-2.3-2.3a.495.495 0 1 0-.7.7z"/></g></svg>