<svg xmlns="http://www.w3.org/2000/svg" width="48.255" height="64"><g data-name="Group 8"><g data-name="Group 9" fill="#f3ca40"><path data-name="Path 31" d="M26.882 11.568V1.293a1.293 1.293 0 0 0-2.585 0v10.288a1.287 1.287 0 0 0 1.293 1.293 1.307 1.307 0 0 0 1.292-1.306z"/><path data-name="Path 32" d="M15.863 15.758a1.307 1.307 0 0 0 .914-.379 1.285 1.285 0 0 0 0-1.828L9.505 6.279a1.293 1.293 0 1 0-1.828 1.828l7.272 7.272a1.307 1.307 0 0 0 .914.379z"/><path data-name="Path 33" d="M46.962 23.109H36.674a1.293 1.293 0 1 0 0 2.585h10.288a1.293 1.293 0 1 0 0-2.585z"/><path data-name="Path 34" d="M2.911 24.402a1.287 1.287 0 0 0 1.293 1.293h10.288a1.293 1.293 0 1 0 0-2.585H4.204a1.3 1.3 0 0 0-1.293 1.292z"/><path data-name="Path 35" d="M35.134 16.124l7.272-7.272a1.293 1.293 0 0 0-1.828-1.828l-7.272 7.272a1.285 1.285 0 0 0 0 1.828 1.292 1.292 0 0 0 1.828 0z"/></g><path data-name="Path 36" d="M0 38.319V60.71a2.549 2.549 0 0 0 2.546 2.546h7.612a2.555 2.555 0 0 0 2.1-1.1 6.743 6.743 0 0 0 4.622 1.841h20.395c4.57 0 7.481-2.4 8-6.58l2.742-17.443a.988.988 0 0 0 .013-.2 6.759 6.759 0 0 0-6.75-6.75h-10.2V25.7c0-3.173-.927-5.457-2.768-6.815-2.911-2.128-6.894-.914-7.063-.862a1.289 1.289 0 0 0-.9 1.227v8.33c0 6.489-7.546 8.708-7.86 8.8a1.045 1.045 0 0 0-.431.222 2.547 2.547 0 0 0-1.893-.849H2.546A2.552 2.552 0 0 0 0 38.319zm12.716.6a1.435 1.435 0 0 0 .47-.039c.4-.118 9.753-2.82 9.753-11.28v-7.3a5.278 5.278 0 0 1 3.851.679c1.136.836 1.71 2.428 1.71 4.713v8.617a1.287 1.287 0 0 0 1.293 1.293h11.489a4.166 4.166 0 0 1 4.165 4.073l-2.729 17.351v.039c-.353 2.872-2.18 4.322-5.444 4.322H16.881a4.168 4.168 0 0 1-4.165-4.165v-18.3zm-10.131-.574h7.546v22.326H2.585z" fill="#2c2f33"/></g></svg>