<svg xmlns="http://www.w3.org/2000/svg" width="23.965" height="24"><g data-name="Group 2" fill="#f3ca40"><path data-name="Path 6" d="M18.951 14.867a2.361 2.361 0 0 0-1.712-.785 2.441 2.441 0 0 0-1.732.78l-1.6 1.6a13.237 13.237 0 0 0-.39-.2c-.182-.091-.355-.177-.5-.268a17.4 17.4 0 0 1-4.169-3.8 10.264 10.264 0 0 1-1.368-2.158c.415-.38.8-.775 1.175-1.155.142-.142.284-.289.425-.431a2.324 2.324 0 0 0 0-3.505L7.695 3.556a21.367 21.367 0 0 1-.471-.481 21.74 21.74 0 0 0-.952-.942 2.4 2.4 0 0 0-1.7-.745 2.481 2.481 0 0 0-1.722.745l-.01.01-1.719 1.739a3.706 3.706 0 0 0-1.1 2.355 8.88 8.88 0 0 0 .648 3.758 21.81 21.81 0 0 0 3.875 6.463 23.837 23.837 0 0 0 7.937 6.215 12.367 12.367 0 0 0 4.458 1.317c.106.005.218.01.319.01a3.817 3.817 0 0 0 2.923-1.256c.005-.01.015-.015.02-.025a11.516 11.516 0 0 1 .886-.917c.218-.208.441-.425.658-.653a2.527 2.527 0 0 0 .765-1.753 2.434 2.434 0 0 0-.78-1.737zm1.813 5.334c-.005 0-.005.005 0 0-.2.213-.4.405-.618.618a13.32 13.32 0 0 0-.978 1.013 2.442 2.442 0 0 1-1.9.805c-.076 0-.157 0-.233-.005a10.986 10.986 0 0 1-3.951-1.185 22.5 22.5 0 0 1-7.476-5.856 20.564 20.564 0 0 1-3.652-6.073 7.232 7.232 0 0 1-.567-3.171 2.325 2.325 0 0 1 .7-1.5L3.816 3.12a1.151 1.151 0 0 1 .77-.36 1.083 1.083 0 0 1 .74.355l.015.015c.309.289.6.588.912.907.157.162.319.324.481.491l1.382 1.378a.967.967 0 0 1 0 1.57c-.147.147-.289.294-.436.436-.425.436-.831.841-1.271 1.236-.01.01-.02.015-.025.025a1.033 1.033 0 0 0-.263 1.15l.015.046a11.1 11.1 0 0 0 1.636 2.669l.005.005a18.592 18.592 0 0 0 4.5 4.093 6.916 6.916 0 0 0 .623.339c.182.091.355.177.5.268.02.01.041.025.061.035a1.1 1.1 0 0 0 .5.127 1.083 1.083 0 0 0 .77-.35l1.732-1.732a1.146 1.146 0 0 1 .765-.38 1.032 1.032 0 0 1 .729.37l.01.01 2.789 2.792a1 1 0 0 1 .008 1.586z"/><path data-name="Path 7" d="M12.953 5.709a6.519 6.519 0 0 1 5.308 5.309.68.68 0 0 0 .674.567.906.906 0 0 0 .117-.01.685.685 0 0 0 .562-.79 7.883 7.883 0 0 0-6.423-6.423.687.687 0 0 0-.79.557.676.676 0 0 0 .552.79z"/><path data-name="Path 8" d="M23.955 10.587A12.98 12.98 0 0 0 13.379.011a.683.683 0 1 0-.223 1.347 11.593 11.593 0 0 1 9.453 9.452.68.68 0 0 0 .674.567.9.9 0 0 0 .117-.01.671.671 0 0 0 .555-.78z"/></g></svg>