<?xml version="1.0" standalone="no"?>
<!DOCTYPE svg PUBLIC "-//W3C//DTD SVG 1.1//EN" "http://www.w3.org/Graphics/SVG/1.1/DTD/svg11.dtd" >
<svg>
<metadata>
Created by FontForge 20090622 at Fri May  4 11:06:10 2018
 By deploy user
Copyright (c) 2006 by Frantisek Storm, www.stormtype.com. All rights reserved.
</metadata>
<defs>
<font id="Vida33Pro" horiz-adv-x="455" >
  <font-face 
    font-family="Vida 33 Pro"
    font-weight="400"
    font-stretch="normal"
    units-per-em="1000"
    panose-1="2 0 8 3 0 0 0 2 0 4"
    ascent="800"
    descent="-200"
    x-height="509"
    cap-height="697"
    bbox="-104.4 -302 1464 1087.45"
    underline-thickness="50"
    underline-position="-100"
    unicode-range="U+0020-U+FB04"
  />
<missing-glyph horiz-adv-x="550" 
d="M0 0v697h550v-697h-550zM275 416l141 211h-283zM330 349l141 -211v421zM133 70h283l-141 211zM78 559v-421l142 211z" />
    <glyph glyph-name="ellipsis" unicode="&#x2e;&#x2e;&#x2e;" horiz-adv-x="1142" 
d="M219 137q46 0 61.5 -13t15.5 -56q0 -47 -15.5 -61.5t-61.5 -14.5q-45 0 -60 14.5t-15 61.5q0 43 15 56t60 13zM568 137q47 0 62 -13t15 -56q0 -47 -15 -61.5t-62 -14.5q-45 0 -60 14.5t-15 61.5q0 43 15 56t60 13zM921 137q46 0 61.5 -13t15.5 -56q0 -47 -15.5 -61.5
t-61.5 -14.5q-45 0 -60 14.5t-15 61.5q0 43 15 56t60 13z" />
    <glyph glyph-name="ff" unicode="ff" horiz-adv-x="659" 
d="M201 509h186v34q0 99 43.5 141t123.5 42q62 0 124 -10q8 -3 5 -13l-15 -81q-2 -9 -10 -6q-39 12 -87 12q-44 0 -55.5 -16t-11.5 -68v-35h150q9 0 9 -9v-83q0 -9 -9 -9h-150v-399q0 -9 -9 -9h-100q-9 0 -9 9v399h-185v-399q0 -9 -9 -9h-100q-9 0 -9 9v399h-69q-9 0 -9 9
v83q0 9 9 9h69v34q0 99 44 141t123 42q63 0 120 -9q8 -3 5 -13l-15 -81q-2 -9 -10 -6q-39 11 -78 11q-44 0 -57.5 -16.5t-13.5 -67.5v-35z" />
    <glyph glyph-name="fi" unicode="fi" horiz-adv-x="584" 
d="M318 628q-77 0 -97 -14.5t-20 -69.5v-35h294q9 0 9 -9v-491q0 -9 -9 -9h-100q-9 0 -9 9v399h-185v-399q0 -9 -9 -9h-100q-9 0 -9 9v399h-69q-9 0 -9 9v83q0 9 9 9h69v34q0 100 61 141.5t175 41.5q104 0 192 -18q9 -2 5 -13l-15 -80q-2 -9 -10 -6q-87 19 -173 19z" />
    <glyph glyph-name="fl" unicode="fl" horiz-adv-x="580" 
d="M386 103v518q-48 7 -94 7q-61 0 -76 -15.5t-15 -68.5v-35h119q9 0 9 -9v-83q0 -9 -9 -9h-119v-399q0 -9 -9 -9h-100q-9 0 -9 9v399h-69q-9 0 -9 9v83q0 9 9 9h69v34q0 100 47 141.5t140 41.5q43 0 225 -13q9 -2 9 -9v-604l31 -68q6 -8 -3 -12l-95 -38q-8 -6 -12 3l-27 64
q-12 26 -12 54z" />
    <glyph glyph-name="ffi" unicode="ffi" horiz-adv-x="888" 
d="M387 408h-186v-399q0 -9 -9 -9h-100q-9 0 -9 9v399h-69q-9 0 -9 9v83q0 9 9 9h69v34q0 99 44 141t123 42q63 0 120 -9q8 -3 5 -13l-15 -81q-2 -9 -10 -6q-39 11 -78 11q-44 0 -57.5 -16.5t-13.5 -67.5v-35h186v34q0 100 61 141.5t175 41.5q104 0 192 -18q9 -2 5 -13
l-15 -80q-2 -9 -10 -6q-87 19 -173 19q-77 0 -97 -14.5t-20 -69.5v-35h294q9 0 9 -9v-491q0 -9 -9 -9h-100q-9 0 -9 9v399h-185v-399q0 -9 -9 -9h-100q-9 0 -9 9v399z" />
    <glyph glyph-name="ffl" unicode="ffl" horiz-adv-x="884" 
d="M387 408h-186v-399q0 -9 -9 -9h-100q-9 0 -9 9v399h-69q-9 0 -9 9v83q0 9 9 9h69v34q0 99 44 141t123 42q63 0 120 -9q8 -3 5 -13l-15 -81q-2 -9 -10 -6q-39 11 -78 11q-44 0 -57.5 -16.5t-13.5 -67.5v-35h186v34q0 100 47 141.5t140 41.5q43 0 225 -13q9 -2 9 -9v-604
l31 -68q6 -8 -3 -12l-95 -38q-8 -6 -12 3l-27 64q-12 26 -12 54v518q-48 7 -94 7q-61 0 -76 -15.5t-15 -68.5v-35h119q9 0 9 -9v-83q0 -9 -9 -9h-119v-399q0 -9 -9 -9h-100q-9 0 -9 9v399z" />
    <glyph glyph-name="fb" unicode="fb" horiz-adv-x="912" 
d="M504 392v-275q49 -26 105 -26q42 0 62.5 4.5t34.5 23t17 47.5t3 88t-3 88.5t-17 48.5t-34.5 23t-62.5 4q-56 0 -105 -26zM386 9v612q-48 7 -94 7q-61 0 -76 -15.5t-15 -68.5v-35h119q9 0 9 -9v-83q0 -9 -9 -9h-119v-399q0 -9 -9 -9h-100q-9 0 -9 9v399h-69q-9 0 -9 9v83
q0 9 9 9h69v34q0 100 47 141.5t140 41.5q43 0 225 -13q9 -2 9 -9v-251q22 28 64.5 49.5t84.5 21.5q108 0 154.5 -59.5t46.5 -210.5t-46.5 -209.5t-154.5 -58.5q-42 0 -84.5 21.5t-64.5 49.5v-48q0 -9 -9 -9h-100q-9 0 -9 9z" />
    <glyph glyph-name="fh" unicode="fh" horiz-adv-x="898" 
d="M386 9v612q-48 7 -94 7q-61 0 -76 -15.5t-15 -68.5v-35h119q9 0 9 -9v-83q0 -9 -9 -9h-119v-399q0 -9 -9 -9h-100q-9 0 -9 9v399h-69q-9 0 -9 9v83q0 9 9 9h69v34q0 100 47 141.5t140 41.5q43 0 225 -13q9 -2 9 -9v-251q24 28 65.5 49.5t89.5 21.5q98 0 138 -51.5
t40 -189.5v-274q0 -9 -9 -9h-100q-9 0 -9 9v267q0 97 -17.5 119.5t-92.5 22.5q-56 0 -105 -26v-383q0 -9 -9 -9h-100q-9 0 -9 9z" />
    <glyph glyph-name="fj" unicode="fj" horiz-adv-x="584" 
d="M386 18v390h-185v-399q0 -9 -9 -9h-100q-9 0 -9 9v399h-69q-9 0 -9 9v83q0 9 9 9h69v34q0 100 61 141.5t175 41.5q104 0 192 -18q9 -2 5 -13l-15 -80q-2 -9 -10 -6q-87 19 -173 19q-77 0 -97 -14.5t-20 -69.5v-35h294q9 0 9 -9v-482q0 -222 -202 -222q-10 0 -11 8l-12 86
q-4 11 6 11q64 4 82.5 25t18.5 92z" />
    <glyph glyph-name="fk" unicode="fk" horiz-adv-x="849" 
d="M386 9v612q-48 7 -94 7q-61 0 -76 -15.5t-15 -68.5v-35h119q9 0 9 -9v-83q0 -9 -9 -9h-119v-399q0 -9 -9 -9h-100q-9 0 -9 9v399h-69q-9 0 -9 9v83q0 9 9 9h69v34q0 100 47 141.5t140 41.5q43 0 225 -13q9 -2 9 -9v-695q0 -9 -9 -9h-100q-9 0 -9 9zM823 473l-180 -200
l195 -235q4 -7 -3 -11l-88 -48q-4 -2 -5 -2q-5 0 -8 4l-229 285l216 263q4 4 8 4q3 0 7 -2l85 -45q4 -4 4 -7q0 -2 -2 -6z" />
    <glyph glyph-name="ft" unicode="ft" horiz-adv-x="710" 
d="M570 94q40 0 85 12q8 2 10 -6l15 -88q3 -10 -5 -13q-52 -13 -123 -13q-86 0 -125.5 40.5t-39.5 148.5v233h-186v-399q0 -9 -9 -9h-100q-9 0 -9 9v399h-69q-9 0 -9 9v83q0 9 9 9h69v34q0 183 155 183q58 0 116 -10q8 -3 5 -13l-14 -81q-2 -8 -9 -6q-37 12 -82 12
q-33 0 -43 -16.5t-10 -67.5v-35h185v98q0 8 8 10l101 29q9 2 9 -7v-130h158q9 0 9 -9v-83q0 -9 -9 -9h-158v-229q0 -54 12 -69.5t54 -15.5z" />
    <glyph glyph-name="ffb" unicode="ffb" horiz-adv-x="1216" 
d="M564 726q53 0 235 -13q9 -2 9 -9v-251q22 28 64 49.5t85 21.5q108 0 154.5 -59.5t46.5 -210.5t-46.5 -209.5t-155.5 -58.5q-42 0 -84 21.5t-64 49.5v-48q0 -9 -9 -9h-100q-9 0 -9 9v612q-48 7 -95 7q-61 0 -76 -15.5t-15 -68.5v-35h120q9 0 9 -9v-83q0 -9 -9 -9h-120
v-399q0 -9 -9 -9h-100q-9 0 -9 9v399h-185v-399q0 -9 -9 -9h-100q-9 0 -9 9v399h-69q-9 0 -9 9v83q0 9 9 9h69v34q0 99 44 141t123 42q63 0 120 -9q8 -3 5 -13l-15 -81q-2 -9 -10 -6q-39 11 -78 11q-44 0 -57.5 -16.5t-13.5 -67.5v-35h186v34q0 100 45 141.5t132 41.5z
M808 392v-275q49 -26 105 -26q78 0 97.5 27t19.5 136q0 59 -3.5 88.5t-17 48.5t-34 23t-62.5 4q-56 0 -105 -26z" />
    <glyph glyph-name="ffh" unicode="ffh" horiz-adv-x="1202" 
d="M564 726q53 0 235 -13q9 -2 9 -9v-251q24 28 65 49.5t90 21.5q98 0 137.5 -51.5t39.5 -189.5v-274q0 -9 -9 -9h-100q-9 0 -9 9v267q0 97 -17.5 119.5t-91.5 22.5q-56 0 -105 -26v-383q0 -9 -9 -9h-100q-9 0 -9 9v612q-48 7 -95 7q-61 0 -76 -15.5t-15 -68.5v-35h120
q9 0 9 -9v-83q0 -9 -9 -9h-120v-399q0 -9 -9 -9h-100q-9 0 -9 9v399h-185v-399q0 -9 -9 -9h-100q-9 0 -9 9v399h-69q-9 0 -9 9v83q0 9 9 9h69v34q0 99 44 141t123 42q63 0 120 -9q8 -3 5 -13l-15 -81q-2 -9 -10 -6q-39 11 -78 11q-44 0 -57.5 -16.5t-13.5 -67.5v-35h186v34
q0 100 45 141.5t132 41.5z" />
    <glyph glyph-name="ffj" unicode="ffj" horiz-adv-x="888" 
d="M387 509v34q0 100 61 141.5t175 41.5q104 0 192 -18q9 -2 5 -13l-15 -80q-2 -9 -10 -6q-87 19 -173 19q-77 0 -97 -14t-21 -70v-35h295q9 0 9 -9v-434q0 -143 -46.5 -206t-158.5 -63q-7 0 -9 7l-12 87q-1 1 -1 3q0 6 7 8q71 4 86.5 31t15.5 133v342h-186v-399q0 -9 -9 -9
h-100q-9 0 -9 9v399h-185v-399q0 -9 -9 -9h-100q-9 0 -9 9v399h-69q-9 0 -9 9v83q0 9 9 9h69v34q0 99 44 141t123 42q63 0 120 -9q8 -3 5 -13l-15 -81q-2 -9 -10 -6q-39 11 -78 11q-44 0 -57.5 -16.5t-13.5 -67.5v-35h186z" />
    <glyph glyph-name="ffk" unicode="ffk" horiz-adv-x="1152" 
d="M386 509v34q0 100 47 141.5t140 41.5q43 0 225 -13q9 -2 9 -9v-695q0 -9 -9 -9h-100q-9 0 -9 9v612q-48 7 -94 7q-61 0 -76 -15.5t-15 -68.5v-35h119q9 0 9 -9v-83q0 -9 -9 -9h-119v-399q0 -9 -9 -9h-100q-9 0 -9 9v399h-185v-399q0 -9 -9 -9h-100q-9 0 -9 9v399h-69
q-9 0 -9 9v83q0 9 9 9h69v34q0 99 44 141t123 42q63 0 120 -9q8 -3 5 -13l-15 -81q-2 -9 -10 -6q-39 11 -78 11q-44 0 -57.5 -16.5t-13.5 -67.5v-35h185zM1126 473l-180 -200l195 -235q4 -7 -3 -11l-88 -48q-4 -2 -5 -2q-5 0 -8 4l-229 285l216 263q4 4 8 4q3 0 7 -2l85 -45
q4 -4 4 -7q0 -2 -2 -6z" />
    <glyph glyph-name="Th" unicode="Th" horiz-adv-x="1105" 
d="M9 697h693q9 0 9 -9v-235q24 28 65 49.5t90 21.5q98 0 137.5 -51.5t39.5 -189.5v-274q0 -9 -9 -9h-100q-9 0 -9 9v267q0 97 -17.5 119.5t-91.5 22.5q-56 0 -105 -26v-383q0 -9 -9 -9h-100q-9 0 -9 9v572h-252v-572q0 -9 -9 -9h-108q-9 0 -9 9v572h-206q-9 0 -9 9v98
q0 9 9 9z" />
    <glyph glyph-name=".notdef" horiz-adv-x="550" 
d="M0 0v697h550v-697h-550zM275 416l141 211h-283zM330 349l141 -211v421zM133 70h283l-141 211zM78 559v-421l142 211z" />
    <glyph glyph-name=".null" horiz-adv-x="0" 
 />
    <glyph glyph-name="nonmarkingreturn" horiz-adv-x="333" 
 />
    <glyph glyph-name="space" unicode=" " horiz-adv-x="255" 
 />
    <glyph glyph-name="exclam" unicode="!" horiz-adv-x="342" 
d="M235 705l-10 -484q0 -9 -9 -9h-90q-9 0 -9 9l-10 484q0 9 9 9h110q9 0 9 -9zM170 132q46 0 59 -12t13 -56q0 -48 -13.5 -61.5t-58.5 -13.5q-44 0 -57 13.5t-13 61.5q0 44 13 56t57 12z" />
    <glyph glyph-name="quotedbl" unicode="&#x22;" horiz-adv-x="379" 
d="M158 688l-12 -212q0 -9 -9 -9h-68q-9 0 -9 9l-10 212q0 9 9 9h90q9 0 9 -9zM329 688l-12 -212q0 -9 -9 -9h-68q-9 0 -9 9l-10 212q0 9 9 9h90q9 0 9 -9z" />
    <glyph glyph-name="numbersign" unicode="#" horiz-adv-x="604" 
d="M582 168h-98v-159q0 -9 -9 -9h-100q-9 0 -9 9v159h-125v-159q0 -9 -9 -9h-100q-9 0 -9 9v159h-101q-9 0 -9 9v89q0 9 9 9h101v163h-101q-9 0 -9 9v89q0 9 9 9h101v160q0 9 9 9h100q9 0 9 -9v-160h125v160q0 9 9 9h100q9 0 9 -9v-160h98q9 0 9 -9v-89q0 -9 -9 -9h-98v-163
h98q9 0 9 -9v-89q0 -9 -9 -9zM241 438v-163h125v163h-125z" />
    <glyph glyph-name="dollar" unicode="$" horiz-adv-x="604" 
d="M333 -4v-97q0 -9 -9 -9h-57q-9 0 -9 9v94q-56 1 -123.5 8.5t-67.5 20.5q0 3 1 5l16 97q2 7 9 7h1q69 -21 164 -23v198q-109 12 -157.5 53t-48.5 131q0 103 49 152.5t157 59.5v95q0 9 9 9h57q9 0 9 -9v-92q51 -1 117.5 -9t66.5 -21q0 -1 -0.5 -2t-0.5 -2l-16 -97
q-2 -7 -9 -7h-1q-65 20 -157 23v-189q113 -14 162 -57.5t49 -135.5q0 -102 -51 -152t-160 -60zM420 202q0 48 -16 67t-71 28v-188q52 5 69.5 25t17.5 68zM177 497q0 -46 14.5 -62.5t66.5 -24.5v178q-51 -4 -66 -23.5t-15 -67.5z" />
    <glyph glyph-name="percent" unicode="%" horiz-adv-x="1068" 
d="M834 -14q-103 0 -148 50t-45 180q0 128 44.5 174.5t148.5 46.5t149 -46.5t45 -174.5q0 -130 -45 -180t-149 -50zM233 263q-103 0 -148 50t-45 180q0 128 44.5 174.5t148.5 46.5t149 -46.5t45 -174.5q0 -130 -45.5 -180t-148.5 -50zM826 683l-491 -721q-3 -5 -8 -5l-5 2
l-81 42q-6 4 -6 6t1 3l491 722q3 4 8 4q3 0 4 -1l84 -39q4 -3 4 -8q0 -3 -1 -5zM233 620q-45 0 -57.5 -21.5t-12.5 -105.5t13 -109t57 -25q45 0 58 24.5t13 109.5q0 84 -12.5 105.5t-58.5 21.5zM834 343q-44 0 -56.5 -21.5t-12.5 -105.5q0 -85 12.5 -109.5t56.5 -24.5
q45 0 58 24.5t13 109.5q0 84 -12.5 105.5t-58.5 21.5z" />
    <glyph glyph-name="ampersand" unicode="&#x26;" horiz-adv-x="693" 
d="M360 714q82 0 156 -18q9 -2 5 -14l-19 -87q-1 -3 -4.5 -5.5t-6.5 -1.5q-60 21 -130 21q-69 0 -87.5 -14.5t-18.5 -68.5q0 -36 9.5 -58.5t31.5 -46.5l149 -152l115 170q6 8 13 2l81 -54q7 -5 1 -13l-131 -184l138 -139q6 -7 -2 -13l-80 -59q-7 -6 -13 2l-111 115l-28 -40
q-28 -39 -62.5 -54.5t-94.5 -15.5q-114 0 -164 45.5t-50 154.5q0 83 27 130.5t101 67.5q-56 63 -56 146q0 91 53.5 137.5t177.5 46.5zM237 325q-31 -14 -41.5 -38t-10.5 -79q0 -75 16 -96t67 -21q33 0 48.5 6.5t27.5 23.5l37 54z" />
    <glyph glyph-name="quotesingle" unicode="'" horiz-adv-x="208" 
d="M158 688l-12 -212q0 -9 -9 -9h-68q-9 0 -9 9l-10 212q0 9 9 9h90q9 0 9 -9z" />
    <glyph glyph-name="parenleft" unicode="(" horiz-adv-x="364" 
d="M195 249q0 -203 42 -314.5t107 -139.5q6 -3 3 -10l-67 -62q-6 -7 -16 -1q-88 51 -141.5 183t-53.5 344t53.5 344t141.5 183q10 6 15 -1l68 -62q3 -7 -3 -10q-65 -28 -107 -139.5t-42 -314.5z" />
    <glyph glyph-name="parenright" unicode=")" horiz-adv-x="363" 
d="M167 249q0 203 -42 314.5t-107 139.5q-6 3 -3 10l68 62q5 7 15 1q88 -51 141.5 -183t53.5 -344t-53.5 -344t-141.5 -183q-10 -6 -15 1l-68 62q-3 7 3 10q65 28 107 139.5t42 314.5z" />
    <glyph glyph-name="asterisk" unicode="*" horiz-adv-x="431" 
d="M337 673l-57 -98h114q8 0 8 -8v-60q0 -7 -8 -7h-114l57 -99q5 -7 -2 -10l-52 -30q-6 -3 -11 3l-57 97l-56 -97q-4 -7 -10 -3l-53 31q-6 4 -2 9l56 99h-113q-7 0 -7 7v60q0 8 7 8h113l-56 98q-4 6 2 10l53 30q6 4 10 -2l56 -99l57 99q3 6 11 3l51 -30q6 -3 3 -11z" />
    <glyph glyph-name="plus" unicode="+" horiz-adv-x="571" 
d="M230 42v180h-180q-9 0 -9 9v88q0 9 9 9h180v179q0 9 9 9h93q9 0 9 -9v-179h179q9 0 9 -9v-88q0 -9 -9 -9h-179v-180q0 -9 -9 -9h-93q-9 0 -9 9z" />
    <glyph glyph-name="comma" unicode="," horiz-adv-x="278" 
d="M208 69l-58 -203q-4 -11 -12 -11h-66q-10 0 -8 11l24 219q2 12 13 12l96 -14q6 0 9.5 -4.5t1.5 -9.5z" />
    <glyph glyph-name="hyphen" unicode="-" horiz-adv-x="363" 
d="M313 221h-263q-9 0 -9 9v89q0 9 9 9h263q9 0 9 -9v-89q0 -9 -9 -9z" />
    <glyph glyph-name="hyphen" unicode="&#xad;" horiz-adv-x="363" 
d="M313 221h-263q-9 0 -9 9v89q0 9 9 9h263q9 0 9 -9v-89q0 -9 -9 -9z" />
    <glyph glyph-name="period" unicode="." horiz-adv-x="285" 
d="M141 132q46 0 59 -12t13 -56q0 -48 -13 -61.5t-59 -13.5q-44 0 -57 13.5t-13 61.5q0 44 13 56t57 12z" />
    <glyph glyph-name="slash" unicode="/" horiz-adv-x="509" 
d="M507 681l-397 -806q-4 -9 -12 -4l-93 39q-7 5 -4 12l397 807q4 10 12 4l93 -40q9 -4 4 -12z" />
    <glyph glyph-name="zero" unicode="0" horiz-adv-x="604" 
d="M302 714q91 0 143.5 -30t80.5 -108.5t28 -217.5q0 -209 -58.5 -290.5t-193.5 -81.5q-134 0 -193 81.5t-59 290.5q0 139 28 217.5t80.5 108.5t143.5 30zM302 105q32 0 52 6.5t34.5 21t21.5 45.5t10 72t3 108q0 110 -9.5 158t-33 64.5t-78.5 16.5q-33 0 -52 -5t-34 -17.5
t-21.5 -41t-9.5 -68.5t-3 -107q0 -111 9 -161.5t33.5 -71t77.5 -20.5z" />
    <glyph glyph-name="one" unicode="1" horiz-adv-x="604" 
d="M309 697h107q9 0 9 -9v-679q0 -9 -9 -9h-107q-9 0 -9 9v569l-171 -101q-7 -4 -13 3l-39 81q-6 8 3 12l210 119q9 5 19 5z" />
    <glyph glyph-name="two" unicode="2" horiz-adv-x="604" 
d="M265 597q-87 0 -163 -22q-8 -3 -10 6l-18 102q-1 9 7 12q65 19 184 19q111 0 169.5 -23.5t78.5 -69t20 -130.5q-2 -85 -39 -135t-159 -146l-121 -101h316q9 0 9 -9v-91q0 -9 -9 -9h-460q-10 0 -10 10v76q0 33 13 43l197 161l43 39.5l33.5 30.5t21.5 23t16 22t8 22.5
t5.5 30t0.5 38.5q0 65 -24 83t-109 18z" />
    <glyph glyph-name="three" unicode="3" horiz-adv-x="604" 
d="M280 313h-114q-9 0 -9 9v84q0 9 9 9h113q67 0 87.5 19.5t20.5 77.5q0 55 -21 72t-99 17q-112 0 -183 -21q-8 -3 -10 6l-16 96q-4 11 5 13q86 19 200 19q147 0 203.5 -40t56.5 -136q0 -151 -149 -169q160 -12 160 -179q0 -113 -61.5 -158.5t-210.5 -45.5q-113 0 -198 19
q-8 3 -5 13l17 97q2 9 10 6q68 -22 179 -22q85 0 107.5 19.5t22.5 88.5q0 67 -20.5 86.5t-94.5 19.5z" />
    <glyph glyph-name="four" unicode="4" horiz-adv-x="604" 
d="M485 688v-416h92q9 0 9 -9v-87q0 -9 -9 -9h-92v-158q0 -9 -9 -9h-108q-9 0 -9 9v158h-330q-9 0 -9 9v77q0 7 7 18l274 417q7 9 17 9h158q9 0 9 -9zM149 272h211v288l2 43l-23 -43z" />
    <glyph glyph-name="five" unicode="5" horiz-adv-x="604" 
d="M507 697q9 0 9 -9v-92q0 -9 -9 -9h-295v-172h66q147 0 206.5 -44t59.5 -157q0 -129 -63.5 -178.5t-212.5 -49.5q-108 0 -193 19q-8 3 -5 13l17 97q2 9 10 6q68 -22 175 -22q89 0 111 19.5t22 88.5q0 70 -21 88t-105 18h-176q-14 0 -14 12v359q0 5 3.5 9t8.5 4h406z" />
    <glyph glyph-name="six" unicode="6" horiz-adv-x="604" 
d="M189 304q2 -95 12.5 -137t32.5 -54.5t73 -12.5q82 0 103.5 18.5t21.5 88.5q0 77 -21 97.5t-104 20.5q-70 0 -118 -21zM339 600q-94 0 -122 -36t-28 -149v-59q63 71 174 71q103 0 152 -50.5t49 -163.5q0 -126 -59 -176.5t-198 -50.5q-98 0 -152 33t-78 111.5t-24 223.5
q0 142 29 220t89 109t168 31q111 0 187 -18q9 -2 5 -14l-16 -98q-2 -9 -11 -6q-72 22 -165 22z" />
    <glyph glyph-name="seven" unicode="7" horiz-adv-x="605" 
d="M142 30l262 557h-340q-9 0 -9 10v90q0 10 9 10h483q10 0 10 -11l1 -54q0 -17 -8 -35l-281 -603q-3 -7 -9 -7q-3 0 -4 1l-108 29q-7 1 -7 9z" />
    <glyph glyph-name="eight" unicode="8" horiz-adv-x="604" 
d="M302 90q78 0 99.5 18.5t21.5 87.5t-23 93.5t-101 24.5q-75 0 -96.5 -24t-21.5 -94q0 -69 21.5 -87.5t99.5 -18.5zM305 420q72 0 93 21.5t21 83.5q0 55 -20 69.5t-97 14.5t-97 -14.5t-20 -69.5q0 -62 22.5 -83.5t97.5 -21.5zM302 714q135 0 189.5 -41.5t54.5 -133.5
q0 -77 -28.5 -118t-115.5 -51q91 -8 122 -53t31 -132q0 -109 -58 -154t-195 -45q-136 0 -195 45t-59 154q0 85 32 130t122 54q-59 7 -92 31.5t-42.5 56t-9.5 82.5q0 92 54.5 133.5t189.5 41.5z" />
    <glyph glyph-name="nine" unicode="9" horiz-adv-x="604" 
d="M420 391q7 26 7 85q0 82 -22.5 102.5t-105.5 20.5q-80 0 -101 -20t-21 -92q0 -76 21.5 -97t105.5 -21q66 0 116 22zM165 39l199 208q41 45 51 91q-63 -71 -169 -71q-104 0 -152.5 50t-48.5 163q0 127 59 180.5t196 53.5q144 0 202 -57t58 -195q0 -184 -93 -282l-195 -206
q-6 -8 -13 -2l-93 54q-7 5 -1 13z" />
    <glyph glyph-name="colon" unicode=":" horiz-adv-x="285" 
d="M141 132q46 0 59 -12t13 -56q0 -48 -13 -61.5t-59 -13.5q-44 0 -57 13.5t-13 61.5q0 44 13 56t57 12zM141 524q46 0 59 -12t13 -56q0 -48 -13 -61.5t-59 -13.5q-44 0 -57 13.5t-13 61.5q0 44 13 56t57 12z" />
    <glyph glyph-name="semicolon" unicode=";" horiz-adv-x="285" 
d="M141 524q46 0 59 -12t13 -56q0 -48 -13 -61.5t-59 -13.5q-44 0 -57 13.5t-13 61.5q0 44 13 56t57 12zM208 69l-58 -203q-4 -11 -12 -11h-66q-10 0 -8 11l24 219q2 12 13 12l96 -14q6 0 9.5 -4.5t1.5 -9.5z" />
    <glyph glyph-name="less" unicode="&#x3c;" horiz-adv-x="522" 
d="M413 46l-365 262q-7 5 -7 13v71q0 8 7 13l368 263q9 6 13 0l55 -74q5 -7 -4 -14l-298 -221l298 -221q9 -7 4 -14l-58 -78q-4 -6 -13 0z" />
    <glyph glyph-name="equal" unicode="=" horiz-adv-x="577" 
d="M505 148h-433q-9 0 -9 9v89q0 9 9 9h433q9 0 9 -9v-89q0 -9 -9 -9zM505 400h-433q-9 0 -9 9v89q0 9 9 9h433q9 0 9 -9v-89q0 -9 -9 -9z" />
    <glyph glyph-name="greater" unicode="&#x3e;" horiz-adv-x="522" 
d="M115 668l365 -262q7 -5 7 -13v-71q0 -8 -7 -13l-368 -263q-9 -6 -13 0l-55 74q-5 7 4 14l298 221l-298 221q-9 7 -4 14l58 78q4 6 13 0z" />
    <glyph glyph-name="question" unicode="?" horiz-adv-x="453" 
d="M209 132q46 0 59 -12t13 -56q0 -48 -13.5 -61.5t-58.5 -13.5q-44 0 -57 13.5t-13 61.5q0 44 13 56t57 12zM425 519q0 -117 -89 -211l-103 -107q-6 -8 -13 -2l-80 57q-8 6 -1 13l96 100q40 43 48 64.5t8 76.5t-16 71t-73 16q-68 0 -129 -20q-9 -3 -11 6l-15 98q-4 12 5 14
q79 19 160 19q115 0 164 -44t49 -151z" />
    <glyph glyph-name="at" unicode="@" horiz-adv-x="892" 
d="M469 319q-63 0 -82.5 -15t-19.5 -61q0 -45 19.5 -60t82.5 -15q55 0 106 27v98q-49 26 -106 26zM875 261q0 -123 -20.5 -201t-71.5 -124.5t-126.5 -64t-195.5 -17.5q-123 0 -199.5 16.5t-127.5 60.5t-71 115.5t-20 186.5q0 119 18.5 193t64 116.5t110 58t168.5 15.5
q159 0 222.5 -53t63.5 -171v-306q0 -9 -9 -9h-97q-9 0 -9 9v49q-19 -25 -61.5 -48.5t-83.5 -23.5q-102 0 -143.5 39.5t-41.5 135.5q0 95 41.5 133t143.5 38q42 0 84.5 -21t60.5 -45v46q0 70 -35 97t-144 27q-53 0 -86 -3t-63 -13.5t-45.5 -28t-27.5 -49.5t-16 -75t-4 -108
q0 -64 4 -105.5t18 -74.5t34 -50.5t57.5 -29t82.5 -15t116 -3.5q69 0 112.5 3.5t81 16t56.5 31.5t32.5 55t17.5 81.5t4 115.5q0 9 9 9h87q9 0 9 -9z" />
    <glyph glyph-name="A" unicode="A" horiz-adv-x="620" 
d="M439 171h-261l-55 -176q-2 -10 -12 -8l-104 25q-9 2 -6 10l218 665q2 10 11 10h159q10 0 12 -10l218 -664q3 -9 -6 -11l-105 -25q-11 -2 -13 8zM407 276l-79 252l-19 89l-19 -89l-80 -252h197z" />
    <glyph glyph-name="B" unicode="B" horiz-adv-x="664" 
d="M210 310v-205h192q39 0 53.5 19.5t14.5 79.5q0 61 -17.5 83.5t-54.5 22.5h-188zM407 0h-313q-9 0 -9 9v679q0 9 9 9h307q188 0 188 -168q0 -72 -35 -113t-117 -49q167 -8 167 -177q0 -98 -53.5 -144t-143.5 -46zM210 592v-177h186q35 0 48 18.5t13 70.5q0 55 -12.5 71.5
t-48.5 16.5h-186z" />
    <glyph glyph-name="C" unicode="C" horiz-adv-x="588" 
d="M373 103q92 0 163 22q8 3 10 -6l18 -101q3 -10 -5 -13q-86 -19 -186 -19q-115 0 -180.5 31t-98.5 111.5t-33 226.5q0 108 17 178t56.5 110t95.5 55.5t143 15.5q95 0 186 -20q9 -2 5 -13l-18 -100q-2 -9 -10 -6q-76 22 -163 22q-59 0 -88.5 -6.5t-50.5 -33.5t-26.5 -72
t-5.5 -131q0 -59 2.5 -97.5t10.5 -68t18.5 -45t31.5 -25.5t45 -12.5t63 -2.5z" />
    <glyph glyph-name="D" unicode="D" horiz-adv-x="693" 
d="M94 0q-9 0 -9 9v679q0 9 9 9h221q115 0 181.5 -30t100.5 -105.5t34 -210.5q0 -198 -73 -274.5t-243 -76.5h-221zM320 588h-110v-479h110q40 0 65.5 3t46 13.5t31 26t17.5 44.5t9 64t2 90q0 86 -4.5 129t-25 70t-50.5 33t-91 6z" />
    <glyph glyph-name="E" unicode="E" horiz-adv-x="562" 
d="M526 0h-432q-9 0 -9 9v679q0 9 9 9h432q9 0 9 -9v-90q0 -9 -9 -9h-316v-173h251q9 0 9 -9v-89q0 -9 -9 -9h-251v-201h316q9 0 9 -9v-90q0 -9 -9 -9z" />
    <glyph glyph-name="F" unicode="F" horiz-adv-x="546" 
d="M210 589v-206h246q9 0 9 -9v-89q0 -9 -9 -9h-246v-267q0 -9 -9 -9h-107q-9 0 -9 9v679q0 9 9 9h427q9 0 9 -9v-90q0 -9 -9 -9h-311z" />
    <glyph glyph-name="G" unicode="G" horiz-adv-x="666" 
d="M593 366v-347q0 -10 -9 -14q-92 -19 -211 -19q-115 0 -180.5 31t-98.5 111.5t-33 226.5q0 108 17.5 178t58 110t97 55.5t144.5 15.5q57 0 134.5 -7.5t77.5 -21.5q0 -1 -0.5 -2t-0.5 -2l-18 -100q-1 -6 -8 -6h-2q-76 22 -183 22q-60 0 -90 -6.5t-52 -33t-28 -72.5t-6 -131
q0 -71 4.5 -113.5t14 -73t31 -44t48 -18.5t73.5 -5q56 0 95 6v260q0 9 9 9h107q9 0 9 -9z" />
    <glyph glyph-name="H" unicode="H" horiz-adv-x="701" 
d="M616 688v-679q0 -9 -9 -9h-107q-9 0 -9 9v302h-281v-302q0 -9 -9 -9h-107q-9 0 -9 9v679q0 9 9 9h107q9 0 9 -9v-262h281v262q0 9 9 9h107q9 0 9 -9z" />
    <glyph glyph-name="I" unicode="I" horiz-adv-x="295" 
d="M210 688v-679q0 -9 -9 -9h-107q-9 0 -9 9v679q0 9 9 9h107q9 0 9 -9z" />
    <glyph glyph-name="J" unicode="J" horiz-adv-x="462" 
d="M5 7q-9 3 -5 14l16 98q1 3 4.5 5.5t6.5 1.5q61 -22 134 -22q54 0 73 21.5t19 82.5v480q0 9 9 9h107q9 0 9 -9v-496q0 -109 -55.5 -157.5t-147.5 -48.5q-95 0 -170 21z" />
    <glyph glyph-name="K" unicode="K" horiz-adv-x="643" 
d="M601 645l-238 -277l247 -314q8 -10 -1 -14l-100 -52q-8 -5 -15 3l-282 369l275 349q4 4 9 4q2 0 6 -2l97 -51q8 -5 2 -15zM210 688v-679q0 -9 -9 -9h-107q-9 0 -9 9v679q0 9 9 9h107q9 0 9 -9z" />
    <glyph glyph-name="L" unicode="L" horiz-adv-x="515" 
d="M210 115h296q9 0 9 -9v-97q0 -9 -9 -9h-412q-9 0 -9 9v679q0 9 9 9h107q9 0 9 -9v-573z" />
    <glyph glyph-name="M" unicode="M" horiz-adv-x="873" 
d="M451 227l131 461q2 9 15 9h182q7 0 9 -9v-679q0 -9 -9 -9h-107q-9 0 -9 9v508l5 87l-19 -86l-130 -450q-3 -18 -15 -18h-129q-15 0 -20 18l-131 453l-19 83l5 -86v-509q0 -9 -9 -9h-107q-9 0 -9 9v679q2 9 9 9h184q11 0 16 -9l130 -461l14 -85z" />
    <glyph glyph-name="N" unicode="N" horiz-adv-x="714" 
d="M242 688l227 -423l42 -101l-7 108v416q0 9 9 9h107q9 0 9 -9v-679q-2 -9 -9 -9h-132q-11 0 -16 9l-227 423l-42 98l7 -106v-415q0 -9 -9 -9h-107q-9 0 -9 9v679q2 9 9 9h132q12 0 16 -9z" />
    <glyph glyph-name="O" unicode="O" horiz-adv-x="724" 
d="M362 714q79 0 132.5 -15.5t93 -55t57.5 -110t18 -177.5q0 -145 -34.5 -227t-97.5 -112.5t-169 -30.5t-169 30.5t-97.5 112.5t-34.5 227q0 107 18 177.5t57.5 110t93 55t132.5 15.5zM363 104q43 0 67.5 5t44.5 18t29 42.5t13.5 72.5t4.5 113q0 111 -13.5 160.5t-44.5 65
t-101 15.5q-54 0 -82 -6.5t-48 -33t-25.5 -72t-5.5 -129.5q0 -88 5.5 -135t25.5 -74.5t48 -34.5t82 -7z" />
    <glyph glyph-name="P" unicode="P" horiz-adv-x="629" 
d="M210 592v-226h189q38 0 54 25t16 90q0 64 -15 87.5t-53 23.5h-191zM210 261v-252q0 -9 -9 -9h-107q-9 0 -9 9v679q0 9 9 9h314q90 0 144 -54t54 -164q0 -119 -58 -168.5t-181 -49.5h-157z" />
    <glyph glyph-name="Q" unicode="Q" horiz-adv-x="724" 
d="M499 -210l-169 198q-94 4 -150.5 36.5t-87.5 113t-31 218.5q0 107 18 177.5t57.5 110t93 55t132.5 15.5t132.5 -15.5t93 -55t57.5 -110t18 -177.5q0 -172 -46 -254t-143 -104l127 -139q2 -4 2 -5q0 -4 -4 -8l-87 -57q-3 -3 -6 -3t-7 4zM363 104q43 0 67.5 5t44.5 18
t29 42.5t13.5 72.5t4.5 113q0 111 -13.5 160.5t-44.5 65t-101 15.5q-54 0 -82 -6.5t-48 -33t-25.5 -72t-5.5 -129.5q0 -88 5.5 -135t25.5 -74.5t48 -34.5t82 -7z" />
    <glyph glyph-name="R" unicode="R" horiz-adv-x="656" 
d="M210 261v-252q0 -9 -9 -9h-107q-9 0 -9 9v679q0 9 9 9h314q90 0 144 -54t54 -164q0 -177 -144 -202l161 -232q7 -9 -6 -15l-96 -50q-4 -2 -7 -2q-5 0 -6 4l-183 279h-115zM210 592v-226h189q39 0 54.5 23.5t15.5 91.5q0 66 -15 88.5t-53 22.5h-191z" />
    <glyph glyph-name="S" unicode="S" horiz-adv-x="618" 
d="M338 714q96 0 189 -22q9 -2 5 -14l-16 -98q-2 -9 -11 -6q-78 24 -174 24q-88 0 -110.5 -18t-22.5 -77q0 -51 22 -64.5t119 -24.5q122 -13 172 -61t50 -146q0 -120 -68 -170.5t-218 -50.5q-100 0 -194 21q-9 3 -5 14l16 98q1 4 4.5 6t5.5 1q83 -25 180 -25q89 0 115 19.5
t26 77.5q0 37 -8.5 53.5t-39 27.5t-99.5 18q-118 12 -167.5 55.5t-49.5 139.5q0 122 65 172t214 50z" />
    <glyph glyph-name="T" unicode="T" horiz-adv-x="556" 
d="M547 697q9 0 9 -9v-97q0 -9 -9 -9h-206v-573q0 -9 -9 -9h-108q-9 0 -9 9v573h-206q-9 0 -9 9v97q0 9 9 9h538z" />
    <glyph glyph-name="U" unicode="U" horiz-adv-x="692" 
d="M346 102q91 0 116.5 24.5t25.5 106.5v455q0 9 9 9h107q9 0 9 -9v-455q0 -127 -66 -187t-201 -60q-136 0 -202 60t-66 187v455q0 9 9 9h108q9 0 9 -9v-455q0 -82 25 -106.5t117 -24.5z" />
    <glyph glyph-name="V" unicode="V" horiz-adv-x="620" 
d="M221 9l-220 665q-1 1 -1 3q0 6 7 8l107 24h2q8 0 10 -7l168 -532l17 -83l18 85l167 530q2 7 10 7h2l105 -24q7 -2 7 -8v-1l-1 -2l-220 -665q-2 -9 -11 -9h-156q-9 0 -11 9z" />
    <glyph glyph-name="W" unicode="W" horiz-adv-x="921" 
d="M443 466l-86 -457q0 -9 -11 -9h-161q-9 0 -11 9l-158 665q-1 1 -1 3q0 6 7 8l107 24h2q8 0 10 -7l110 -504l17 -110l15 108l89 491q2 10 11 10h157q9 0 11 -10l90 -489l15 -110l16 110l110 504q2 7 10 7h2l105 -24q7 -2 7 -8v-1l-1 -2l-158 -665q-2 -9 -11 -9h-161
q-9 0 -11 9l-86 458l-18 123z" />
    <glyph glyph-name="X" unicode="X" horiz-adv-x="621" 
d="M18 57l212 292l-208 293q-2 1 -2 5q0 7 4 8l91 59q1 1 5 1q8 0 9 -4l157 -231l24 -46l25 46l156 231q3 4 10 4q4 0 5 -1l90 -58q5 -3 5 -9q0 -3 -2 -5l-209 -293l212 -289q6 -10 -3 -15l-89 -59q-4 -2 -5 -2q-7 0 -9 4l-156 224l-30 53l-29 -53l-156 -224q-2 -4 -9 -4
q-3 0 -5 2l-91 58q-4 1 -4 7q0 4 2 6z" />
    <glyph glyph-name="Y" unicode="Y" horiz-adv-x="607" 
d="M243 322l-231 320q-2 4 -2 6q0 6 4 7l90 58q2 2 6 2q6 0 10 -7l156 -222l30 -55l28 55l156 225q1 4 9 4q5 0 8 -3l87 -57q9 -5 3 -13l-228 -320v-313q0 -9 -9 -9h-108q-9 0 -9 9v313z" />
    <glyph glyph-name="Z" unicode="Z" horiz-adv-x="596" 
d="M36 82l357 501h-343q-9 0 -9 9v95q0 10 9 10h514q10 0 10 -11v-47q0 -13 -8 -24l-356 -501h354q10 0 10 -10v-95q0 -9 -10 -9h-526q-10 0 -10 11v47q0 11 8 24z" />
    <glyph glyph-name="bracketleft" unicode="[" horiz-adv-x="400" 
d="M90 -251v1027q0 9 9 9h267q9 0 9 -9v-92q0 -9 -9 -9h-155v-825h155q9 0 9 -9v-92q0 -9 -9 -9h-267q-9 0 -9 9z" />
    <glyph glyph-name="backslash" unicode="\" horiz-adv-x="509" 
d="M399 -125l-397 806q-5 8 4 12l93 40q8 6 12 -4l397 -807q3 -7 -4 -12l-93 -39q-8 -5 -12 4z" />
    <glyph glyph-name="bracketright" unicode="]" horiz-adv-x="400" 
d="M310 776v-1027q0 -9 -9 -9h-267q-9 0 -9 9v92q0 9 9 9h155v825h-155q-9 0 -9 9v92q0 9 9 9h267q9 0 9 -9z" />
    <glyph glyph-name="asciicircum" unicode="^" horiz-adv-x="552" 
d="M360 688l161 -391q0 -1 1 -3q0 -6 -7 -8l-100 -25h-2q-8 0 -10 7l-97 251l-31 100l-32 -100l-96 -251q-2 -7 -9 -7h-2l-99 25q-7 2 -7 8q0 2 1 3l161 391q2 9 11 9h146q9 0 11 -9z" />
    <glyph glyph-name="underscore" unicode="_" horiz-adv-x="451" 
d="M442 -166h-433q-9 0 -9 9v89q0 9 9 9h433q9 0 9 -9v-89q0 -9 -9 -9z" />
    <glyph glyph-name="grave" unicode="`" horiz-adv-x="481" 
d="M242 566l-133 123q-4 3 -3.5 8.5t4.5 6.5l72 32q10 4 17 -3l113 -125q2 -3 2 -7.5t-4 -5.5l-54 -30q-8 -3 -14 1z" />
    <glyph glyph-name="a" unicode="a" horiz-adv-x="573" 
d="M279 240q-63 0 -81.5 -15t-18.5 -62q0 -45 19 -59.5t81 -14.5q56 0 105 26v98q-51 27 -105 27zM272 524q116 0 173 -46t57 -164v-224l26 -58q4 -9 -4 -12l-93 -38q-8 -6 -12 3l-34 72q-19 -25 -61.5 -48t-83.5 -23q-102 0 -144.5 39.5t-42.5 135.5q0 95 42 132.5
t145 37.5q42 0 84 -21t60 -45v46q0 72 -22.5 93.5t-99.5 21.5q-81 0 -146 -19q-8 -3 -10 6l-15 81q-4 11 5 13q83 17 176 17z" />
    <glyph glyph-name="b" unicode="b" horiz-adv-x="590" 
d="M184 392v-275q49 -26 105 -26q42 0 62.5 4.5t34.5 23t17 47.5t3 88t-3 88.5t-17 48.5t-34.5 23t-62.5 4q-56 0 -105 -26zM66 9v700q0 9 9 9h100q9 0 9 -9v-256q22 28 64.5 49.5t84.5 21.5q108 0 154.5 -59.5t46.5 -210.5t-46.5 -209.5t-154.5 -58.5q-42 0 -84.5 21.5
t-64.5 49.5v-48q0 -9 -9 -9h-100q-9 0 -9 9z" />
    <glyph glyph-name="c" unicode="c" horiz-adv-x="462" 
d="M184 255q0 -77 9.5 -110.5t30 -43.5t70.5 -10q62 0 122 19q8 3 10 -6l15 -89q4 -11 -5 -13q-70 -16 -156 -16q-128 0 -176 57.5t-48 212.5q0 154 48 211t176 57q79 0 156 -16q8 -3 5 -13l-15 -89q-2 -9 -10 -6q-57 18 -122 18q-49 0 -70.5 -11t-30.5 -44t-9 -108z" />
    <glyph glyph-name="d" unicode="d" horiz-adv-x="593" 
d="M406 117v275q-49 26 -105 26q-42 0 -62.5 -4t-34.5 -23t-17 -48.5t-3 -88.5t3 -88t17 -47.5t34.5 -23t62.5 -4.5q56 0 105 26zM524 709v-700q0 -9 -9 -9h-100q-9 0 -9 9v48q-22 -28 -64.5 -49.5t-84.5 -21.5q-108 0 -154.5 58.5t-46.5 209.5t46.5 210.5t154.5 59.5
q42 0 84.5 -21.5t64.5 -49.5v256q0 9 9 9h100q9 0 9 -9z" />
    <glyph glyph-name="e" unicode="e" horiz-adv-x="549" 
d="M287 524q125 0 170 -57t45 -225q0 -13 -14 -13h-306q1 -96 22.5 -119.5t103.5 -23.5t145 20q8 3 10 -6l15 -84q3 -10 -5 -13q-77 -17 -176 -17q-136 0 -188.5 58t-52.5 212q0 151 52 209.5t179 58.5zM183 316h199q-2 72 -19 92t-80 20q-62 0 -80 -20.5t-20 -91.5z" />
    <glyph glyph-name="f" unicode="f" horiz-adv-x="355" 
d="M83 408h-69q-9 0 -9 9v83q0 9 9 9h69v34q0 99 44 141t123 42q62 0 125 -10q8 -3 5 -13l-15 -81q-2 -9 -10 -6q-41 12 -88 12q-43 0 -54.5 -16t-11.5 -68v-35h149q9 0 9 -9v-83q0 -9 -9 -9h-149v-399q0 -9 -9 -9h-100q-9 0 -9 9v399z" />
    <glyph glyph-name="g" unicode="g" horiz-adv-x="568" 
d="M272 -204q-131 0 -184 29.5t-53 98.5t75 115q-42 20 -42 72q0 41 46 80q-63 33 -63 144q0 98 51 136t163 38h268q9 0 9 -9v-78q0 -9 -9 -9h-98q49 -47 49 -100q0 -78 -52.5 -113.5t-154.5 -35.5q-70 0 -110 8l-2 -24q0 -27 18.5 -35t88.5 -8q149 0 201.5 -31.5
t52.5 -118.5q0 -89 -61.5 -124t-192.5 -35zM367 334q0 42 -13 79h-88q-59 0 -76 -14.5t-17 -66.5q0 -51 17 -66t74 -15q67 0 85 15.5t18 67.5zM278 14q-65 0 -108 8q-12 -29 -12 -65q0 -42 23.5 -55t93.5 -13q75 0 99.5 13t24.5 49q0 42 -20.5 52.5t-100.5 10.5z" />
    <glyph glyph-name="h" unicode="h" horiz-adv-x="581" 
d="M519 283v-274q0 -9 -9 -9h-100q-9 0 -9 9v267q0 95 -17.5 117.5t-91.5 22.5q-60 0 -105 -24v-383q0 -9 -9 -9h-100q-9 0 -9 9v700q0 9 9 9h100q9 0 9 -9v-256q24 28 65 49.5t90 21.5q98 0 137.5 -51.5t39.5 -189.5z" />
    <glyph glyph-name="i" unicode="i" horiz-adv-x="256" 
d="M128 717q41 0 52.5 -10t11.5 -48q0 -43 -11.5 -54t-52.5 -11t-52 11t-11 54q0 39 11 48.5t52 9.5zM187 500v-491q0 -9 -9 -9h-100q-9 0 -9 9v491q0 9 9 9h100q9 0 9 -9z" />
    <glyph glyph-name="j" unicode="j" horiz-adv-x="256" 
d="M-33 -99q64 4 82.5 25t18.5 92v482q0 9 9 9h100q9 0 9 -9v-482q0 -222 -202 -222q-10 0 -11 8l-12 86q-4 11 6 11zM128 717q41 0 52 -9.5t11 -48.5q0 -43 -11 -54t-52 -11q-42 0 -53 11t-11 54q0 39 11 48.5t53 9.5z" />
    <glyph glyph-name="k" unicode="k" horiz-adv-x="528" 
d="M184 709v-443l216 263q4 4 8 4q3 0 7 -2l85 -45q4 -4 4 -7q0 -2 -2 -6l-180 -200l195 -235q4 -7 -3 -11l-88 -48q-4 -2 -5 -2q-5 0 -8 4l-229 285v-257q0 -9 -9 -9h-100q-9 0 -9 9v700q0 9 9 9h100q9 0 9 -9z" />
    <glyph glyph-name="l" unicode="l" horiz-adv-x="260" 
d="M66 103v606q0 9 9 9h100q9 0 9 -9v-609l31 -68q6 -8 -3 -12l-95 -38q-8 -6 -12 3l-27 64q-12 26 -12 54z" />
    <glyph glyph-name="m" unicode="m" horiz-adv-x="855" 
d="M69 9v491q0 9 9 9h100q9 0 9 -9v-47q24 28 62 49.5t79 21.5q107 0 142 -88q31 38 74.5 63t86.5 25q85 0 124 -52t39 -184v-279q0 -9 -9 -9h-100q-9 0 -9 9v272q0 90 -15 112.5t-71 22.5q-58 0 -108 -28q8 -36 8 -100v-279q0 -9 -9 -9h-100q-9 0 -9 9v272q0 91 -13.5 113
t-67.5 22q-59 0 -104 -24v-383q0 -9 -9 -9h-100q-9 0 -9 9z" />
    <glyph glyph-name="n" unicode="n" horiz-adv-x="581" 
d="M187 500v-47q24 28 65 49.5t90 21.5q98 0 137.5 -51.5t39.5 -189.5v-274q0 -9 -9 -9h-100q-9 0 -9 9v267q0 95 -17.5 117.5t-91.5 22.5q-60 0 -105 -24v-383q0 -9 -9 -9h-100q-9 0 -9 9v491q0 9 9 9h100q9 0 9 -9z" />
    <glyph glyph-name="o" unicode="o" horiz-adv-x="595" 
d="M297 -14q-135 0 -188 58t-53 213q0 153 53.5 210t187.5 57q135 0 188.5 -57t53.5 -210q0 -155 -53.5 -213t-188.5 -58zM297 422q-41 0 -61 -4t-33.5 -23.5t-16.5 -49.5t-3 -90q0 -62 3 -92t16.5 -48.5t33 -22.5t61.5 -4t61.5 4t33 22.5t16.5 48.5t3 92q0 60 -3 90
t-16.5 49.5t-33.5 23.5t-61 4z" />
    <glyph glyph-name="p" unicode="p" horiz-adv-x="595" 
d="M187 392v-274q51 -27 105 -27q78 0 97.5 27t19.5 137t-19.5 137t-97.5 27q-54 0 -105 -27zM69 -183v683q0 9 9 9h100q9 0 9 -9v-48q22 28 64 50t84 22q109 0 155.5 -59t46.5 -210t-46.5 -210t-154.5 -59q-43 0 -85 21.5t-64 49.5v-240q0 -9 -9 -9h-100q-9 0 -9 9z" />
    <glyph glyph-name="q" unicode="q" horiz-adv-x="590" 
d="M406 118v274q-51 27 -105 27q-42 0 -62.5 -4.5t-34.5 -23t-17 -48t-3 -88.5t3 -88.5t17 -48t34.5 -23t62.5 -4.5q54 0 105 27zM524 501v-684q0 -9 -9 -9h-100q-9 0 -9 9v240q-22 -28 -64.5 -49.5t-84.5 -21.5q-108 0 -154.5 59t-46.5 210t46.5 210t154.5 59
q42 0 84.5 -22t64.5 -50v49q0 9 9 9h100q9 0 9 -9z" />
    <glyph glyph-name="r" unicode="r" horiz-adv-x="393" 
d="M332 524q41 0 70 -10q9 -2 6 -12l-15 -94q-2 -10 -11 -6q-43 12 -84 12q-50 0 -107 -23v-382q0 -9 -9 -9h-100q-9 0 -9 9v406l-28 62q-4 9 4 12l89 39q8 4 12 -4l34 -71q73 71 148 71z" />
    <glyph glyph-name="s" unicode="s" horiz-adv-x="505" 
d="M83 108q82 -24 162 -24q53 0 69 13t16 53q0 32 -16.5 43t-80.5 18q-97 9 -138.5 43t-41.5 107q0 85 51.5 124t160.5 39q84 0 165 -19q8 -3 5 -13l-15 -84q-2 -9 -10 -6q-63 23 -152 23q-51 0 -66.5 -12t-15.5 -50q0 -31 16.5 -41t81.5 -17q102 -10 140.5 -45t38.5 -106
q0 -89 -51.5 -128.5t-164.5 -39.5q-94 0 -174 19q-9 2 -5 13l15 84q2 9 10 6z" />
    <glyph glyph-name="t" unicode="t" horiz-adv-x="418" 
d="M278 94q40 0 85 12q8 2 10 -6l15 -88q3 -10 -5 -13q-52 -13 -123 -13q-86 0 -125.5 40.5t-39.5 148.5v233h-71q-9 0 -9 9v83q0 9 9 9h70v98q0 8 8 10l101 29q9 2 9 -7v-130h158q9 0 9 -9v-83q0 -9 -9 -9h-158v-229q0 -54 12 -69.5t54 -15.5z" />
    <glyph glyph-name="u" unicode="u" horiz-adv-x="583" 
d="M512 89l26 -57q3 -9 -4 -13l-93 -38q-8 -4 -12 4l-34 71q-24 -28 -66 -49.5t-90 -21.5q-98 0 -138 51.5t-40 189.5v274q0 9 9 9h100q9 0 9 -9v-267q0 -51 3 -76t16 -41t32.5 -19.5t59.5 -3.5q59 0 104 24v383q0 9 10 9h99q9 0 9 -9v-411z" />
    <glyph glyph-name="v" unicode="v" horiz-adv-x="503" 
d="M166 9l-161 476q-1 1 -1 3q0 6 7 8l104 25h2q7 0 9 -7l114 -373l12 -57l13 57l112 373q2 7 10 7h2l103 -25q7 -2 7 -7q0 -1 -1 -3l-162 -477q-2 -9 -10 -9h-150q-8 0 -10 9z" />
    <glyph glyph-name="w" unicode="w" horiz-adv-x="816" 
d="M476 500l89 -355l11 -59l12 59l96 369q2 7 10 7h1l101 -26q7 -1 7 -7v-2l-142 -477q-2 -9 -10 -9h-143q-9 0 -11 9l-83 319l-9 57l-9 -57l-77 -319q-2 -9 -10 -9h-143q-9 0 -11 9l-142 476q-1 1 -1 3q0 6 7 8l102 25h2q8 0 10 -7l99 -369l11 -59l11 59l87 355q2 9 11 9
h113q9 0 11 -9z" />
    <glyph glyph-name="x" unicode="x" horiz-adv-x="516" 
d="M26 48l156 209l-152 205q-2 2 -2 5q0 4 4 7l87 54q1 1 4 1q6 0 9 -4l103 -149l23 -42l22 42l104 149q1 4 8 4q4 0 5 -1l86 -54q4 -3 4 -6q0 -4 -2 -6l-152 -205l156 -209q2 -4 2 -5q0 -5 -4 -7l-86 -54q-2 -2 -5 -2q-6 0 -8 5l-103 147l-28 50l-26 -50l-103 -147
q-2 -5 -9 -5q-2 0 -4 2l-87 53q-8 5 -2 13z" />
    <glyph glyph-name="y" unicode="y" horiz-adv-x="503" 
d="M498 486l-180 -537q-28 -84 -75 -118.5t-124 -34.5q-10 0 -11 8l-13 86q-4 11 5 11q50 0 73 19t43 80h-28q-19 0 -25 18l-158 467q-4 9 6 11l104 25q9 2 11 -7l110 -350l15 -83l18 83l108 350q2 9 12 7l103 -25q9 -2 6 -10z" />
    <glyph glyph-name="z" unicode="z" horiz-adv-x="492" 
d="M37 53l256 355h-245q-9 0 -9 9v83q0 9 9 9h404q9 0 9 -10v-20q0 -12 -8 -23l-252 -355h253q9 0 9 -9v-83q0 -9 -9 -9h-415q-10 0 -10 10v20q0 12 8 23z" />
    <glyph glyph-name="braceleft" unicode="{" horiz-adv-x="395" 
d="M23 209v81q0 11 10 11h23q48 0 70.5 42.5t24.5 132.5q2 80 12.5 136.5t43.5 104t89 66.5q10 3 16 -1l66 -73q8 -8 -4 -11q-55 -16 -75.5 -74.5t-23.5 -170.5q-6 -192 -113 -204q107 -12 113 -204q3 -112 23.5 -170.5t75.5 -74.5q12 -3 4 -11l-66 -73q-6 -4 -16 -1
q-56 19 -89 66.5t-43.5 104t-12.5 136.5q-2 90 -24.5 132.5t-70.5 42.5h-23q-10 0 -10 12z" />
    <glyph glyph-name="bar" unicode="|" horiz-adv-x="365" 
d="M245 705v-899q0 -9 -9 -9h-107q-9 0 -9 9v899q0 9 9 9h107q9 0 9 -9z" />
    <glyph glyph-name="braceright" unicode="}" horiz-adv-x="395" 
d="M372 289v-81q0 -11 -10 -11h-23q-48 0 -70.5 -42.5t-24.5 -132.5q-2 -80 -12.5 -136.5t-43.5 -104t-89 -66.5q-10 -3 -16 1l-66 73q-8 8 4 11q55 16 75.5 74.5t23.5 170.5q6 192 113 204q-107 12 -113 204q-3 112 -23.5 170.5t-75.5 74.5q-12 3 -4 11l66 73q6 4 16 1
q56 -19 89 -66.5t43.5 -104t12.5 -136.5q2 -90 24.5 -132.5t70.5 -42.5h23q10 0 10 -12z" />
    <glyph glyph-name="asciitilde" unicode="~" horiz-adv-x="613" 
d="M184 357q-53 0 -80 -56q-1 -4 -7 -4q-3 0 -7 2l-46 81q-2 2 -2 6q0 7 4 11q14 42 54.5 63t80.5 21q41 0 125.5 -34t115.5 -34q57 0 86 56q1 4 8 4q4 0 6 -2l47 -81q2 -4 2 -6q0 -3 -4 -11q-18 -44 -60.5 -66t-83.5 -22q-43 0 -127 36t-112 36z" />
    <glyph glyph-name="nbspace" unicode="&#xa0;" horiz-adv-x="255" 
 />
    <glyph glyph-name="exclamdown" unicode="&#xa1;" horiz-adv-x="342" 
d="M225 292l10 -484q0 -9 -9 -9h-110q-9 0 -9 9l10 484q0 9 9 9h90q9 0 9 -9zM170 381q-44 0 -57 12t-13 56q0 48 13 61.5t57 13.5q45 0 58.5 -13.5t13.5 -61.5q0 -44 -13 -56t-59 -12z" />
    <glyph glyph-name="cent" unicode="&#xa2;" horiz-adv-x="604" 
d="M382 745v-93q58 -3 106 -14q8 -3 5 -13l-15 -89q-2 -9 -10 -6q-45 13 -86 16v-323q44 3 86 17q8 3 10 -6l15 -89q4 -11 -5 -13q-52 -14 -106 -15v-90q0 -9 -9 -9h-65q-9 0 -9 9v89q-108 7 -149.5 66t-41.5 204q0 144 41.5 202.5t149.5 64.5v92q0 9 9 9h65q9 0 9 -9z
M231 385q0 -89 13.5 -120t54.5 -38v315q-41 -7 -54.5 -39t-13.5 -118z" />
    <glyph glyph-name="sterling" unicode="&#xa3;" horiz-adv-x="604" 
d="M377 305h-140v-191h276q9 0 9 -9v-96q0 -9 -9 -9h-392q-9 0 -9 9v296h-38q-9 0 -9 9v78q0 9 9 9h38q0 127 29 195.5t84 93t155 24.5q69 0 156 -18q9 -2 5 -13l-17 -97q-2 -9 -10 -6q-59 17 -134 17q-40 0 -61.5 -3.5t-40 -13t-25.5 -32.5t-11 -56.5t-4 -90.5h139
q9 0 9 -9v-78q0 -9 -9 -9z" />
    <glyph glyph-name="currency" unicode="&#xa4;" horiz-adv-x="604" 
d="M320 81q-69 0 -109 15l-75 -108q-2 -3 -7 -4t-7 1l-92 59q-8 4 -2 13l83 113q-32 58 -32 183q0 122 32 179l-79 110q-2 3 -1.5 7.5t3.5 5.5l92 59q2 2 7 1t7 -4l71 -106q41 14 109 14q69 0 109 -15l73 107q6 9 14 3l91 -59q3 -2 4 -6t-2 -7l-79 -111q32 -58 32 -178
q0 -122 -32 -182l83 -114q7 -9 -2 -13l-90 -59q-8 -6 -15 3l-76 108q-40 -15 -110 -15zM320 517q-41 0 -61 -4t-33.5 -23t-16.5 -49t-3 -91t3 -91t16.5 -49t33.5 -23t61 -4t61 4t33.5 23t16.5 49t3 91t-3 91t-16.5 49t-33.5 23t-61 4z" />
    <glyph glyph-name="yen" unicode="&#xa5;" horiz-adv-x="604" 
d="M512 170h-146v-161q0 -9 -9 -9h-108q-9 0 -9 9v161h-144q-9 0 -9 9v83q0 8 9 8h144v52l-231 320q-5 10 2 13l91 59q3 2 7.5 1t6.5 -4l157 -225l30 -55l28 55l156 225q2 3 6.5 4t7.5 -1l91 -59q9 -4 2 -13l-228 -320v-52h146q9 0 9 -8v-83q0 -9 -9 -9z" />
    <glyph glyph-name="brokenbar" unicode="&#xa6;" horiz-adv-x="365" 
d="M245 705v-311q0 -9 -9 -9h-107q-9 0 -9 9v311q0 9 9 9h107q9 0 9 -9zM245 122v-311q0 -9 -9 -9h-107q-9 0 -9 9v311q0 9 9 9h107q9 0 9 -9z" />
    <glyph glyph-name="section" unicode="&#xa7;" horiz-adv-x="647" 
d="M93 -176l18 101q1 6 8 6h2q74 -23 163 -23q91 0 120 22.5t35 109.5l-66 4q-88 5 -143 20.5t-95 52.5t-57 100t-17 161q0 106 15.5 171t53.5 102t91.5 50t141.5 13q116 0 182 -19q11 -3 9 -13l-18 -101q-2 -6 -8 -6h-2q-76 22 -163 22q-92 0 -120.5 -22t-35.5 -110
q12 -2 67 -4q88 -5 143 -20.5t95 -52.5t57 -100t17 -161q0 -105 -15.5 -170t-53.5 -102t-91.5 -50t-141.5 -13q-116 0 -182 19q-11 3 -9 13zM373 161q27 -1 71 -5q-2 116 -31 149q-24 27 -97 35q-16 1 -52 4q-39 3 -61 5q1 -65 7.5 -100t28.5 -54.5t49 -25t85 -8.5z" />
    <glyph glyph-name="dieresis" unicode="&#xa8;" horiz-adv-x="450" 
d="M126 700q35 0 44.5 -8.5t9.5 -45.5q0 -42 -9.5 -52t-44.5 -10q-36 0 -46 10t-10 52q0 36 10 45t46 9zM325 700q35 0 44.5 -8.5t9.5 -45.5q0 -42 -9.5 -52t-44.5 -10q-36 0 -46 10t-10 52q0 36 10 45t46 9z" />
    <glyph glyph-name="copyright" unicode="&#xa9;" horiz-adv-x="855" 
d="M351 354q0 -88 18 -110t84 -22q56 0 107 16q3 1 6 -1t3 -5l14 -74q3 -10 -4 -12q-64 -16 -138 -16q-115 0 -159 48t-44 177q0 128 44.5 176t158.5 48q68 0 138 -16q7 -3 4 -12l-14 -75q0 -8 -9 -5q-51 16 -107 16q-66 0 -84 -23.5t-18 -109.5zM428 714q96 0 160 -16.5
t110.5 -57t67.5 -110t21 -175.5q0 -107 -21 -179t-67 -114t-111 -59t-160 -17q-96 0 -160.5 17t-111 59t-67.5 114t-21 179q0 106 21 175.5t67.5 110t111 57t160.5 16.5zM428 68q85 0 133 11t78.5 44.5t40 85.5t9.5 145q0 92 -9.5 144t-40 84t-78.5 42t-133 10
q-86 0 -133.5 -10t-78.5 -42t-40.5 -84t-9.5 -144q0 -93 9.5 -145t40 -85.5t79 -44.5t133.5 -11z" />
    <glyph glyph-name="ordfeminine" unicode="&#xaa;" horiz-adv-x="436" 
d="M213 577q-43 0 -55.5 -9.5t-12.5 -41.5q0 -30 13 -39.5t55 -9.5q38 0 71 17v67q-33 16 -71 16zM208 801q90 0 134.5 -35.5t44.5 -126.5v-167l17 -41q7 -11 -6 -17l-69 -29q-12 -6 -16 4l-22 47q-19 -18 -49 -33t-58 -15q-79 0 -112 31t-33 106q0 73 32.5 102.5
t111.5 29.5q58 0 101 -39v22q0 48 -15.5 63t-68.5 15q-62 0 -108 -15q-11 -5 -15 8l-9 63q-3 12 8 15q67 12 132 12z" />
    <glyph glyph-name="guillemotleft" unicode="&#xab;" horiz-adv-x="697" 
d="M317 -1l-280 254q-5 5 -5 13v69q0 8 5 13l282 255q7 7 10 0l55 -72q4 -8 -3 -13l-222 -215l222 -215q6 -6 3 -13l-57 -76q-4 -6 -10 0zM594 -1l-280 254q-5 5 -5 13v69q0 8 5 13l282 255q7 7 10 0l55 -72q4 -8 -3 -13l-222 -215l222 -215q6 -6 3 -13l-57 -76q-4 -6 -10 0
z" />
    <glyph glyph-name="logicalnot" unicode="&#xac;" horiz-adv-x="534" 
d="M50 328h433q9 0 9 -9v-310q0 -9 -9 -9h-103q-9 0 -9 9v212h-321q-9 0 -9 9v89q0 9 9 9z" />
    <glyph glyph-name="registered" unicode="&#xae;" horiz-adv-x="527" 
d="M481 483q0 -130 -51 -181t-167 -51t-167 51t-51 181t51 180t167 50t167 -49.5t51 -180.5zM418 483q0 111 -30 145t-125 34q-94 0 -124 -34t-30 -145q0 -108 30.5 -144t123.5 -36t124 36t31 144zM227 446v-90q0 -7 -7 -7h-48q-7 0 -7 7v260q0 7 7 7h123q81 0 81 -86
q0 -68 -53 -82l57 -81q2 -4 2 -6q0 -5 -6 -8l-38 -18l-7 -2q-5 0 -7 5l-66 101h-31zM227 572v-74h61q12 0 16 7.5t4 31.5q0 21 -4.5 28t-14.5 7h-62z" />
    <glyph glyph-name="macron" unicode="&#xaf;" horiz-adv-x="528" 
d="M394 596h-263q-9 0 -9 9v68q0 9 9 9h263q9 0 9 -9v-68q0 -9 -9 -9z" />
    <glyph glyph-name="macron" unicode="&#x2c9;" horiz-adv-x="528" 
d="M394 596h-263q-9 0 -9 9v68q0 9 9 9h263q9 0 9 -9v-68q0 -9 -9 -9z" />
    <glyph glyph-name="degree" unicode="&#xb0;" horiz-adv-x="505" 
d="M253 714q97 0 147.5 -52.5t50.5 -187.5q0 -136 -51 -193t-147 -57t-147.5 57t-51.5 193q0 135 51 187.5t148 52.5zM253 330q47 0 63.5 27.5t16.5 115.5q0 87 -16 112t-64 25t-64 -25t-16 -112t16.5 -115t63.5 -28z" />
    <glyph glyph-name="plusminus" unicode="&#xb1;" horiz-adv-x="571" 
d="M230 174v180h-180q-9 0 -9 9v88q0 9 9 9h180v179q0 9 9 9h93q9 0 9 -9v-179h179q9 0 9 -9v-88q0 -9 -9 -9h-179v-180q0 -9 -9 -9h-93q-9 0 -9 9zM520 0h-470q-9 0 -9 9v88q0 9 9 9h470q9 0 9 -9v-88q0 -9 -9 -9z" />
    <glyph glyph-name="twosuperior" unicode="&#xb2;" 
d="M199 765q-61 0 -108 -15q-14 -5 -18 12l-12 65q-5 16 7 20q57 15 137 15q106 0 149 -32.5t43 -107.5q0 -57 -22 -95t-85 -81l-78 -52h174q11 0 11 -11v-73q0 -11 -11 -11h-317q-11 0 -11 12v69q0 12 12 20l154 106q37 25 48 45t11 60q0 32 -16 43t-68 11z" />
    <glyph glyph-name="threesuperior" unicode="&#xb3;" 
d="M196 768q-66 0 -113 -15q-14 -5 -18 12l-10 62q-5 16 7 20q57 15 137 15q104 0 147 -29.5t43 -92.5q0 -78 -75 -102q82 -20 82 -111q0 -73 -46.5 -106.5t-150.5 -33.5q-82 0 -139 15q-8 2 -5 13l12 71q2 12 15 8q46 -12 101 -12q59 0 75.5 10t16.5 46q0 32 -15 43t-54 11
h-72q-12 0 -12 11v64q0 12 12 12h73q34 0 45.5 10.5t11.5 39.5q0 24 -13.5 31.5t-54.5 7.5z" />
    <glyph glyph-name="acute" unicode="&#xb4;" horiz-adv-x="481" 
d="M310 689l-133 -123q-6 -4 -14 -1l-54 30q-4 1 -4 5.5t2 7.5l113 125q7 7 17 3l72 -32q4 -1 4.5 -6.5t-3.5 -8.5z" />
    <glyph glyph-name="mu" unicode="&#xb5;" horiz-adv-x="581" 
d="M512 89l26 -57q1 -2 1 -5q0 -5 -17.5 -13.5t-47 -19t-33.5 -12.5q-2 -2 -5 -2q-5 0 -7 5l-34 71q-25 -29 -69.5 -49.5t-98.5 -20.5q-31 0 -56 15l5 -194q0 -8 -8 -8h-102q-8 0 -8 8l3 419v274q0 9 9 9h100q9 0 9 -9v-267q0 -68 8 -96t29 -37t74 -9q55 0 104 26v383
q0 9 10 9h99q9 0 9 -9v-411z" />
    <glyph glyph-name="mu" unicode="&#x3bc;" horiz-adv-x="581" 
d="M512 89l26 -57q1 -2 1 -5q0 -5 -17.5 -13.5t-47 -19t-33.5 -12.5q-2 -2 -5 -2q-5 0 -7 5l-34 71q-25 -29 -69.5 -49.5t-98.5 -20.5q-31 0 -56 15l5 -194q0 -8 -8 -8h-102q-8 0 -8 8l3 419v274q0 9 9 9h100q9 0 9 -9v-267q0 -68 8 -96t29 -37t74 -9q55 0 104 26v383
q0 9 10 9h99q9 0 9 -9v-411z" />
    <glyph glyph-name="paragraph" unicode="&#xb6;" horiz-adv-x="629" 
d="M220 697h315q9 0 9 -9v-634q0 -134 -48.5 -195.5t-157.5 -61.5q-7 0 -9 7l-18 87q-1 1 -1 3q0 6 6 8q64 4 83 24.5t19 91.5v243h-192q-98 0 -150.5 54.5t-52.5 163.5q0 110 54 164t143 54z" />
    <glyph glyph-name="periodcentered" unicode="&#xb7;" horiz-adv-x="285" 
d="M141 370q46 0 59 -12t13 -56q0 -48 -13 -61.5t-59 -13.5q-44 0 -57 13.5t-13 61.5q0 44 13 56t57 12z" />
    <glyph glyph-name="periodcentered" unicode="&#x2219;" horiz-adv-x="285" 
d="M141 370q46 0 59 -12t13 -56q0 -48 -13 -61.5t-59 -13.5q-44 0 -57 13.5t-13 61.5q0 44 13 56t57 12z" />
    <glyph glyph-name="cedilla" unicode="&#xb8;" horiz-adv-x="641" 
d="M241 -180l17 40q3 6 9 4q37 -12 91 -12q31 0 38 5t7 23q0 17 -17.5 21t-94.5 4q-4 0 -7 3.5t-1 7.5l35 84h59v-43q62 0 88 -18t26 -58q0 -45 -31.5 -65.5t-108.5 -20.5q-73 0 -107 15q-6 2 -3 10z" />
    <glyph glyph-name="onesuperior" unicode="&#xb9;" 
d="M72 762l153 85q7 5 21 5h79q12 0 12 -13v-428q0 -12 -12 -12h-87q-11 0 -11 12v330l-110 -64q-10 -5 -14 2l-34 69q-2 4 -2 6q0 5 5 8z" />
    <glyph glyph-name="ordmasculine" unicode="&#xba;" horiz-adv-x="457" 
d="M228 713q-52 0 -64.5 -19t-12.5 -99q0 -82 12.5 -100t64.5 -18q53 0 65 18t12 100q0 81 -12 99.5t-65 18.5zM228 388q-104 0 -145 44.5t-41 163.5q0 118 41 161.5t145 43.5q105 0 146 -43.5t41 -161.5q0 -119 -41 -163.5t-146 -44.5z" />
    <glyph glyph-name="guillemotright" unicode="&#xbb;" horiz-adv-x="697" 
d="M378 603l280 -254q5 -5 5 -13v-69q0 -8 -5 -13l-282 -255q-7 -7 -10 0l-55 72q-4 8 3 13l222 215l-222 215q-6 6 -3 13l57 76q4 6 10 0zM101 603l280 -254q5 -5 5 -13v-69q0 -8 -5 -13l-282 -255q-7 -7 -10 0l-55 72q-4 8 3 13l222 215l-222 215q-6 6 -3 13l57 76
q4 6 10 0z" />
    <glyph glyph-name="onequarter" unicode="&#xbc;" horiz-adv-x="1018" 
d="M791 683l-481 -721q-3 -5 -8 -5l-5 2l-81 42q-6 4 -6 7q0 1 1 2l481 722q3 4 8 4q3 0 4 -1l84 -39q4 -3 4 -8q0 -3 -1 -5zM72 612l153 85q7 5 21 5h79q12 0 12 -13v-428q0 -12 -12 -12h-87q-11 0 -11 12v330l-110 -64q-10 -5 -14 2l-34 69q-2 4 -2 6q0 5 5 8zM881 439
v-255h53q13 0 13 -10v-65q0 -12 -13 -12h-53v-84q0 -13 -12 -13h-79q-12 0 -12 13v84h-205q-12 0 -12 12v59q0 7 5 17l169 259q5 9 17 9h116q13 0 13 -14zM673 184h105v149l4 43l-16 -40z" />
    <glyph glyph-name="onehalf" unicode="&#xbd;" horiz-adv-x="1051" 
d="M777 683l-481 -721q-3 -5 -8 -5l-5 2l-81 42q-6 4 -6 7q0 1 1 2l481 722q3 4 8 4q3 0 4 -1l84 -39q4 -3 4 -8q0 -3 -1 -5zM62 612l153 85q8 5 21 5h79q12 0 12 -13v-428q0 -12 -12 -12h-87q-11 0 -11 12v330l-110 -64q-10 -5 -14 2l-34 69q-2 4 -2 6q0 5 5 8zM803 366
q-61 0 -108 -15q-14 -5 -18 12l-12 65q-5 16 7 20q57 15 137 15q106 0 149 -32.5t43 -107.5q0 -57 -22 -95t-85 -81l-78 -52h174q11 0 11 -11v-73q0 -11 -11 -11h-317q-11 0 -11 12v69q0 12 12 20l154 106q37 25 48 45t11 60q0 32 -16 43t-68 11z" />
    <glyph glyph-name="threequarters" unicode="&#xbe;" horiz-adv-x="1015" 
d="M813 683l-481 -721q-3 -5 -8 -5l-5 2l-81 42q-6 4 -6 7q0 1 1 2l481 722q3 4 8 4q3 0 4 -1l84 -39q4 -3 4 -8q0 -3 -1 -5zM199 618q-66 0 -113 -15q-14 -5 -18 12l-10 62q-5 16 7 20q57 15 137 15q104 0 147 -29.5t43 -92.5q0 -78 -75 -102q82 -20 82 -111
q0 -73 -46.5 -106.5t-150.5 -33.5q-82 0 -139 15q-8 2 -5 13l12 71q2 12 15 8q46 -12 101 -12q59 0 75.5 10t16.5 46q0 32 -15 43t-54 11h-72q-12 0 -12 11v64q0 12 12 12h73q34 0 45.5 10.5t11.5 39.5q0 24 -13.5 31.5t-54.5 7.5zM898 439v-255h53q13 0 13 -10v-65
q0 -12 -13 -12h-53v-84q0 -13 -12 -13h-79q-12 0 -12 13v84h-205q-12 0 -12 12v59q0 7 5 17l169 259q5 9 17 9h116q13 0 13 -14zM690 184h105v149l4 43l-16 -40z" />
    <glyph glyph-name="questiondown" unicode="&#xbf;" horiz-adv-x="453" 
d="M262 381q-46 0 -59 12t-13 56q0 48 13 61.5t59 13.5q44 0 57 -13.5t13 -61.5q0 -44 -13 -56t-57 -12zM46 -6q0 117 89 211l102 107q7 7 13 2l81 -57q7 -5 1 -13l-97 -100q-39 -42 -47 -63.5t-8 -77.5q0 -55 16 -71t73 -16q68 0 129 20q8 3 10 -6l16 -98q4 -12 -5 -14
q-79 -19 -161 -19q-115 0 -163.5 44t-48.5 151z" />
    <glyph glyph-name="Agrave" unicode="&#xc0;" horiz-adv-x="620" 
d="M439 171h-261l-55 -176q-2 -10 -12 -8l-104 25q-9 2 -6 10l218 665q2 10 11 10h159q10 0 12 -10l218 -664q3 -9 -6 -11l-105 -25q-11 -2 -13 8zM407 276l-79 252l-19 89l-19 -89l-80 -252h197zM339 743l-144 118q-4 3 -3.5 8.5t4.5 6.5l74 27q10 4 17 -3l124 -119
q2 -3 2 -7.5t-4 -5.5l-56 -26q-8 -3 -14 1z" />
    <glyph glyph-name="Aacute" unicode="&#xc1;" horiz-adv-x="620" 
d="M439 171h-261l-55 -176q-2 -10 -12 -8l-104 25q-9 2 -6 10l218 665q2 10 11 10h159q10 0 12 -10l218 -664q3 -9 -6 -11l-105 -25q-11 -2 -13 8zM407 276l-79 252l-19 89l-19 -89l-80 -252h197zM441 861l-144 -118q-6 -4 -14 -1l-56 26q-4 1 -4 5.5t2 7.5l124 119
q7 7 17 3l74 -27q4 -1 4.5 -6.5t-3.5 -8.5z" />
    <glyph glyph-name="Acircumflex" unicode="&#xc2;" horiz-adv-x="620" 
d="M439 171h-261l-55 -176q-2 -10 -12 -8l-104 25q-9 2 -6 10l218 665q2 10 11 10h159q10 0 12 -10l218 -664q3 -9 -6 -11l-105 -25q-11 -2 -13 8zM407 276l-79 252l-19 89l-19 -89l-80 -252h197zM280 898h59q14 0 22 -8l109 -91q3 -3 1.5 -7t-5.5 -6l-53 -37q-6 -3 -13 4
l-90 75l-90 -75q-8 -8 -13 -4l-53 37q-4 2 -5.5 6t1.5 7l108 91q8 8 22 8z" />
    <glyph glyph-name="Atilde" unicode="&#xc3;" horiz-adv-x="620" 
d="M439 171h-261l-55 -176q-2 -10 -12 -8l-104 25q-9 2 -6 10l218 665q2 10 11 10h159q10 0 12 -10l218 -664q3 -9 -6 -11l-105 -25q-11 -2 -13 8zM407 276l-79 252l-19 89l-19 -89l-80 -252h197zM240 795q-37 0 -60 -44q-1 -4 -8 -4q-4 0 -6 2l-38 49q-2 2 -2 6q0 6 4 11
q50 66 104 66q36 0 78.5 -23.5t65.5 -23.5q38 0 64 44q2 5 8 5q3 0 6 -3l36 -46q2 -2 2 -7t-4 -11q-45 -68 -109 -68q-36 0 -78.5 23.5t-62.5 23.5z" />
    <glyph glyph-name="Adieresis" unicode="&#xc4;" horiz-adv-x="620" 
d="M439 171h-261l-55 -176q-2 -10 -12 -8l-104 25q-9 2 -6 10l218 665q2 10 11 10h159q10 0 12 -10l218 -664q3 -9 -6 -11l-105 -25q-11 -2 -13 8zM407 276l-79 252l-19 89l-19 -89l-80 -252h197zM203 873q37 0 47.5 -10t10.5 -46q0 -40 -10.5 -51t-47.5 -11q-38 0 -48.5 11
t-10.5 51q0 36 10.5 46t48.5 10zM418 873q37 0 47.5 -10t10.5 -46q0 -40 -10.5 -51t-47.5 -11q-38 0 -48.5 11t-10.5 51q0 36 10.5 46t48.5 10z" />
    <glyph glyph-name="Aring" unicode="&#xc5;" horiz-adv-x="620" 
d="M310 894q120 0 120 -104q0 -70 -57 -93h16q10 0 12 -10l218 -664q3 -9 -6 -11l-105 -25q-11 -2 -13 8l-56 176h-261l-55 -176q-2 -10 -12 -8l-104 25q-9 2 -6 10l218 665q2 10 11 10h17q-57 23 -57 93q0 104 120 104zM407 276l-79 252l-19 89l-19 -89l-80 -252h197z
M310 834q-30 0 -39.5 -9t-9.5 -36q0 -26 10 -35.5t39 -9.5q31 0 41 9.5t10 35.5q0 27 -9.5 36t-41.5 9z" />
    <glyph glyph-name="AE" unicode="&#xc6;" horiz-adv-x="872" 
d="M836 0h-432q-9 0 -9 9v162h-265l-109 -176q-6 -10 -15 -8l-105 25q-9 2 -3 10l423 665q3 10 14 10h501q9 0 9 -9v-90q0 -9 -9 -9h-316v-173h251q9 0 9 -9v-89q0 -9 -9 -9h-251v-201h316q9 0 9 -9v-90q0 -9 -9 -9zM353 528l-159 -252h201v333z" />
    <glyph glyph-name="Ccedilla" unicode="&#xc7;" horiz-adv-x="588" 
d="M243 -180l17 40q3 6 9 4q37 -12 91 -12q31 0 38 5t7 23q0 17 -17.5 21t-94.5 4q-4 0 -7 3.5t-1 7.5l30 72q-92 7 -146 42t-81 113.5t-27 211.5q0 108 17 178t56.5 110t95.5 55.5t143 15.5q95 0 186 -20q9 -2 5 -13l-18 -100q-2 -9 -10 -6q-76 22 -163 22
q-59 0 -88.5 -6.5t-50.5 -33.5t-26.5 -72t-5.5 -131q0 -59 2.5 -97.5t10.5 -68t18.5 -45t31.5 -25.5t45 -12.5t63 -2.5q92 0 163 22q8 3 10 -6l18 -101q3 -10 -5 -13q-83 -17 -180 -19v-29q62 0 88 -18t26 -58q0 -45 -31.5 -65.5t-108.5 -20.5q-73 0 -107 15q-6 2 -3 10z
" />
    <glyph glyph-name="Egrave" unicode="&#xc8;" horiz-adv-x="562" 
d="M526 0h-432q-9 0 -9 9v679q0 9 9 9h432q9 0 9 -9v-90q0 -9 -9 -9h-316v-173h251q9 0 9 -9v-89q0 -9 -9 -9h-251v-201h316q9 0 9 -9v-90q0 -9 -9 -9zM345 743l-144 118q-4 3 -3.5 8.5t4.5 6.5l74 27q10 4 17 -3l124 -119q2 -3 2 -7.5t-4 -5.5l-56 -26q-8 -3 -14 1z" />
    <glyph glyph-name="Eacute" unicode="&#xc9;" horiz-adv-x="562" 
d="M526 0h-432q-9 0 -9 9v679q0 9 9 9h432q9 0 9 -9v-90q0 -9 -9 -9h-316v-173h251q9 0 9 -9v-89q0 -9 -9 -9h-251v-201h316q9 0 9 -9v-90q0 -9 -9 -9zM443 861l-144 -118q-6 -4 -14 -1l-56 26q-4 1 -4 5.5t2 7.5l124 119q7 7 17 3l74 -27q4 -1 4.5 -6.5t-3.5 -8.5z" />
    <glyph glyph-name="Ecircumflex" unicode="&#xca;" horiz-adv-x="562" 
d="M526 0h-432q-9 0 -9 9v679q0 9 9 9h432q9 0 9 -9v-90q0 -9 -9 -9h-316v-173h251q9 0 9 -9v-89q0 -9 -9 -9h-251v-201h316q9 0 9 -9v-90q0 -9 -9 -9zM287 898h59q14 0 22 -8l109 -91q3 -3 1.5 -7t-5.5 -6l-53 -37q-6 -3 -13 4l-90 75l-90 -75q-8 -8 -13 -4l-53 37
q-4 2 -5.5 6t1.5 7l108 91q8 8 22 8z" />
    <glyph glyph-name="Edieresis" unicode="&#xcb;" horiz-adv-x="562" 
d="M526 0h-432q-9 0 -9 9v679q0 9 9 9h432q9 0 9 -9v-90q0 -9 -9 -9h-316v-173h251q9 0 9 -9v-89q0 -9 -9 -9h-251v-201h316q9 0 9 -9v-90q0 -9 -9 -9zM205 873q37 0 47.5 -10t10.5 -46q0 -40 -10.5 -51t-47.5 -11q-38 0 -48.5 11t-10.5 51q0 36 10.5 46t48.5 10zM420 873
q37 0 47.5 -10t10.5 -46q0 -40 -10.5 -51t-47.5 -11q-38 0 -48.5 11t-10.5 51q0 36 10.5 46t48.5 10z" />
    <glyph glyph-name="Igrave" unicode="&#xcc;" horiz-adv-x="295" 
d="M210 688v-679q0 -9 -9 -9h-107q-9 0 -9 9v679q0 9 9 9h107q9 0 9 -9zM151 743l-144 118q-4 3 -3.5 8.5t4.5 6.5l74 27q10 4 17 -3l124 -119q2 -3 2 -7.5t-4 -5.5l-56 -26q-8 -3 -14 1z" />
    <glyph glyph-name="Iacute" unicode="&#xcd;" horiz-adv-x="295" 
d="M210 688v-679q0 -9 -9 -9h-107q-9 0 -9 9v679q0 9 9 9h107q9 0 9 -9zM289 861l-144 -118q-6 -4 -14 -1l-56 26q-4 1 -4 5.5t2 7.5l124 119q7 7 17 3l74 -27q4 -1 4.5 -6.5t-3.5 -8.5z" />
    <glyph glyph-name="Icircumflex" unicode="&#xce;" horiz-adv-x="295" 
d="M210 688v-679q0 -9 -9 -9h-107q-9 0 -9 9v679q0 9 9 9h107q9 0 9 -9zM117 898h59q14 0 22 -8l109 -91q3 -3 1.5 -7t-5.5 -6l-53 -37q-6 -3 -13 4l-90 75l-90 -75q-8 -8 -13 -4l-53 37q-4 2 -5.5 6t1.5 7l108 91q8 8 22 8z" />
    <glyph glyph-name="Idieresis" unicode="&#xcf;" horiz-adv-x="295" 
d="M210 688v-679q0 -9 -9 -9h-107q-9 0 -9 9v679q0 9 9 9h107q9 0 9 -9zM40 873q37 0 47.5 -10t10.5 -46q0 -40 -10.5 -51t-47.5 -11q-38 0 -48.5 11t-10.5 51q0 36 10.5 46t48.5 10zM255 873q37 0 47.5 -10t10.5 -46q0 -40 -10.5 -51t-47.5 -11q-38 0 -48.5 11t-10.5 51
q0 36 10.5 46t48.5 10z" />
    <glyph glyph-name="Eth" unicode="&#xd0;" horiz-adv-x="693" 
d="M94 0q-9 0 -9 9v304h-50q-9 0 -9 9v68q0 9 9 9h50v289q0 9 9 9h221q115 0 181.5 -30t100.5 -105.5t34 -210.5q0 -198 -73 -274.5t-243 -76.5h-221zM318 313h-108v-204h110q40 0 65.5 3t46 13.5t31 26t17.5 44.5t9 64t2 90q0 86 -4.5 129t-25 70t-50.5 33t-91 6h-110v-189
h108q9 0 9 -9v-68q0 -9 -9 -9z" />
    <glyph glyph-name="Ntilde" unicode="&#xd1;" horiz-adv-x="714" 
d="M242 688l227 -423l42 -101l-7 108v416q0 9 9 9h107q9 0 9 -9v-679q-2 -9 -9 -9h-132q-11 0 -16 9l-227 423l-42 98l7 -106v-415q0 -9 -9 -9h-107q-9 0 -9 9v679q2 9 9 9h132q12 0 16 -9zM288 795q-37 0 -60 -44q-1 -4 -8 -4q-4 0 -6 2l-38 49q-2 2 -2 6q0 6 4 11
q50 66 104 66q36 0 78.5 -23.5t65.5 -23.5q38 0 64 44q2 5 8 5q3 0 6 -3l36 -46q2 -2 2 -7t-4 -11q-45 -68 -109 -68q-36 0 -78.5 23.5t-62.5 23.5z" />
    <glyph glyph-name="Ograve" unicode="&#xd2;" horiz-adv-x="724" 
d="M362 714q79 0 132.5 -15.5t93 -55t57.5 -110t18 -177.5q0 -145 -34.5 -227t-97.5 -112.5t-169 -30.5t-169 30.5t-97.5 112.5t-34.5 227q0 107 18 177.5t57.5 110t93 55t132.5 15.5zM363 104q43 0 67.5 5t44.5 18t29 42.5t13.5 72.5t4.5 113q0 111 -13.5 160.5t-44.5 65
t-101 15.5q-54 0 -82 -6.5t-48 -33t-25.5 -72t-5.5 -129.5q0 -88 5.5 -135t25.5 -74.5t48 -34.5t82 -7zM406 743l-144 118q-4 3 -3.5 8.5t4.5 6.5l74 27q10 4 17 -3l124 -119q2 -3 2 -7.5t-4 -5.5l-56 -26q-8 -3 -14 1z" />
    <glyph glyph-name="Oacute" unicode="&#xd3;" horiz-adv-x="724" 
d="M362 714q79 0 132.5 -15.5t93 -55t57.5 -110t18 -177.5q0 -145 -34.5 -227t-97.5 -112.5t-169 -30.5t-169 30.5t-97.5 112.5t-34.5 227q0 107 18 177.5t57.5 110t93 55t132.5 15.5zM363 104q43 0 67.5 5t44.5 18t29 42.5t13.5 72.5t4.5 113q0 111 -13.5 160.5t-44.5 65
t-101 15.5q-54 0 -82 -6.5t-48 -33t-25.5 -72t-5.5 -129.5q0 -88 5.5 -135t25.5 -74.5t48 -34.5t82 -7zM477 861l-144 -118q-6 -4 -14 -1l-56 26q-4 1 -4 5.5t2 7.5l124 119q7 7 17 3l74 -27q4 -1 4.5 -6.5t-3.5 -8.5z" />
    <glyph glyph-name="Ocircumflex" unicode="&#xd4;" horiz-adv-x="724" 
d="M362 714q79 0 132.5 -15.5t93 -55t57.5 -110t18 -177.5q0 -145 -34.5 -227t-97.5 -112.5t-169 -30.5t-169 30.5t-97.5 112.5t-34.5 227q0 107 18 177.5t57.5 110t93 55t132.5 15.5zM363 104q43 0 67.5 5t44.5 18t29 42.5t13.5 72.5t4.5 113q0 111 -13.5 160.5t-44.5 65
t-101 15.5q-54 0 -82 -6.5t-48 -33t-25.5 -72t-5.5 -129.5q0 -88 5.5 -135t25.5 -74.5t48 -34.5t82 -7zM332 898h59q14 0 22 -8l109 -91q3 -3 1.5 -7t-5.5 -6l-53 -37q-6 -3 -13 4l-90 75l-90 -75q-8 -8 -13 -4l-53 37q-4 2 -5.5 6t1.5 7l108 91q8 8 22 8z" />
    <glyph glyph-name="Otilde" unicode="&#xd5;" horiz-adv-x="724" 
d="M362 714q79 0 132.5 -15.5t93 -55t57.5 -110t18 -177.5q0 -145 -34.5 -227t-97.5 -112.5t-169 -30.5t-169 30.5t-97.5 112.5t-34.5 227q0 107 18 177.5t57.5 110t93 55t132.5 15.5zM363 104q43 0 67.5 5t44.5 18t29 42.5t13.5 72.5t4.5 113q0 111 -13.5 160.5t-44.5 65
t-101 15.5q-54 0 -82 -6.5t-48 -33t-25.5 -72t-5.5 -129.5q0 -88 5.5 -135t25.5 -74.5t48 -34.5t82 -7zM291 795q-37 0 -60 -44q-1 -4 -8 -4q-4 0 -6 2l-38 49q-2 2 -2 6q0 6 4 11q50 66 104 66q36 0 78.5 -23.5t65.5 -23.5q38 0 64 44q2 5 8 5q3 0 6 -3l36 -46q2 -2 2 -7
t-4 -11q-45 -68 -109 -68q-36 0 -78.5 23.5t-62.5 23.5z" />
    <glyph glyph-name="Odieresis" unicode="&#xd6;" horiz-adv-x="724" 
d="M362 714q79 0 132.5 -15.5t93 -55t57.5 -110t18 -177.5q0 -145 -34.5 -227t-97.5 -112.5t-169 -30.5t-169 30.5t-97.5 112.5t-34.5 227q0 107 18 177.5t57.5 110t93 55t132.5 15.5zM363 104q43 0 67.5 5t44.5 18t29 42.5t13.5 72.5t4.5 113q0 111 -13.5 160.5t-44.5 65
t-101 15.5q-54 0 -82 -6.5t-48 -33t-25.5 -72t-5.5 -129.5q0 -88 5.5 -135t25.5 -74.5t48 -34.5t82 -7zM255 873q37 0 47.5 -10t10.5 -46q0 -40 -10.5 -51t-47.5 -11q-38 0 -48.5 11t-10.5 51q0 36 10.5 46t48.5 10zM470 873q37 0 47.5 -10t10.5 -46q0 -40 -10.5 -51
t-47.5 -11q-38 0 -48.5 11t-10.5 51q0 36 10.5 46t48.5 10z" />
    <glyph glyph-name="multiply" unicode="&#xd7;" horiz-adv-x="571" 
d="M408 71l-123 129l-125 -129q-2 -2 -7 -2q-4 0 -6 2l-65 66q-3 1 -3 6q0 3 3 6l127 128l-130 123q-2 2 -2 6q0 3 2 7l66 65q3 3 6 3q5 0 6 -3l127 -126l127 126q1 3 6 3q3 0 6 -3l66 -65q2 -4 2 -7q0 -2 -2 -6l-127 -127l124 -124q3 -3 3 -6q0 -5 -3 -6l-65 -66
q-2 -2 -6 -2q-5 0 -7 2z" />
    <glyph glyph-name="Oslash" unicode="&#xd8;" horiz-adv-x="724" 
d="M625 718l-43 -73q81 -79 81 -289q0 -145 -34.5 -227t-97.5 -112.5t-169 -30.5q-88 0 -137 25l-44 -77q-4 -9 -12 -4l-71 34q-4 1 -5 5t1 6l48 83q-81 83 -81 298q0 107 18 177.5t57.5 110t93 55t132.5 15.5q86 0 135 -24l40 70q4 10 12 4l72 -34q7 -4 4 -12zM202 355
q0 -106 12 -160l225 386q-17 15 -76 15q-54 0 -82 -6.5t-48 -33t-25.5 -72t-5.5 -129.5zM363 104q43 0 67.5 5t44.5 18t29 42.5t13.5 72.5t4.5 113q0 99 -12 152l-226 -386q18 -17 79 -17z" />
    <glyph glyph-name="Ugrave" unicode="&#xd9;" horiz-adv-x="692" 
d="M346 102q91 0 116.5 24.5t25.5 106.5v455q0 9 9 9h107q9 0 9 -9v-455q0 -127 -66 -187t-201 -60q-136 0 -202 60t-66 187v455q0 9 9 9h108q9 0 9 -9v-455q0 -82 25 -106.5t117 -24.5zM370 743l-144 118q-4 3 -3.5 8.5t4.5 6.5l74 27q10 4 17 -3l124 -119q2 -3 2 -7.5
t-4 -5.5l-56 -26q-8 -3 -14 1z" />
    <glyph glyph-name="Uacute" unicode="&#xda;" horiz-adv-x="692" 
d="M346 102q91 0 116.5 24.5t25.5 106.5v455q0 9 9 9h107q9 0 9 -9v-455q0 -127 -66 -187t-201 -60q-136 0 -202 60t-66 187v455q0 9 9 9h108q9 0 9 -9v-455q0 -82 25 -106.5t117 -24.5zM481 861l-144 -118q-6 -4 -14 -1l-56 26q-4 1 -4 5.5t2 7.5l124 119q7 7 17 3l74 -27
q4 -1 4.5 -6.5t-3.5 -8.5z" />
    <glyph glyph-name="Ucircumflex" unicode="&#xdb;" horiz-adv-x="692" 
d="M346 102q91 0 116.5 24.5t25.5 106.5v455q0 9 9 9h107q9 0 9 -9v-455q0 -127 -66 -187t-201 -60q-136 0 -202 60t-66 187v455q0 9 9 9h108q9 0 9 -9v-455q0 -82 25 -106.5t117 -24.5zM316 898h59q14 0 22 -8l109 -91q3 -3 1.5 -7t-5.5 -6l-53 -37q-6 -3 -13 4l-90 75
l-90 -75q-8 -8 -13 -4l-53 37q-4 2 -5.5 6t1.5 7l108 91q8 8 22 8z" />
    <glyph glyph-name="Udieresis" unicode="&#xdc;" horiz-adv-x="692" 
d="M346 102q91 0 116.5 24.5t25.5 106.5v455q0 9 9 9h107q9 0 9 -9v-455q0 -127 -66 -187t-201 -60q-136 0 -202 60t-66 187v455q0 9 9 9h108q9 0 9 -9v-455q0 -82 25 -106.5t117 -24.5zM239 873q37 0 47.5 -10t10.5 -46q0 -40 -10.5 -51t-47.5 -11q-38 0 -48.5 11t-10.5 51
q0 36 10.5 46t48.5 10zM454 873q37 0 47.5 -10t10.5 -46q0 -40 -10.5 -51t-47.5 -11q-38 0 -48.5 11t-10.5 51q0 36 10.5 46t48.5 10z" />
    <glyph glyph-name="Yacute" unicode="&#xdd;" horiz-adv-x="607" 
d="M243 322l-231 320q-2 4 -2 6q0 6 4 7l90 58q2 2 6 2q6 0 10 -7l156 -222l30 -55l28 55l156 225q1 4 9 4q5 0 8 -3l87 -57q9 -5 3 -13l-228 -320v-313q0 -9 -9 -9h-108q-9 0 -9 9v313zM441 861l-144 -118q-6 -4 -14 -1l-56 26q-4 1 -4 5.5t2 7.5l124 119q7 7 17 3l74 -27
q4 -1 4.5 -6.5t-3.5 -8.5z" />
    <glyph glyph-name="Thorn" unicode="&#xde;" horiz-adv-x="629" 
d="M210 688v-107h198q90 0 144 -54t54 -164q0 -109 -52.5 -163.5t-150.5 -54.5h-193v-136q0 -9 -9 -9h-107q-9 0 -9 9v679q0 9 9 9h107q9 0 9 -9zM401 476h-191v-226h189q38 0 54 25t16 90q0 63 -15 87t-53 24z" />
    <glyph glyph-name="germandbls" unicode="&#xdf;" horiz-adv-x="629" 
d="M312 605q-70 0 -91.5 -17t-21.5 -68v-511q0 -9 -9 -9h-97q-9 0 -9 9v520q0 100 51.5 142.5t176.5 42.5q139 0 191.5 -42.5t52.5 -133.5q0 -74 -29.5 -116.5t-108.5 -52.5q85 -6 119.5 -51.5t34.5 -126.5q0 -112 -60 -151.5t-222 -39.5q-9 0 -9 9v84q0 9 9 9q96 0 123 18
t27 85q0 68 -19.5 88t-91.5 20h-39q-9 0 -9 9v84q0 9 9 9h38q65 0 84 20t19 79q0 55 -21.5 73t-97.5 18z" />
    <glyph glyph-name="agrave" unicode="&#xe0;" horiz-adv-x="573" 
d="M279 240q-63 0 -81.5 -15t-18.5 -62q0 -45 19 -59.5t81 -14.5q56 0 105 26v98q-51 27 -105 27zM272 524q116 0 173 -46t57 -164v-224l26 -58q4 -9 -4 -12l-93 -38q-8 -6 -12 3l-34 72q-19 -25 -61.5 -48t-83.5 -23q-102 0 -144.5 39.5t-42.5 135.5q0 95 42 132.5
t145 37.5q42 0 84 -21t60 -45v46q0 72 -22.5 93.5t-99.5 21.5q-81 0 -146 -19q-8 -3 -10 6l-15 81q-4 11 5 13q83 17 176 17zM299 566l-133 123q-4 3 -3.5 8.5t4.5 6.5l72 32q10 4 17 -3l113 -125q2 -3 2 -7.5t-4 -5.5l-54 -30q-8 -3 -14 1z" />
    <glyph glyph-name="aacute" unicode="&#xe1;" horiz-adv-x="573" 
d="M279 240q-63 0 -81.5 -15t-18.5 -62q0 -45 19 -59.5t81 -14.5q56 0 105 26v98q-51 27 -105 27zM272 524q116 0 173 -46t57 -164v-224l26 -58q4 -9 -4 -12l-93 -38q-8 -6 -12 3l-34 72q-19 -25 -61.5 -48t-83.5 -23q-102 0 -144.5 39.5t-42.5 135.5q0 95 42 132.5
t145 37.5q42 0 84 -21t60 -45v46q0 72 -22.5 93.5t-99.5 21.5q-81 0 -146 -19q-8 -3 -10 6l-15 81q-4 11 5 13q83 17 176 17zM415 689l-133 -123q-6 -4 -14 -1l-54 30q-4 1 -4 5.5t2 7.5l113 125q7 7 17 3l72 -32q4 -1 4.5 -6.5t-3.5 -8.5z" />
    <glyph glyph-name="acircumflex" unicode="&#xe2;" horiz-adv-x="573" 
d="M279 240q-63 0 -81.5 -15t-18.5 -62q0 -45 19 -59.5t81 -14.5q56 0 105 26v98q-51 27 -105 27zM272 524q116 0 173 -46t57 -164v-224l26 -58q4 -9 -4 -12l-93 -38q-8 -6 -12 3l-34 72q-19 -25 -61.5 -48t-83.5 -23q-102 0 -144.5 39.5t-42.5 135.5q0 95 42 132.5
t145 37.5q42 0 84 -21t60 -45v46q0 72 -22.5 93.5t-99.5 21.5q-81 0 -146 -19q-8 -3 -10 6l-15 81q-4 11 5 13q83 17 176 17zM258 729h59q14 0 22 -8l104 -103q3 -3 1.5 -7t-5.5 -6l-53 -35q-6 -3 -13 4l-85 83l-85 -83q-8 -8 -13 -4l-53 35q-4 2 -5.5 6t1.5 7l103 103
q8 8 22 8z" />
    <glyph glyph-name="atilde" unicode="&#xe3;" horiz-adv-x="573" 
d="M279 240q-63 0 -81.5 -15t-18.5 -62q0 -45 19 -59.5t81 -14.5q56 0 105 26v98q-51 27 -105 27zM272 524q116 0 173 -46t57 -164v-224l26 -58q4 -9 -4 -12l-93 -38q-8 -6 -12 3l-34 72q-19 -25 -61.5 -48t-83.5 -23q-102 0 -144.5 39.5t-42.5 135.5q0 95 42 132.5
t145 37.5q42 0 84 -21t60 -45v46q0 72 -22.5 93.5t-99.5 21.5q-81 0 -146 -19q-8 -3 -10 6l-15 81q-4 11 5 13q83 17 176 17zM220 624q-29 0 -53 -45q-2 -4 -8 -4q-5 0 -6 3l-40 45q-6 8 2 18q58 69 105 69q29 0 68.5 -23.5t61.5 -23.5q33 0 59 44q2 4 7 4q4 0 7 -3l37 -40
q10 -10 -2 -24q-45 -68 -104 -68q-37 0 -77.5 24t-56.5 24z" />
    <glyph glyph-name="adieresis" unicode="&#xe4;" horiz-adv-x="573" 
d="M279 240q-63 0 -81.5 -15t-18.5 -62q0 -45 19 -59.5t81 -14.5q56 0 105 26v98q-51 27 -105 27zM272 524q116 0 173 -46t57 -164v-224l26 -58q4 -9 -4 -12l-93 -38q-8 -6 -12 3l-34 72q-19 -25 -61.5 -48t-83.5 -23q-102 0 -144.5 39.5t-42.5 135.5q0 95 42 132.5
t145 37.5q42 0 84 -21t60 -45v46q0 72 -22.5 93.5t-99.5 21.5q-81 0 -146 -19q-8 -3 -10 6l-15 81q-4 11 5 13q83 17 176 17zM191 700q35 0 44.5 -8.5t9.5 -45.5q0 -42 -9.5 -52t-44.5 -10q-36 0 -46 10t-10 52q0 36 10 45t46 9zM390 700q35 0 44.5 -8.5t9.5 -45.5
q0 -42 -9.5 -52t-44.5 -10q-36 0 -46 10t-10 52q0 36 10 45t46 9z" />
    <glyph glyph-name="aring" unicode="&#xe5;" horiz-adv-x="573" 
d="M279 240q-63 0 -81.5 -15t-18.5 -62q0 -45 19 -59.5t81 -14.5q56 0 105 26v98q-51 27 -105 27zM272 524q116 0 173 -46t57 -164v-224l26 -58q4 -9 -4 -12l-93 -38q-8 -6 -12 3l-34 72q-19 -25 -61.5 -48t-83.5 -23q-102 0 -144.5 39.5t-42.5 135.5q0 95 42 132.5
t145 37.5q42 0 84 -21t60 -45v46q0 72 -22.5 93.5t-99.5 21.5q-81 0 -146 -19q-8 -3 -10 6l-15 81q-4 11 5 13q83 17 176 17zM289 756q120 0 120 -104q0 -103 -120 -103q-121 0 -121 103q0 104 121 104zM289 696q-32 0 -40.5 -7.5t-8.5 -37.5q0 -29 8.5 -36.5t40.5 -7.5
q33 0 41 7.5t8 36.5q0 31 -8 38t-41 7z" />
    <glyph glyph-name="ae" unicode="&#xe6;" horiz-adv-x="874" 
d="M611 524q125 0 170.5 -57t45.5 -225q0 -13 -14 -13h-307q2 -96 23 -119.5t104 -23.5q82 0 144 20q8 3 10 -6l15 -84q3 -10 -5 -13q-76 -17 -176 -17q-155 0 -198 76q-76 -76 -183 -76q-102 0 -144.5 39.5t-42.5 135.5q0 95 42 132.5t145 37.5q42 0 84 -21t60 -45v46
q0 72 -22.5 93.5t-99.5 21.5q-81 0 -146 -19q-8 -3 -10 6l-15 81q-4 11 5 13q83 17 176 17q127 0 174 -61q44 61 165 61zM279 240q-63 0 -81.5 -15t-18.5 -62q0 -45 19 -59.5t81 -14.5q56 0 105 26v98q-51 27 -105 27zM507 316h200q-2 72 -19 92t-80 20q-62 0 -80.5 -20.5
t-20.5 -91.5z" />
    <glyph glyph-name="ccedilla" unicode="&#xe7;" horiz-adv-x="462" 
d="M170 -180l17 40q3 6 9 4q38 -12 91 -12q31 0 38 5t7 23q0 17 -17.5 21t-94.5 4q-4 0 -7 3.5t-1 7.5l29 71q-105 7 -145 66t-40 203q0 154 48 211t176 57q79 0 156 -16q8 -3 5 -13l-15 -89q-2 -9 -10 -6q-57 18 -122 18q-49 0 -70.5 -11t-30.5 -44t-9 -108
q0 -77 9.5 -110.5t30 -43.5t70.5 -10q62 0 122 19q8 3 10 -6l15 -89q4 -11 -5 -13q-60 -13 -130 -15v-30q62 0 88 -18t26 -58q0 -45 -31.5 -65.5t-108.5 -20.5q-72 0 -107 15q-6 2 -3 10z" />
    <glyph glyph-name="egrave" unicode="&#xe8;" horiz-adv-x="549" 
d="M287 524q125 0 170 -57t45 -225q0 -13 -14 -13h-306q1 -96 22.5 -119.5t103.5 -23.5t145 20q8 3 10 -6l15 -84q3 -10 -5 -13q-77 -17 -176 -17q-136 0 -188.5 58t-52.5 212q0 151 52 209.5t179 58.5zM183 316h199q-2 72 -19 92t-80 20q-62 0 -80 -20.5t-20 -91.5z
M315 566l-133 123q-4 3 -3.5 8.5t4.5 6.5l72 32q10 4 17 -3l113 -125q2 -3 2 -7.5t-4 -5.5l-54 -30q-8 -3 -14 1z" />
    <glyph glyph-name="eacute" unicode="&#xe9;" horiz-adv-x="549" 
d="M287 524q125 0 170 -57t45 -225q0 -13 -14 -13h-306q1 -96 22.5 -119.5t103.5 -23.5t145 20q8 3 10 -6l15 -84q3 -10 -5 -13q-77 -17 -176 -17q-136 0 -188.5 58t-52.5 212q0 151 52 209.5t179 58.5zM183 316h199q-2 72 -19 92t-80 20q-62 0 -80 -20.5t-20 -91.5z
M408 689l-133 -123q-6 -4 -14 -1l-54 30q-4 1 -4 5.5t2 7.5l113 125q7 7 17 3l72 -32q4 -1 4.5 -6.5t-3.5 -8.5z" />
    <glyph glyph-name="ecircumflex" unicode="&#xea;" horiz-adv-x="549" 
d="M287 524q125 0 170 -57t45 -225q0 -13 -14 -13h-306q1 -96 22.5 -119.5t103.5 -23.5t145 20q8 3 10 -6l15 -84q3 -10 -5 -13q-77 -17 -176 -17q-136 0 -188.5 58t-52.5 212q0 151 52 209.5t179 58.5zM183 316h199q-2 72 -19 92t-80 20q-62 0 -80 -20.5t-20 -91.5z
M254 729h59q14 0 22 -8l104 -103q3 -3 1.5 -7t-5.5 -6l-53 -35q-6 -3 -13 4l-85 83l-85 -83q-8 -8 -13 -4l-53 35q-4 2 -5.5 6t1.5 7l103 103q8 8 22 8z" />
    <glyph glyph-name="edieresis" unicode="&#xeb;" horiz-adv-x="549" 
d="M287 524q125 0 170 -57t45 -225q0 -13 -14 -13h-306q1 -96 22.5 -119.5t103.5 -23.5t145 20q8 3 10 -6l15 -84q3 -10 -5 -13q-77 -17 -176 -17q-136 0 -188.5 58t-52.5 212q0 151 52 209.5t179 58.5zM183 316h199q-2 72 -19 92t-80 20q-62 0 -80 -20.5t-20 -91.5z
M187 700q35 0 44.5 -8.5t9.5 -45.5q0 -42 -9.5 -52t-44.5 -10q-36 0 -46 10t-10 52q0 36 10 45t46 9zM386 700q35 0 44.5 -8.5t9.5 -45.5q0 -42 -9.5 -52t-44.5 -10q-36 0 -46 10t-10 52q0 36 10 45t46 9z" />
    <glyph glyph-name="igrave" unicode="&#xec;" horiz-adv-x="256" 
d="M131 566l-133 123q-4 3 -3.5 8.5t4.5 6.5l72 32q10 4 17 -3l113 -125q2 -3 2 -7.5t-4 -5.5l-54 -30q-8 -3 -14 1zM187 500v-491q0 -9 -9 -9h-100q-9 0 -9 9v491q0 9 9 9h100q9 0 9 -9z" />
    <glyph glyph-name="iacute" unicode="&#xed;" horiz-adv-x="256" 
d="M257 689l-133 -123q-6 -4 -14 -1l-54 30q-4 1 -4 5.5t2 7.5l113 125q7 7 17 3l72 -32q4 -1 4.5 -6.5t-3.5 -8.5zM187 500v-491q0 -9 -9 -9h-100q-9 0 -9 9v491q0 9 9 9h100q9 0 9 -9z" />
    <glyph glyph-name="icircumflex" unicode="&#xee;" horiz-adv-x="256" 
d="M187 500v-491q0 -9 -9 -9h-100q-9 0 -9 9v491q0 9 9 9h100q9 0 9 -9zM98 729h59q14 0 22 -8l104 -103q3 -3 1.5 -7t-5.5 -6l-53 -35q-6 -3 -13 4l-85 83l-85 -83q-8 -8 -13 -4l-53 35q-4 2 -5.5 6t1.5 7l103 103q8 8 22 8z" />
    <glyph glyph-name="idieresis" unicode="&#xef;" horiz-adv-x="256" 
d="M30 700q35 0 44.5 -8.5t9.5 -45.5q0 -42 -9.5 -52t-44.5 -10q-36 0 -46 10t-10 52q0 36 10 45t46 9zM229 700q35 0 44.5 -8.5t9.5 -45.5q0 -42 -9.5 -52t-44.5 -10q-36 0 -46 10t-10 52q0 36 10 45t46 9zM187 500v-491q0 -9 -9 -9h-100q-9 0 -9 9v491q0 9 9 9h100
q9 0 9 -9z" />
    <glyph glyph-name="eth" unicode="&#xf0;" horiz-adv-x="604" 
d="M444 651l-65 -38l89 -93q93 -99 93 -283q0 -138 -58 -194.5t-202 -56.5q-137 0 -196 53.5t-59 180.5q0 113 48.5 162.5t152.5 49.5q106 0 169 -71q-10 47 -51 92l-95 99l-84 -49q-9 -3 -12 3l-37 55q-5 6 3 12l71 40l-45 48q-6 8 1 13l93 54q7 6 13 -2l48 -51l78 45
q8 5 12 -4l37 -53q4 -9 -4 -12zM421 309q-48 21 -116 21q-85 0 -106 -20.5t-21 -96.5q0 -72 21 -92.5t101 -20.5q82 0 105 21t23 102q0 59 -7 86z" />
    <glyph glyph-name="ntilde" unicode="&#xf1;" horiz-adv-x="581" 
d="M187 500v-47q24 28 65 49.5t90 21.5q98 0 137.5 -51.5t39.5 -189.5v-274q0 -9 -9 -9h-100q-9 0 -9 9v267q0 95 -17.5 117.5t-91.5 22.5q-60 0 -105 -24v-383q0 -9 -9 -9h-100q-9 0 -9 9v491q0 9 9 9h100q9 0 9 -9zM224 624q-29 0 -53 -45q-2 -4 -8 -4q-5 0 -6 3l-40 45
q-6 8 2 18q58 69 105 69q29 0 68.5 -23.5t61.5 -23.5q33 0 59 44q2 4 7 4q4 0 7 -3l37 -40q10 -10 -2 -24q-45 -68 -104 -68q-37 0 -77.5 24t-56.5 24z" />
    <glyph glyph-name="ograve" unicode="&#xf2;" horiz-adv-x="595" 
d="M297 -14q-135 0 -188 58t-53 213q0 153 53.5 210t187.5 57q135 0 188.5 -57t53.5 -210q0 -155 -53.5 -213t-188.5 -58zM297 422q-41 0 -61 -4t-33.5 -23.5t-16.5 -49.5t-3 -90q0 -62 3 -92t16.5 -48.5t33 -22.5t61.5 -4t61.5 4t33 22.5t16.5 48.5t3 92q0 60 -3 90
t-16.5 49.5t-33.5 23.5t-61 4zM332 566l-133 123q-4 3 -3.5 8.5t4.5 6.5l72 32q10 4 17 -3l113 -125q2 -3 2 -7.5t-4 -5.5l-54 -30q-8 -3 -14 1z" />
    <glyph glyph-name="oacute" unicode="&#xf3;" horiz-adv-x="595" 
d="M297 -14q-135 0 -188 58t-53 213q0 153 53.5 210t187.5 57q135 0 188.5 -57t53.5 -210q0 -155 -53.5 -213t-188.5 -58zM297 422q-41 0 -61 -4t-33.5 -23.5t-16.5 -49.5t-3 -90q0 -62 3 -92t16.5 -48.5t33 -22.5t61.5 -4t61.5 4t33 22.5t16.5 48.5t3 92q0 60 -3 90
t-16.5 49.5t-33.5 23.5t-61 4zM414 689l-133 -123q-6 -4 -14 -1l-54 30q-4 1 -4 5.5t2 7.5l113 125q7 7 17 3l72 -32q4 -1 4.5 -6.5t-3.5 -8.5z" />
    <glyph glyph-name="ocircumflex" unicode="&#xf4;" horiz-adv-x="595" 
d="M297 -14q-135 0 -188 58t-53 213q0 153 53.5 210t187.5 57q135 0 188.5 -57t53.5 -210q0 -155 -53.5 -213t-188.5 -58zM297 422q-41 0 -61 -4t-33.5 -23.5t-16.5 -49.5t-3 -90q0 -62 3 -92t16.5 -48.5t33 -22.5t61.5 -4t61.5 4t33 22.5t16.5 48.5t3 92q0 60 -3 90
t-16.5 49.5t-33.5 23.5t-61 4zM267 729h59q14 0 22 -8l104 -103q3 -3 1.5 -7t-5.5 -6l-53 -35q-6 -3 -13 4l-85 83l-85 -83q-8 -8 -13 -4l-53 35q-4 2 -5.5 6t1.5 7l103 103q8 8 22 8z" />
    <glyph glyph-name="otilde" unicode="&#xf5;" horiz-adv-x="595" 
d="M297 -14q-135 0 -188 58t-53 213q0 153 53.5 210t187.5 57q135 0 188.5 -57t53.5 -210q0 -155 -53.5 -213t-188.5 -58zM297 422q-41 0 -61 -4t-33.5 -23.5t-16.5 -49.5t-3 -90q0 -62 3 -92t16.5 -48.5t33 -22.5t61.5 -4t61.5 4t33 22.5t16.5 48.5t3 92q0 60 -3 90
t-16.5 49.5t-33.5 23.5t-61 4zM230 624q-29 0 -53 -45q-2 -4 -8 -4q-5 0 -6 3l-40 45q-6 8 2 18q58 69 105 69q29 0 68.5 -23.5t61.5 -23.5q33 0 59 44q2 4 7 4q4 0 7 -3l37 -40q10 -10 -2 -24q-45 -68 -104 -68q-37 0 -77.5 24t-56.5 24z" />
    <glyph glyph-name="odieresis" unicode="&#xf6;" horiz-adv-x="595" 
d="M297 -14q-135 0 -188 58t-53 213q0 153 53.5 210t187.5 57q135 0 188.5 -57t53.5 -210q0 -155 -53.5 -213t-188.5 -58zM297 422q-41 0 -61 -4t-33.5 -23.5t-16.5 -49.5t-3 -90q0 -62 3 -92t16.5 -48.5t33 -22.5t61.5 -4t61.5 4t33 22.5t16.5 48.5t3 92q0 60 -3 90
t-16.5 49.5t-33.5 23.5t-61 4zM199 700q35 0 44.5 -8.5t9.5 -45.5q0 -42 -9.5 -52t-44.5 -10q-36 0 -46 10t-10 52q0 36 10 45t46 9zM398 700q35 0 44.5 -8.5t9.5 -45.5q0 -42 -9.5 -52t-44.5 -10q-36 0 -46 10t-10 52q0 36 10 45t46 9z" />
    <glyph glyph-name="divide" unicode="&#xf7;" horiz-adv-x="571" 
d="M520 252h-470q-9 0 -9 9v88q0 9 9 9h470q9 0 9 -9v-88q0 -9 -9 -9zM286 551q39 0 51.5 -11t12.5 -50q0 -43 -12.5 -55.5t-51.5 -12.5t-51 12.5t-12 55.5q0 39 12 50t51 11zM286 187q39 0 51.5 -11t12.5 -50q0 -43 -12.5 -55.5t-51.5 -12.5t-51 12.5t-12 55.5q0 39 12 50
t51 11z" />
    <glyph glyph-name="oslash" unicode="&#xf8;" horiz-adv-x="595" 
d="M534 541l-48 -75q53 -59 53 -209q0 -155 -53.5 -213t-188.5 -58q-68 0 -113 13l-44 -69q-4 -9 -12 -4l-66 28q-8 6 -4 11l50 79q-52 59 -52 213q0 153 53.5 210t187.5 57q63 0 109 -12l47 75q3 8 12 4l65 -39q9 -2 4 -11zM411 255q0 59 -4 90l-163 -254q14 -3 53 -3
q42 0 61.5 4t33 22.5t16.5 48.5t3 92zM297 422q-41 0 -61 -4t-33.5 -23.5t-16.5 -49.5t-3 -90q0 -66 3 -88l160 252q-19 3 -49 3z" />
    <glyph glyph-name="ugrave" unicode="&#xf9;" horiz-adv-x="583" 
d="M512 89l26 -57q3 -9 -4 -13l-93 -38q-8 -4 -12 4l-34 71q-24 -28 -66 -49.5t-90 -21.5q-98 0 -138 51.5t-40 189.5v274q0 9 9 9h100q9 0 9 -9v-267q0 -51 3 -76t16 -41t32.5 -19.5t59.5 -3.5q59 0 104 24v383q0 9 10 9h99q9 0 9 -9v-411zM309 566l-133 123q-4 3 -3.5 8.5
t4.5 6.5l72 32q10 4 17 -3l113 -125q2 -3 2 -7.5t-4 -5.5l-54 -30q-8 -3 -14 1z" />
    <glyph glyph-name="uacute" unicode="&#xfa;" horiz-adv-x="583" 
d="M512 89l26 -57q3 -9 -4 -13l-93 -38q-8 -4 -12 4l-34 71q-24 -28 -66 -49.5t-90 -21.5q-98 0 -138 51.5t-40 189.5v274q0 9 9 9h100q9 0 9 -9v-267q0 -51 3 -76t16 -41t32.5 -19.5t59.5 -3.5q59 0 104 24v383q0 9 10 9h99q9 0 9 -9v-411zM406 689l-133 -123q-6 -4 -14 -1
l-54 30q-4 1 -4 5.5t2 7.5l113 125q7 7 17 3l72 -32q4 -1 4.5 -6.5t-3.5 -8.5z" />
    <glyph glyph-name="ucircumflex" unicode="&#xfb;" horiz-adv-x="583" 
d="M512 89l26 -57q3 -9 -4 -13l-93 -38q-8 -4 -12 4l-34 71q-24 -28 -66 -49.5t-90 -21.5q-98 0 -138 51.5t-40 189.5v274q0 9 9 9h100q9 0 9 -9v-267q0 -51 3 -76t16 -41t32.5 -19.5t59.5 -3.5q59 0 104 24v383q0 9 10 9h99q9 0 9 -9v-411zM263 729h59q14 0 22 -8l104 -103
q3 -3 1.5 -7t-5.5 -6l-53 -35q-6 -3 -13 4l-85 83l-85 -83q-8 -8 -13 -4l-53 35q-4 2 -5.5 6t1.5 7l103 103q8 8 22 8z" />
    <glyph glyph-name="udieresis" unicode="&#xfc;" horiz-adv-x="583" 
d="M512 89l26 -57q3 -9 -4 -13l-93 -38q-8 -4 -12 4l-34 71q-24 -28 -66 -49.5t-90 -21.5q-98 0 -138 51.5t-40 189.5v274q0 9 9 9h100q9 0 9 -9v-267q0 -51 3 -76t16 -41t32.5 -19.5t59.5 -3.5q59 0 104 24v383q0 9 10 9h99q9 0 9 -9v-411zM192 700q35 0 44.5 -8.5
t9.5 -45.5q0 -42 -9.5 -52t-44.5 -10q-36 0 -46 10t-10 52q0 36 10 45t46 9zM391 700q35 0 44.5 -8.5t9.5 -45.5q0 -42 -9.5 -52t-44.5 -10q-36 0 -46 10t-10 52q0 36 10 45t46 9z" />
    <glyph glyph-name="yacute" unicode="&#xfd;" horiz-adv-x="503" 
d="M498 486l-180 -537q-28 -84 -75 -118.5t-124 -34.5q-10 0 -11 8l-13 86q-4 11 5 11q50 0 73 19t43 80h-28q-19 0 -25 18l-158 467q-4 9 6 11l104 25q9 2 11 -7l110 -350l15 -83l18 83l108 350q2 9 12 7l103 -25q9 -2 6 -10zM385 689l-133 -123q-6 -4 -14 -1l-54 30
q-4 1 -4 5.5t2 7.5l113 125q7 7 17 3l72 -32q4 -1 4.5 -6.5t-3.5 -8.5z" />
    <glyph glyph-name="thorn" unicode="&#xfe;" horiz-adv-x="595" 
d="M187 392v-274q51 -27 105 -27q78 0 97.5 27t19.5 137t-19.5 137t-97.5 27q-54 0 -105 -27zM69 -189v885q0 9 9 9h100q9 0 9 -9v-244q22 28 64 50t84 22q109 0 155.5 -59t46.5 -210t-46.5 -210t-154.5 -59q-43 0 -85 21.5t-64 49.5v-246q0 -9 -9 -9h-100q-9 0 -9 9z" />
    <glyph glyph-name="ydieresis" unicode="&#xff;" horiz-adv-x="503" 
d="M498 486l-180 -537q-28 -84 -75 -118.5t-124 -34.5q-10 0 -11 8l-13 86q-4 11 5 11q50 0 73 19t43 80h-28q-19 0 -25 18l-158 467q-4 9 6 11l104 25q9 2 11 -7l110 -350l15 -83l18 83l108 350q2 9 12 7l103 -25q9 -2 6 -10zM153 700q35 0 44.5 -8.5t9.5 -45.5
q0 -42 -9.5 -52t-44.5 -10q-36 0 -46 10t-10 52q0 36 10 45t46 9zM352 700q35 0 44.5 -8.5t9.5 -45.5q0 -42 -9.5 -52t-44.5 -10q-36 0 -46 10t-10 52q0 36 10 45t46 9z" />
    <glyph glyph-name="Amacron" unicode="&#x100;" horiz-adv-x="620" 
d="M439 171h-261l-55 -176q-2 -10 -12 -8l-104 25q-9 2 -6 10l218 665q2 10 11 10h159q10 0 12 -10l218 -664q3 -9 -6 -11l-105 -25q-11 -2 -13 8zM407 276l-79 252l-19 89l-19 -89l-80 -252h197zM444 765h-268q-9 0 -9 9v66q0 9 9 9h268q9 0 9 -9v-66q0 -9 -9 -9z" />
    <glyph glyph-name="amacron" unicode="&#x101;" horiz-adv-x="573" 
d="M279 240q-63 0 -81.5 -15t-18.5 -62q0 -45 19 -59.5t81 -14.5q56 0 105 26v98q-51 27 -105 27zM272 524q116 0 173 -46t57 -164v-224l26 -58q4 -9 -4 -12l-93 -38q-8 -6 -12 3l-34 72q-19 -25 -61.5 -48t-83.5 -23q-102 0 -144.5 39.5t-42.5 135.5q0 95 42 132.5
t145 37.5q42 0 84 -21t60 -45v46q0 72 -22.5 93.5t-99.5 21.5q-81 0 -146 -19q-8 -3 -10 6l-15 81q-4 11 5 13q83 17 176 17zM421 596h-263q-9 0 -9 9v68q0 9 9 9h263q9 0 9 -9v-68q0 -9 -9 -9z" />
    <glyph glyph-name="Abreve" unicode="&#x102;" horiz-adv-x="620" 
d="M439 171h-261l-55 -176q-2 -10 -12 -8l-104 25q-9 2 -6 10l218 665q2 10 11 10h159q10 0 12 -10l218 -664q3 -9 -6 -11l-105 -25q-11 -2 -13 8zM407 276l-79 252l-19 89l-19 -89l-80 -252h197zM310 822q49 0 61.5 10t12.5 50q0 9 9 9h60q10 0 10 -9q0 -78 -35 -106.5
t-118 -28.5q-82 0 -117 28.5t-35 106.5q0 9 10 9h59q10 0 10 -9q0 -40 12.5 -50t60.5 -10z" />
    <glyph glyph-name="abreve" unicode="&#x103;" horiz-adv-x="573" 
d="M279 240q-63 0 -81.5 -15t-18.5 -62q0 -45 19 -59.5t81 -14.5q56 0 105 26v98q-51 27 -105 27zM272 524q116 0 173 -46t57 -164v-224l26 -58q4 -9 -4 -12l-93 -38q-8 -6 -12 3l-34 72q-19 -25 -61.5 -48t-83.5 -23q-102 0 -144.5 39.5t-42.5 135.5q0 95 42 132.5
t145 37.5q42 0 84 -21t60 -45v46q0 72 -22.5 93.5t-99.5 21.5q-81 0 -146 -19q-8 -3 -10 6l-15 81q-4 11 5 13q83 17 176 17zM295 651q45 0 57 11.5t12 51.5q0 9 10 9h58q10 0 10 -9q0 -77 -34.5 -108.5t-112.5 -31.5t-112 31.5t-34 108.5q0 9 10 9h58q9 0 9 -9
q0 -40 12 -51.5t57 -11.5z" />
    <glyph glyph-name="Aogonek" unicode="&#x104;" horiz-adv-x="620" 
d="M439 171h-261l-55 -176q-2 -10 -12 -8l-104 25q-9 2 -6 10l218 665q2 10 11 10h159q10 0 12 -10l218 -664q3 -9 -6 -11l-51 -12q-36 -23 -46.5 -40t-10.5 -43q0 -23 9.5 -33.5t40.5 -10.5q41 0 65 9q10 2 13 -7l14 -48q5 -13 -5 -16q-46 -14 -102 -14q-69 0 -93 23
t-24 72q0 70 71 104zM407 276l-79 252l-19 89l-19 -89l-80 -252h197z" />
    <glyph glyph-name="aogonek" unicode="&#x105;" horiz-adv-x="573" 
d="M539 -125l14 -48q5 -13 -5 -16q-46 -14 -102 -14q-69 0 -93 23t-24 72q0 75 82 109l-26 56q-19 -25 -61.5 -48t-83.5 -23q-102 0 -144.5 39.5t-42.5 135.5q0 95 42 132.5t145 37.5q42 0 84 -21t60 -45v46q0 72 -22.5 93.5t-99.5 21.5q-81 0 -146 -19q-8 -3 -10 6l-15 81
q-4 11 5 13q83 17 176 17q116 0 173 -46t57 -164v-224l26 -58q4 -9 -4 -12l-67 -27q-29 -20 -37.5 -35.5t-8.5 -40.5q0 -23 9.5 -33.5t40.5 -10.5q41 0 65 9q10 2 13 -7zM279 240q-63 0 -81.5 -15t-18.5 -62q0 -45 19 -59.5t81 -14.5q56 0 105 26v98q-51 27 -105 27z" />
    <glyph glyph-name="Cacute" unicode="&#x106;" horiz-adv-x="588" 
d="M373 103q92 0 163 22q8 3 10 -6l18 -101q3 -10 -5 -13q-86 -19 -186 -19q-115 0 -180.5 31t-98.5 111.5t-33 226.5q0 108 17 178t56.5 110t95.5 55.5t143 15.5q95 0 186 -20q9 -2 5 -13l-18 -100q-2 -9 -10 -6q-76 22 -163 22q-59 0 -88.5 -6.5t-50.5 -33.5t-26.5 -72
t-5.5 -131q0 -59 2.5 -97.5t10.5 -68t18.5 -45t31.5 -25.5t45 -12.5t63 -2.5zM484 861l-144 -118q-6 -4 -14 -1l-56 26q-4 1 -4 5.5t2 7.5l124 119q7 7 17 3l74 -27q4 -1 4.5 -6.5t-3.5 -8.5z" />
    <glyph glyph-name="cacute" unicode="&#x107;" horiz-adv-x="462" 
d="M184 255q0 -77 9.5 -110.5t30 -43.5t70.5 -10q62 0 122 19q8 3 10 -6l15 -89q4 -11 -5 -13q-70 -16 -156 -16q-128 0 -176 57.5t-48 212.5q0 154 48 211t176 57q79 0 156 -16q8 -3 5 -13l-15 -89q-2 -9 -10 -6q-57 18 -122 18q-49 0 -70.5 -11t-30.5 -44t-9 -108z
M407 689l-133 -123q-6 -4 -14 -1l-54 30q-4 1 -4 5.5t2 7.5l113 125q7 7 17 3l72 -32q4 -1 4.5 -6.5t-3.5 -8.5z" />
    <glyph glyph-name="Ccircumflex" unicode="&#x108;" horiz-adv-x="588" 
d="M373 103q92 0 163 22q8 3 10 -6l18 -101q3 -10 -5 -13q-86 -19 -186 -19q-115 0 -180.5 31t-98.5 111.5t-33 226.5q0 108 17 178t56.5 110t95.5 55.5t143 15.5q95 0 186 -20q9 -2 5 -13l-18 -100q-2 -9 -10 -6q-76 22 -163 22q-59 0 -88.5 -6.5t-50.5 -33.5t-26.5 -72
t-5.5 -131q0 -59 2.5 -97.5t10.5 -68t18.5 -45t31.5 -25.5t45 -12.5t63 -2.5zM330 898h59q14 0 22 -8l109 -91q3 -3 1.5 -7t-5.5 -6l-53 -37q-6 -3 -13 4l-90 75l-90 -75q-8 -8 -13 -4l-53 37q-4 2 -5.5 6t1.5 7l108 91q8 8 22 8z" />
    <glyph glyph-name="ccircumflex" unicode="&#x109;" horiz-adv-x="462" 
d="M184 255q0 -77 9.5 -110.5t30 -43.5t70.5 -10q62 0 122 19q8 3 10 -6l15 -89q4 -11 -5 -13q-70 -16 -156 -16q-128 0 -176 57.5t-48 212.5q0 154 48 211t176 57q79 0 156 -16q8 -3 5 -13l-15 -89q-2 -9 -10 -6q-57 18 -122 18q-49 0 -70.5 -11t-30.5 -44t-9 -108z
M259 729h59q14 0 22 -8l104 -103q3 -3 1.5 -7t-5.5 -6l-53 -35q-6 -3 -13 4l-85 83l-85 -83q-8 -8 -13 -4l-53 35q-4 2 -5.5 6t1.5 7l103 103q8 8 22 8z" />
    <glyph glyph-name="Cdotaccent" unicode="&#x10a;" horiz-adv-x="588" 
d="M373 103q92 0 163 22q8 3 10 -6l18 -101q3 -10 -5 -13q-86 -19 -186 -19q-115 0 -180.5 31t-98.5 111.5t-33 226.5q0 108 17 178t56.5 110t95.5 55.5t143 15.5q95 0 186 -20q9 -2 5 -13l-18 -100q-2 -9 -10 -6q-76 22 -163 22q-59 0 -88.5 -6.5t-50.5 -33.5t-26.5 -72
t-5.5 -131q0 -59 2.5 -97.5t10.5 -68t18.5 -45t31.5 -25.5t45 -12.5t63 -2.5zM369 873q37 0 47.5 -10t10.5 -46q0 -40 -10.5 -51t-47.5 -11q-38 0 -48.5 11t-10.5 51q0 36 10.5 46t48.5 10z" />
    <glyph glyph-name="cdotaccent" unicode="&#x10b;" horiz-adv-x="462" 
d="M184 255q0 -77 9.5 -110.5t30 -43.5t70.5 -10q62 0 122 19q8 3 10 -6l15 -89q4 -11 -5 -13q-70 -16 -156 -16q-128 0 -176 57.5t-48 212.5q0 154 48 211t176 57q79 0 156 -16q8 -3 5 -13l-15 -89q-2 -9 -10 -6q-57 18 -122 18q-49 0 -70.5 -11t-30.5 -44t-9 -108z
M279 700q36 0 46 -9t10 -46q0 -41 -10 -51t-46 -10t-46 10t-10 51q0 37 10 46t46 9z" />
    <glyph glyph-name="Ccaron" unicode="&#x10c;" horiz-adv-x="588" 
d="M373 103q92 0 163 22q8 3 10 -6l18 -101q3 -10 -5 -13q-86 -19 -186 -19q-115 0 -180.5 31t-98.5 111.5t-33 226.5q0 108 17 178t56.5 110t95.5 55.5t143 15.5q95 0 186 -20q9 -2 5 -13l-18 -100q-2 -9 -10 -6q-76 22 -163 22q-59 0 -88.5 -6.5t-50.5 -33.5t-26.5 -72
t-5.5 -131q0 -59 2.5 -97.5t10.5 -68t18.5 -45t31.5 -25.5t45 -12.5t63 -2.5zM404 747h-59q-14 0 -22 8l-108 91q-3 3 -1.5 7t5.5 6l53 37q6 3 13 -4l90 -76l90 76q8 8 13 4l53 -37q4 -2 5.5 -6t-1.5 -7l-109 -91q-8 -8 -22 -8z" />
    <glyph glyph-name="ccaron" unicode="&#x10d;" horiz-adv-x="462" 
d="M184 255q0 -77 9.5 -110.5t30 -43.5t70.5 -10q62 0 122 19q8 3 10 -6l15 -89q4 -11 -5 -13q-70 -16 -156 -16q-128 0 -176 57.5t-48 212.5q0 154 48 211t176 57q79 0 156 -16q8 -3 5 -13l-15 -89q-2 -9 -10 -6q-57 18 -122 18q-49 0 -70.5 -11t-30.5 -44t-9 -108z
M314 573h-59q-14 0 -22 8l-103 103q-3 3 -1.5 7t5.5 6l53 35q6 3 13 -4l85 -83l85 83q8 8 13 4l53 -35q4 -2 5.5 -6t-1.5 -7l-104 -103q-8 -8 -22 -8z" />
    <glyph glyph-name="Dcaron" unicode="&#x10e;" horiz-adv-x="693" 
d="M94 0q-9 0 -9 9v679q0 9 9 9h221q115 0 181.5 -30t100.5 -105.5t34 -210.5q0 -198 -73 -274.5t-243 -76.5h-221zM320 588h-110v-479h110q40 0 65.5 3t46 13.5t31 26t17.5 44.5t9 64t2 90q0 86 -4.5 129t-25 70t-50.5 33t-91 6zM348 747h-59q-14 0 -22 8l-108 91
q-3 3 -1.5 7t5.5 6l53 37q6 3 13 -4l90 -76l90 76q8 8 13 4l53 -37q4 -2 5.5 -6t-1.5 -7l-109 -91q-8 -8 -22 -8z" />
    <glyph glyph-name="dcaron" unicode="&#x10f;" horiz-adv-x="593" 
d="M406 117v275q-49 26 -105 26q-42 0 -62.5 -4t-34.5 -23t-17 -48.5t-3 -88.5t3 -88t17 -47.5t34.5 -23t62.5 -4.5q56 0 105 26zM524 709v-700q0 -9 -9 -9h-100q-9 0 -9 9v48q-22 -28 -64.5 -49.5t-84.5 -21.5q-108 0 -154.5 58.5t-46.5 209.5t46.5 210.5t154.5 59.5
q42 0 84.5 -21.5t64.5 -49.5v256q0 9 9 9h100q9 0 9 -9zM674 704l-40 -147q-4 -11 -12 -11h-53q-10 0 -8 11l14 148q2 13 13 13h75q6 0 9.5 -4.5t1.5 -9.5z" />
    <glyph glyph-name="Dcroat" unicode="&#x110;" horiz-adv-x="693" 
d="M94 0q-9 0 -9 9v304h-50q-9 0 -9 9v68q0 9 9 9h50v289q0 9 9 9h221q115 0 181.5 -30t100.5 -105.5t34 -210.5q0 -198 -73 -274.5t-243 -76.5h-221zM318 313h-108v-204h110q40 0 65.5 3t46 13.5t31 26t17.5 44.5t9 64t2 90q0 86 -4.5 129t-25 70t-50.5 33t-91 6h-110v-189
h108q9 0 9 -9v-68q0 -9 -9 -9z" />
    <glyph glyph-name="dcroat" unicode="&#x111;" horiz-adv-x="593" 
d="M581 581h-57v-572q0 -9 -9 -9h-100q-9 0 -9 9v48q-22 -28 -64.5 -49.5t-84.5 -21.5q-108 0 -154.5 58.5t-46.5 209.5t46.5 210.5t154.5 59.5q42 0 84.5 -21.5t64.5 -49.5v128h-100q-9 0 -9 9v62q0 9 9 9h100v48q0 9 9 9h100q9 0 9 -9v-48h57q9 0 9 -9v-62q0 -9 -9 -9z
M406 117v275q-49 26 -105 26q-42 0 -62.5 -4t-34.5 -23t-17 -48.5t-3 -88.5t3 -88t17 -47.5t34.5 -23t62.5 -4.5q56 0 105 26z" />
    <glyph glyph-name="Emacron" unicode="&#x112;" horiz-adv-x="562" 
d="M526 0h-432q-9 0 -9 9v679q0 9 9 9h432q9 0 9 -9v-90q0 -9 -9 -9h-316v-173h251q9 0 9 -9v-89q0 -9 -9 -9h-251v-201h316q9 0 9 -9v-90q0 -9 -9 -9zM449 765h-268q-9 0 -9 9v66q0 9 9 9h268q9 0 9 -9v-66q0 -9 -9 -9z" />
    <glyph glyph-name="emacron" unicode="&#x113;" horiz-adv-x="549" 
d="M287 524q125 0 170 -57t45 -225q0 -13 -14 -13h-306q1 -96 22.5 -119.5t103.5 -23.5t145 20q8 3 10 -6l15 -84q3 -10 -5 -13q-77 -17 -176 -17q-136 0 -188.5 58t-52.5 212q0 151 52 209.5t179 58.5zM183 316h199q-2 72 -19 92t-80 20q-62 0 -80 -20.5t-20 -91.5z
M419 596h-263q-9 0 -9 9v68q0 9 9 9h263q9 0 9 -9v-68q0 -9 -9 -9z" />
    <glyph glyph-name="Ebreve" unicode="&#x114;" horiz-adv-x="562" 
d="M526 0h-432q-9 0 -9 9v679q0 9 9 9h432q9 0 9 -9v-90q0 -9 -9 -9h-316v-173h251q9 0 9 -9v-89q0 -9 -9 -9h-251v-201h316q9 0 9 -9v-90q0 -9 -9 -9zM315 822q49 0 61.5 10t12.5 50q0 9 9 9h60q10 0 10 -9q0 -78 -35 -106.5t-118 -28.5q-82 0 -117 28.5t-35 106.5
q0 9 10 9h59q10 0 10 -9q0 -40 12.5 -50t60.5 -10z" />
    <glyph glyph-name="ebreve" unicode="&#x115;" horiz-adv-x="549" 
d="M287 524q125 0 170 -57t45 -225q0 -13 -14 -13h-306q1 -96 22.5 -119.5t103.5 -23.5t145 20q8 3 10 -6l15 -84q3 -10 -5 -13q-77 -17 -176 -17q-136 0 -188.5 58t-52.5 212q0 151 52 209.5t179 58.5zM183 316h199q-2 72 -19 92t-80 20q-62 0 -80 -20.5t-20 -91.5z
M288 651q45 0 57 11.5t12 51.5q0 9 10 9h58q10 0 10 -9q0 -77 -34.5 -108.5t-112.5 -31.5t-112 31.5t-34 108.5q0 9 10 9h58q9 0 9 -9q0 -40 12 -51.5t57 -11.5z" />
    <glyph glyph-name="Edotaccent" unicode="&#x116;" horiz-adv-x="562" 
d="M526 0h-432q-9 0 -9 9v679q0 9 9 9h432q9 0 9 -9v-90q0 -9 -9 -9h-316v-173h251q9 0 9 -9v-89q0 -9 -9 -9h-251v-201h316q9 0 9 -9v-90q0 -9 -9 -9zM312 873q37 0 47.5 -10t10.5 -46q0 -40 -10.5 -51t-47.5 -11q-38 0 -48.5 11t-10.5 51q0 36 10.5 46t48.5 10z" />
    <glyph glyph-name="edotaccent" unicode="&#x117;" horiz-adv-x="549" 
d="M287 524q125 0 170 -57t45 -225q0 -13 -14 -13h-306q1 -96 22.5 -119.5t103.5 -23.5t145 20q8 3 10 -6l15 -84q3 -10 -5 -13q-77 -17 -176 -17q-136 0 -188.5 58t-52.5 212q0 151 52 209.5t179 58.5zM183 316h199q-2 72 -19 92t-80 20q-62 0 -80 -20.5t-20 -91.5z
M288 700q36 0 46 -9t10 -46q0 -41 -10 -51t-46 -10t-46 10t-10 51q0 37 10 46t46 9z" />
    <glyph glyph-name="Eogonek" unicode="&#x118;" horiz-adv-x="562" 
d="M532 -125l14 -48q5 -13 -5 -16q-46 -14 -102 -14q-69 0 -93 23t-24 72q0 74 80 108h-308q-9 0 -9 9v679q0 9 9 9h432q9 0 9 -9v-90q0 -9 -9 -9h-316v-173h251q9 0 9 -9v-89q0 -9 -9 -9h-251v-201h316q9 0 9 -9v-90q0 -9 -9 -9h-65q-36 -23 -46.5 -40t-10.5 -43
q0 -23 9.5 -33.5t40.5 -10.5q41 0 65 9q10 2 13 -7z" />
    <glyph glyph-name="eogonek" unicode="&#x119;" horiz-adv-x="549" 
d="M459 -125l14 -48q5 -13 -5 -16q-46 -14 -102 -14q-69 0 -93 23t-24 72q0 61 53 94h-5q-136 0 -188.5 58t-52.5 212q0 151 52 209.5t179 58.5q125 0 170 -57t45 -225q0 -13 -14 -13h-306q1 -96 22.5 -119.5t103.5 -23.5t145 20q8 3 10 -6l15 -84q3 -10 -5 -13
q-48 -10 -102 -14q-25 -18 -32.5 -33t-7.5 -39q0 -23 9.5 -33.5t40.5 -10.5q41 0 65 9q10 2 13 -7zM183 316h199q-2 72 -19 92t-80 20q-62 0 -80 -20.5t-20 -91.5z" />
    <glyph glyph-name="Ecaron" unicode="&#x11a;" horiz-adv-x="562" 
d="M526 0h-432q-9 0 -9 9v679q0 9 9 9h432q9 0 9 -9v-90q0 -9 -9 -9h-316v-173h251q9 0 9 -9v-89q0 -9 -9 -9h-251v-201h316q9 0 9 -9v-90q0 -9 -9 -9zM346 747h-59q-14 0 -22 8l-108 91q-3 3 -1.5 7t5.5 6l53 37q6 3 13 -4l90 -76l90 76q8 8 13 4l53 -37q4 -2 5.5 -6
t-1.5 -7l-109 -91q-8 -8 -22 -8z" />
    <glyph glyph-name="ecaron" unicode="&#x11b;" horiz-adv-x="549" 
d="M287 524q125 0 170 -57t45 -225q0 -13 -14 -13h-306q1 -96 22.5 -119.5t103.5 -23.5t145 20q8 3 10 -6l15 -84q3 -10 -5 -13q-77 -17 -176 -17q-136 0 -188.5 58t-52.5 212q0 151 52 209.5t179 58.5zM183 316h199q-2 72 -19 92t-80 20q-62 0 -80 -20.5t-20 -91.5z
M315 573h-59q-14 0 -22 8l-103 103q-3 3 -1.5 7t5.5 6l53 35q6 3 13 -4l85 -83l85 83q8 8 13 4l53 -35q4 -2 5.5 -6t-1.5 -7l-104 -103q-8 -8 -22 -8z" />
    <glyph glyph-name="Gcircumflex" unicode="&#x11c;" horiz-adv-x="666" 
d="M593 366v-347q0 -10 -9 -14q-92 -19 -211 -19q-115 0 -180.5 31t-98.5 111.5t-33 226.5q0 108 17.5 178t58 110t97 55.5t144.5 15.5q57 0 134.5 -7.5t77.5 -21.5q0 -1 -0.5 -2t-0.5 -2l-18 -100q-1 -6 -8 -6h-2q-76 22 -183 22q-60 0 -90 -6.5t-52 -33t-28 -72.5t-6 -131
q0 -71 4.5 -113.5t14 -73t31 -44t48 -18.5t73.5 -5q56 0 95 6v260q0 9 9 9h107q9 0 9 -9zM348 898h59q14 0 22 -8l109 -91q3 -3 1.5 -7t-5.5 -6l-53 -37q-6 -3 -13 4l-90 75l-90 -75q-8 -8 -13 -4l-53 37q-4 2 -5.5 6t1.5 7l108 91q8 8 22 8z" />
    <glyph glyph-name="gcircumflex" unicode="&#x11d;" horiz-adv-x="568" 
d="M272 -204q-131 0 -184 29.5t-53 98.5t75 115q-42 20 -42 72q0 41 46 80q-63 33 -63 144q0 98 51 136t163 38h268q9 0 9 -9v-78q0 -9 -9 -9h-98q49 -47 49 -100q0 -78 -52.5 -113.5t-154.5 -35.5q-70 0 -110 8l-2 -24q0 -27 18.5 -35t88.5 -8q149 0 201.5 -31.5
t52.5 -118.5q0 -89 -61.5 -124t-192.5 -35zM367 334q0 42 -13 79h-88q-59 0 -76 -14.5t-17 -66.5q0 -51 17 -66t74 -15q67 0 85 15.5t18 67.5zM278 14q-65 0 -108 8q-12 -29 -12 -65q0 -42 23.5 -55t93.5 -13q75 0 99.5 13t24.5 49q0 42 -20.5 52.5t-100.5 10.5zM255 729h59
q14 0 22 -8l104 -103q3 -3 1.5 -7t-5.5 -6l-53 -35q-6 -3 -13 4l-85 83l-85 -83q-8 -8 -13 -4l-53 35q-4 2 -5.5 6t1.5 7l103 103q8 8 22 8z" />
    <glyph glyph-name="Gbreve" unicode="&#x11e;" horiz-adv-x="666" 
d="M593 366v-347q0 -10 -9 -14q-92 -19 -211 -19q-115 0 -180.5 31t-98.5 111.5t-33 226.5q0 108 17.5 178t58 110t97 55.5t144.5 15.5q57 0 134.5 -7.5t77.5 -21.5q0 -1 -0.5 -2t-0.5 -2l-18 -100q-1 -6 -8 -6h-2q-76 22 -183 22q-60 0 -90 -6.5t-52 -33t-28 -72.5t-6 -131
q0 -71 4.5 -113.5t14 -73t31 -44t48 -18.5t73.5 -5q56 0 95 6v260q0 9 9 9h107q9 0 9 -9zM374 822q49 0 61.5 10t12.5 50q0 9 9 9h60q10 0 10 -9q0 -78 -35 -106.5t-118 -28.5q-82 0 -117 28.5t-35 106.5q0 9 10 9h59q10 0 10 -9q0 -40 12.5 -50t60.5 -10z" />
    <glyph glyph-name="gbreve" unicode="&#x11f;" horiz-adv-x="568" 
d="M272 -204q-131 0 -184 29.5t-53 98.5t75 115q-42 20 -42 72q0 41 46 80q-63 33 -63 144q0 98 51 136t163 38h268q9 0 9 -9v-78q0 -9 -9 -9h-98q49 -47 49 -100q0 -78 -52.5 -113.5t-154.5 -35.5q-70 0 -110 8l-2 -24q0 -27 18.5 -35t88.5 -8q149 0 201.5 -31.5
t52.5 -118.5q0 -89 -61.5 -124t-192.5 -35zM367 334q0 42 -13 79h-88q-59 0 -76 -14.5t-17 -66.5q0 -51 17 -66t74 -15q67 0 85 15.5t18 67.5zM278 14q-65 0 -108 8q-12 -29 -12 -65q0 -42 23.5 -55t93.5 -13q75 0 99.5 13t24.5 49q0 42 -20.5 52.5t-100.5 10.5zM284 651
q45 0 57 11.5t12 51.5q0 9 10 9h58q10 0 10 -9q0 -77 -34.5 -108.5t-112.5 -31.5t-112 31.5t-34 108.5q0 9 10 9h58q9 0 9 -9q0 -40 12 -51.5t57 -11.5z" />
    <glyph glyph-name="Gdotaccent" unicode="&#x120;" horiz-adv-x="666" 
d="M593 366v-347q0 -10 -9 -14q-92 -19 -211 -19q-115 0 -180.5 31t-98.5 111.5t-33 226.5q0 108 17.5 178t58 110t97 55.5t144.5 15.5q57 0 134.5 -7.5t77.5 -21.5q0 -1 -0.5 -2t-0.5 -2l-18 -100q-1 -6 -8 -6h-2q-76 22 -183 22q-60 0 -90 -6.5t-52 -33t-28 -72.5t-6 -131
q0 -71 4.5 -113.5t14 -73t31 -44t48 -18.5t73.5 -5q56 0 95 6v260q0 9 9 9h107q9 0 9 -9zM372 873q37 0 47.5 -10t10.5 -46q0 -40 -10.5 -51t-47.5 -11q-38 0 -48.5 11t-10.5 51q0 36 10.5 46t48.5 10z" />
    <glyph glyph-name="gdotaccent" unicode="&#x121;" horiz-adv-x="568" 
d="M272 -204q-131 0 -184 29.5t-53 98.5t75 115q-42 20 -42 72q0 41 46 80q-63 33 -63 144q0 98 51 136t163 38h268q9 0 9 -9v-78q0 -9 -9 -9h-98q49 -47 49 -100q0 -78 -52.5 -113.5t-154.5 -35.5q-70 0 -110 8l-2 -24q0 -27 18.5 -35t88.5 -8q149 0 201.5 -31.5
t52.5 -118.5q0 -89 -61.5 -124t-192.5 -35zM367 334q0 42 -13 79h-88q-59 0 -76 -14.5t-17 -66.5q0 -51 17 -66t74 -15q67 0 85 15.5t18 67.5zM278 14q-65 0 -108 8q-12 -29 -12 -65q0 -42 23.5 -55t93.5 -13q75 0 99.5 13t24.5 49q0 42 -20.5 52.5t-100.5 10.5zM284 700
q36 0 46 -9t10 -46q0 -41 -10 -51t-46 -10t-46 10t-10 51q0 37 10 46t46 9z" />
    <glyph glyph-name="Gcommaaccent" unicode="&#x122;" horiz-adv-x="666" 
d="M593 366v-347q0 -10 -9 -14q-92 -19 -211 -19q-115 0 -180.5 31t-98.5 111.5t-33 226.5q0 108 17.5 178t58 110t97 55.5t144.5 15.5q57 0 134.5 -7.5t77.5 -21.5q0 -1 -0.5 -2t-0.5 -2l-18 -100q-1 -6 -8 -6h-2q-76 22 -183 22q-60 0 -90 -6.5t-52 -33t-28 -72.5t-6 -131
q0 -71 4.5 -113.5t14 -73t31 -44t48 -18.5t73.5 -5q56 0 95 6v260q0 9 9 9h107q9 0 9 -9zM429 -78l-63 -158q-4 -11 -12 -11h-61q-10 0 -8 11l34 174q2 12 13 12l86 -14q6 0 9.5 -4.5t1.5 -9.5z" />
    <glyph glyph-name="gcommaaccent" unicode="&#x123;" horiz-adv-x="568" 
d="M272 -204q-131 0 -184 29.5t-53 98.5t75 115q-42 20 -42 72q0 41 46 80q-63 33 -63 144q0 98 51 136t163 38h268q9 0 9 -9v-78q0 -9 -9 -9h-98q49 -47 49 -100q0 -78 -52.5 -113.5t-154.5 -35.5q-70 0 -110 8l-2 -24q0 -27 18.5 -35t88.5 -8q149 0 201.5 -31.5
t52.5 -118.5q0 -89 -61.5 -124t-192.5 -35zM367 334q0 42 -13 79h-88q-59 0 -76 -14.5t-17 -66.5q0 -51 17 -66t74 -15q67 0 85 15.5t18 67.5zM277 14q-65 0 -108 8q-12 -29 -12 -65q0 -42 23.5 -55t93.5 -13q75 0 99.5 13t24.5 49q0 42 -20.5 52.5t-100.5 10.5zM210 578
l63 158q4 11 12 11h61q10 0 8 -11l-34 -173q-2 -14 -13 -12l-86 13q-15 2 -11 14z" />
    <glyph glyph-name="Hcircumflex" unicode="&#x124;" horiz-adv-x="701" 
d="M616 688v-679q0 -9 -9 -9h-107q-9 0 -9 9v302h-281v-302q0 -9 -9 -9h-107q-9 0 -9 9v679q0 9 9 9h107q9 0 9 -9v-262h281v262q0 9 9 9h107q9 0 9 -9zM320 898h59q14 0 22 -8l109 -91q3 -3 1.5 -7t-5.5 -6l-53 -37q-6 -3 -13 4l-90 75l-90 -75q-8 -8 -13 -4l-53 37
q-4 2 -5.5 6t1.5 7l108 91q8 8 22 8z" />
    <glyph glyph-name="hcircumflex" unicode="&#x125;" horiz-adv-x="581" 
d="M519 283v-274q0 -9 -9 -9h-100q-9 0 -9 9v267q0 95 -17.5 117.5t-91.5 22.5q-60 0 -105 -24v-383q0 -9 -9 -9h-100q-9 0 -9 9v700q0 9 9 9h100q9 0 9 -9v-256q24 28 65 49.5t90 21.5q98 0 137.5 -51.5t39.5 -189.5zM166 898h59q14 0 22 -8l109 -91q3 -3 1.5 -7t-5.5 -6
l-53 -37q-6 -3 -13 4l-90 75l-90 -75q-8 -8 -13 -4l-53 37q-4 2 -5.5 6t1.5 7l108 91q8 8 22 8z" />
    <glyph glyph-name="Hbar" unicode="&#x126;" horiz-adv-x="701" 
d="M677 524h-61v-515q0 -9 -9 -9h-107q-9 0 -9 9v302h-281v-302q0 -9 -9 -9h-107q-9 0 -9 9v515h-61q-9 0 -9 9v69q0 9 9 9h61v77q0 9 9 9h107q9 0 9 -9v-77h281v77q0 9 9 9h107q9 0 9 -9v-77h61q9 0 9 -9v-69q0 -9 -9 -9zM210 425h281v99h-281v-99z" />
    <glyph glyph-name="hbar" unicode="&#x127;" horiz-adv-x="588" 
d="M306 579h-112v-126q24 28 65 49.5t90 21.5q98 0 137.5 -51.5t39.5 -189.5v-274q0 -9 -9 -9h-100q-9 0 -9 9v267q0 97 -17.5 119.5t-91.5 22.5q-56 0 -105 -26v-383q0 -9 -9 -9h-100q-9 0 -9 9v570h-48q-9 0 -9 9v68q0 9 9 9h48v44q0 9 9 9h100q9 0 9 -9v-44h112q9 0 9 -9
v-68q0 -9 -9 -9z" />
    <glyph glyph-name="Itilde" unicode="&#x128;" horiz-adv-x="295" 
d="M210 688v-679q0 -9 -9 -9h-107q-9 0 -9 9v679q0 9 9 9h107q9 0 9 -9zM76 795q-37 0 -60 -44q-1 -4 -8 -4q-4 0 -6 2l-38 49q-2 2 -2 6q0 6 4 11q50 66 104 66q36 0 78.5 -23.5t65.5 -23.5q38 0 64 44q2 5 8 5q3 0 6 -3l36 -46q2 -2 2 -7t-4 -11q-45 -68 -109 -68
q-36 0 -78.5 23.5t-62.5 23.5z" />
    <glyph glyph-name="itilde" unicode="&#x129;" horiz-adv-x="256" 
d="M61 624q-29 0 -53 -45q-2 -4 -8 -4q-4 0 -6 3l-40 45q-6 8 2 18q58 69 105 69q29 0 68.5 -23.5t61.5 -23.5q33 0 59 44q2 4 7 4q4 0 7 -3l37 -40q10 -10 -2 -24q-45 -68 -104 -68q-37 0 -77.5 24t-56.5 24zM187 500v-491q0 -9 -9 -9h-100q-9 0 -9 9v491q0 9 9 9h100
q9 0 9 -9z" />
    <glyph glyph-name="Imacron" unicode="&#x12a;" horiz-adv-x="295" 
d="M210 688v-679q0 -9 -9 -9h-107q-9 0 -9 9v679q0 9 9 9h107q9 0 9 -9zM281 765h-268q-9 0 -9 9v66q0 9 9 9h268q9 0 9 -9v-66q0 -9 -9 -9z" />
    <glyph glyph-name="imacron" unicode="&#x12b;" horiz-adv-x="256" 
d="M260 596h-263q-9 0 -9 9v68q0 9 9 9h263q9 0 9 -9v-68q0 -9 -9 -9zM187 500v-491q0 -9 -9 -9h-100q-9 0 -9 9v491q0 9 9 9h100q9 0 9 -9z" />
    <glyph glyph-name="Ibreve" unicode="&#x12c;" horiz-adv-x="295" 
d="M210 688v-679q0 -9 -9 -9h-107q-9 0 -9 9v679q0 9 9 9h107q9 0 9 -9zM147 822q49 0 61.5 10t12.5 50q0 9 9 9h60q10 0 10 -9q0 -78 -35 -106.5t-118 -28.5q-82 0 -117 28.5t-35 106.5q0 9 10 9h59q10 0 10 -9q0 -40 12.5 -50t60.5 -10z" />
    <glyph glyph-name="ibreve" unicode="&#x12d;" horiz-adv-x="256" 
d="M128 651q45 0 57 11.5t12 51.5q0 9 10 9h58q10 0 10 -9q0 -77 -34.5 -108.5t-112.5 -31.5t-112 31.5t-34 108.5q0 9 10 9h58q9 0 9 -9q0 -40 12 -51.5t57 -11.5zM187 500v-491q0 -9 -9 -9h-100q-9 0 -9 9v491q0 9 9 9h100q9 0 9 -9z" />
    <glyph glyph-name="Iogonek" unicode="&#x12e;" horiz-adv-x="295" 
d="M245 -125l14 -48q5 -13 -5 -16q-46 -14 -102 -14q-69 0 -93 23t-24 72q0 74 80 108h-21q-9 0 -9 9v679q0 9 9 9h107q9 0 9 -9v-679q0 -9 -9 -9h-27q-36 -23 -46.5 -40t-10.5 -43q0 -23 9.5 -33.5t40.5 -10.5q41 0 65 9q10 2 13 -7z" />
    <glyph glyph-name="iogonek" unicode="&#x12f;" horiz-adv-x="256" 
d="M218 -125l14 -48q5 -13 -5 -16q-46 -14 -102 -14q-69 0 -93 23t-24 72q0 74 80 108h-10q-9 0 -9 9v491q0 9 9 9h100q9 0 9 -9v-491q0 -9 -9 -9h-31q-36 -23 -46.5 -40t-10.5 -43q0 -23 9.5 -33.5t40.5 -10.5q41 0 65 9q10 2 13 -7zM128 717q41 0 52.5 -10t11.5 -48
q0 -43 -11.5 -54t-52.5 -11t-52 11t-11 54q0 39 11 48.5t52 9.5z" />
    <glyph glyph-name="Idotaccent" unicode="&#x130;" horiz-adv-x="295" 
d="M210 688v-679q0 -9 -9 -9h-107q-9 0 -9 9v679q0 9 9 9h107q9 0 9 -9zM148 873q37 0 47.5 -10t10.5 -46q0 -40 -10.5 -51t-47.5 -11q-38 0 -48.5 11t-10.5 51q0 36 10.5 46t48.5 10z" />
    <glyph glyph-name="dotlessi" unicode="&#x131;" horiz-adv-x="256" 
d="M187 500v-491q0 -9 -9 -9h-100q-9 0 -9 9v491q0 9 9 9h100q9 0 9 -9z" />
    <glyph glyph-name="IJ" unicode="&#x132;" horiz-adv-x="759" 
d="M210 688v-679q0 -9 -9 -9h-107q-9 0 -9 9v679q0 9 9 9h107q9 0 9 -9zM303 7q-9 3 -5 14l16 98q1 4 4.5 6t5.5 1q61 -22 135 -22q53 0 72 21.5t19 82.5v480q0 9 9 9h108q9 0 9 -9v-496q0 -108 -56 -157t-148 -49q-96 0 -169 21z" />
    <glyph glyph-name="ij" unicode="&#x133;" horiz-adv-x="500" 
d="M125 717q41 0 52 -9.5t11 -48.5q0 -43 -11 -54t-52 -11q-42 0 -53 11t-11 54q0 39 11 48.5t53 9.5zM183 500v-491q0 -9 -9 -9h-100q-9 0 -9 9v491q0 9 9 9h100q9 0 9 -9zM212 -99q64 4 83 25t19 92v482q0 9 9 9h100q9 0 9 -9v-482q0 -222 -203 -222q-9 0 -10 8l-12 86
q-4 11 5 11zM373 717q41 0 52.5 -10t11.5 -48q0 -43 -11.5 -54t-52.5 -11t-52 11t-11 54q0 39 11 48.5t52 9.5z" />
    <glyph glyph-name="Jcircumflex" unicode="&#x134;" horiz-adv-x="462" 
d="M5 7q-9 3 -5 14l16 98q1 3 4.5 5.5t6.5 1.5q61 -22 134 -22q54 0 73 21.5t19 82.5v480q0 9 9 9h107q9 0 9 -9v-496q0 -109 -55.5 -157.5t-147.5 -48.5q-95 0 -170 21zM282 898h59q14 0 22 -8l109 -91q3 -3 1.5 -7t-5.5 -6l-53 -37q-6 -3 -13 4l-90 75l-90 -75
q-8 -8 -13 -4l-53 37q-4 2 -5.5 6t1.5 7l108 91q8 8 22 8z" />
    <glyph glyph-name="jcircumflex" unicode="&#x135;" horiz-adv-x="251" 
d="M-37 -99q64 4 83 25t19 92v482q0 9 9 9h100q9 0 9 -9v-482q0 -222 -203 -222q-9 0 -10 8l-12 86q-4 11 5 11zM93 729h59q14 0 22 -8l103 -103q3 -3 1.5 -7t-5.5 -6l-53 -35q-6 -3 -13 4l-85 81l-85 -81q-8 -8 -13 -4l-53 35q-4 2 -5.5 6t1.5 7l104 103q8 8 22 8z" />
    <glyph glyph-name="Kcommaaccent" unicode="&#x136;" horiz-adv-x="643" 
d="M601 645l-238 -277l247 -314q8 -10 -1 -14l-100 -52q-8 -5 -15 3l-282 369l275 349q4 4 9 4q2 0 6 -2l97 -51q8 -5 2 -15zM210 688v-679q0 -9 -9 -9h-107q-9 0 -9 9v679q0 9 9 9h107q9 0 9 -9zM376 -78l-63 -158q-4 -11 -12 -11h-61q-10 0 -8 11l34 174q2 12 13 12
l86 -14q6 0 9.5 -4.5t1.5 -9.5z" />
    <glyph glyph-name="kcommaaccent" unicode="&#x137;" horiz-adv-x="528" 
d="M184 709v-443l216 263q4 4 8 4q3 0 7 -2l85 -45q4 -4 4 -7q0 -2 -2 -6l-180 -200l195 -235q4 -7 -3 -11l-88 -48q-4 -2 -5 -2q-5 0 -8 4l-229 285v-257q0 -9 -9 -9h-100q-9 0 -9 9v700q0 9 9 9h100q9 0 9 -9zM320 -78l-63 -158q-4 -11 -12 -11h-61q-10 0 -8 11l34 174
q2 12 13 12l86 -14q6 0 9.5 -4.5t1.5 -9.5z" />
    <glyph glyph-name="Lacute" unicode="&#x139;" horiz-adv-x="515" 
d="M210 115h296q9 0 9 -9v-97q0 -9 -9 -9h-412q-9 0 -9 9v679q0 9 9 9h107q9 0 9 -9v-573zM304 861l-144 -118q-6 -4 -14 -1l-56 26q-4 1 -4 5.5t2 7.5l124 119q7 7 17 3l74 -27q4 -1 4.5 -6.5t-3.5 -8.5z" />
    <glyph glyph-name="lacute" unicode="&#x13a;" horiz-adv-x="260" 
d="M66 103v606q0 9 9 9h100q9 0 9 -9v-609l31 -68q6 -8 -3 -12l-95 -38q-8 -6 -12 3l-27 64q-12 26 -12 54zM284 861l-144 -118q-6 -4 -14 -1l-56 26q-4 1 -4 5.5t2 7.5l124 119q7 7 17 3l74 -27q4 -1 4.5 -6.5t-3.5 -8.5z" />
    <glyph glyph-name="Lcommaaccent" unicode="&#x13b;" horiz-adv-x="515" 
d="M210 115h296q9 0 9 -9v-97q0 -9 -9 -9h-412q-9 0 -9 9v679q0 9 9 9h107q9 0 9 -9v-573zM362 -78l-63 -158q-4 -11 -12 -11h-61q-10 0 -8 11l34 174q2 12 13 12l86 -14q6 0 9.5 -4.5t1.5 -9.5z" />
    <glyph glyph-name="lcommaaccent" unicode="&#x13c;" horiz-adv-x="260" 
d="M66 103v606q0 9 9 9h100q9 0 9 -9v-609l31 -68q6 -8 -3 -12l-95 -38q-8 -6 -12 3l-27 64q-12 26 -12 54zM207 -78l-63 -158q-4 -11 -12 -11h-61q-10 0 -8 11l34 174q2 12 13 12l86 -14q6 0 9.5 -4.5t1.5 -9.5z" />
    <glyph glyph-name="Lcaron" unicode="&#x13d;" horiz-adv-x="515" 
d="M210 115h296q9 0 9 -9v-97q0 -9 -9 -9h-412q-9 0 -9 9v679q0 9 9 9h107q9 0 9 -9v-573zM395 704l-40 -147q-4 -11 -12 -11h-53q-10 0 -8 11l14 148q2 13 13 13h75q6 0 9.5 -4.5t1.5 -9.5z" />
    <glyph glyph-name="lcaron" unicode="&#x13e;" horiz-adv-x="284" 
d="M66 103v606q0 9 9 9h100q9 0 9 -9v-609l31 -68q6 -8 -3 -12l-95 -38q-8 -6 -12 3l-27 64q-12 26 -12 54zM329 704l-40 -147q-4 -11 -12 -11h-53q-10 0 -8 11l14 148q2 13 13 13h75q6 0 9.5 -4.5t1.5 -9.5z" />
    <glyph glyph-name="Ldot" unicode="&#x13f;" horiz-adv-x="515" 
d="M210 115h296q9 0 9 -9v-97q0 -9 -9 -9h-412q-9 0 -9 9v679q0 9 9 9h107q9 0 9 -9v-573zM340 457q36 0 46 -9t10 -46q0 -41 -10 -51t-46 -10t-46 10t-10 51q0 37 10 46t46 9z" />
    <glyph glyph-name="ldot" unicode="&#x140;" horiz-adv-x="260" 
d="M66 103v606q0 9 9 9h100q9 0 9 -9v-609l31 -68q6 -8 -3 -12l-95 -38q-8 -6 -12 3l-27 64q-12 26 -12 54zM273 464q36 0 46 -9t10 -46q0 -41 -10 -51t-46 -10t-46 10t-10 51q0 37 10 46t46 9z" />
    <glyph glyph-name="Lslash" unicode="&#x141;" horiz-adv-x="515" 
d="M210 114h296q9 0 9 -9v-96q0 -9 -9 -9h-412q-9 0 -9 9v166l-38 -38q-5 -5 -11 0l-56 66q-7 5 -1 11l106 108v366q0 9 9 9h107q9 0 9 -9v-238l114 116q8 4 11 0l57 -66q6 -5 1 -12l-183 -185v-189z" />
    <glyph glyph-name="lslash" unicode="&#x142;" horiz-adv-x="260" 
d="M302 491l-112 -113v-278l31 -68q4 -9 -4 -12l-95 -38q-8 -6 -12 3l-27 64q-11 27 -11 54v161l-58 -61q-7 -7 -13 0l-47 62q-7 7 0 12l118 120v312q0 9 9 9h100q9 0 9 -9v-198l52 55q8 6 13 0l47 -62q3 -2 3 -6.5t-3 -6.5z" />
    <glyph glyph-name="Nacute" unicode="&#x143;" horiz-adv-x="714" 
d="M242 688l227 -423l42 -101l-7 108v416q0 9 9 9h107q9 0 9 -9v-679q-2 -9 -9 -9h-132q-11 0 -16 9l-227 423l-42 98l7 -106v-415q0 -9 -9 -9h-107q-9 0 -9 9v679q2 9 9 9h132q12 0 16 -9zM498 861l-144 -118q-6 -4 -14 -1l-56 26q-4 1 -4 5.5t2 7.5l124 119q7 7 17 3
l74 -27q4 -1 4.5 -6.5t-3.5 -8.5z" />
    <glyph glyph-name="nacute" unicode="&#x144;" horiz-adv-x="581" 
d="M187 500v-47q24 28 65 49.5t90 21.5q98 0 137.5 -51.5t39.5 -189.5v-274q0 -9 -9 -9h-100q-9 0 -9 9v267q0 95 -17.5 117.5t-91.5 22.5q-60 0 -105 -24v-383q0 -9 -9 -9h-100q-9 0 -9 9v491q0 9 9 9h100q9 0 9 -9zM415 689l-133 -123q-6 -4 -14 -1l-54 30q-4 1 -4 5.5
t2 7.5l113 125q7 7 17 3l72 -32q4 -1 4.5 -6.5t-3.5 -8.5z" />
    <glyph glyph-name="Ncommaaccent" unicode="&#x145;" horiz-adv-x="714" 
d="M242 688l227 -423l42 -101l-7 108v416q0 9 9 9h107q9 0 9 -9v-679q-2 -9 -9 -9h-132q-11 0 -16 9l-227 423l-42 98l7 -106v-415q0 -9 -9 -9h-107q-9 0 -9 9v679q2 9 9 9h132q12 0 16 -9zM411 -78l-63 -158q-4 -11 -12 -11h-61q-10 0 -8 11l34 174q2 12 13 12l86 -14
q6 0 9.5 -4.5t1.5 -9.5z" />
    <glyph glyph-name="ncommaaccent" unicode="&#x146;" horiz-adv-x="581" 
d="M187 500v-47q24 28 65 49.5t90 21.5q98 0 137.5 -51.5t39.5 -189.5v-274q0 -9 -9 -9h-100q-9 0 -9 9v267q0 95 -17.5 117.5t-91.5 22.5q-60 0 -105 -24v-383q0 -9 -9 -9h-100q-9 0 -9 9v491q0 9 9 9h100q9 0 9 -9zM344 -78l-63 -158q-4 -11 -12 -11h-61q-10 0 -8 11
l34 174q2 12 13 12l86 -14q6 0 9.5 -4.5t1.5 -9.5z" />
    <glyph glyph-name="Ncaron" unicode="&#x147;" horiz-adv-x="714" 
d="M242 688l227 -423l42 -101l-7 108v416q0 9 9 9h107q9 0 9 -9v-679q-2 -9 -9 -9h-132q-11 0 -16 9l-227 423l-42 98l7 -106v-415q0 -9 -9 -9h-107q-9 0 -9 9v679q2 9 9 9h132q12 0 16 -9zM392 747h-59q-14 0 -22 8l-108 91q-3 3 -1.5 7t5.5 6l53 37q6 3 13 -4l90 -76
l90 76q8 8 13 4l53 -37q4 -2 5.5 -6t-1.5 -7l-109 -91q-8 -8 -22 -8z" />
    <glyph glyph-name="ncaron" unicode="&#x148;" horiz-adv-x="581" 
d="M187 500v-47q24 28 65 49.5t90 21.5q98 0 137.5 -51.5t39.5 -189.5v-274q0 -9 -9 -9h-100q-9 0 -9 9v267q0 95 -17.5 117.5t-91.5 22.5q-60 0 -105 -24v-383q0 -9 -9 -9h-100q-9 0 -9 9v491q0 9 9 9h100q9 0 9 -9zM327 573h-59q-14 0 -22 8l-103 103q-3 3 -1.5 7t5.5 6
l53 35q6 3 13 -4l85 -83l85 83q8 8 13 4l53 -35q4 -2 5.5 -6t-1.5 -7l-104 -103q-8 -8 -22 -8z" />
    <glyph glyph-name="napostrophe" unicode="&#x149;" horiz-adv-x="581" 
d="M187 500v-47q24 28 65 49.5t90 21.5q98 0 137.5 -51.5t39.5 -189.5v-274q0 -9 -9 -9h-100q-9 0 -9 9v267q0 95 -17.5 117.5t-91.5 22.5q-60 0 -105 -24v-383q0 -9 -9 -9h-100q-9 0 -9 9v491q0 9 9 9h100q9 0 9 -9zM219 725l-63 -158q-4 -11 -12 -11h-61q-10 0 -8 11
l34 174q2 12 13 12l86 -14q6 0 9.5 -4.5t1.5 -9.5z" />
    <glyph glyph-name="Eng" unicode="&#x14a;" horiz-adv-x="714" 
d="M256 -182q-9 2 -5 14l16 87q2 9 11 6q58 -21 134 -21q49 0 68.5 20t19.5 76h-12q-11 0 -16 9l-227 423l-42 98l7 -106v-415q0 -9 -9 -9h-107q-9 0 -9 9v679q2 9 9 9h132q9 0 16 -9l227 -423l42 -101l-7 108v416q0 9 9 9h107q9 0 9 -9v-686q0 -108 -55.5 -157t-147.5 -49
q-91 0 -170 22z" />
    <glyph glyph-name="eng" unicode="&#x14b;" horiz-adv-x="581" 
d="M401 18v258q0 95 -19 118.5t-90 23.5q-56 0 -105 -26v-383q0 -9 -9 -9h-100q-9 0 -9 9v491q0 9 9 9h100q9 0 9 -9v-47q59 69 165 69q92 0 129.5 -53t37.5 -186v-220q0 -140 -46.5 -203t-157.5 -63q-7 0 -9 7l-12 87q-1 1 -1 3q0 6 7 8q64 4 82.5 24.5t18.5 91.5z" />
    <glyph glyph-name="Omacron" unicode="&#x14c;" horiz-adv-x="724" 
d="M362 714q79 0 132.5 -15.5t93 -55t57.5 -110t18 -177.5q0 -145 -34.5 -227t-97.5 -112.5t-169 -30.5t-169 30.5t-97.5 112.5t-34.5 227q0 107 18 177.5t57.5 110t93 55t132.5 15.5zM363 104q43 0 67.5 5t44.5 18t29 42.5t13.5 72.5t4.5 113q0 111 -13.5 160.5t-44.5 65
t-101 15.5q-54 0 -82 -6.5t-48 -33t-25.5 -72t-5.5 -129.5q0 -88 5.5 -135t25.5 -74.5t48 -34.5t82 -7zM496 765h-268q-9 0 -9 9v66q0 9 9 9h268q9 0 9 -9v-66q0 -9 -9 -9z" />
    <glyph glyph-name="omacron" unicode="&#x14d;" horiz-adv-x="595" 
d="M297 -14q-135 0 -188 58t-53 213q0 153 53.5 210t187.5 57q135 0 188.5 -57t53.5 -210q0 -155 -53.5 -213t-188.5 -58zM297 422q-41 0 -61 -4t-33.5 -23.5t-16.5 -49.5t-3 -90q0 -62 3 -92t16.5 -48.5t33 -22.5t61.5 -4t61.5 4t33 22.5t16.5 48.5t3 92q0 60 -3 90
t-16.5 49.5t-33.5 23.5t-61 4zM429 596h-263q-9 0 -9 9v68q0 9 9 9h263q9 0 9 -9v-68q0 -9 -9 -9z" />
    <glyph glyph-name="Obreve" unicode="&#x14e;" horiz-adv-x="724" 
d="M362 714q79 0 132.5 -15.5t93 -55t57.5 -110t18 -177.5q0 -145 -34.5 -227t-97.5 -112.5t-169 -30.5t-169 30.5t-97.5 112.5t-34.5 227q0 107 18 177.5t57.5 110t93 55t132.5 15.5zM363 104q43 0 67.5 5t44.5 18t29 42.5t13.5 72.5t4.5 113q0 111 -13.5 160.5t-44.5 65
t-101 15.5q-54 0 -82 -6.5t-48 -33t-25.5 -72t-5.5 -129.5q0 -88 5.5 -135t25.5 -74.5t48 -34.5t82 -7zM362 822q49 0 61.5 10t12.5 50q0 9 9 9h60q10 0 10 -9q0 -78 -35 -106.5t-118 -28.5q-82 0 -117 28.5t-35 106.5q0 9 10 9h59q10 0 10 -9q0 -40 12.5 -50t60.5 -10z" />
    <glyph glyph-name="obreve" unicode="&#x14f;" horiz-adv-x="595" 
d="M297 -14q-135 0 -188 58t-53 213q0 153 53.5 210t187.5 57q135 0 188.5 -57t53.5 -210q0 -155 -53.5 -213t-188.5 -58zM297 422q-41 0 -61 -4t-33.5 -23.5t-16.5 -49.5t-3 -90q0 -62 3 -92t16.5 -48.5t33 -22.5t61.5 -4t61.5 4t33 22.5t16.5 48.5t3 92q0 60 -3 90
t-16.5 49.5t-33.5 23.5t-61 4zM297 651q45 0 57 11.5t12 51.5q0 9 10 9h58q10 0 10 -9q0 -77 -34.5 -108.5t-112.5 -31.5t-112 31.5t-34 108.5q0 9 10 9h58q9 0 9 -9q0 -40 12 -51.5t57 -11.5z" />
    <glyph glyph-name="Ohungarumlaut" unicode="&#x150;" horiz-adv-x="724" 
d="M362 714q79 0 132.5 -15.5t93 -55t57.5 -110t18 -177.5q0 -145 -34.5 -227t-97.5 -112.5t-169 -30.5t-169 30.5t-97.5 112.5t-34.5 227q0 107 18 177.5t57.5 110t93 55t132.5 15.5zM363 104q43 0 67.5 5t44.5 18t29 42.5t13.5 72.5t4.5 113q0 111 -13.5 160.5t-44.5 65
t-101 15.5q-54 0 -82 -6.5t-48 -33t-25.5 -72t-5.5 -129.5q0 -88 5.5 -135t25.5 -74.5t48 -34.5t82 -7zM393 857l-113 -118q-5 -5 -11 -1l-47 27q-3 1 -3.5 5.5t1.5 7.5l98 119q5 7 13 3l61 -28q4 -1 4 -6.5t-3 -8.5zM559 857l-113 -118q-5 -5 -11 -1l-47 27q-3 1 -3.5 5.5
t1.5 7.5l98 119q5 7 13 3l61 -28q4 -1 4 -6.5t-3 -8.5z" />
    <glyph glyph-name="ohungarumlaut" unicode="&#x151;" horiz-adv-x="595" 
d="M297 -14q-135 0 -188 58t-53 213q0 153 53.5 210t187.5 57q135 0 188.5 -57t53.5 -210q0 -155 -53.5 -213t-188.5 -58zM297 422q-41 0 -61 -4t-33.5 -23.5t-16.5 -49.5t-3 -90q0 -62 3 -92t16.5 -48.5t33 -22.5t61.5 -4t61.5 4t33 22.5t16.5 48.5t3 92q0 60 -3 90
t-16.5 49.5t-33.5 23.5t-61 4zM314 685l-103 -118q-5 -5 -11 -1l-47 21q-3 1 -3.5 5.5t1.5 7.5l88 124q5 7 13 3l61 -27q4 -1 4 -6.5t-3 -8.5zM480 685l-103 -118q-5 -5 -11 -1l-47 21q-3 1 -3.5 5.5t1.5 7.5l88 124q5 7 13 3l61 -27q4 -1 4 -6.5t-3 -8.5z" />
    <glyph glyph-name="OE" unicode="&#x152;" horiz-adv-x="1019" 
d="M362 714q82 0 137 -17h484q9 0 9 -9v-90q0 -9 -9 -9h-363q35 -61 41 -173h257q9 0 9 -9v-89q0 -9 -9 -9h-257q-4 -136 -45 -201h367q9 0 9 -9v-90q0 -9 -9 -9h-497q-50 -14 -124 -14q-106 0 -169 30.5t-97.5 112.5t-34.5 227q0 107 18 177.5t57.5 110t93 55t132.5 15.5z
M363 104q43 0 67.5 5t44.5 18t29 42.5t13.5 72.5t4.5 113q0 111 -13.5 160.5t-44.5 65t-101 15.5q-54 0 -82 -6.5t-48 -33t-25.5 -72t-5.5 -129.5q0 -88 5.5 -135t25.5 -74.5t48 -34.5t82 -7z" />
    <glyph glyph-name="oe" unicode="&#x153;" horiz-adv-x="896" 
d="M633 524q125 0 170.5 -57t45.5 -225q0 -13 -14 -13h-307q2 -96 23 -119.5t104 -23.5q82 0 144 20q8 3 10 -6l15 -84q3 -10 -5 -13q-76 -17 -176 -17q-130 0 -175 59q-44 -59 -171 -59q-135 0 -188 58t-53 213q0 153 53.5 210t187.5 57q129 0 172 -58q44 58 164 58z
M297 422q-41 0 -61 -4t-33.5 -23.5t-16.5 -49.5t-3 -90q0 -62 3 -92t16.5 -48.5t33 -22.5t61.5 -4t61.5 4t33 22.5t16.5 48.5t3 92q0 60 -3 90t-16.5 49.5t-33.5 23.5t-61 4zM529 316h200q-2 72 -19 92t-80 20q-62 0 -80.5 -20.5t-20.5 -91.5z" />
    <glyph glyph-name="Racute" unicode="&#x154;" horiz-adv-x="656" 
d="M210 261v-252q0 -9 -9 -9h-107q-9 0 -9 9v679q0 9 9 9h314q90 0 144 -54t54 -164q0 -177 -144 -202l161 -232q7 -9 -6 -15l-96 -50q-4 -2 -7 -2q-5 0 -6 4l-183 279h-115zM210 592v-226h189q39 0 54.5 23.5t15.5 91.5q0 66 -15 88.5t-53 22.5h-191zM449 861l-144 -118
q-6 -4 -14 -1l-56 26q-4 1 -4 5.5t2 7.5l124 119q7 7 17 3l74 -27q4 -1 4.5 -6.5t-3.5 -8.5z" />
    <glyph glyph-name="racute" unicode="&#x155;" horiz-adv-x="393" 
d="M332 524q41 0 70 -10q9 -2 6 -12l-15 -94q-2 -10 -11 -6q-43 12 -84 12q-50 0 -107 -23v-382q0 -9 -9 -9h-100q-9 0 -9 9v406l-28 62q-4 9 4 12l89 39q8 4 12 -4l34 -71q73 71 148 71zM367 689l-133 -123q-6 -4 -14 -1l-54 30q-4 1 -4 5.5t2 7.5l113 125q7 7 17 3l72 -32
q4 -1 4.5 -6.5t-3.5 -8.5z" />
    <glyph glyph-name="Rcommaaccent" unicode="&#x156;" horiz-adv-x="656" 
d="M210 261v-252q0 -9 -9 -9h-107q-9 0 -9 9v679q0 9 9 9h314q90 0 144 -54t54 -164q0 -177 -144 -202l161 -232q7 -9 -6 -15l-96 -50q-4 -2 -7 -2q-5 0 -6 4l-183 279h-115zM210 592v-226h189q39 0 54.5 23.5t15.5 91.5q0 66 -15 88.5t-53 22.5h-191zM380 -78l-63 -158
q-4 -11 -12 -11h-61q-10 0 -8 11l34 174q2 12 13 12l86 -14q6 0 9.5 -4.5t1.5 -9.5z" />
    <glyph glyph-name="rcommaaccent" unicode="&#x157;" horiz-adv-x="393" 
d="M332 524q41 0 70 -10q9 -2 6 -12l-15 -94q-2 -10 -11 -6q-43 12 -84 12q-50 0 -107 -23v-382q0 -9 -9 -9h-100q-9 0 -9 9v406l-28 62q-4 9 4 12l89 39q8 4 12 -4l34 -71q73 71 148 71zM202 -78l-63 -158q-4 -11 -12 -11h-61q-10 0 -8 11l34 174q2 12 13 12l86 -14
q6 0 9.5 -4.5t1.5 -9.5z" />
    <glyph glyph-name="Rcaron" unicode="&#x158;" horiz-adv-x="656" 
d="M210 261v-252q0 -9 -9 -9h-107q-9 0 -9 9v679q0 9 9 9h314q90 0 144 -54t54 -164q0 -177 -144 -202l161 -232q7 -9 -6 -15l-96 -50q-4 -2 -7 -2q-5 0 -6 4l-183 279h-115zM210 592v-226h189q39 0 54.5 23.5t15.5 91.5q0 66 -15 88.5t-53 22.5h-191zM352 747h-59
q-14 0 -22 8l-108 91q-3 3 -1.5 7t5.5 6l53 37q6 3 13 -4l90 -76l90 76q8 8 13 4l53 -37q4 -2 5.5 -6t-1.5 -7l-109 -91q-8 -8 -22 -8z" />
    <glyph glyph-name="rcaron" unicode="&#x159;" horiz-adv-x="393" 
d="M332 524q41 0 70 -10q9 -2 6 -12l-15 -94q-2 -10 -11 -6q-43 12 -84 12q-50 0 -107 -23v-382q0 -9 -9 -9h-100q-9 0 -9 9v406l-28 62q-4 9 4 12l89 39q8 4 12 -4l34 -71q73 71 148 71zM263 573h-59q-14 0 -22 8l-103 103q-3 3 -1.5 7t5.5 6l53 35q6 3 13 -4l85 -83l85 83
q8 8 13 4l53 -35q4 -2 5.5 -6t-1.5 -7l-104 -103q-8 -8 -22 -8z" />
    <glyph glyph-name="Sacute" unicode="&#x15a;" horiz-adv-x="618" 
d="M338 714q96 0 189 -22q9 -2 5 -14l-16 -98q-2 -9 -11 -6q-78 24 -174 24q-88 0 -110.5 -18t-22.5 -77q0 -51 22 -64.5t119 -24.5q122 -13 172 -61t50 -146q0 -120 -68 -170.5t-218 -50.5q-100 0 -194 21q-9 3 -5 14l16 98q1 4 4.5 6t5.5 1q83 -25 180 -25q89 0 115 19.5
t26 77.5q0 37 -8.5 53.5t-39 27.5t-99.5 18q-118 12 -167.5 55.5t-49.5 139.5q0 122 65 172t214 50zM440 861l-144 -118q-6 -4 -14 -1l-56 26q-4 1 -4 5.5t2 7.5l124 119q7 7 17 3l74 -27q4 -1 4.5 -6.5t-3.5 -8.5z" />
    <glyph glyph-name="sacute" unicode="&#x15b;" horiz-adv-x="505" 
d="M83 108q82 -24 162 -24q53 0 69 13t16 53q0 32 -16.5 43t-80.5 18q-97 9 -138.5 43t-41.5 107q0 85 51.5 124t160.5 39q84 0 165 -19q8 -3 5 -13l-15 -84q-2 -9 -10 -6q-63 23 -152 23q-51 0 -66.5 -12t-15.5 -50q0 -31 16.5 -41t81.5 -17q102 -10 140.5 -45t38.5 -106
q0 -89 -51.5 -128.5t-164.5 -39.5q-94 0 -174 19q-9 2 -5 13l15 84q2 9 10 6zM377 689l-133 -123q-6 -4 -14 -1l-54 30q-4 1 -4 5.5t2 7.5l113 125q7 7 17 3l72 -32q4 -1 4.5 -6.5t-3.5 -8.5z" />
    <glyph glyph-name="Scircumflex" unicode="&#x15c;" horiz-adv-x="618" 
d="M338 714q96 0 189 -22q9 -2 5 -14l-16 -98q-2 -9 -11 -6q-78 24 -174 24q-88 0 -110.5 -18t-22.5 -77q0 -51 22 -64.5t119 -24.5q122 -13 172 -61t50 -146q0 -120 -68 -170.5t-218 -50.5q-100 0 -194 21q-9 3 -5 14l16 98q1 4 4.5 6t5.5 1q83 -25 180 -25q89 0 115 19.5
t26 77.5q0 37 -8.5 53.5t-39 27.5t-99.5 18q-118 12 -167.5 55.5t-49.5 139.5q0 122 65 172t214 50zM293 898h59q14 0 22 -8l109 -91q3 -3 1.5 -7t-5.5 -6l-53 -37q-6 -3 -13 4l-90 75l-90 -75q-8 -8 -13 -4l-53 37q-4 2 -5.5 6t1.5 7l108 91q8 8 22 8z" />
    <glyph glyph-name="scircumflex" unicode="&#x15d;" horiz-adv-x="505" 
d="M83 108q82 -24 162 -24q53 0 69 13t16 53q0 32 -16.5 43t-80.5 18q-97 9 -138.5 43t-41.5 107q0 85 51.5 124t160.5 39q84 0 165 -19q8 -3 5 -13l-15 -84q-2 -9 -10 -6q-63 23 -152 23q-51 0 -66.5 -12t-15.5 -50q0 -31 16.5 -41t81.5 -17q102 -10 140.5 -45t38.5 -106
q0 -89 -51.5 -128.5t-164.5 -39.5q-94 0 -174 19q-9 2 -5 13l15 84q2 9 10 6zM228 729h59q14 0 22 -8l104 -103q3 -3 1.5 -7t-5.5 -6l-53 -35q-6 -3 -13 4l-85 83l-85 -83q-8 -8 -13 -4l-53 35q-4 2 -5.5 6t1.5 7l103 103q8 8 22 8z" />
    <glyph glyph-name="Scedilla" unicode="&#x15e;" horiz-adv-x="618" 
d="M191 -180l17 40q3 6 9 4q37 -12 91 -12q31 0 38 5t7 23q0 17 -17.5 21t-94.5 4q-4 0 -7 3.5t-1 7.5l29 70q-94 2 -181 21q-9 3 -5 14l16 98q1 4 4.5 6t5.5 1q83 -25 180 -25q89 0 115 19.5t26 77.5q0 37 -8.5 53.5t-39 27.5t-99.5 18q-118 12 -167.5 55.5t-49.5 139.5
q0 122 65 172t214 50q96 0 189 -22q9 -2 5 -14l-16 -98q-2 -9 -11 -6q-78 24 -174 24q-88 0 -110.5 -18t-22.5 -77q0 -51 22 -64.5t119 -24.5q122 -13 172 -61t50 -146q0 -110 -56 -160.5t-178 -58.5v-31q62 0 88 -18t26 -58q0 -45 -31.5 -65.5t-108.5 -20.5q-73 0 -107 15
q-6 2 -3 10z" />
    <glyph glyph-name="Scedilla" unicode="&#xf6c1;" horiz-adv-x="618" 
d="M191 -180l17 40q3 6 9 4q37 -12 91 -12q31 0 38 5t7 23q0 17 -17.5 21t-94.5 4q-4 0 -7 3.5t-1 7.5l29 70q-94 2 -181 21q-9 3 -5 14l16 98q1 4 4.5 6t5.5 1q83 -25 180 -25q89 0 115 19.5t26 77.5q0 37 -8.5 53.5t-39 27.5t-99.5 18q-118 12 -167.5 55.5t-49.5 139.5
q0 122 65 172t214 50q96 0 189 -22q9 -2 5 -14l-16 -98q-2 -9 -11 -6q-78 24 -174 24q-88 0 -110.5 -18t-22.5 -77q0 -51 22 -64.5t119 -24.5q122 -13 172 -61t50 -146q0 -110 -56 -160.5t-178 -58.5v-31q62 0 88 -18t26 -58q0 -45 -31.5 -65.5t-108.5 -20.5q-73 0 -107 15
q-6 2 -3 10z" />
    <glyph glyph-name="scedilla" unicode="&#x15f;" horiz-adv-x="505" 
d="M133 -180l17 40q3 6 9 4q37 -12 91 -12q31 0 38 5t7 23q0 17 -17.5 21t-94.5 4q-4 0 -7 3.5t-1 7.5l29 71q-76 3 -141 18q-9 2 -5 13l15 84q2 9 10 6q82 -24 162 -24q53 0 69 13t16 53q0 32 -16.5 43t-80.5 18q-97 9 -138.5 43t-41.5 107q0 85 51.5 124t160.5 39
q84 0 165 -19q8 -3 5 -13l-15 -84q-2 -9 -10 -6q-63 23 -152 23q-51 0 -66.5 -12t-15.5 -50q0 -31 16.5 -41t81.5 -17q102 -10 140.5 -45t38.5 -106q0 -82 -44 -122t-140 -45v-30q62 0 88 -18t26 -58q0 -45 -31.5 -65.5t-108.5 -20.5q-73 0 -107 15q-6 2 -3 10z" />
    <glyph glyph-name="scedilla" unicode="&#xf6c2;" horiz-adv-x="505" 
d="M133 -180l17 40q3 6 9 4q37 -12 91 -12q31 0 38 5t7 23q0 17 -17.5 21t-94.5 4q-4 0 -7 3.5t-1 7.5l29 71q-76 3 -141 18q-9 2 -5 13l15 84q2 9 10 6q82 -24 162 -24q53 0 69 13t16 53q0 32 -16.5 43t-80.5 18q-97 9 -138.5 43t-41.5 107q0 85 51.5 124t160.5 39
q84 0 165 -19q8 -3 5 -13l-15 -84q-2 -9 -10 -6q-63 23 -152 23q-51 0 -66.5 -12t-15.5 -50q0 -31 16.5 -41t81.5 -17q102 -10 140.5 -45t38.5 -106q0 -82 -44 -122t-140 -45v-30q62 0 88 -18t26 -58q0 -45 -31.5 -65.5t-108.5 -20.5q-73 0 -107 15q-6 2 -3 10z" />
    <glyph glyph-name="Scaron" unicode="&#x160;" horiz-adv-x="618" 
d="M338 714q96 0 189 -22q9 -2 5 -14l-16 -98q-2 -9 -11 -6q-78 24 -174 24q-88 0 -110.5 -18t-22.5 -77q0 -51 22 -64.5t119 -24.5q122 -13 172 -61t50 -146q0 -120 -68 -170.5t-218 -50.5q-100 0 -194 21q-9 3 -5 14l16 98q1 4 4.5 6t5.5 1q83 -25 180 -25q89 0 115 19.5
t26 77.5q0 37 -8.5 53.5t-39 27.5t-99.5 18q-118 12 -167.5 55.5t-49.5 139.5q0 122 65 172t214 50zM352 747h-59q-14 0 -22 8l-108 91q-3 3 -1.5 7t5.5 6l53 37q6 3 13 -4l90 -76l90 76q8 8 13 4l53 -37q4 -2 5.5 -6t-1.5 -7l-109 -91q-8 -8 -22 -8z" />
    <glyph glyph-name="scaron" unicode="&#x161;" horiz-adv-x="505" 
d="M83 108q82 -24 162 -24q53 0 69 13t16 53q0 32 -16.5 43t-80.5 18q-97 9 -138.5 43t-41.5 107q0 85 51.5 124t160.5 39q84 0 165 -19q8 -3 5 -13l-15 -84q-2 -9 -10 -6q-63 23 -152 23q-51 0 -66.5 -12t-15.5 -50q0 -31 16.5 -41t81.5 -17q102 -10 140.5 -45t38.5 -106
q0 -89 -51.5 -128.5t-164.5 -39.5q-94 0 -174 19q-9 2 -5 13l15 84q2 9 10 6zM287 573h-59q-14 0 -22 8l-103 103q-3 3 -1.5 7t5.5 6l53 35q6 3 13 -4l85 -83l85 83q8 8 13 4l53 -35q4 -2 5.5 -6t-1.5 -7l-104 -103q-8 -8 -22 -8z" />
    <glyph glyph-name="Tcommaaccent" unicode="&#x162;" horiz-adv-x="556" 
d="M547 697q9 0 9 -9v-97q0 -9 -9 -9h-206v-573q0 -9 -9 -9h-108q-9 0 -9 9v573h-206q-9 0 -9 9v97q0 9 9 9h538zM344 -78l-63 -158q-4 -11 -12 -11h-61q-10 0 -8 11l34 174q2 12 13 12l86 -14q6 0 9.5 -4.5t1.5 -9.5z" />
    <glyph glyph-name="Tcommaaccent" unicode="&#x21a;" horiz-adv-x="556" 
d="M547 697q9 0 9 -9v-97q0 -9 -9 -9h-206v-573q0 -9 -9 -9h-108q-9 0 -9 9v573h-206q-9 0 -9 9v97q0 9 9 9h538zM344 -78l-63 -158q-4 -11 -12 -11h-61q-10 0 -8 11l34 174q2 12 13 12l86 -14q6 0 9.5 -4.5t1.5 -9.5z" />
    <glyph glyph-name="tcommaaccent" unicode="&#x163;" horiz-adv-x="418" 
d="M278 94q40 0 85 12q8 2 10 -6l15 -88q3 -10 -5 -13q-52 -13 -123 -13q-86 0 -125.5 40.5t-39.5 148.5v233h-71q-9 0 -9 9v83q0 9 9 9h70v98q0 8 8 10l101 29q9 2 9 -7v-130h158q9 0 9 -9v-83q0 -9 -9 -9h-158v-229q0 -54 12 -69.5t54 -15.5zM275 -78l-63 -158
q-4 -11 -12 -11h-61q-10 0 -8 11l34 174q2 12 13 12l86 -14q6 0 9.5 -4.5t1.5 -9.5z" />
    <glyph glyph-name="tcommaaccent" unicode="&#x21b;" horiz-adv-x="418" 
d="M278 94q40 0 85 12q8 2 10 -6l15 -88q3 -10 -5 -13q-52 -13 -123 -13q-86 0 -125.5 40.5t-39.5 148.5v233h-71q-9 0 -9 9v83q0 9 9 9h70v98q0 8 8 10l101 29q9 2 9 -7v-130h158q9 0 9 -9v-83q0 -9 -9 -9h-158v-229q0 -54 12 -69.5t54 -15.5zM275 -78l-63 -158
q-4 -11 -12 -11h-61q-10 0 -8 11l34 174q2 12 13 12l86 -14q6 0 9.5 -4.5t1.5 -9.5z" />
    <glyph glyph-name="Tcaron" unicode="&#x164;" horiz-adv-x="556" 
d="M547 697q9 0 9 -9v-97q0 -9 -9 -9h-206v-573q0 -9 -9 -9h-108q-9 0 -9 9v573h-206q-9 0 -9 9v97q0 9 9 9h538zM307 747h-59q-14 0 -22 8l-108 91q-3 3 -1.5 7t5.5 6l53 37q6 3 13 -4l90 -76l90 76q8 8 13 4l53 -37q4 -2 5.5 -6t-1.5 -7l-109 -91q-8 -8 -22 -8z" />
    <glyph glyph-name="tcaron" unicode="&#x165;" horiz-adv-x="418" 
d="M278 94q40 0 85 12q8 2 10 -6l15 -88q3 -10 -5 -13q-52 -13 -123 -13q-86 0 -125.5 40.5t-39.5 148.5v233h-71q-9 0 -9 9v83q0 9 9 9h70v98q0 8 8 10l101 29q9 2 9 -7v-130h158q9 0 9 -9v-83q0 -9 -9 -9h-158v-229q0 -54 12 -69.5t54 -15.5zM385 704l-40 -147
q-4 -11 -12 -11h-53q-10 0 -8 11l14 148q2 13 13 13h75q6 0 9.5 -4.5t1.5 -9.5z" />
    <glyph glyph-name="Tbar" unicode="&#x166;" horiz-adv-x="556" 
d="M436 259h-95v-250q0 -9 -9 -9h-108q-9 0 -9 9v250h-99q-9 0 -9 9v70q0 9 9 9h99v236h-206q-9 0 -9 9v96q0 9 9 9h538q9 0 9 -9v-96q0 -9 -9 -9h-206v-236h95q9 0 9 -9v-70q0 -9 -9 -9z" />
    <glyph glyph-name="tbar" unicode="&#x167;" horiz-adv-x="418" 
d="M312 225h-100v-46q0 -55 12 -70t54 -15q40 0 85 12q8 3 10 -6l15 -88q4 -11 -5 -13q-52 -13 -123 -13q-86 0 -125.5 40.5t-39.5 148.5v50h-46q-9 0 -9 8v65q0 8 9 8h46v102h-71q-9 0 -9 9v83q0 9 9 9h70v98q0 8 8 10l101 29q9 2 9 -7v-130h158q9 0 9 -9v-83q0 -9 -9 -9
h-158v-102h100q9 0 9 -8v-65q0 -8 -9 -8z" />
    <glyph glyph-name="Utilde" unicode="&#x168;" horiz-adv-x="692" 
d="M346 102q91 0 116.5 24.5t25.5 106.5v455q0 9 9 9h107q9 0 9 -9v-455q0 -127 -66 -187t-201 -60q-136 0 -202 60t-66 187v455q0 9 9 9h108q9 0 9 -9v-455q0 -82 25 -106.5t117 -24.5zM276 795q-37 0 -60 -44q-1 -4 -8 -4q-4 0 -6 2l-38 49q-2 2 -2 6q0 6 4 11
q50 66 104 66q36 0 78.5 -23.5t65.5 -23.5q38 0 64 44q2 5 8 5q3 0 6 -3l36 -46q2 -2 2 -7t-4 -11q-45 -68 -109 -68q-36 0 -78.5 23.5t-62.5 23.5z" />
    <glyph glyph-name="utilde" unicode="&#x169;" horiz-adv-x="583" 
d="M512 89l26 -57q3 -9 -4 -13l-93 -38q-8 -4 -12 4l-34 71q-24 -28 -66 -49.5t-90 -21.5q-98 0 -138 51.5t-40 189.5v274q0 9 9 9h100q9 0 9 -9v-267q0 -51 3 -76t16 -41t32.5 -19.5t59.5 -3.5q59 0 104 24v383q0 9 10 9h99q9 0 9 -9v-411zM221 624q-29 0 -53 -45
q-2 -4 -8 -4q-4 0 -6 3l-40 45q-6 8 2 18q58 69 105 69q29 0 68.5 -23.5t61.5 -23.5q33 0 59 44q2 4 7 4q4 0 7 -3l37 -40q10 -10 -2 -24q-45 -68 -104 -68q-37 0 -77.5 24t-56.5 24z" />
    <glyph glyph-name="Umacron" unicode="&#x16a;" horiz-adv-x="692" 
d="M346 102q91 0 116.5 24.5t25.5 106.5v455q0 9 9 9h107q9 0 9 -9v-455q0 -127 -66 -187t-201 -60q-136 0 -202 60t-66 187v455q0 9 9 9h108q9 0 9 -9v-455q0 -82 25 -106.5t117 -24.5zM480 765h-268q-9 0 -9 9v66q0 9 9 9h268q9 0 9 -9v-66q0 -9 -9 -9z" />
    <glyph glyph-name="umacron" unicode="&#x16b;" horiz-adv-x="583" 
d="M512 89l26 -57q3 -9 -4 -13l-93 -38q-8 -4 -12 4l-34 71q-24 -28 -66 -49.5t-90 -21.5q-98 0 -138 51.5t-40 189.5v274q0 9 9 9h100q9 0 9 -9v-267q0 -51 3 -76t16 -41t32.5 -19.5t59.5 -3.5q59 0 104 24v383q0 9 10 9h99q9 0 9 -9v-411zM422 596h-263q-9 0 -9 9v68
q0 9 9 9h263q9 0 9 -9v-68q0 -9 -9 -9z" />
    <glyph glyph-name="Ubreve" unicode="&#x16c;" horiz-adv-x="692" 
d="M346 102q91 0 116.5 24.5t25.5 106.5v455q0 9 9 9h107q9 0 9 -9v-455q0 -127 -66 -187t-201 -60q-136 0 -202 60t-66 187v455q0 9 9 9h108q9 0 9 -9v-455q0 -82 25 -106.5t117 -24.5zM346 822q49 0 61.5 10t12.5 50q0 9 9 9h60q10 0 10 -9q0 -78 -35 -106.5t-118 -28.5
q-82 0 -117 28.5t-35 106.5q0 9 10 9h59q10 0 10 -9q0 -40 12.5 -50t60.5 -10z" />
    <glyph glyph-name="ubreve" unicode="&#x16d;" horiz-adv-x="583" 
d="M512 89l26 -57q3 -9 -4 -13l-93 -38q-8 -4 -12 4l-34 71q-24 -28 -66 -49.5t-90 -21.5q-98 0 -138 51.5t-40 189.5v274q0 9 9 9h100q9 0 9 -9v-267q0 -51 3 -76t16 -41t32.5 -19.5t59.5 -3.5q59 0 104 24v383q0 9 10 9h99q9 0 9 -9v-411zM286 651q45 0 57 11.5t12 51.5
q0 9 10 9h58q10 0 10 -9q0 -77 -34.5 -108.5t-112.5 -31.5t-112 31.5t-34 108.5q0 9 10 9h58q9 0 9 -9q0 -40 12 -51.5t57 -11.5z" />
    <glyph glyph-name="Uring" unicode="&#x16e;" horiz-adv-x="692" 
d="M346 102q91 0 116.5 24.5t25.5 106.5v455q0 9 9 9h107q9 0 9 -9v-455q0 -127 -66 -187t-201 -60q-136 0 -202 60t-66 187v455q0 9 9 9h108q9 0 9 -9v-455q0 -82 25 -106.5t117 -24.5zM346 894q120 0 120 -104q0 -103 -120 -103t-120 103q0 104 120 104zM346 834
q-30 0 -39.5 -9t-9.5 -36q0 -26 10 -35.5t39 -9.5q31 0 41 9.5t10 35.5q0 27 -9.5 36t-41.5 9z" />
    <glyph glyph-name="uring" unicode="&#x16f;" horiz-adv-x="583" 
d="M512 89l26 -57q3 -9 -4 -13l-93 -38q-8 -4 -12 4l-34 71q-24 -28 -66 -49.5t-90 -21.5q-98 0 -138 51.5t-40 189.5v274q0 9 9 9h100q9 0 9 -9v-267q0 -51 3 -76t16 -41t32.5 -19.5t59.5 -3.5q59 0 104 24v383q0 9 10 9h99q9 0 9 -9v-411zM290 756q120 0 120 -104
q0 -103 -120 -103q-121 0 -121 103q0 104 121 104zM290 696q-32 0 -40.5 -7.5t-8.5 -37.5q0 -29 8.5 -36.5t40.5 -7.5q33 0 41 7.5t8 36.5q0 31 -8 38t-41 7z" />
    <glyph glyph-name="Uhungarumlaut" unicode="&#x170;" horiz-adv-x="692" 
d="M346 102q91 0 116.5 24.5t25.5 106.5v455q0 9 9 9h107q9 0 9 -9v-455q0 -127 -66 -187t-201 -60q-136 0 -202 60t-66 187v455q0 9 9 9h108q9 0 9 -9v-455q0 -82 25 -106.5t117 -24.5zM370 857l-113 -118q-5 -5 -11 -1l-47 27q-3 1 -3.5 5.5t1.5 7.5l98 119q5 7 13 3
l61 -28q4 -1 4 -6.5t-3 -8.5zM536 857l-113 -118q-5 -5 -11 -1l-47 27q-3 1 -3.5 5.5t1.5 7.5l98 119q5 7 13 3l61 -28q4 -1 4 -6.5t-3 -8.5z" />
    <glyph glyph-name="uhungarumlaut" unicode="&#x171;" horiz-adv-x="583" 
d="M512 89l26 -57q3 -9 -4 -13l-93 -38q-8 -4 -12 4l-34 71q-24 -28 -66 -49.5t-90 -21.5q-98 0 -138 51.5t-40 189.5v274q0 9 9 9h100q9 0 9 -9v-267q0 -51 3 -76t16 -41t32.5 -19.5t59.5 -3.5q59 0 104 24v383q0 9 10 9h99q9 0 9 -9v-411zM301 685l-103 -118q-5 -5 -11 -1
l-47 21q-3 1 -3.5 5.5t1.5 7.5l88 124q5 7 13 3l61 -27q4 -1 4 -6.5t-3 -8.5zM467 685l-103 -118q-5 -5 -11 -1l-47 21q-3 1 -3.5 5.5t1.5 7.5l88 124q5 7 13 3l61 -27q4 -1 4 -6.5t-3 -8.5z" />
    <glyph glyph-name="Uogonek" unicode="&#x172;" horiz-adv-x="692" 
d="M472 -125l14 -48q5 -13 -5 -16q-46 -14 -102 -14q-69 0 -93 23t-24 72q0 60 54 95q-121 6 -179.5 66t-58.5 180v455q0 9 9 9h108q9 0 9 -9v-455q0 -82 25 -106.5t117 -24.5q91 0 116.5 24.5t25.5 106.5v455q0 9 9 9h107q9 0 9 -9v-455q0 -118 -57 -177.5t-173 -67.5
q-25 -18 -32 -33t-7 -38t9.5 -33.5t40.5 -10.5q41 0 65 9q10 2 13 -7z" />
    <glyph glyph-name="uogonek" unicode="&#x173;" horiz-adv-x="583" 
d="M548 -125l14 -48q5 -13 -5 -16q-46 -14 -102 -14q-69 0 -93 23t-24 72q0 75 83 109l-26 55q-24 -28 -66 -49.5t-90 -21.5q-98 0 -138 51.5t-40 189.5v274q0 9 9 9h100q9 0 9 -9v-267q0 -51 3 -76t16 -41t32.5 -19.5t59.5 -3.5q59 0 104 24v383q0 9 10 9h99q9 0 9 -9v-411
l26 -57q3 -9 -4 -13l-72 -29q-26 -19 -34 -34t-8 -39q0 -23 9.5 -33.5t40.5 -10.5q41 0 65 9q10 2 13 -7z" />
    <glyph glyph-name="Wcircumflex" unicode="&#x174;" horiz-adv-x="921" 
d="M443 466l-86 -457q0 -9 -11 -9h-161q-9 0 -11 9l-158 665q-1 1 -1 3q0 6 7 8l107 24h2q8 0 10 -7l110 -504l17 -110l15 108l89 491q2 10 11 10h157q9 0 11 -10l90 -489l15 -110l16 110l110 504q2 7 10 7h2l105 -24q7 -2 7 -8v-1l-1 -2l-158 -665q-2 -9 -11 -9h-161
q-9 0 -11 9l-86 458l-18 123zM430 898h59q14 0 22 -8l109 -91q3 -3 1.5 -7t-5.5 -6l-53 -37q-6 -3 -13 4l-90 75l-90 -75q-8 -8 -13 -4l-53 37q-4 2 -5.5 6t1.5 7l108 91q8 8 22 8z" />
    <glyph glyph-name="wcircumflex" unicode="&#x175;" horiz-adv-x="816" 
d="M476 500l89 -355l11 -59l12 59l96 369q2 7 10 7h1l101 -26q7 -1 7 -7v-2l-142 -477q-2 -9 -10 -9h-143q-9 0 -11 9l-83 319l-9 57l-9 -57l-77 -319q-2 -9 -10 -9h-143q-9 0 -11 9l-142 476q-1 1 -1 3q0 6 7 8l102 25h2q8 0 10 -7l99 -369l11 -59l11 59l87 355q2 9 11 9
h113q9 0 11 -9zM376 729h59q14 0 22 -8l104 -103q3 -3 1.5 -7t-5.5 -6l-53 -35q-6 -3 -13 4l-85 83l-85 -83q-8 -8 -13 -4l-53 35q-4 2 -5.5 6t1.5 7l103 103q8 8 22 8z" />
    <glyph glyph-name="Ycircumflex" unicode="&#x176;" horiz-adv-x="607" 
d="M243 322l-231 320q-2 4 -2 6q0 6 4 7l90 58q2 2 6 2q6 0 10 -7l156 -222l30 -55l28 55l156 225q1 4 9 4q5 0 8 -3l87 -57q9 -5 3 -13l-228 -320v-313q0 -9 -9 -9h-108q-9 0 -9 9v313zM273 898h59q14 0 22 -8l109 -91q3 -3 1.5 -7t-5.5 -6l-53 -37q-6 -3 -13 4l-90 75
l-90 -75q-8 -8 -13 -4l-53 37q-4 2 -5.5 6t1.5 7l108 91q8 8 22 8z" />
    <glyph glyph-name="ycircumflex" unicode="&#x177;" horiz-adv-x="503" 
d="M498 486l-180 -537q-28 -84 -75 -118.5t-124 -34.5q-10 0 -11 8l-13 86q-4 11 5 11q50 0 73 19t43 80h-28q-19 0 -25 18l-158 467q-4 9 6 11l104 25q9 2 11 -7l110 -350l15 -83l18 83l108 350q2 9 12 7l103 -25q9 -2 6 -10zM221 729h59q14 0 22 -8l104 -103q3 -3 1.5 -7
t-5.5 -6l-53 -35q-6 -3 -13 4l-85 83l-85 -83q-8 -8 -13 -4l-53 35q-4 2 -5.5 6t1.5 7l103 103q8 8 22 8z" />
    <glyph glyph-name="Ydieresis" unicode="&#x178;" horiz-adv-x="607" 
d="M243 322l-231 320q-2 4 -2 6q0 6 4 7l90 58q2 2 6 2q6 0 10 -7l156 -222l30 -55l28 55l156 225q1 4 9 4q5 0 8 -3l87 -57q9 -5 3 -13l-228 -320v-313q0 -9 -9 -9h-108q-9 0 -9 9v313zM196 873q37 0 47.5 -10t10.5 -46q0 -40 -10.5 -51t-47.5 -11q-38 0 -48.5 11t-10.5 51
q0 36 10.5 46t48.5 10zM411 873q37 0 47.5 -10t10.5 -46q0 -40 -10.5 -51t-47.5 -11q-38 0 -48.5 11t-10.5 51q0 36 10.5 46t48.5 10z" />
    <glyph glyph-name="Zacute" unicode="&#x179;" horiz-adv-x="596" 
d="M36 82l357 501h-343q-9 0 -9 9v95q0 10 9 10h514q10 0 10 -11v-47q0 -13 -8 -24l-356 -501h354q10 0 10 -10v-95q0 -9 -10 -9h-526q-10 0 -10 11v47q0 11 8 24zM438 861l-144 -118q-6 -4 -14 -1l-56 26q-4 1 -4 5.5t2 7.5l124 119q7 7 17 3l74 -27q4 -1 4.5 -6.5
t-3.5 -8.5z" />
    <glyph glyph-name="zacute" unicode="&#x17a;" horiz-adv-x="492" 
d="M37 53l256 355h-245q-9 0 -9 9v83q0 9 9 9h404q9 0 9 -10v-20q0 -12 -8 -23l-252 -355h253q9 0 9 -9v-83q0 -9 -9 -9h-415q-10 0 -10 10v20q0 12 8 23zM376 689l-133 -123q-6 -4 -14 -1l-54 30q-4 1 -4 5.5t2 7.5l113 125q7 7 17 3l72 -32q4 -1 4.5 -6.5t-3.5 -8.5z" />
    <glyph glyph-name="Zdotaccent" unicode="&#x17b;" horiz-adv-x="596" 
d="M36 82l357 501h-343q-9 0 -9 9v95q0 10 9 10h514q10 0 10 -11v-47q0 -13 -8 -24l-356 -501h354q10 0 10 -10v-95q0 -9 -10 -9h-526q-10 0 -10 11v47q0 11 8 24zM308 873q37 0 47.5 -10t10.5 -46q0 -40 -10.5 -51t-47.5 -11q-38 0 -48.5 11t-10.5 51q0 36 10.5 46t48.5 10
z" />
    <glyph glyph-name="zdotaccent" unicode="&#x17c;" horiz-adv-x="492" 
d="M37 53l256 355h-245q-9 0 -9 9v83q0 9 9 9h404q9 0 9 -10v-20q0 -12 -8 -23l-252 -355h253q9 0 9 -9v-83q0 -9 -9 -9h-415q-10 0 -10 10v20q0 12 8 23zM253 700q36 0 46 -9t10 -46q0 -41 -10 -51t-46 -10t-46 10t-10 51q0 37 10 46t46 9z" />
    <glyph glyph-name="Zcaron" unicode="&#x17d;" horiz-adv-x="596" 
d="M36 82l357 501h-343q-9 0 -9 9v95q0 10 9 10h514q10 0 10 -11v-47q0 -13 -8 -24l-356 -501h354q10 0 10 -10v-95q0 -9 -10 -9h-526q-10 0 -10 11v47q0 11 8 24zM342 747h-59q-14 0 -22 8l-108 91q-3 3 -1.5 7t5.5 6l53 37q6 3 13 -4l90 -76l90 76q8 8 13 4l53 -37
q4 -2 5.5 -6t-1.5 -7l-109 -91q-8 -8 -22 -8z" />
    <glyph glyph-name="zcaron" unicode="&#x17e;" horiz-adv-x="492" 
d="M37 53l256 355h-245q-9 0 -9 9v83q0 9 9 9h404q9 0 9 -10v-20q0 -12 -8 -23l-252 -355h253q9 0 9 -9v-83q0 -9 -9 -9h-415q-10 0 -10 10v20q0 12 8 23zM284 573h-59q-14 0 -22 8l-103 103q-3 3 -1.5 7t5.5 6l53 35q6 3 13 -4l85 -83l85 83q8 8 13 4l53 -35q4 -2 5.5 -6
t-1.5 -7l-104 -103q-8 -8 -22 -8z" />
    <glyph glyph-name="florin" unicode="&#x192;" horiz-adv-x="604" 
d="M234 18v390h-70q-9 0 -9 9v83q0 9 9 9h71v34q0 99 43 141t122 42q62 0 125 -10q8 -3 5 -13l-15 -81q-2 -9 -10 -6q-40 12 -88 12q-43 0 -55.5 -16t-12.5 -68v-35h151q9 0 9 -9v-83q0 -9 -9 -9h-151v-390q0 -222 -199 -222q-10 0 -11 8l-12 86q-4 11 6 11q64 4 82.5 25
t18.5 92z" />
    <glyph glyph-name="Ohorn" unicode="&#x1a0;" horiz-adv-x="724" 
d="M819 721l-58 -208q-4 -11 -12 -11h-66q-10 0 -8 11l29 224q2 12 13 12l91 -14q6 0 9.5 -4.5t1.5 -9.5zM362 714q79 0 132.5 -15.5t93 -55t57.5 -110t18 -177.5q0 -145 -34.5 -227t-97.5 -112.5t-169 -30.5t-169 30.5t-97.5 112.5t-34.5 227q0 107 18 177.5t57.5 110
t93 55t132.5 15.5zM363 104q43 0 67.5 5t44.5 18t29 42.5t13.5 72.5t4.5 113q0 111 -13.5 160.5t-44.5 65t-101 15.5q-54 0 -82 -6.5t-48 -33t-25.5 -72t-5.5 -129.5q0 -88 5.5 -135t25.5 -74.5t48 -34.5t82 -7z" />
    <glyph glyph-name="ohorn" unicode="&#x1a1;" horiz-adv-x="595" 
d="M654 721l-58 -208q-4 -11 -12 -11h-66q-10 0 -8 11l28 224q2 12 14 12l91 -14q6 0 9.5 -4.5t1.5 -9.5zM297 -14q-135 0 -188 58t-53 213q0 153 53.5 210t187.5 57q135 0 188.5 -57t53.5 -210q0 -155 -53.5 -213t-188.5 -58zM297 422q-41 0 -61 -4t-33.5 -23.5
t-16.5 -49.5t-3 -90q0 -62 3 -92t16.5 -48.5t33 -22.5t61.5 -4t61.5 4t33 22.5t16.5 48.5t3 92q0 60 -3 90t-16.5 49.5t-33.5 23.5t-61 4z" />
    <glyph glyph-name="Uhorn" unicode="&#x1af;" horiz-adv-x="692" 
d="M798 721l-58 -208q-4 -11 -12 -11h-66q-10 0 -8 11l29 224q2 12 13 12l91 -14q6 0 9.5 -4.5t1.5 -9.5zM346 102q91 0 116.5 24.5t25.5 106.5v455q0 9 9 9h107q9 0 9 -9v-455q0 -127 -66 -187t-201 -60q-136 0 -202 60t-66 187v455q0 9 9 9h108q9 0 9 -9v-455
q0 -82 25 -106.5t117 -24.5z" />
    <glyph glyph-name="uhorn" unicode="&#x1b0;" horiz-adv-x="583" 
d="M687 721l-58 -208q-4 -11 -12 -11h-66q-10 0 -8 11l29 224q2 12 13 12l91 -14q6 0 9.5 -4.5t1.5 -9.5zM512 89l26 -57q3 -9 -4 -13l-93 -38q-8 -4 -12 4l-34 71q-24 -28 -66 -49.5t-90 -21.5q-98 0 -138 51.5t-40 189.5v274q0 9 9 9h100q9 0 9 -9v-267q0 -51 3 -76
t16 -41t32.5 -19.5t59.5 -3.5q59 0 104 24v383q0 9 10 9h99q9 0 9 -9v-411z" />
    <glyph glyph-name="AEacute" unicode="&#x1fc;" horiz-adv-x="872" 
d="M836 0h-432q-9 0 -9 9v162h-265l-109 -176q-6 -10 -15 -8l-105 25q-9 2 -3 10l423 665q3 10 14 10h501q9 0 9 -9v-90q0 -9 -9 -9h-316v-173h251q9 0 9 -9v-89q0 -9 -9 -9h-251v-201h316q9 0 9 -9v-90q0 -9 -9 -9zM353 528l-159 -252h201v333zM716 861l-144 -118
q-6 -4 -14 -1l-56 26q-4 1 -4 5.5t2 7.5l124 119q7 7 17 3l74 -27q4 -1 4.5 -6.5t-3.5 -8.5z" />
    <glyph glyph-name="aeacute" unicode="&#x1fd;" horiz-adv-x="874" 
d="M611 524q125 0 170.5 -57t45.5 -225q0 -13 -14 -13h-307q2 -96 23 -119.5t104 -23.5q82 0 144 20q8 3 10 -6l15 -84q3 -10 -5 -13q-76 -17 -176 -17q-155 0 -198 76q-76 -76 -183 -76q-102 0 -144.5 39.5t-42.5 135.5q0 95 42 132.5t145 37.5q42 0 84 -21t60 -45v46
q0 72 -22.5 93.5t-99.5 21.5q-81 0 -146 -19q-8 -3 -10 6l-15 81q-4 11 5 13q83 17 176 17q127 0 174 -61q44 61 165 61zM279 240q-63 0 -81.5 -15t-18.5 -62q0 -45 19 -59.5t81 -14.5q56 0 105 26v98q-51 27 -105 27zM507 316h200q-2 72 -19 92t-80 20q-62 0 -80.5 -20.5
t-20.5 -91.5zM574 689l-133 -123q-6 -4 -14 -1l-54 30q-4 1 -4 5.5t2 7.5l113 125q7 7 17 3l72 -32q4 -1 4.5 -6.5t-3.5 -8.5z" />
    <glyph glyph-name="Oslashacute" unicode="&#x1fe;" horiz-adv-x="724" 
d="M502 861l-144 -118q-6 -4 -14 -1l-56 26q-4 1 -4 5.5t2 7.5l124 119q7 7 17 3l74 -27q4 -1 4.5 -6.5t-3.5 -8.5zM625 718l-43 -73q81 -79 81 -289q0 -145 -34.5 -227t-97.5 -112.5t-169 -30.5q-88 0 -137 25l-44 -77q-4 -9 -12 -4l-71 34q-4 1 -5 5t1 6l48 83
q-81 83 -81 298q0 107 18 177.5t57.5 110t93 55t132.5 15.5q86 0 135 -24l40 70q4 10 12 4l72 -34q7 -4 4 -12zM202 355q0 -106 12 -160l225 386q-17 15 -76 15q-54 0 -82 -6.5t-48 -33t-25.5 -72t-5.5 -129.5zM363 104q43 0 67.5 5t44.5 18t29 42.5t13.5 72.5t4.5 113
q0 99 -12 152l-226 -386q18 -17 79 -17z" />
    <glyph glyph-name="oslashacute" unicode="&#x1ff;" horiz-adv-x="595" 
d="M420 689l-133 -123q-6 -4 -14 -1l-54 30q-4 1 -4 5.5t2 7.5l113 125q7 7 17 3l72 -32q4 -1 4.5 -6.5t-3.5 -8.5zM534 541l-48 -75q53 -59 53 -209q0 -155 -53.5 -213t-188.5 -58q-68 0 -113 13l-44 -69q-4 -9 -12 -4l-66 28q-8 6 -4 11l50 79q-52 59 -52 213
q0 153 53.5 210t187.5 57q63 0 109 -12l47 75q3 8 12 4l65 -39q9 -2 4 -11zM411 255q0 59 -4 90l-163 -254q14 -3 53 -3q42 0 61.5 4t33 22.5t16.5 48.5t3 92zM297 422q-41 0 -61 -4t-33.5 -23.5t-16.5 -49.5t-3 -90q0 -66 3 -88l160 252q-19 3 -49 3z" />
    <glyph glyph-name="Scommaaccent" unicode="&#x218;" horiz-adv-x="618" 
d="M338 714q96 0 189 -22q9 -2 5 -14l-16 -98q-2 -9 -11 -6q-78 24 -174 24q-88 0 -110.5 -18t-22.5 -77q0 -51 22 -64.5t119 -24.5q122 -13 172 -61t50 -146q0 -120 -68 -170.5t-218 -50.5q-100 0 -194 21q-9 3 -5 14l16 98q1 4 4.5 6t5.5 1q83 -25 180 -25q89 0 115 19.5
t26 77.5q0 37 -8.5 53.5t-39 27.5t-99.5 18q-118 12 -167.5 55.5t-49.5 139.5q0 122 65 172t214 50zM367 -78l-63 -158q-4 -11 -12 -11h-61q-10 0 -8 11l34 174q2 12 13 12l86 -14q6 0 9.5 -4.5t1.5 -9.5z" />
    <glyph glyph-name="scommaaccent" unicode="&#x219;" horiz-adv-x="505" 
d="M83 108q82 -24 162 -24q53 0 69 13t16 53q0 32 -16.5 43t-80.5 18q-97 9 -138.5 43t-41.5 107q0 85 51.5 124t160.5 39q84 0 165 -19q8 -3 5 -13l-15 -84q-2 -9 -10 -6q-63 23 -152 23q-51 0 -66.5 -12t-15.5 -50q0 -31 16.5 -41t81.5 -17q102 -10 140.5 -45t38.5 -106
q0 -89 -51.5 -128.5t-164.5 -39.5q-94 0 -174 19q-9 2 -5 13l15 84q2 9 10 6zM317 -78l-63 -158q-4 -11 -12 -11h-61q-10 0 -8 11l34 174q2 12 13 12l86 -14q6 0 9.5 -4.5t1.5 -9.5z" />
    <glyph glyph-name="circumflex" unicode="&#x2c6;" horiz-adv-x="654" 
d="M322 729h59q14 0 22 -8l104 -103q3 -3 1.5 -7t-5.5 -6l-53 -35q-6 -3 -13 4l-85 83l-85 -83q-8 -8 -13 -4l-53 35q-4 2 -5.5 6t1.5 7l103 103q8 8 22 8z" />
    <glyph glyph-name="caron" unicode="&#x2c7;" horiz-adv-x="654" 
d="M381 573h-59q-14 0 -22 8l-103 103q-3 3 -1.5 7t5.5 6l53 35q6 3 13 -4l85 -83l85 83q8 8 13 4l53 -35q4 -2 5.5 -6t-1.5 -7l-104 -103q-8 -8 -22 -8z" />
    <glyph glyph-name="breve" unicode="&#x2d8;" horiz-adv-x="584" 
d="M285 651q45 0 57 11.5t12 51.5q0 9 10 9h58q10 0 10 -9q0 -77 -34.5 -108.5t-112.5 -31.5t-112 31.5t-34 108.5q0 9 10 9h58q9 0 9 -9q0 -40 12 -51.5t57 -11.5z" />
    <glyph glyph-name="dotaccent" unicode="&#x2d9;" horiz-adv-x="340" 
d="M123 700q36 0 46 -9t10 -46q0 -41 -10 -51t-46 -10t-46 10t-10 51q0 37 10 46t46 9z" />
    <glyph glyph-name="ring" unicode="&#x2da;" horiz-adv-x="727" 
d="M340 756q120 0 120 -104q0 -103 -120 -103q-121 0 -121 103q0 104 121 104zM340 696q-32 0 -40.5 -7.5t-8.5 -37.5q0 -29 8.5 -36.5t40.5 -7.5q33 0 41 7.5t8 36.5q0 31 -8 38t-41 7z" />
    <glyph glyph-name="ogonek" unicode="&#x2db;" horiz-adv-x="641" 
d="M482 -125l14 -48q5 -13 -5 -16q-46 -14 -102 -14q-69 0 -93 23t-24 72q0 88 115 120h44q-49 -29 -63 -47.5t-14 -47.5q0 -23 9.5 -33.5t40.5 -10.5q41 0 65 9q10 2 13 -7z" />
    <glyph glyph-name="tilde" unicode="&#x2dc;" horiz-adv-x="518" 
d="M191 624q-29 0 -53 -45q-2 -4 -8 -4q-4 0 -6 3l-40 45q-6 8 2 18q58 69 105 69q29 0 68.5 -23.5t61.5 -23.5q33 0 59 44q2 4 7 4q4 0 7 -3l37 -40q10 -10 -2 -24q-45 -68 -104 -68q-37 0 -77.5 24t-56.5 24z" />
    <glyph glyph-name="hungarumlaut" unicode="&#x2dd;" horiz-adv-x="542" 
d="M280 685l-103 -118q-5 -5 -11 -1l-47 21q-3 1 -3.5 5.5t1.5 7.5l88 124q5 7 13 3l61 -27q4 -1 4 -6.5t-3 -8.5zM446 685l-103 -118q-5 -5 -11 -1l-47 21q-3 1 -3.5 5.5t1.5 7.5l88 124q5 7 13 3l61 -27q4 -1 4 -6.5t-3 -8.5z" />
    <glyph glyph-name="gravecomb" unicode="&#x300;" horiz-adv-x="481" 
d="M242 566l-133 123q-4 3 -3.5 8.5t4.5 6.5l72 32q10 4 17 -3l113 -125q2 -3 2 -7.5t-4 -5.5l-54 -30q-8 -3 -14 1z" />
    <glyph glyph-name="acutecomb" unicode="&#x301;" horiz-adv-x="481" 
d="M310 689l-133 -123q-6 -4 -14 -1l-54 30q-4 1 -4 5.5t2 7.5l113 125q7 7 17 3l72 -32q4 -1 4.5 -6.5t-3.5 -8.5z" />
    <glyph glyph-name="tildecomb" unicode="&#x303;" horiz-adv-x="518" 
d="M191 624q-29 0 -53 -45q-2 -4 -8 -4q-4 0 -6 3l-40 45q-6 8 2 18q58 69 105 69q29 0 68.5 -23.5t61.5 -23.5q33 0 59 44q2 4 7 4q4 0 7 -3l37 -40q10 -10 -2 -24q-45 -68 -104 -68q-37 0 -77.5 24t-56.5 24z" />
    <glyph glyph-name="hookabovecomb" unicode="&#x309;" horiz-adv-x="641" 
d="M244 577l18 40q3 6 9 4q37 -12 87 -12q30 0 37.5 5t7.5 23q0 17 -18 21t-95 4q-4 0 -7 3.5t-1 7.5l16 41h78q62 0 88 -18t26 -58q0 -45 -31 -65.5t-108 -20.5q-69 0 -104 15q-6 2 -3 10z" />
    <glyph glyph-name="dotbelowcomb" unicode="&#x323;" horiz-adv-x="361" 
d="M179 -62q43 0 56 -11.5t13 -52.5q0 -46 -13 -58.5t-56 -12.5q-42 0 -55 12.5t-13 58.5q0 41 13 52.5t55 11.5z" />
    <glyph glyph-name="Delta" unicode="&#x394;" horiz-adv-x="608" 
d="M376 697l229 -685q0 -12 -9 -12h-583q-4 0 -7 4t-2 8l230 685q4 9 10 9h122q6 0 10 -9zM288 511l-127 -398h285l-129 398l-14 58z" />
    <glyph glyph-name="Delta" unicode="&#x2206;" horiz-adv-x="608" 
d="M376 697l229 -685q0 -12 -9 -12h-583q-4 0 -7 4t-2 8l230 685q4 9 10 9h122q6 0 10 -9zM288 511l-127 -398h285l-129 398l-14 58z" />
    <glyph glyph-name="uni03A9" unicode="&#x3a9;" horiz-adv-x="776" 
d="M47 100h164q-138 75 -138 297q0 93 18.5 154.5t58.5 97.5t97 50.5t141 14.5q169 0 241.5 -68.5t72.5 -248.5q0 -222 -137 -297h164q12 0 12 -12v-76q0 -12 -12 -12h-276q-13 0 -13 12v97q0 11 12 11q65 23 89.5 85t24.5 170q0 75 -6.5 117t-27.5 68.5t-53.5 34.5t-90.5 8
q-110 0 -143.5 -42.5t-33.5 -185.5q0 -108 24.5 -170t88.5 -85q12 0 12 -11v-97q0 -12 -13 -12h-276q-12 0 -12 12v76q0 12 12 12z" />
    <glyph glyph-name="pi" unicode="&#x3c0;" horiz-adv-x="624" 
d="M53 89q61 8 78.5 27t17.5 85v203h-77q-9 0 -9 9v87q0 9 9 9h513q9 0 9 -9v-87q0 -9 -9 -9h-69v-395q0 -9 -9 -9h-97q-9 0 -9 9v395h-137v-243q0 -84 -49.5 -129.5t-144.5 -45.5q-10 0 -11 10l-12 83q-3 8 6 10z" />
    <glyph glyph-name="afii10023" unicode="&#x401;" horiz-adv-x="562" 
d="M526 0h-432q-9 0 -9 9v679q0 9 9 9h432q9 0 9 -9v-90q0 -9 -9 -9h-316v-173h251q9 0 9 -9v-89q0 -9 -9 -9h-251v-201h316q9 0 9 -9v-90q0 -9 -9 -9zM207 873q37 0 47.5 -10t10.5 -46q0 -40 -10.5 -51t-47.5 -11q-38 0 -48.5 11t-10.5 51q0 36 10.5 46t48.5 10zM422 873
q37 0 47.5 -10t10.5 -46q0 -40 -10.5 -51t-47.5 -11q-38 0 -48.5 11t-10.5 51q0 36 10.5 46t48.5 10z" />
    <glyph glyph-name="afii10051" unicode="&#x402;" horiz-adv-x="735" 
d="M555 18v218q0 95 -19 118.5t-90 23.5q-56 0 -105 -26v-343q0 -9 -9 -9h-108q-9 0 -9 9v573h-206q-9 0 -9 9v97q0 9 9 9h538q9 0 9 -9v-97q0 -9 -9 -9h-206v-169q24 28 65 49.5t90 21.5q102 0 139.5 -55.5t37.5 -211.5v-147q0 -145 -46 -209t-158 -64q-7 0 -9 7l-12 87
q-1 1 -1 3q0 6 7 8q64 4 82.5 24.5t18.5 91.5z" />
    <glyph glyph-name="afii10052" unicode="&#x403;" horiz-adv-x="515" 
d="M451 861l-144 -118q-6 -4 -14 -1l-56 26q-4 1 -4 5.5t2 7.5l124 119q7 7 17 3l74 -27q4 -1 4.5 -6.5t-3.5 -8.5zM506 582h-296v-573q0 -9 -9 -9h-107q-9 0 -9 9v679q0 9 9 9h412q9 0 9 -9v-97q0 -9 -9 -9z" />
    <glyph glyph-name="afii10053" unicode="&#x404;" horiz-adv-x="588" 
d="M457 309h-255q2 -71 9 -110.5t28.5 -61.5t50 -28t83.5 -6q92 0 163 22q8 3 10 -6l18 -101q3 -10 -5 -13q-86 -19 -186 -19q-115 0 -180.5 31t-98.5 111.5t-33 226.5q0 108 17 178t56.5 110t95.5 55.5t143 15.5q95 0 186 -20q9 -2 5 -13l-18 -100q-2 -9 -10 -6
q-76 22 -163 22q-53 0 -81.5 -5.5t-49.5 -25t-29 -54.5t-10 -97h254q9 0 9 -9v-88q0 -9 -9 -9z" />
    <glyph glyph-name="afii10054" unicode="&#x405;" horiz-adv-x="618" 
d="M338 714q96 0 189 -22q9 -2 5 -14l-16 -98q-2 -9 -11 -6q-78 24 -174 24q-88 0 -110.5 -18t-22.5 -77q0 -51 22 -64.5t119 -24.5q122 -13 172 -61t50 -146q0 -120 -68 -170.5t-218 -50.5q-100 0 -194 21q-9 3 -5 14l16 98q1 4 4.5 6t5.5 1q83 -25 180 -25q89 0 115 19.5
t26 77.5q0 37 -8.5 53.5t-39 27.5t-99.5 18q-118 12 -167.5 55.5t-49.5 139.5q0 122 65 172t214 50z" />
    <glyph glyph-name="afii10055" unicode="&#x406;" horiz-adv-x="295" 
d="M210 688v-679q0 -9 -9 -9h-107q-9 0 -9 9v679q0 9 9 9h107q9 0 9 -9z" />
    <glyph glyph-name="afii10056" unicode="&#x407;" horiz-adv-x="295" 
d="M210 688v-679q0 -9 -9 -9h-107q-9 0 -9 9v679q0 9 9 9h107q9 0 9 -9zM40 873q37 0 47.5 -10t10.5 -46q0 -40 -10.5 -51t-47.5 -11q-38 0 -48.5 11t-10.5 51q0 36 10.5 46t48.5 10zM255 873q37 0 47.5 -10t10.5 -46q0 -40 -10.5 -51t-47.5 -11q-38 0 -48.5 11t-10.5 51
q0 36 10.5 46t48.5 10z" />
    <glyph glyph-name="afii10057" unicode="&#x408;" horiz-adv-x="462" 
d="M5 7q-9 3 -5 14l16 98q1 3 4.5 5.5t6.5 1.5q61 -22 134 -22q54 0 73 21.5t19 82.5v480q0 9 9 9h107q9 0 9 -9v-496q0 -109 -55.5 -157.5t-147.5 -48.5q-95 0 -170 21z" />
    <glyph glyph-name="afii10058" unicode="&#x409;" horiz-adv-x="1008" 
d="M589 330v-225h191q38 0 53 23.5t15 86.5q0 67 -16 91t-54 24h-189zM787 0h-314q-9 0 -9 9v573h-199q-2 -140 -26.5 -294.5t-70.5 -287.5q-4 -10 -11 -10l-113 20q-9 0 -9 10q109 270 109 668q0 9 9 9h427q9 0 9 -9v-253h157q121 0 178.5 -48.5t57.5 -168.5
q0 -108 -53 -163t-142 -55z" />
    <glyph glyph-name="afii10059" unicode="&#x40a;" horiz-adv-x="987" 
d="M569 331v-226h191q37 0 52.5 23.5t15.5 86.5q0 66 -16 91t-54 25h-189zM767 0h-315q-9 0 -9 9v322h-233v-322q0 -9 -9 -9h-107q-9 0 -9 9v679q0 9 9 9h107q9 0 9 -9v-253h233v253q0 9 9 9h108q9 0 9 -9v-253h165q118 0 174 -50t56 -168q0 -109 -54 -163t-143 -54z" />
    <glyph glyph-name="afii10060" unicode="&#x40b;" horiz-adv-x="735" 
d="M673 243v-234q0 -9 -9 -9h-100q-9 0 -9 9v227q0 95 -19 118.5t-90 23.5q-56 0 -105 -26v-343q0 -9 -9 -9h-108q-9 0 -9 9v573h-206q-9 0 -9 9v97q0 9 9 9h538q9 0 9 -9v-97q0 -9 -9 -9h-206v-169q24 28 65 49.5t90 21.5q98 0 137.5 -51.5t39.5 -189.5z" />
    <glyph glyph-name="afii10061" unicode="&#x40c;" horiz-adv-x="634" 
d="M465 861l-144 -118q-6 -4 -14 -1l-56 26q-4 1 -4 5.5t2 7.5l124 119q7 7 17 3l74 -27q4 -1 4.5 -6.5t-3.5 -8.5zM360 364q33 -19 64.5 -64t51.5 -86.5t50.5 -74.5t65.5 -33q9 0 9 -9l-27 -102q0 -9 -9 -9q-55 0 -96 27.5t-68.5 71.5t-51.5 90.5t-60 94t-79 73.5v-334
q0 -9 -9 -9h-107q-9 0 -9 9v679q0 9 9 9h107q9 0 9 -9v-315q43 26 78.5 71.5t59 90t50 86t67 67.5t95.5 26q9 0 9 -9l27 -100q0 -9 -9 -9q-32 0 -57 -18.5t-43 -47.5t-35 -59.5t-40.5 -61t-51.5 -45.5z" />
    <glyph glyph-name="afii10062" unicode="&#x40e;" horiz-adv-x="550" 
d="M270 811q46 0 57 14t11 59q0 9 10 9h68q10 0 10 -9q0 -75 -37.5 -105.5t-119.5 -30.5q-81 0 -118 30.5t-37 105.5q0 9 10 9h68q9 0 9 -9q0 -45 11.5 -59t57.5 -14zM548 679l-198 -541q-30 -83 -85.5 -117.5t-141.5 -34.5q-10 -2 -12 7l-14 88q-1 4 1 7.5t5 3.5
q56 0 84.5 20t50.5 80h-35q-21 0 -27 18l-172 469q-4 9 6 11l113 24q10 2 12 -7l119 -349l22 -85l24 85l118 349q2 9 12 7l112 -24q10 -2 6 -11z" />
    <glyph glyph-name="afii10145" unicode="&#x40f;" horiz-adv-x="701" 
d="M616 688v-679q0 -9 -9 -9h-200l-13 -137q0 -9 -9 -9h-69q-9 0 -9 9l-13 137h-200q-9 0 -9 9v679q0 9 9 9h107q9 0 9 -9v-573h281v573q0 9 9 9h107q9 0 9 -9z" />
    <glyph glyph-name="afii10017" unicode="&#x410;" horiz-adv-x="620" 
d="M439 171h-261l-55 -176q-2 -10 -12 -8l-104 25q-9 2 -6 10l218 665q2 10 11 10h159q10 0 12 -10l218 -664q3 -9 -6 -11l-105 -25q-11 -2 -13 8zM407 276l-79 252l-19 89l-19 -89l-80 -252h197z" />
    <glyph glyph-name="afii10018" unicode="&#x411;" horiz-adv-x="630" 
d="M210 305v-197h176q39 0 53.5 19.5t14.5 77.5q0 61 -16 80.5t-54 19.5h-174zM210 582v-171h178q103 0 153 -48.5t50 -155.5q0 -108 -53.5 -157.5t-144.5 -49.5h-299q-9 0 -9 9v679q0 9 9 9h449q9 0 9 -9v-97q0 -9 -9 -9h-333z" />
    <glyph glyph-name="afii10019" unicode="&#x412;" horiz-adv-x="664" 
d="M210 310v-205h192q39 0 53.5 19.5t14.5 79.5q0 61 -17.5 83.5t-54.5 22.5h-188zM407 0h-313q-9 0 -9 9v679q0 9 9 9h307q188 0 188 -168q0 -72 -35 -113t-117 -49q167 -8 167 -177q0 -98 -53.5 -144t-143.5 -46zM210 592v-177h186q35 0 48 18.5t13 70.5q0 55 -12.5 71.5
t-48.5 16.5h-186z" />
    <glyph glyph-name="afii10020" unicode="&#x413;" horiz-adv-x="515" 
d="M506 582h-296v-573q0 -9 -9 -9h-107q-9 0 -9 9v679q0 9 9 9h412q9 0 9 -9v-97q0 -9 -9 -9z" />
    <glyph glyph-name="afii10021" unicode="&#x414;" horiz-adv-x="761" 
d="M626 0h-496v-143q0 -9 -9 -9h-82q-9 0 -9 9l-25 242q0 9 9 9h104q48 125 63 251t15 329q0 9 9 9h409q9 0 9 -9v-580h119q9 0 9 -9l-25 -242q0 -9 -9 -9h-82q-9 0 -9 9v143zM319 582q-4 -285 -88 -474h266v474h-178z" />
    <glyph glyph-name="afii10022" unicode="&#x415;" horiz-adv-x="562" 
d="M526 0h-432q-9 0 -9 9v679q0 9 9 9h432q9 0 9 -9v-90q0 -9 -9 -9h-316v-173h251q9 0 9 -9v-89q0 -9 -9 -9h-251v-201h316q9 0 9 -9v-90q0 -9 -9 -9z" />
    <glyph glyph-name="afii10024" unicode="&#x416;" horiz-adv-x="934" 
d="M254 364q-28 15 -50 45.5t-36.5 61t-30.5 59.5t-39.5 47.5t-54.5 18.5q-9 0 -9 9l28 100q0 9 9 9q59 0 99.5 -26t63.5 -67.5t43 -86t52 -90t75 -71.5v315q0 9 9 9h108q9 0 9 -9v-315q43 26 75 71.5t52 90t43 86t63.5 67.5t99.5 26q9 0 9 -9l28 -100q0 -9 -9 -9
q-31 0 -54.5 -18.5t-39.5 -47.5t-30.5 -59.5t-36.5 -61t-50 -45.5q33 -19 62 -64t46 -87t45 -74.5t63 -32.5q9 0 9 -9l-28 -102q0 -9 -9 -9q-50 0 -87 20t-58.5 51t-42.5 72t-37.5 79t-46 75.5t-66.5 59.5v-334q0 -9 -9 -9h-108q-9 0 -9 9v334q-37 -22 -66.5 -59.5
t-46 -75.5t-37.5 -79t-42.5 -72t-58.5 -51t-87 -20q-9 0 -9 9l-28 102q0 9 9 9q35 0 63 32.5t45 74.5t46 87t62 64z" />
    <glyph glyph-name="afii10025" unicode="&#x417;" horiz-adv-x="590" 
d="M279 313h-114q-9 0 -9 9v84q0 9 9 9h113q67 0 87.5 19.5t20.5 77.5q0 55 -21 72t-99 17q-112 0 -183 -21q-8 -3 -10 6l-16 96q-4 11 5 13q86 19 200 19q147 0 203.5 -40t56.5 -136q0 -151 -149 -169q160 -12 160 -179q0 -113 -61.5 -158.5t-210.5 -45.5q-113 0 -198 19
q-8 3 -5 13l17 97q2 9 10 6q68 -22 179 -22q85 0 107.5 19.5t22.5 88.5q0 67 -20.5 86.5t-94.5 19.5z" />
    <glyph glyph-name="afii10026" unicode="&#x418;" horiz-adv-x="714" 
d="M245 265l227 423q4 9 16 9h132q7 0 9 -9v-679q0 -9 -9 -9h-107q-9 0 -9 9v415l7 106l-42 -98l-227 -423q-5 -9 -16 -9h-132q-7 0 -9 9v679q0 9 9 9h107q9 0 9 -9v-416l-7 -108z" />
    <glyph glyph-name="afii10027" unicode="&#x419;" horiz-adv-x="714" 
d="M364 748q-81 0 -118 30.5t-37 105.5q0 9 10 9h68q9 0 9 -9q0 -45 11.5 -59t57.5 -14t57 14t11 59q0 9 10 9h68q10 0 10 -9q0 -75 -37.5 -105.5t-119.5 -30.5zM245 265l227 423q4 9 16 9h132q7 0 9 -9v-679q0 -9 -9 -9h-107q-9 0 -9 9v415l7 106l-42 -98l-227 -423
q-5 -9 -16 -9h-132q-7 0 -9 9v679q0 9 9 9h107q9 0 9 -9v-416l-7 -108z" />
    <glyph glyph-name="afii10028" unicode="&#x41a;" horiz-adv-x="634" 
d="M360 364q33 -19 64.5 -64t51.5 -86.5t50.5 -74.5t65.5 -33q9 0 9 -9l-27 -102q0 -9 -9 -9q-55 0 -96 27.5t-68.5 71.5t-51.5 90.5t-60 94t-79 73.5v-334q0 -9 -9 -9h-107q-9 0 -9 9v679q0 9 9 9h107q9 0 9 -9v-315q43 26 78.5 71.5t59 90t50 86t67 67.5t95.5 26q9 0 9 -9
l27 -100q0 -9 -9 -9q-32 0 -57 -18.5t-43 -47.5t-35 -59.5t-40.5 -61t-51.5 -45.5z" />
    <glyph glyph-name="afii10029" unicode="&#x41b;" horiz-adv-x="674" 
d="M35 23q109 253 109 665q0 9 9 9h427q9 0 9 -9v-679q0 -9 -9 -9h-107q-9 0 -9 9v573h-199q-2 -140 -26.5 -296t-70.5 -289q-4 -9 -10 -9h-1l-113 24q-9 0 -9 11z" />
    <glyph glyph-name="afii10030" unicode="&#x41c;" horiz-adv-x="873" 
d="M451 227l131 461q2 9 15 9h182q7 0 9 -9v-679q0 -9 -9 -9h-107q-9 0 -9 9v508l5 87l-19 -86l-130 -450q-3 -18 -15 -18h-129q-15 0 -20 18l-131 453l-19 83l5 -86v-509q0 -9 -9 -9h-107q-9 0 -9 9v679q2 9 9 9h184q11 0 16 -9l130 -461l14 -85z" />
    <glyph glyph-name="afii10031" unicode="&#x41d;" horiz-adv-x="701" 
d="M616 688v-679q0 -9 -9 -9h-107q-9 0 -9 9v302h-281v-302q0 -9 -9 -9h-107q-9 0 -9 9v679q0 9 9 9h107q9 0 9 -9v-262h281v262q0 9 9 9h107q9 0 9 -9z" />
    <glyph glyph-name="afii10032" unicode="&#x41e;" horiz-adv-x="724" 
d="M362 714q79 0 132.5 -15.5t93 -55t57.5 -110t18 -177.5q0 -145 -34.5 -227t-97.5 -112.5t-169 -30.5t-169 30.5t-97.5 112.5t-34.5 227q0 107 18 177.5t57.5 110t93 55t132.5 15.5zM363 104q43 0 67.5 5t44.5 18t29 42.5t13.5 72.5t4.5 113q0 111 -13.5 160.5t-44.5 65
t-101 15.5q-54 0 -82 -6.5t-48 -33t-25.5 -72t-5.5 -129.5q0 -88 5.5 -135t25.5 -74.5t48 -34.5t82 -7z" />
    <glyph glyph-name="afii10033" unicode="&#x41f;" horiz-adv-x="701" 
d="M616 688v-679q0 -9 -9 -9h-107q-9 0 -9 9v573h-281v-573q0 -9 -9 -9h-107q-9 0 -9 9v679q0 9 9 9h513q9 0 9 -9z" />
    <glyph glyph-name="afii10034" unicode="&#x420;" horiz-adv-x="629" 
d="M210 592v-226h189q38 0 54 25t16 90q0 64 -15 87.5t-53 23.5h-191zM210 261v-252q0 -9 -9 -9h-107q-9 0 -9 9v679q0 9 9 9h314q90 0 144 -54t54 -164q0 -119 -58 -168.5t-181 -49.5h-157z" />
    <glyph glyph-name="afii10035" unicode="&#x421;" horiz-adv-x="588" 
d="M373 103q92 0 163 22q8 3 10 -6l18 -101q3 -10 -5 -13q-86 -19 -186 -19q-115 0 -180.5 31t-98.5 111.5t-33 226.5q0 108 17 178t56.5 110t95.5 55.5t143 15.5q95 0 186 -20q9 -2 5 -13l-18 -100q-2 -9 -10 -6q-76 22 -163 22q-59 0 -88.5 -6.5t-50.5 -33.5t-26.5 -72
t-5.5 -131q0 -59 2.5 -97.5t10.5 -68t18.5 -45t31.5 -25.5t45 -12.5t63 -2.5z" />
    <glyph glyph-name="afii10036" unicode="&#x422;" horiz-adv-x="556" 
d="M547 697q9 0 9 -9v-97q0 -9 -9 -9h-206v-573q0 -9 -9 -9h-108q-9 0 -9 9v573h-206q-9 0 -9 9v97q0 9 9 9h538z" />
    <glyph glyph-name="afii10037" unicode="&#x423;" horiz-adv-x="550" 
d="M548 679l-198 -541q-30 -83 -85.5 -117.5t-141.5 -34.5q-10 -2 -12 7l-14 88q-1 4 1 7.5t5 3.5q56 0 84.5 20t50.5 80h-35q-21 0 -27 18l-172 469q-4 9 6 11l113 24q10 2 12 -7l119 -349l22 -85l24 85l118 349q2 9 12 7l112 -24q10 -2 6 -11z" />
    <glyph glyph-name="afii10038" unicode="&#x424;" horiz-adv-x="943" 
d="M534 490v-274q51 -27 105 -27q42 0 62.5 4.5t34.5 23t17 48t3 88.5t-3 88.5t-17 48t-34.5 23t-62.5 4.5q-54 0 -105 -27zM409 216v274q-51 27 -105 27q-42 0 -62.5 -4.5t-34.5 -23t-17 -48t-3 -88.5t3 -88.5t17 -48t34.5 -23t62.5 -4.5q54 0 105 27zM525 0h-107
q-9 0 -9 9v146q-21 -28 -65.5 -49.5t-87.5 -21.5q-108 0 -154 59t-46 210t46 210t155 59q42 0 86 -22t66 -50v138q0 9 9 9h107q9 0 9 -9v-138q22 28 66 50t86 22q109 0 155 -59t46 -210t-46 -210t-154 -59q-43 0 -87.5 21.5t-65.5 49.5v-146q0 -9 -9 -9z" />
    <glyph glyph-name="afii10039" unicode="&#x425;" horiz-adv-x="621" 
d="M18 57l212 292l-208 293q-2 1 -2 5q0 7 4 8l91 59q1 1 5 1q8 0 9 -4l157 -231l24 -46l25 46l156 231q3 4 10 4q4 0 5 -1l90 -58q5 -3 5 -9q0 -3 -2 -5l-209 -293l212 -289q6 -10 -3 -15l-89 -59q-4 -2 -5 -2q-7 0 -9 4l-156 224l-30 53l-29 -53l-156 -224q-2 -4 -9 -4
q-3 0 -5 2l-91 58q-4 1 -4 7q0 4 2 6z" />
    <glyph glyph-name="afii10040" unicode="&#x426;" horiz-adv-x="725" 
d="M599 0h-505q-9 0 -9 9v679q0 9 9 9h107q9 0 9 -9v-580h261v580q0 9 9 9h107q9 0 9 -9v-580h119q9 0 9 -9l-25 -237q0 -9 -9 -9h-82q-9 0 -9 9v138z" />
    <glyph glyph-name="afii10041" unicode="&#x427;" horiz-adv-x="656" 
d="M183 688v-201q0 -61 3 -90t18 -48.5t38.5 -24t70.5 -4.5q77 0 132 27v341q0 9 9 9h108q9 0 9 -9v-679q0 -9 -9 -9h-108q-9 0 -9 9v276q-27 -31 -80.5 -52t-118.5 -21q-99 0 -144 55t-45 188v233q0 9 9 9h108q9 0 9 -9z" />
    <glyph glyph-name="afii10042" unicode="&#x428;" horiz-adv-x="987" 
d="M556 108h221v580q0 9 9 9h107q9 0 9 -9v-679q0 -9 -9 -9h-799q-9 0 -9 9v679q0 9 9 9h107q9 0 9 -9v-580h221v580q0 9 9 9h107q9 0 9 -9v-580z" />
    <glyph glyph-name="afii10043" unicode="&#x429;" horiz-adv-x="1031" 
d="M905 0h-811q-9 0 -9 9v679q0 9 9 9h107q9 0 9 -9v-580h221v580q0 9 9 9h107q9 0 9 -9v-580h221v580q0 9 9 9h107q9 0 9 -9v-580h119q9 0 9 -9l-25 -237q0 -9 -9 -9h-82q-9 0 -9 9v138z" />
    <glyph glyph-name="afii10044" unicode="&#x42a;" horiz-adv-x="660" 
d="M242 330v-225h170q51 0 70 19t19 91q0 35 -5.5 57.5t-11 34t-22 17t-25 6t-33.5 0.5h-162zM242 688v-253h165q118 0 174 -50t56 -168q0 -109 -54 -163t-143 -54h-315q-9 0 -9 9v573h-102q-9 0 -9 9v97q0 9 9 9h219q9 0 9 -9z" />
    <glyph glyph-name="afii10045" unicode="&#x42b;" horiz-adv-x="876" 
d="M210 330v-225h170q52 0 70.5 19t18.5 91q0 42 -6 67t-20.5 34.5t-25.5 11.5t-35 2h-10h-162zM85 9v679q0 9 9 9h107q9 0 9 -9v-253h193q98 0 150.5 -54t52.5 -164q0 -109 -54 -163t-144 -54h-314q-9 0 -9 9zM791 688v-679q0 -9 -9 -9h-107q-9 0 -9 9v679q0 9 9 9h107
q9 0 9 -9z" />
    <glyph glyph-name="afii10046" unicode="&#x42c;" horiz-adv-x="629" 
d="M210 330v-225h170q52 0 70.5 19t18.5 91q0 42 -6 67t-20.5 34.5t-25.5 11.5t-35 2h-10h-162zM85 9v679q0 9 9 9h107q9 0 9 -9v-253h193q98 0 150.5 -54t52.5 -164q0 -109 -54 -163t-144 -54h-314q-9 0 -9 9z" />
    <glyph glyph-name="afii10047" unicode="&#x42d;" horiz-adv-x="591" 
d="M388 309h-255q-9 0 -9 9v88q0 9 9 9h254q-2 62 -10 97t-29 54.5t-49.5 25t-81.5 5.5q-87 0 -163 -22q-8 -3 -10 6l-18 100q-4 11 5 13q91 20 186 20q87 0 143 -15.5t95.5 -55.5t56.5 -110t17 -178q0 -146 -33 -226.5t-98.5 -111.5t-180.5 -31q-100 0 -186 19q-8 3 -5 13
l18 101q2 9 10 6q71 -22 163 -22q55 0 83.5 6t50 28t28.5 61.5t9 110.5z" />
    <glyph glyph-name="afii10048" unicode="&#x42e;" horiz-adv-x="997" 
d="M635 714q79 0 132.5 -15.5t93 -55t57.5 -110t18 -177.5q0 -145 -34.5 -227t-97.5 -112.5t-169 -30.5q-74 0 -125.5 14.5t-90.5 50.5t-59 100t-24 160h-126v-302q0 -9 -9 -9h-107q-9 0 -9 9v679q0 9 9 9h107q9 0 9 -9v-262h127q11 164 82.5 226t215.5 62zM636 104
q43 0 67.5 5t44.5 18t29 42.5t13.5 72.5t4.5 113q0 111 -13.5 160.5t-44.5 65t-101 15.5q-54 0 -82 -6.5t-48 -33t-25.5 -72t-5.5 -129.5q0 -88 5.5 -135t25.5 -74.5t48 -34.5t82 -7z" />
    <glyph glyph-name="afii10049" unicode="&#x42f;" horiz-adv-x="669" 
d="M260 697h315q9 0 9 -9v-679q0 -9 -9 -9h-108q-9 0 -9 9v252h-85q-40 0 -68.5 -28t-48 -68.5t-41.5 -81t-60.5 -68.5t-92.5 -28q-9 0 -9 9l-27 101q0 10 9 10q27 1 48 17t35 40l27 48.5t30 45.5t37 29q-67 5 -108 56t-41 136q0 110 54 164t143 54zM458 366v226h-170
q-35 0 -51.5 -5.5t-27 -30t-10.5 -75.5q0 -68 15.5 -91.5t54.5 -23.5h189z" />
    <glyph glyph-name="afii10065" unicode="&#x430;" horiz-adv-x="573" 
d="M279 240q-63 0 -81.5 -15t-18.5 -62q0 -45 19 -59.5t81 -14.5q56 0 105 26v98q-51 27 -105 27zM272 524q116 0 173 -46t57 -164v-224l26 -58q4 -9 -4 -12l-93 -38q-8 -6 -12 3l-34 72q-19 -25 -61.5 -48t-83.5 -23q-102 0 -144.5 39.5t-42.5 135.5q0 95 42 132.5
t145 37.5q42 0 84 -21t60 -45v46q0 72 -22.5 93.5t-99.5 21.5q-81 0 -146 -19q-8 -3 -10 6l-15 81q-4 11 5 13q83 17 176 17z" />
    <glyph glyph-name="afii10066" unicode="&#x431;" horiz-adv-x="596" 
d="M191 312q1 -62 5 -101.5t11 -65t21 -37.5t30 -16t44 -4q74 0 94.5 22.5t20.5 104.5q0 77 -20 97.5t-95 20.5q-63 0 -111 -21zM336 697q81 0 156 25q8 3 10 -6l18 -98q3 -10 -5 -13q-81 -22 -179 -22q-88 0 -116.5 -30.5t-28.5 -131.5v-57q63 71 167 71q96 0 142 -50.5
t46 -163.5q0 -127 -57 -181t-187 -54q-137 0 -188.5 77.5t-51.5 290.5q0 194 62 268.5t212 74.5z" />
    <glyph glyph-name="afii10067" unicode="&#x432;" horiz-adv-x="541" 
d="M187 219v-124h133q28 0 38 12t10 47q0 37 -11 51t-38 14h-132zM333 0h-253q-11 0 -11 10v489q0 10 11 10h248q83 0 119 -32t36 -95q0 -94 -81 -113q92 -19 92 -128q0 -141 -161 -141zM187 413v-104h130q26 0 35.5 11t9.5 42q0 30 -9.5 40.5t-35.5 10.5h-130z" />
    <glyph glyph-name="afii10068" unicode="&#x433;" horiz-adv-x="406" 
d="M405 404h-218v-394q0 -10 -11 -10h-96q-11 0 -11 10v489q0 10 11 10h325q11 0 11 -10v-84q0 -11 -11 -11z" />
    <glyph glyph-name="afii10069" unicode="&#x434;" horiz-adv-x="644" 
d="M7 105h98q33 84 46 176t14 219q0 9 9 9h345q9 0 9 -9v-395h101q9 0 9 -9l-25 -230q0 -9 -9 -9h-82q-9 0 -9 9v134h-390v-134q0 -9 -9 -9h-82q-9 0 -9 9l-25 230q0 9 9 9zM276 409q0 -166 -66 -304h201v304h-135z" />
    <glyph glyph-name="afii10070" unicode="&#x435;" horiz-adv-x="549" 
d="M287 524q125 0 170 -57t45 -225q0 -13 -14 -13h-306q1 -96 22.5 -119.5t103.5 -23.5t145 20q8 3 10 -6l15 -84q3 -10 -5 -13q-77 -17 -176 -17q-136 0 -188.5 58t-52.5 212q0 151 52 209.5t179 58.5zM183 316h199q-2 72 -19 92t-80 20q-62 0 -80 -20.5t-20 -91.5z" />
    <glyph glyph-name="afii10072" unicode="&#x436;" horiz-adv-x="796" 
d="M340 271v229q0 9 9 9h97q9 0 9 -9v-229q43 18 69 52t38 67t27 64t49 50.5t91 19.5q7 0 9 -9l21 -83q0 -9 -8 -9q-29 -1 -46.5 -12.5t-27 -30t-18 -38.5t-27 -41.5t-46.5 -34.5q34 -16 57 -48t32 -59t29 -48t51 -22q4 0 7 -3t2 -7l-22 -83q-3 -10 -9 -10q-57 0 -91 20.5
t-50 52.5t-28.5 66.5t-39 69.5t-69.5 53v-239q0 -9 -9 -9h-97q-9 0 -9 9v239q-43 -18 -69.5 -53t-39 -69.5t-28.5 -66.5t-50 -52.5t-91 -20.5q-6 0 -9 10l-22 83q-1 4 2 7t7 3q31 1 51 22t29 48t32 59t57 48q-28 13 -46.5 34.5t-27 41.5t-18 38.5t-27 30t-46.5 12.5
q-8 0 -8 9l21 83q1 9 9 9q57 0 91 -19.5t49 -50.5t27 -64t38 -67t69 -52z" />
    <glyph glyph-name="afii10073" unicode="&#x437;" horiz-adv-x="493" 
d="M228 222h-84q-11 0 -11 10v70q0 11 11 11h82q47 0 61 12.5t14 49.5q0 29 -16.5 39t-67.5 10q-87 0 -139 -15q-11 -4 -13 8l-12 80q-2 13 9 15q64 12 159 12q119 0 168 -32.5t49 -104.5q0 -47 -21 -76t-72 -40q103 -19 103 -128q0 -83 -53.5 -120t-174.5 -37
q-91 0 -155 14q-13 3 -12 15l14 79q0 4 4 6.5t8 1.5q56 -16 138 -16q63 0 80.5 12.5t17.5 54.5q0 41 -19 55t-68 14z" />
    <glyph glyph-name="afii10074" unicode="&#x438;" horiz-adv-x="567" 
d="M498 500v-491q0 -9 -9 -9h-99q-9 0 -9 9v263l7 75l-25 -62l-170 -277q-4 -8 -12 -8h-103q-9 0 -9 9v491q0 9 9 9h98q9 0 9 -9l-1 -267l-4 -57l25 51l167 273q2 9 12 9h105q9 0 9 -9z" />
    <glyph glyph-name="afii10075" unicode="&#x439;" horiz-adv-x="567" 
d="M282 562q-81 0 -118 30.5t-37 105.5q0 9 10 9h69q10 0 10 -9q0 -46 10.5 -59.5t56.5 -13.5q45 0 56 14t11 59q0 9 9 9h70q10 0 10 -9q0 -75 -37.5 -105.5t-119.5 -30.5zM498 500v-491q0 -9 -9 -9h-99q-9 0 -9 9v263l7 75l-25 -62l-170 -277q-4 -8 -12 -8h-103q-9 0 -9 9
v491q0 9 9 9h98q9 0 9 -9l-1 -267l-4 -57l25 51l167 273q2 9 12 9h105q9 0 9 -9z" />
    <glyph glyph-name="afii10076" unicode="&#x43a;" horiz-adv-x="549" 
d="M500 424q-34 0 -57 -18.5t-34.5 -43t-35 -53t-55.5 -43.5q34 -16 60 -48.5t39 -60t36 -49t54 -22.5q9 0 9 -10l-17 -81q-2 -9 -9 -9q-56 0 -93.5 20.5t-57.5 53t-37.5 66.5t-46.5 69t-70 53v-239q0 -9 -9 -9h-97q-9 0 -9 9v491q0 9 9 9h97q9 0 9 -9v-228q41 18 69.5 52
t44.5 66.5t35.5 63.5t56 50.5t92.5 19.5q7 0 9 -9l17 -81q0 -10 -9 -10z" />
    <glyph glyph-name="afii10077" unicode="&#x43b;" horiz-adv-x="566" 
d="M32 21q52 111 71 218t19 261q0 9 9 9h357q9 0 9 -9v-491q0 -9 -9 -9h-100q-9 0 -9 9v397h-146q0 -212 -79 -410q-2 -8 -11 -8l-104 21q-8 2 -8 9l1 1v2z" />
    <glyph glyph-name="afii10078" unicode="&#x43c;" horiz-adv-x="701" 
d="M520 365l-60 -167l-57 -151q-5 -9 -13 -9h-80q-9 0 -13 8l-116 319l3 -157v-199q0 -9 -9 -9h-97q-9 0 -9 9v491q0 9 9 9h145q11 0 13 -9l66 -185l49 -149l49 149l67 185q2 9 12 9h144q9 0 9 -9v-491q0 -9 -9 -9h-98q-9 0 -9 9v199z" />
    <glyph glyph-name="afii10079" unicode="&#x43d;" horiz-adv-x="567" 
d="M498 500v-491q0 -9 -9 -9h-100q-9 0 -9 9v208h-193v-208q0 -9 -9 -9h-100q-9 0 -9 9v491q0 9 9 9h100q9 0 9 -9v-180h193v180q0 9 9 9h100q9 0 9 -9z" />
    <glyph glyph-name="afii10080" unicode="&#x43e;" horiz-adv-x="595" 
d="M297 -14q-135 0 -188 58t-53 213q0 153 53.5 210t187.5 57q135 0 188.5 -57t53.5 -210q0 -155 -53.5 -213t-188.5 -58zM297 422q-41 0 -61 -4t-33.5 -23.5t-16.5 -49.5t-3 -90q0 -62 3 -92t16.5 -48.5t33 -22.5t61.5 -4t61.5 4t33 22.5t16.5 48.5t3 92q0 60 -3 90
t-16.5 49.5t-33.5 23.5t-61 4z" />
    <glyph glyph-name="afii10081" unicode="&#x43f;" horiz-adv-x="567" 
d="M498 500v-491q0 -9 -9 -9h-100q-9 0 -9 9v397h-193v-397q0 -9 -9 -9h-100q-9 0 -9 9v491q0 9 9 9h411q9 0 9 -9z" />
    <glyph glyph-name="afii10082" unicode="&#x440;" horiz-adv-x="595" 
d="M187 392v-274q51 -27 105 -27q78 0 97.5 27t19.5 137t-19.5 137t-97.5 27q-54 0 -105 -27zM69 -183v683q0 9 9 9h100q9 0 9 -9v-48q22 28 64 50t84 22q109 0 155.5 -59t46.5 -210t-46.5 -210t-154.5 -59q-43 0 -85 21.5t-64 49.5v-240q0 -9 -9 -9h-100q-9 0 -9 9z" />
    <glyph glyph-name="afii10083" unicode="&#x441;" horiz-adv-x="462" 
d="M184 255q0 -77 9.5 -110.5t30 -43.5t70.5 -10q62 0 122 19q8 3 10 -6l15 -89q4 -11 -5 -13q-70 -16 -156 -16q-128 0 -176 57.5t-48 212.5q0 154 48 211t176 57q79 0 156 -16q8 -3 5 -13l-15 -89q-2 -9 -10 -6q-57 18 -122 18q-49 0 -70.5 -11t-30.5 -44t-9 -108z" />
    <glyph glyph-name="afii10084" unicode="&#x442;" horiz-adv-x="443" 
d="M434 406h-154v-397q0 -9 -9 -9h-100q-9 0 -9 9v397h-153q-9 0 -9 9v85q0 9 9 9h425q9 0 9 -9v-85q0 -9 -9 -9z" />
    <glyph glyph-name="afii10085" unicode="&#x443;" horiz-adv-x="503" 
d="M498 486l-180 -537q-28 -84 -75 -118.5t-124 -34.5q-10 0 -11 8l-13 86q-4 11 5 11q50 0 73 19t43 80h-28q-19 0 -25 18l-158 467q-4 9 6 11l104 25q9 2 11 -7l110 -350l15 -83l18 83l108 350q2 9 12 7l103 -25q9 -2 6 -10z" />
    <glyph glyph-name="afii10086" unicode="&#x444;" horiz-adv-x="927" 
d="M522 392v-274q51 -27 105 -27q42 0 62.5 4.5t34.5 23t17 48t3 88.5t-3 88.5t-17 48t-34.5 23t-62.5 4.5q-54 0 -105 -27zM404 118v274q-51 27 -105 27q-78 0 -97.5 -27t-19.5 -137t19.5 -137t97.5 -27q54 0 105 27zM513 -192h-100q-9 0 -9 9v240q-21 -28 -65.5 -49.5
t-86.5 -21.5q-105 0 -151.5 59.5t-46.5 209.5t46.5 209.5t151.5 59.5q42 0 86 -22t66 -50v236q0 9 9 9h100q9 0 9 -9v-236q22 28 66 50t86 22q106 0 152 -59t46 -210t-46 -210t-151 -59q-43 0 -87.5 21.5t-65.5 49.5v-240q0 -9 -9 -9z" />
    <glyph glyph-name="afii10087" unicode="&#x445;" horiz-adv-x="516" 
d="M26 48l156 209l-152 205q-2 2 -2 5q0 4 4 7l87 54q1 1 4 1q6 0 9 -4l103 -149l23 -42l22 42l104 149q1 4 8 4q4 0 5 -1l86 -54q4 -3 4 -6q0 -4 -2 -6l-152 -205l156 -209q2 -4 2 -5q0 -5 -4 -7l-86 -54q-2 -2 -5 -2q-6 0 -8 5l-103 147l-28 50l-26 -50l-103 -147
q-2 -5 -9 -5q-2 0 -4 2l-87 53q-8 5 -2 13z" />
    <glyph glyph-name="afii10088" unicode="&#x446;" horiz-adv-x="609" 
d="M485 -133v133h-407q-9 0 -9 9v491q0 9 9 9h100q9 0 9 -9v-395h193v395q0 9 9 9h100q9 0 9 -9v-395h102q4 0 7.5 -3t2.5 -7l-26 -228q0 -9 -9 -9h-81q-9 0 -9 9z" />
    <glyph glyph-name="afii10089" unicode="&#x447;" horiz-adv-x="576" 
d="M389 9v200q-24 -28 -65.5 -49.5t-89.5 -21.5q-101 0 -139.5 55t-38.5 204v103q0 9 9 9h100q9 0 9 -9v-97q0 -108 16.5 -133.5t93.5 -25.5q56 0 105 26v230q0 9 9 9h100q9 0 9 -9v-491q0 -9 -9 -9h-100q-9 0 -9 9z" />
    <glyph glyph-name="afii10090" unicode="&#x448;" horiz-adv-x="828" 
d="M750 0h-672q-9 0 -9 9v491q0 9 9 9h100q9 0 9 -9v-395h168v395q0 9 9 9h100q9 0 9 -9v-395h168v395q0 9 9 9h100q9 0 9 -9v-491q0 -9 -9 -9z" />
    <glyph glyph-name="afii10091" unicode="&#x449;" horiz-adv-x="870" 
d="M746 -133v133h-668q-9 0 -9 9v491q0 9 9 9h100q9 0 9 -9v-395h168v395q0 9 9 9h100q9 0 9 -9v-395h168v395q0 9 9 9h100q9 0 9 -9v-395h102q9 0 9 -9l-25 -229q0 -9 -9 -9h-81q-9 0 -9 9z" />
    <glyph glyph-name="afii10092" unicode="&#x44a;" horiz-adv-x="587" 
d="M239 236v-136h135q28 0 38 13.5t10 51.5q0 22 -4 36t-7.5 21t-15.5 10.5t-16.5 3.5h-22.5h-117zM121 409h-112q-9 0 -9 9v82q0 9 9 9h221q9 0 9 -9v-168h137q172 0 172 -164q0 -168 -168 -168h-248q-11 0 -11 10v399z" />
    <glyph glyph-name="afii10093" unicode="&#x44b;" horiz-adv-x="743" 
d="M187 236v-136h135q28 0 38 13.5t10 51.5q0 22 -4 36t-7.5 21t-15.5 10.5t-16.5 3.5h-22.5h-117zM187 500v-168h137q172 0 172 -164q0 -168 -168 -168h-248q-11 0 -11 10v490q0 9 9 9h100q9 0 9 -9zM674 500v-491q0 -9 -9 -9h-100q-9 0 -9 9v491q0 9 9 9h100q9 0 9 -9z
" />
    <glyph glyph-name="afii10094" unicode="&#x44c;" horiz-adv-x="535" 
d="M187 236v-136h135q28 0 38 13.5t10 51.5q0 22 -4 36t-7.5 21t-15.5 10.5t-16.5 3.5h-22.5h-117zM187 500v-168h137q172 0 172 -164q0 -168 -168 -168h-248q-11 0 -11 10v490q0 9 9 9h100q9 0 9 -9z" />
    <glyph glyph-name="afii10095" unicode="&#x44d;" horiz-adv-x="480" 
d="M296 222h-191q-9 0 -9 9v70q0 9 9 9h190q-4 69 -26 89.5t-83 20.5q-65 0 -122 -18q-8 -3 -10 6l-15 87q-3 10 5 13q77 16 156 16q128 0 176 -57t48 -211q0 -155 -48 -212.5t-176 -57.5q-86 0 -156 16q-9 2 -5 13l15 87q2 9 10 6q60 -19 122 -19q66 0 87 23t23 110z" />
    <glyph glyph-name="afii10096" unicode="&#x44e;" horiz-adv-x="812" 
d="M514 -14q-125 0 -179 50t-60 181h-88v-208q0 -9 -9 -9h-100q-9 0 -9 9v491q0 9 9 9h100q9 0 9 -9v-180h89q10 115 64 159.5t174 44.5q136 0 189 -56.5t53 -210.5q0 -155 -53 -213t-189 -58zM514 422q-53 0 -75 -11t-30 -44t-8 -112q0 -62 3 -92t16.5 -48.5t33 -22.5
t60.5 -4q42 0 61.5 4t33 22.5t16.5 48.5t3 92q0 60 -3 90t-16.5 49.5t-33.5 23.5t-61 4z" />
    <glyph glyph-name="afii10097" unicode="&#x44f;" horiz-adv-x="564" 
d="M377 280v129h-132q-27 0 -36.5 -13t-9.5 -49q0 -40 10.5 -53.5t38.5 -13.5h129zM181 212q-48 7 -77.5 42t-29.5 95q0 160 165 160h244q12 0 12 -10v-490q0 -9 -9 -9h-100q-9 0 -9 9v179h-64q-28 0 -46.5 -15t-28 -37t-23.5 -48.5t-29.5 -48.5t-49 -37t-80.5 -15
q-9 0 -9 8l-17 82q0 9 8 9q26 1 44 18.5t26 38.5t26.5 42t46.5 27z" />
    <glyph glyph-name="afii10071" unicode="&#x451;" horiz-adv-x="549" 
d="M287 524q125 0 170 -57t45 -225q0 -13 -14 -13h-306q1 -96 22.5 -119.5t103.5 -23.5t145 20q8 3 10 -6l15 -84q3 -10 -5 -13q-77 -17 -176 -17q-136 0 -188.5 58t-52.5 212q0 151 52 209.5t179 58.5zM183 316h199q-2 72 -19 92t-80 20q-62 0 -80 -20.5t-20 -91.5z
M189 700q35 0 44.5 -8.5t9.5 -45.5q0 -42 -9.5 -52t-44.5 -10q-36 0 -46 10t-10 52q0 36 10 45t46 9zM388 700q35 0 44.5 -8.5t9.5 -45.5q0 -42 -9.5 -52t-44.5 -10q-36 0 -46 10t-10 52q0 36 10 45t46 9z" />
    <glyph glyph-name="afii10099" unicode="&#x452;" horiz-adv-x="588" 
d="M408 18v258q0 97 -17.5 119.5t-91.5 22.5q-56 0 -105 -26v-383q0 -9 -9 -9h-100q-9 0 -9 9v570h-48q-9 0 -9 9v68q0 9 9 9h48v44q0 9 9 9h100q9 0 9 -9v-44h112q9 0 9 -9v-68q0 -9 -9 -9h-112v-126q57 70 174 70q87 -4 122.5 -56.5t35.5 -183.5v-226q0 -138 -47 -199
t-157 -61q-7 0 -9 7l-12 87q-1 1 -1 3q0 6 7 8q64 4 82.5 24.5t18.5 91.5z" />
    <glyph glyph-name="afii10100" unicode="&#x453;" horiz-adv-x="402" 
d="M376 689l-133 -123q-6 -4 -14 -1l-54 30q-4 1 -4 5.5t2 7.5l113 125q7 7 17 3l72 -32q4 -1 4.5 -6.5t-3.5 -8.5zM401 404h-218v-394q0 -10 -11 -10h-96q-11 0 -11 10v489q0 10 11 10h325q11 0 11 -10v-84q0 -11 -11 -11z" />
    <glyph glyph-name="afii10101" unicode="&#x454;" horiz-adv-x="462" 
d="M375 222h-191q2 -87 23 -110t87 -23q62 0 122 19q8 3 10 -6l15 -87q4 -11 -5 -13q-70 -16 -156 -16q-128 0 -176 57.5t-48 212.5q0 154 48 211t176 57q79 0 156 -16q8 -3 5 -13l-15 -87q-2 -9 -10 -6q-57 18 -122 18q-61 0 -83 -20.5t-26 -89.5h190q9 0 9 -9v-70
q0 -9 -9 -9z" />
    <glyph glyph-name="afii10102" unicode="&#x455;" horiz-adv-x="505" 
d="M83 108q82 -24 162 -24q53 0 69 13t16 53q0 32 -16.5 43t-80.5 18q-97 9 -138.5 43t-41.5 107q0 85 51.5 124t160.5 39q84 0 165 -19q8 -3 5 -13l-15 -84q-2 -9 -10 -6q-63 23 -152 23q-51 0 -66.5 -12t-15.5 -50q0 -31 16.5 -41t81.5 -17q102 -10 140.5 -45t38.5 -106
q0 -89 -51.5 -128.5t-164.5 -39.5q-94 0 -174 19q-9 2 -5 13l15 84q2 9 10 6z" />
    <glyph glyph-name="afii10103" unicode="&#x456;" horiz-adv-x="256" 
d="M128 717q41 0 52.5 -10t11.5 -48q0 -43 -11.5 -54t-52.5 -11t-52 11t-11 54q0 39 11 48.5t52 9.5zM187 500v-491q0 -9 -9 -9h-100q-9 0 -9 9v491q0 9 9 9h100q9 0 9 -9z" />
    <glyph glyph-name="afii10104" unicode="&#x457;" horiz-adv-x="256" 
d="M185 500v-491q0 -9 -9 -9h-97q-9 0 -9 9v491q0 9 9 9h97q9 0 9 -9zM29 700q36 0 45.5 -9t9.5 -45q0 -42 -9.5 -52t-45.5 -10t-45.5 10t-9.5 52q0 37 9.5 45.5t45.5 8.5zM228 700q36 0 45.5 -9t9.5 -45q0 -42 -9.5 -52t-45.5 -10t-45.5 10t-9.5 52q0 37 9.5 45.5t45.5 8.5
z" />
    <glyph glyph-name="afii10105" unicode="&#x458;" horiz-adv-x="256" 
d="M-33 -99q64 4 82.5 25t18.5 92v482q0 9 9 9h100q9 0 9 -9v-482q0 -222 -202 -222q-10 0 -11 8l-12 86q-4 11 6 11zM128 717q41 0 52 -9.5t11 -48.5q0 -43 -11 -54t-52 -11q-42 0 -53 11t-11 54q0 39 11 48.5t53 9.5z" />
    <glyph glyph-name="afii10106" unicode="&#x459;" horiz-adv-x="843" 
d="M495 236v-136h135q28 0 38 13.5t10 51.5q0 41 -10.5 56t-38.5 15h-134zM131 509h355q9 0 9 -9v-168h110q102 0 150.5 -38.5t48.5 -125.5q0 -82 -43 -125t-125 -43h-248q-9 0 -9 9v397h-146q0 -212 -79 -410q-2 -8 -11 -8l-104 21q-8 2 -8 9l1 1v2q52 111 71 218t19 261
q0 9 9 9z" />
    <glyph glyph-name="afii10107" unicode="&#x45a;" horiz-adv-x="844" 
d="M389 509h97q9 0 9 -9v-168h117q99 0 145.5 -38.5t46.5 -125.5q0 -90 -46.5 -129t-143.5 -39h-225q-9 0 -9 9v208h-193v-208q0 -9 -9 -9h-100q-9 0 -9 9v491q0 9 9 9h100q9 0 9 -9v-180h193v180q0 9 9 9zM495 236v-136h136q27 0 37.5 13.5t10.5 51.5q0 41 -10.5 56
t-39.5 15h-134z" />
    <glyph glyph-name="afii10108" unicode="&#x45b;" horiz-adv-x="588" 
d="M306 579h-112v-126q24 28 65 49.5t90 21.5q98 0 137.5 -51.5t39.5 -189.5v-274q0 -9 -9 -9h-100q-9 0 -9 9v267q0 97 -17.5 119.5t-91.5 22.5q-56 0 -105 -26v-383q0 -9 -9 -9h-100q-9 0 -9 9v570h-48q-9 0 -9 9v68q0 9 9 9h48v44q0 9 9 9h100q9 0 9 -9v-44h112q9 0 9 -9
v-68q0 -9 -9 -9z" />
    <glyph glyph-name="afii10109" unicode="&#x45c;" horiz-adv-x="549" 
d="M420 689l-133 -123q-6 -4 -14 -1l-54 30q-4 1 -4 5.5t2 7.5l113 125q7 7 17 3l72 -32q4 -1 4.5 -6.5t-3.5 -8.5zM500 424q9 0 9 10l-17 81q-2 9 -9 9q-56 0 -92.5 -19.5t-56 -50.5t-35.5 -63.5t-44.5 -66.5t-69.5 -52v228q0 9 -9 9h-97q-9 0 -9 -9v-491q0 -9 9 -9h97
q9 0 9 9v239q41 -18 70 -53t46.5 -69t37.5 -66.5t57.5 -53t93.5 -20.5q7 0 9 9l17 81q0 10 -9 10q-31 1 -54 22.5t-36 49t-39 60t-60 48.5q32 15 55.5 43.5t35 53t34.5 43t57 18.5z" />
    <glyph glyph-name="afii10110" unicode="&#x45e;" horiz-adv-x="503" 
d="M255 625q45 0 56 14t11 59q0 9 9 9h70q10 0 10 -9q0 -75 -37.5 -105.5t-119.5 -30.5q-81 0 -118 30.5t-37 105.5q0 9 10 9h69q10 0 10 -9q0 -46 10.5 -59.5t56.5 -13.5zM498 486l-180 -537q-28 -84 -75 -118.5t-124 -34.5q-10 0 -11 8l-13 86q-4 11 5 11q50 0 73 19
t43 80h-28q-19 0 -25 18l-158 467q-4 9 6 11l104 25q9 2 11 -7l110 -350l15 -83l18 83l108 350q2 9 12 7l103 -25q9 -2 6 -10z" />
    <glyph glyph-name="afii10193" unicode="&#x45f;" horiz-adv-x="582" 
d="M489 0h-153l-12 -127q0 -9 -9 -9h-63q-9 0 -9 9l-12 127h-153q-9 0 -9 9v491q0 9 9 9h100q9 0 9 -9v-397h193v397q0 9 9 9h100q9 0 9 -9v-491q0 -9 -9 -9z" />
    <glyph glyph-name="afii10050" unicode="&#x490;" horiz-adv-x="515" 
d="M511 582h-301v-573q0 -9 -9 -9h-107q-9 0 -9 9v679q0 9 9 9h334l13 97q0 9 9 9h61q9 0 9 -9v-203q0 -9 -9 -9z" />
    <glyph glyph-name="afii10098" unicode="&#x491;" horiz-adv-x="375" 
d="M76 509h249l12 90q0 9 9 9h60q9 0 9 -9v-186q0 -9 -9 -9h-223v-394q0 -10 -11 -10h-96q-11 0 -11 10v489q0 10 11 10z" />
    <glyph glyph-name="uni1EA6" unicode="&#x1ea6;" horiz-adv-x="620" 
d="M439 171h-261l-55 -176q-2 -10 -12 -8l-104 25q-9 2 -6 10l218 665q2 10 11 10h159q10 0 12 -10l218 -664q3 -9 -6 -11l-105 -25q-11 -2 -13 8zM407 276l-79 252l-19 89l-19 -89l-80 -252h197zM342 923l-138 118q-4 3 -3.5 8.5t4.5 6.5l72 30q10 4 17 -3l118 -120
q2 -3 2 -7.5t-4 -5.5l-54 -28q-8 -3 -14 1zM279 898h59q14 0 22 -8l108 -91q3 -3 1.5 -7t-5.5 -6l-53 -37q-6 -3 -13 4l-90 75l-90 -75q-8 -8 -13 -4l-53 37q-4 2 -5.5 6t1.5 7l109 91q8 8 22 8z" />
    <glyph glyph-name="uni1EA7" unicode="&#x1ea7;" horiz-adv-x="573" 
d="M279 240q-63 0 -81.5 -15t-18.5 -62q0 -45 19 -59.5t81 -14.5q56 0 105 26v98q-51 27 -105 27zM272 524q116 0 173 -46t57 -164v-224l26 -58q4 -9 -4 -12l-93 -38q-8 -6 -12 3l-34 72q-19 -25 -61.5 -48t-83.5 -23q-102 0 -144.5 39.5t-42.5 135.5q0 95 42 132.5
t145 37.5q42 0 84 -21t60 -45v46q0 72 -22.5 93.5t-99.5 21.5q-81 0 -146 -19q-8 -3 -10 6l-15 81q-4 11 5 13q83 17 176 17zM315 770l-138 118q-4 3 -3.5 8.5t4.5 6.5l72 30q10 4 17 -3l118 -120q2 -3 2 -7.5t-4 -5.5l-54 -28q-8 -3 -14 1zM255 729h59q14 0 22 -8l104 -103
q3 -3 1.5 -7t-5.5 -6l-53 -35q-6 -3 -13 4l-85 83l-85 -83q-8 -8 -13 -4l-53 35q-4 2 -5.5 6t1.5 7l103 103q8 8 22 8z" />
    <glyph glyph-name="endash" unicode="&#x2013;" horiz-adv-x="570" 
d="M520 222h-470q-9 0 -9 9v88q0 9 9 9h470q9 0 9 -9v-88q0 -9 -9 -9z" />
    <glyph glyph-name="emdash" unicode="&#x2014;" horiz-adv-x="839" 
d="M789 221h-739q-9 0 -9 9v89q0 9 9 9h739q9 0 9 -9v-89q0 -9 -9 -9z" />
    <glyph glyph-name="quoteleft" unicode="&#x2018;" horiz-adv-x="268" 
d="M59 530l58 208q4 11 12 11h66q10 0 8 -11l-28 -224q-2 -12 -14 -12l-91 14q-6 0 -9.5 4.5t-1.5 9.5z" />
    <glyph glyph-name="quoteright" unicode="&#x2019;" horiz-adv-x="268" 
d="M203 721l-58 -208q-4 -11 -12 -11h-66q-10 0 -8 11l29 224q2 12 13 12l91 -14q6 0 9.5 -4.5t1.5 -9.5z" />
    <glyph glyph-name="quotesinglbase" unicode="&#x201a;" horiz-adv-x="268" 
d="M203 64l-58 -208q-4 -11 -12 -11h-66q-10 0 -8 11l29 223q2 12 13 12l91 -13q6 0 9.5 -4.5t1.5 -9.5z" />
    <glyph glyph-name="quotedblleft" unicode="&#x201c;" horiz-adv-x="445" 
d="M59 530l58 208q4 11 12 11h66q10 0 8 -11l-28 -224q-2 -12 -14 -12l-91 14q-6 0 -9.5 4.5t-1.5 9.5zM242 530l58 208q4 11 12 11h66q10 0 8 -11l-29 -224q-2 -12 -13 -12l-91 14q-6 0 -9.5 4.5t-1.5 9.5z" />
    <glyph glyph-name="quotedblright" unicode="&#x201d;" horiz-adv-x="445" 
d="M386 721l-58 -208q-4 -11 -12 -11h-66q-10 0 -8 11l28 224q2 12 14 12l91 -14q6 0 9.5 -4.5t1.5 -9.5zM203 721l-58 -208q-4 -11 -12 -11h-66q-10 0 -8 11l29 224q2 12 13 12l91 -14q6 0 9.5 -4.5t1.5 -9.5z" />
    <glyph glyph-name="quotedblbase" unicode="&#x201e;" horiz-adv-x="445" 
d="M386 64l-58 -208q-4 -11 -12 -11h-66q-10 0 -8 11l28 223q2 12 14 12l91 -13q6 0 9.5 -4.5t1.5 -9.5zM203 64l-58 -208q-4 -11 -12 -11h-66q-10 0 -8 11l29 223q2 12 13 12l91 -13q6 0 9.5 -4.5t1.5 -9.5z" />
    <glyph glyph-name="dagger" unicode="&#x2020;" horiz-adv-x="571" 
d="M229 140v280h-179q-9 0 -9 9v88q0 9 9 9h179v179q0 9 9 9h96q9 0 9 -9v-179h177q9 0 9 -9v-88q0 -9 -9 -9h-177v-280q0 -9 -9 -9h-96q-9 0 -9 9z" />
    <glyph glyph-name="daggerdbl" unicode="&#x2021;" horiz-adv-x="571" 
d="M229 9v190h-179q-9 0 -9 9v88q0 9 9 9h179v134h-179q-9 0 -9 9v88q0 9 9 9h179v160q0 9 9 9h96q9 0 9 -9v-160h177q9 0 9 -9v-88q0 -9 -9 -9h-177v-134h177q9 0 9 -9v-88q0 -9 -9 -9h-177v-190q0 -9 -9 -9h-96q-9 0 -9 9z" />
    <glyph glyph-name="bullet" unicode="&#x2022;" horiz-adv-x="585" 
d="M292 56q-122 0 -175.5 59t-53.5 210q0 150 53.5 207t175.5 57t176 -57t54 -207q0 -151 -54 -210t-176 -59z" />
    <glyph glyph-name="perthousand" unicode="&#x2030;" horiz-adv-x="1504" 
d="M834 -14q-103 0 -148 50t-45 180q0 128 44.5 174.5t148.5 46.5t149 -46.5t45 -174.5q0 -130 -45 -180t-149 -50zM1270 -14q-103 0 -148 50t-45 180q0 128 44.5 174.5t148.5 46.5t149 -46.5t45 -174.5q0 -130 -45 -180t-149 -50zM233 263q-103 0 -148 50t-45 180
q0 128 44.5 174.5t148.5 46.5t149 -46.5t45 -174.5q0 -130 -45.5 -180t-148.5 -50zM826 683l-491 -721q-3 -5 -8 -5l-5 2l-81 42q-6 4 -6 6t1 3l491 722q3 4 8 4q3 0 4 -1l84 -39q4 -3 4 -8q0 -3 -1 -5zM233 620q-45 0 -57.5 -21.5t-12.5 -105.5t13 -109t57 -25
q45 0 58 24.5t13 109.5q0 84 -12.5 105.5t-58.5 21.5zM834 343q-44 0 -56.5 -21.5t-12.5 -105.5q0 -85 12.5 -109.5t56.5 -24.5q45 0 58 24.5t13 109.5q0 84 -12.5 105.5t-58.5 21.5zM1270 343q-44 0 -56.5 -21.5t-12.5 -105.5q0 -85 12.5 -109.5t56.5 -24.5q45 0 58 24.5
t13 109.5q0 84 -12.5 105.5t-58.5 21.5z" />
    <glyph glyph-name="guilsinglleft" unicode="&#x2039;" horiz-adv-x="423" 
d="M317 -1l-280 254q-5 5 -5 13v69q0 8 5 13l282 255q7 7 10 0l55 -72q4 -8 -3 -13l-222 -215l222 -215q6 -6 3 -13l-57 -76q-4 -6 -10 0z" />
    <glyph glyph-name="guilsinglright" unicode="&#x203a;" horiz-adv-x="423" 
d="M101 603l280 -254q5 -5 5 -13v-69q0 -8 -5 -13l-282 -255q-7 -7 -10 0l-55 72q-4 8 3 13l222 215l-222 215q-6 6 -3 13l57 76q4 6 10 0z" />
    <glyph glyph-name="fraction" unicode="&#x2044;" horiz-adv-x="583" 
d="M581 683l-481 -721q-3 -5 -8 -5l-5 2l-81 42q-6 4 -6 7q0 1 1 2l481 722q3 4 8 4q3 0 4 -1l84 -39q4 -3 4 -8q0 -3 -1 -5z" />
    <glyph glyph-name="fraction" unicode="&#x2215;" horiz-adv-x="583" 
d="M581 683l-481 -721q-3 -5 -8 -5l-5 2l-81 42q-6 4 -6 7q0 1 1 2l481 722q3 4 8 4q3 0 4 -1l84 -39q4 -3 4 -8q0 -3 -1 -5z" />
    <glyph glyph-name="franc" unicode="&#x20a3;" horiz-adv-x="546" 
d="M333 118h-123v-109q0 -9 -9 -9h-107q-9 0 -9 9v109h-55q-9 0 -9 9v68q0 9 9 9h55v484q0 9 9 9h427q9 0 9 -9v-90q0 -9 -9 -9h-311v-206h246q9 0 9 -9v-89q0 -9 -9 -9h-246v-72h123q9 0 9 -9v-68q0 -9 -9 -9z" />
    <glyph glyph-name="dong" unicode="&#x20ab;" horiz-adv-x="593" 
d="M581 581h-57v-572q0 -9 -9 -9h-100q-9 0 -9 9v48q-22 -28 -64.5 -49.5t-84.5 -21.5q-108 0 -154.5 58.5t-46.5 209.5t46.5 210.5t154.5 59.5q42 0 84.5 -21.5t64.5 -49.5v128h-100q-9 0 -9 9v62q0 9 9 9h100v48q0 9 9 9h100q9 0 9 -9v-48h57q9 0 9 -9v-62q0 -9 -9 -9z
M406 117v275q-49 26 -105 26q-42 0 -62.5 -4t-34.5 -23t-17 -48.5t-3 -88.5t3 -88t17 -47.5t34.5 -23t62.5 -4.5q56 0 105 26z" />
    <glyph glyph-name="Euro" unicode="&#x20ac;" horiz-adv-x="604" 
d="M376 714q95 0 186 -20q9 -2 5 -13l-18 -100q-2 -9 -10 -6q-76 22 -163 22q-85 0 -119 -21.5t-44 -94.5h246q9 0 9 -9v-61q0 -9 -9 -9h-254v-93h254q9 0 9 -9v-62q0 -9 -9 -9h-248q9 -80 43 -103t122 -23q92 0 163 22q8 3 10 -6l18 -101q3 -10 -5 -13q-86 -19 -186 -19
q-115 0 -180.5 31t-98.5 111.5t-33 226.5q0 108 17 178t56.5 110t95.5 55.5t143 15.5z" />
    <glyph glyph-name="afii61289" unicode="&#x2113;" horiz-adv-x="260" 
d="M66 109v492q0 67 25 92t88 25q62 0 88.5 -17t26.5 -75q0 -134 -110 -239v-287l31 -68q4 -8 -3 -12l-95 -38q-8 -6 -12 3l-27 64q-12 26 -12 60zM184 618v-167q25 23 44.5 76t19.5 96q0 19 -7 25t-23 6q-19 0 -26.5 -7t-7.5 -29z" />
    <glyph glyph-name="afii61352" unicode="&#x2116;" horiz-adv-x="1125" 
d="M242 688l227 -423l42 -101l-7 108v416q0 9 9 9h107q9 0 9 -9v-679q-2 -9 -9 -9h-132q-11 0 -16 9l-227 423l-42 98l7 -106v-415q0 -9 -9 -9h-107q-9 0 -9 9v679q2 9 9 9h132q9 0 16 -9zM882 331q-97 0 -138 41.5t-41 152.5q0 110 41 149.5t138 39.5t138 -39t41 -150
t-41 -152.5t-138 -41.5zM882 627q-45 0 -58.5 -17.5t-13.5 -86.5q0 -68 13.5 -86.5t58.5 -18.5t58.5 18.5t13.5 86.5q0 70 -13 87t-59 17zM1055 144h-346q-9 0 -9 9v88q0 9 9 9h346q9 0 9 -9v-88q0 -9 -9 -9z" />
    <glyph glyph-name="trademark" unicode="&#x2122;" horiz-adv-x="809" 
d="M308 697q7 0 7 -7v-44q0 -7 -7 -7h-99v-283q0 -7 -8 -7h-53q-8 0 -8 7v283h-98q-8 0 -8 7v44q0 7 8 7h266zM544 453l65 234q4 10 9 10h94q5 0 7 -6v-335q0 -7 -7 -7h-54q-8 0 -8 7l2 256l-66 -232q-4 -6 -11 -6h-66q-5 0 -7 6q-1 1 -1 3l-68 229l1 -256q0 -7 -8 -7h-53
q-8 0 -8 7v335q2 6 8 6h91q9 0 13 -12z" />
    <glyph glyph-name="Omega" unicode="&#x2126;" horiz-adv-x="776" 
d="M47 100h164q-138 75 -138 297q0 93 18.5 154.5t58.5 97.5t97 50.5t141 14.5q169 0 241.5 -68.5t72.5 -248.5q0 -222 -137 -297h164q12 0 12 -12v-76q0 -12 -12 -12h-276q-13 0 -13 12v97q0 11 12 11q65 23 89.5 85t24.5 170q0 75 -6.5 117t-27.5 68.5t-53.5 34.5t-90.5 8
q-110 0 -143.5 -42.5t-33.5 -185.5q0 -108 24.5 -170t88.5 -85q12 0 12 -11v-97q0 -12 -13 -12h-276q-12 0 -12 12v76q0 12 12 12z" />
    <glyph glyph-name="estimated" unicode="&#x212e;" horiz-adv-x="690" 
d="M582 106l18 -82q3 -11 -10 -15q-74 -23 -208 -23q-176 0 -249.5 79.5t-73.5 285.5q0 138 34.5 218.5t99 112.5t171.5 32q105 0 166 -32.5t92 -115.5t31 -230q0 -12 -12 -12h-448q1 -66 6.5 -105t16 -67t35 -40.5t55 -17.5t84.5 -5q98 0 179 24q2 1 5 1q5 0 8 -8zM361 616
q-101 0 -131.5 -36.5t-34.5 -164.5h328q-3 128 -31.5 164.5t-130.5 36.5z" />
    <glyph glyph-name="onethird" unicode="&#x2153;" horiz-adv-x="1055" 
d="M784 683l-481 -721q-3 -5 -8 -5l-5 2l-81 42q-6 4 -6 7q0 1 1 2l481 722q3 4 8 4q3 0 4 -1l84 -39q4 -3 4 -8q0 -3 -1 -5zM55 612l153 85q8 5 21 5h79q12 0 12 -13v-428q0 -12 -12 -12h-87q-11 0 -11 12v330l-110 -64q-10 -5 -14 2l-34 69q-2 4 -2 6q0 5 5 8zM804 368
q-66 0 -113 -15q-14 -5 -18 12l-10 62q-5 16 7 20q57 15 137 15q104 0 147 -29.5t43 -92.5q0 -78 -75 -102q82 -20 82 -111q0 -73 -46.5 -106.5t-150.5 -33.5q-82 0 -139 15q-8 2 -5 13l12 71q2 12 15 8q46 -12 101 -12q59 0 75.5 10t16.5 46q0 32 -15 43t-54 11h-72
q-12 0 -12 11v64q0 12 12 12h73q34 0 45.5 10.5t11.5 39.5q0 24 -13.5 31.5t-54.5 7.5z" />
    <glyph glyph-name="twothirds" unicode="&#x2154;" horiz-adv-x="1061" 
d="M814 683l-481 -721q-3 -5 -8 -5l-5 2l-81 42q-6 4 -6 7q0 1 1 2l481 722q3 4 8 4q3 0 4 -1l84 -39q4 -3 4 -8q0 -3 -1 -5zM169 615q-61 0 -108 -15q-14 -5 -18 12l-12 65q-5 16 7 20q57 15 137 15q106 0 149 -32.5t43 -107.5q0 -57 -22 -95t-85 -81l-78 -52h174
q11 0 11 -11v-73q0 -11 -11 -11h-317q-11 0 -11 12v69q0 12 12 20l154 106q37 25 48 45t11 60q0 32 -16 43t-68 11zM839 368q-66 0 -113 -15q-14 -5 -18 12l-10 62q-5 16 7 20q57 15 137 15q104 0 147 -29.5t43 -92.5q0 -78 -75 -102q82 -20 82 -111q0 -73 -46.5 -106.5
t-150.5 -33.5q-82 0 -139 15q-8 2 -5 13l12 71q2 12 15 8q46 -12 101 -12q59 0 75.5 10t16.5 46q0 32 -15 43t-54 11h-72q-12 0 -12 11v64q0 12 12 12h73q34 0 45.5 10.5t11.5 39.5q0 24 -13.5 31.5t-54.5 7.5z" />
    <glyph glyph-name="oneeighth" unicode="&#x215b;" horiz-adv-x="1049" 
d="M765 683l-481 -721q-3 -5 -8 -5l-5 2l-81 42q-6 4 -6 7q0 1 1 2l481 722q3 4 8 4q3 0 4 -1l84 -39q4 -3 4 -8q0 -3 -1 -5zM52 612l153 85q8 5 21 5h79q12 0 12 -13v-428q0 -12 -12 -12h-87q-11 0 -11 12v330l-110 -64q-10 -5 -14 2l-34 69q-2 4 -2 6q0 5 5 8zM805 79
q45 0 56.5 9.5t11.5 45.5q0 39 -12.5 51t-55.5 12q-44 0 -56.5 -12t-12.5 -51q0 -35 12 -45t57 -10zM805 275q43 0 54.5 10t11.5 43q0 28 -11.5 36t-54.5 8t-54.5 -8t-11.5 -36q0 -33 11.5 -43t54.5 -10zM805 462q94 0 135 -28.5t41 -90.5q0 -43 -17.5 -68t-57.5 -37
q44 -12 63 -40t19 -76q0 -72 -44.5 -103.5t-138.5 -31.5t-138.5 31.5t-44.5 103.5q0 48 19 75.5t64 39.5q-76 24 -76 106q0 62 41 90.5t135 28.5z" />
    <glyph glyph-name="threeeighths" unicode="&#x215c;" horiz-adv-x="1039" 
d="M789 683l-481 -721q-3 -5 -8 -5l-5 2l-81 42q-6 4 -6 7q0 1 1 2l481 722q3 4 8 4q3 0 4 -1l84 -39q4 -3 4 -8q0 -3 -1 -5zM179 618q-66 0 -113 -15q-14 -5 -18 12l-10 62q-5 16 7 20q57 15 137 15q104 0 147 -29.5t43 -92.5q0 -78 -75 -102q82 -20 82 -111
q0 -73 -46.5 -106.5t-150.5 -33.5q-82 0 -139 15q-8 2 -5 13l12 71q2 12 15 8q46 -12 101 -12q59 0 75.5 10t16.5 46q0 32 -15 43t-54 11h-72q-12 0 -12 11v64q0 12 12 12h73q34 0 45.5 10.5t11.5 39.5q0 24 -13.5 31.5t-54.5 7.5zM821 79q45 0 56.5 9.5t11.5 45.5
q0 39 -12.5 51t-55.5 12q-44 0 -56.5 -12t-12.5 -51q0 -35 12 -45t57 -10zM821 275q43 0 54.5 10t11.5 43q0 28 -11.5 36t-54.5 8t-54.5 -8t-11.5 -36q0 -33 11.5 -43t54.5 -10zM821 462q94 0 135 -28.5t41 -90.5q0 -43 -17.5 -68t-57.5 -37q44 -12 63 -40t19 -76
q0 -72 -44.5 -103.5t-138.5 -31.5t-138.5 31.5t-44.5 103.5q0 48 19 75.5t64 39.5q-76 24 -76 106q0 62 41 90.5t135 28.5z" />
    <glyph glyph-name="fiveeighths" unicode="&#x215d;" horiz-adv-x="1029" 
d="M793 683l-481 -721q-3 -5 -8 -5l-5 2l-81 42q-6 4 -6 7q0 1 1 2l481 722q3 4 8 4q3 0 4 -1l84 -39q4 -3 4 -8q0 -3 -1 -5zM350 702q12 0 12 -12v-68q0 -11 -12 -11h-185v-85h45q88 0 129.5 -33t41.5 -106q0 -82 -46.5 -115.5t-146.5 -33.5q-82 0 -133 12q-11 3 -8 15
l12 73q3 10 16 7q44 -14 114 -14q49 0 62.5 10t13.5 48q0 35 -13 45.5t-58 10.5h-120q-14 0 -14 12v231q0 14 14 14h276zM813 79q45 0 56.5 9.5t11.5 45.5q0 39 -12.5 51t-55.5 12q-44 0 -56.5 -12t-12.5 -51q0 -35 12 -45t57 -10zM813 275q43 0 54.5 10t11.5 43
q0 28 -11.5 36t-54.5 8t-54.5 -8t-11.5 -36q0 -33 11.5 -43t54.5 -10zM813 462q94 0 135 -28.5t41 -90.5q0 -43 -17.5 -68t-57.5 -37q44 -12 63 -40t19 -76q0 -72 -44.5 -103.5t-138.5 -31.5t-138.5 31.5t-44.5 103.5q0 48 19 75.5t64 39.5q-76 24 -76 106q0 62 41 90.5
t135 28.5z" />
    <glyph glyph-name="seveneighths" unicode="&#x215e;" horiz-adv-x="1021" 
d="M740 683l-481 -721q-3 -5 -8 -5l-5 2l-81 42q-6 4 -6 7q0 1 1 2l481 722q3 4 8 4q3 0 4 -1l84 -39q4 -3 4 -8q0 -3 -1 -5zM127 280l161 329h-223q-11 0 -11 10v70q0 13 11 13h334q11 0 11 -13v-50q0 -11 -3 -19l-183 -377q-3 -7 -12 -7q-3 0 -4 1l-75 25q-8 2 -8 12
q0 2 2 6zM782 79q45 0 56.5 9.5t11.5 45.5q0 39 -12.5 51t-55.5 12q-44 0 -56.5 -12t-12.5 -51q0 -35 12 -45t57 -10zM782 275q43 0 54.5 10t11.5 43q0 28 -11.5 36t-54.5 8t-54.5 -8t-11.5 -36q0 -33 11.5 -43t54.5 -10zM782 462q94 0 135 -28.5t41 -90.5q0 -43 -17.5 -68
t-57.5 -37q44 -12 63 -40t19 -76q0 -72 -44.5 -103.5t-138.5 -31.5t-138.5 31.5t-44.5 103.5q0 48 19 75.5t64 39.5q-76 24 -76 106q0 62 41 90.5t135 28.5z" />
    <glyph glyph-name="arrowleft" unicode="&#x2190;" horiz-adv-x="742" 
d="M731 260q0 -9 -9 -9h-442l-66 6l50 -35l168 -168q8 -6 0 -12l-71 -72q-7 -6 -13 0l-334 334q-3 3 -3 7q0 3 3 6l333 333q7 6 13 0l72 -71q5 -7 0 -13l-167 -165l-50 -36l66 6h441q9 0 9 -9v-102z" />
    <glyph glyph-name="arrowup" unicode="&#x2191;" horiz-adv-x="742" 
d="M321 -51q-9 0 -9 9v442l6 66l-36 -50l-167 -168q-7 -5 -13 0l-71 72q-7 6 0 13l334 334q3 3 7 3q3 0 6 -3l333 -334q7 -6 0 -13l-72 -71q-6 -8 -12 0l-166 167l-36 50l6 -66v-442q0 -9 -9 -9h-101z" />
    <glyph glyph-name="arrowright" unicode="&#x2192;" horiz-adv-x="742" 
d="M11 260v102q0 9 9 9h441l66 -6l-50 36l-167 165q-5 6 0 13l72 71q6 6 13 0l333 -333q3 -3 3 -6q0 -4 -3 -7l-334 -334q-6 -6 -13 0l-71 72q-8 6 0 12l168 168l50 35l-66 -6h-442q-9 0 -9 9z" />
    <glyph glyph-name="arrowdown" unicode="&#x2193;" horiz-adv-x="742" 
d="M321 670h101q9 0 9 -9v-442l-6 -66l36 50l166 167q6 8 12 0l72 -71q7 -7 0 -13l-333 -334q-3 -3 -6 -3q-4 0 -7 3l-334 334q-7 6 0 13l71 72q6 5 13 0l167 -168l36 -50l-6 66v442q0 9 9 9z" />
    <glyph glyph-name="partialdiff" unicode="&#x2202;" horiz-adv-x="604" 
d="M420 309q-48 21 -116 21q-85 0 -106 -20.5t-21 -96.5q0 -72 21 -92.5t101 -20.5q82 0 105 21t23 102q0 59 -7 86zM364 453l-199 208q-6 8 1 13l93 54q7 6 13 -2l195 -206q93 -99 93 -283q0 -138 -58 -194.5t-202 -56.5q-137 0 -196 53.5t-59 180.5q0 113 48.5 162.5
t152.5 49.5q106 0 169 -71q-10 47 -51 92z" />
    <glyph glyph-name="product" unicode="&#x220f;" horiz-adv-x="701" 
d="M616 688v-679q0 -9 -9 -9h-107q-9 0 -9 9v573h-281v-573q0 -9 -9 -9h-107q-9 0 -9 9v679q0 9 9 9h513q9 0 9 -9z" />
    <glyph glyph-name="summation" unicode="&#x2211;" horiz-adv-x="596" 
d="M36 82l194 271l-184 260q-9 12 -9 32v41q0 11 10 11h514q9 0 9 -10v-92q0 -10 -9 -10h-343l163 -232l-171 -242h354q10 0 10 -9v-93q0 -9 -10 -9h-526q-10 0 -10 11v47q0 11 8 24z" />
    <glyph glyph-name="minus" unicode="&#x2212;" horiz-adv-x="571" 
d="M520 222h-470q-9 0 -9 9v88q0 9 9 9h470q9 0 9 -9v-88q0 -9 -9 -9z" />
    <glyph glyph-name="radical" unicode="&#x221a;" horiz-adv-x="583" 
d="M-1 509h167q12 0 14 -9l106 -334l17 -81l17 81l168 535q2 9 12 7l103 -25q9 -2 6 -10l-222 -664q-2 -9 -11 -9h-149q-9 0 -11 9l-134 397h-83q-9 0 -9 9v85q0 9 9 9z" />
    <glyph glyph-name="infinity" unicode="&#x221e;" horiz-adv-x="754" 
d="M147 350q0 -54 18 -73t66 -19q54 0 75 20t21 72q0 53 -21 73t-75 20q-48 0 -66 -19t-18 -74zM377 446q10 64 52.5 89t111.5 25q93 0 135.5 -49.5t42.5 -159.5q0 -111 -42.5 -161t-135.5 -50q-69 0 -111.5 25t-52.5 89q-10 -64 -52.5 -89t-112.5 -25q-92 0 -134.5 50
t-42.5 160t42.5 160t134.5 50q70 0 112.5 -24.5t52.5 -89.5zM607 351q0 54 -18.5 72.5t-66.5 18.5q-53 0 -74.5 -20t-21.5 -71q0 -53 21.5 -73t74.5 -20q48 0 66.5 19t18.5 74z" />
    <glyph glyph-name="integral" unicode="&#x222b;" horiz-adv-x="355" 
d="M199 408v-330q0 -150 -43.5 -215.5t-157.5 -65.5q-6 0 -8 7l-12 87q-1 1 -1 3q0 6 6 8q70 4 85.5 29.5t15.5 126.5v350h-70q-9 0 -9 9v83q0 9 9 9h71v34q0 99 43.5 141t121.5 42q68 0 123 -11q10 -1 8 -10l-16 -83q-2 -9 -10 -6q-48 12 -89 12q-42 0 -54.5 -17.5
t-12.5 -66.5v-35h151q9 0 9 -9v-83q0 -9 -9 -9h-151z" />
    <glyph glyph-name="approxequal" unicode="&#x2248;" horiz-adv-x="613" 
d="M428 251q52 0 80 54q1 4 7 4q3 0 7 -2l46 -72q2 -2 2 -6q0 -6 -3 -12q-52 -81 -138 -81q-43 0 -130 34t-115 34q-53 0 -80 -53q-1 -4 -7 -4q-3 0 -7 2l-46 72q-2 1 -2 5q0 5 4 13q21 38 59 58t76 20q41 0 128.5 -33t118.5 -33zM429 364q-43 0 -130 34t-115 34
q-53 0 -80 -53q-1 -4 -7 -4q-3 0 -7 2l-46 72q-2 2 -2 6q0 5 4 13q24 37 61 57t74 20q41 0 128.5 -32.5t118.5 -32.5q53 0 80 53q1 4 7 4q3 0 7 -2l46 -72q2 -1 2 -5q0 -7 -3 -13q-44 -81 -138 -81z" />
    <glyph glyph-name="notequal" unicode="&#x2260;" horiz-adv-x="577" 
d="M505 400h-125l-76 -145h201q9 0 9 -9v-89q0 -9 -9 -9h-255l-54 -104q-2 -9 -10 -3l-80 34q-8 4 -4 11l33 62h-63q-9 0 -9 9v89q0 9 9 9h117l76 145h-193q-9 0 -9 9v89q0 9 9 9h246l54 103q6 8 11 4l80 -35q8 -2 4 -10l-33 -62h71q9 0 9 -9v-89q0 -9 -9 -9z" />
    <glyph glyph-name="lessequal" unicode="&#x2264;" horiz-adv-x="571" 
d="M520 0h-470q-9 0 -9 9v88q0 9 9 9h470q9 0 9 -9v-88q0 -9 -9 -9zM433 150l-365 262q-7 5 -7 13v71q0 8 7 13l368 263q9 6 13 0l55 -74q5 -7 -4 -14l-298 -221l298 -221q9 -7 4 -14l-58 -78q-4 -6 -13 0z" />
    <glyph glyph-name="greaterequal" unicode="&#x2265;" horiz-adv-x="610" 
d="M520 0h-470q-9 0 -9 9v88q0 9 9 9h470q9 0 9 -9v-88q0 -9 -9 -9zM135 772l365 -262q7 -5 7 -13v-71q0 -8 -7 -13l-368 -263q-9 -6 -13 0l-55 74q-5 7 4 14l298 221l-298 221q-9 7 -4 14l58 78q4 6 13 0z" />
    <glyph glyph-name="lozenge" unicode="&#x25ca;" horiz-adv-x="503" 
d="M337 688l155 -439l-156 -443q-2 -9 -10 -9h-150q-8 0 -10 9l-155 438l155 444q2 9 11 9h149q9 0 11 -9zM252 -119l17 80l95 286l-97 285l-17 81l-17 -81l-95 -282l98 -289z" />
    <glyph glyph-name="commaaccent" unicode="&#xf6c3;" horiz-adv-x="268" 
d="M201 -78l-63 -158q-4 -11 -12 -11h-61q-10 0 -8 11l34 174q2 12 13 12l86 -14q6 0 9.5 -4.5t1.5 -9.5z" />
    <glyph glyph-name="Acute" unicode="&#xf6c9;" horiz-adv-x="408" 
d="M321 861l-144 -118q-6 -4 -14 -1l-56 26q-4 1 -4 5.5t2 7.5l124 119q7 7 17 3l74 -27q4 -1 4.5 -6.5t-3.5 -8.5z" />
    <glyph glyph-name="Caron" unicode="&#xf6ca;" horiz-adv-x="654" 
d="M381 747h-59q-14 0 -22 8l-108 91q-3 3 -1.5 7t5.5 6l53 37q6 3 13 -4l90 -76l90 76q8 8 13 4l53 -37q4 -2 5.5 -6t-1.5 -7l-109 -91q-8 -8 -22 -8z" />
    <glyph glyph-name="Dieresis" unicode="&#xf6cb;" horiz-adv-x="427" 
d="M146 873q37 0 47.5 -10t10.5 -46q0 -40 -10.5 -51t-47.5 -11q-38 0 -48.5 11t-10.5 51q0 36 10.5 46t48.5 10zM361 873q37 0 47.5 -10t10.5 -46q0 -40 -10.5 -51t-47.5 -11q-38 0 -48.5 11t-10.5 51q0 36 10.5 46t48.5 10z" />
    <glyph glyph-name="Grave" unicode="&#xf6ce;" horiz-adv-x="408" 
d="M250 743l-144 118q-4 3 -3.5 8.5t4.5 6.5l74 27q10 4 17 -3l124 -119q2 -3 2 -7.5t-4 -5.5l-56 -26q-8 -3 -14 1z" />
    <glyph glyph-name="Hungarumlaut" unicode="&#xf6cf;" horiz-adv-x="611" 
d="M300 857l-113 -118q-5 -5 -11 -1l-47 27q-3 1 -3.5 5.5t1.5 7.5l98 119q5 7 13 3l61 -28q4 -1 4 -6.5t-3 -8.5zM466 857l-113 -118q-5 -5 -11 -1l-47 27q-3 1 -3.5 5.5t1.5 7.5l98 119q5 7 13 3l61 -28q4 -1 4 -6.5t-3 -8.5z" />
    <glyph glyph-name="Macron" unicode="&#xf6d0;" horiz-adv-x="523" 
d="M395 765h-268q-9 0 -9 9v66q0 9 9 9h268q9 0 9 -9v-66q0 -9 -9 -9z" />
    <glyph glyph-name="Lslashsmall" unicode="&#xf6f9;" horiz-adv-x="406" 
d="M186 407l36 37q3 3 7 3q3 0 5 -3l45 -60q3 -3 3 -6t-3 -6l-93 -93l1 -174h218q11 0 11 -11v-84q0 -10 -11 -10h-325q-11 0 -11 10v157l-36 -37q-3 -3 -7 -3t-5 3l-45 60q-3 3 -3 6t3 6l93 93v224q0 10 10 10h97q10 0 10 -10v-112z" />
    <glyph glyph-name="OEsmall" unicode="&#xf6fa;" horiz-adv-x="789" 
d="M739 0h-339q-51 -14 -110 -14q-125 0 -179.5 61.5t-54.5 221.5q0 156 54.5 214.5t179.5 58.5q65 0 124 -13h325q11 0 11 -10v-80q0 -10 -11 -10h-243q21 -38 25 -109h188q11 0 11 -10v-74q0 -10 -11 -10h-188q-3 -83 -26 -126h244q11 0 11 -11v-79q0 -10 -11 -10zM290 91
q47 0 67.5 12t29.5 47.5t9 116.5q0 80 -9 115t-29 45.5t-68 10.5t-68 -10.5t-29.5 -45.5t-9.5 -115t9 -116.5t30 -48t68 -11.5z" />
    <glyph glyph-name="Scaronsmall" unicode="&#xf6fd;" horiz-adv-x="491" 
d="M284 573h-59q-14 0 -22 8l-103 103q-3 3 -1.5 7t5.5 6l53 35q6 3 13 -4l85 -83l85 83q8 8 13 4l53 -35q4 -2 5.5 -6t-1.5 -7l-104 -103q-8 -8 -22 -8zM82 107q58 -20 147 -20q59 0 76.5 13t17.5 53q0 33 -18 45t-80 18q-97 10 -136.5 46t-39.5 112q0 92 51.5 130
t162.5 38q89 0 162 -17q11 -3 7 -15l-14 -81q-2 -11 -13 -8q-60 21 -148 21q-57 0 -71.5 -12t-14.5 -52q0 -33 16.5 -45t80.5 -18q101 -9 139 -45.5t38 -113.5q0 -93 -53.5 -131.5t-168.5 -38.5q-88 0 -161 17q-11 3 -6 15l13 81q2 12 13 8z" />
    <glyph glyph-name="Zcaronsmall" unicode="&#xf6ff;" horiz-adv-x="492" 
d="M287 573h-59q-14 0 -22 8l-103 103q-3 3 -1.5 7t5.5 6l53 35q6 3 13 -4l85 -83l85 83q8 8 13 4l53 -35q4 -2 5.5 -6t-1.5 -7l-104 -103q-8 -8 -22 -8zM36 57l250 367h-238q-9 0 -9 9v87q0 9 9 9h404q9 0 9 -10v-22q0 -12 -8 -23l-245 -369h246q9 0 9 -9v-87q0 -9 -9 -9
h-415q-10 0 -10 10v21q0 15 7 26z" />
    <glyph glyph-name="exclamsmall" unicode="&#xf721;" horiz-adv-x="342" 
d="M236 520l-13 -314q0 -9 -9 -9h-86q-9 0 -9 9l-12 314q0 9 9 9h111q9 0 9 -9zM170 132q46 0 59 -12t13 -56q0 -48 -13.5 -61.5t-58.5 -13.5q-44 0 -57 13.5t-13 61.5q0 44 13 56t57 12z" />
    <glyph glyph-name="ampersandsmall" unicode="&#xf726;" horiz-adv-x="536" 
d="M281 542q76 0 121 -14q16 -6 12 -19l-20 -75q-3 -9 -13 -6q-59 17 -101 17q-38 0 -50 -11.5t-12 -44.5q0 -39 23 -62l105 -105l80 116q5 5 11 5q2 0 8 -3l66 -44q2 -4 2 -6q0 -4 -3 -10l-93 -126l104 -102q2 -1 1.5 -6t-3.5 -7l-64 -54q-4 -2 -7 -2q-6 0 -10 4l-82 81
l-27 -34q-38 -47 -135 -48q-83 0 -120 36t-37 118q0 64 21 101t75 53q-38 47 -38 106q0 71 44 106.5t142 35.5zM287 136l-103 104q-19 -10 -26 -27t-7 -53q0 -53 11 -67.5t47 -14.5q37 0 52 21z" />
    <glyph glyph-name="zerooldstyle" unicode="&#xf730;" horiz-adv-x="601" 
d="M302 -14q-131 0 -189 63.5t-58 217.5q0 153 58 214t189 61q132 0 188 -61t56 -214q0 -155 -56 -218t-188 -63zM302 441q-77 0 -98.5 -31.5t-21.5 -145.5q0 -110 22 -143.5t98 -33.5t96 32.5t20 144.5q0 116 -19.5 146.5t-96.5 30.5z" />
    <glyph glyph-name="oneoldstyle" unicode="&#xf731;" horiz-adv-x="601" 
d="M95 415l190 106q14 8 35 8h97q9 0 9 -9v-511q0 -9 -9 -9h-107q-9 0 -9 9v401l-156 -90q-8 -5 -12 3l-41 80q-5 9 3 12z" />
    <glyph glyph-name="twooldstyle" unicode="&#xf732;" horiz-adv-x="601" 
d="M271 431q-78 0 -147 -23h-2q-6 0 -8 6l-20 97q-2 10 5 12q72 19 174 19q141 0 192 -40.5t51 -141.5q0 -74 -34 -115.5t-134 -93.5l-86 -45h248q10 0 10 -9v-88q0 -9 -10 -9h-415q-10 0 -10 11v89q0 13 12 19l213 115q45 24 58 47t13 66q0 51 -19.5 67.5t-90.5 16.5z" />
    <glyph glyph-name="threeoldstyle" unicode="&#xf733;" horiz-adv-x="601" 
d="M272 141h-104q-9 0 -9 9v85q0 9 9 9h104q67 0 87.5 19t20.5 78q0 55 -20.5 71.5t-98.5 16.5q-105 0 -174 -20q-8 -3 -10 6l-15 96q-3 10 5 13q80 18 190 18q147 0 203 -39.5t56 -136.5q0 -150 -149 -168q160 -13 160 -180q0 -113 -61 -158.5t-210 -45.5q-99 0 -190 20
q-9 2 -5 13l17 96q2 9 10 6q69 -21 171 -21q85 0 106.5 19t21.5 88q0 68 -20.5 87t-94.5 19z" />
    <glyph glyph-name="fouroldstyle" unicode="&#xf734;" horiz-adv-x="601" 
d="M485 520v-416h92q9 0 9 -9v-86q0 -9 -9 -9h-92v-166q0 -9 -9 -9h-107q-9 0 -9 9v166h-330q-9 0 -9 9v76q0 8 7 18l275 417q7 9 17 9h156q9 0 9 -9zM149 104h211v285l3 45l-24 -45z" />
    <glyph glyph-name="fiveoldstyle" unicode="&#xf735;" horiz-adv-x="601" 
d="M508 529q9 0 9 -9v-91q0 -9 -9 -9h-294v-172h65q147 0 207 -44t60 -158q0 -129 -63.5 -178.5t-213.5 -49.5q-102 0 -193 20q-9 2 -5 13l17 96q2 9 10 6q73 -22 175 -22q89 0 111 19.5t22 89.5t-21 87.5t-105 17.5h-176q-13 0 -13 12v360q0 12 12 12h405z" />
    <glyph glyph-name="sixoldstyle" unicode="&#xf736;" horiz-adv-x="601" 
d="M186 304q2 -95 12.5 -137t32.5 -54.5t73 -12.5q82 0 103.5 18.5t21.5 88.5q0 77 -21 97.5t-104 20.5q-70 0 -118 -21zM336 600q-94 0 -122 -36t-28 -149v-59q63 71 174 71q103 0 152 -50.5t49 -163.5q0 -126 -59 -176.5t-198 -50.5q-98 0 -152 33t-78 111.5t-24 223.5
q0 142 29 220t89 109t168 31q111 0 187 -18q9 -2 5 -14l-16 -98q-2 -9 -11 -6q-72 22 -165 22z" />
    <glyph glyph-name="sevenoldstyle" unicode="&#xf737;" horiz-adv-x="601" 
d="M142 -137l262 557h-340q-9 0 -9 10v90q0 10 9 10h483q10 0 10 -11l1 -54q0 -17 -8 -35l-281 -603q-3 -7 -9 -7q-3 0 -4 1l-108 29q-7 1 -7 9z" />
    <glyph glyph-name="eightoldstyle" unicode="&#xf738;" horiz-adv-x="601" 
d="M301 90q78 0 99.5 18.5t21.5 87.5t-23 93.5t-101 24.5q-75 0 -96.5 -24t-21.5 -94q0 -69 21.5 -87.5t99.5 -18.5zM304 420q72 0 93 21.5t21 83.5q0 55 -20 69.5t-97 14.5t-97 -14.5t-20 -69.5q0 -62 22.5 -83.5t97.5 -21.5zM301 714q135 0 189.5 -41.5t54.5 -133.5
q0 -77 -28.5 -118t-115.5 -51q91 -8 122 -53t31 -132q0 -109 -58 -154t-195 -45q-136 0 -195 45t-59 154q0 85 32 130t122 54q-59 7 -92 31.5t-42.5 56t-9.5 82.5q0 92 54.5 133.5t189.5 41.5z" />
    <glyph glyph-name="nineoldstyle" unicode="&#xf739;" horiz-adv-x="601" 
d="M418 219q7 32 7 86q0 81 -23 102t-106 21q-79 0 -100 -20.5t-21 -92.5q0 -76 21 -96.5t105 -20.5q69 0 117 21zM163 -133l198 208q42 44 52 92q-65 -71 -169 -71t-152.5 49.5t-48.5 162.5q0 127 59 180.5t196 53.5q144 0 202 -56.5t58 -194.5q0 -184 -93 -283l-195 -206
q-7 -7 -13 -2l-93 54q-8 6 -1 13z" />
    <glyph glyph-name="questionsmall" unicode="&#xf73f;" horiz-adv-x="426" 
d="M393 392q0 -52 -19.5 -83t-62.5 -64l-108 -78q-7 -5 -14 -1l-58 55q-8 6 -1 12l87 65q31 23 38.5 36t7.5 40q0 37 -15 48.5t-65 11.5q-59 0 -118 -16q-9 -2 -11 6l-16 84q-3 9 7 12q70 14 159 14q102 0 145.5 -32t43.5 -110zM193 132q46 0 59 -12t13 -56q0 -48 -13 -61.5
t-59 -13.5q-44 0 -57 13.5t-13 61.5q0 44 13 56t57 12z" />
    <glyph glyph-name="Asmall" unicode="&#xf761;" horiz-adv-x="524" 
d="M351 520l169 -497v-1l1 -2q0 -6 -7 -8l-105 -24h-2q-7 0 -11 12l-40 127h-189l-41 -129q-3 -10 -9 -10h-2l-104 23q-8 2 -8 7q0 2 1 3l170 499q2 9 11 9h155q9 0 11 -9zM246 377l-50 -152h131l-51 152l-15 67z" />
    <glyph glyph-name="Bsmall" unicode="&#xf762;" horiz-adv-x="542" 
d="M187 226v-126h136q28 0 38 11.5t10 48.5q0 39 -10.5 52.5t-38.5 13.5h-135zM336 0h-256q-11 0 -11 10v509q0 10 11 10h251q155 0 155 -134q0 -99 -81 -118q92 -19 92 -130q0 -75 -44 -111t-117 -36zM187 429v-111h133q25 0 35 12.5t10 44.5q0 31 -9.5 42.5t-35.5 11.5
h-133z" />
    <glyph glyph-name="Csmall" unicode="&#xf763;" horiz-adv-x="471" 
d="M184 265q0 -112 21 -143t93 -31q67 0 127 19q8 3 10 -6l15 -89q4 -11 -5 -13q-70 -16 -160 -16q-128 0 -178.5 62t-50.5 218q0 155 50.5 215.5t178.5 60.5q90 0 160 -16q9 -2 5 -13l-15 -89q-2 -9 -10 -6q-60 19 -127 19q-72 0 -93 -31.5t-21 -140.5z" />
    <glyph glyph-name="Dsmall" unicode="&#xf764;" horiz-adv-x="558" 
d="M80 0q-11 0 -11 10v509q0 10 11 10h175q131 0 189 -57t58 -206t-58.5 -207.5t-188.5 -58.5h-175zM258 429h-71v-329h71q73 0 95.5 30.5t22.5 134.5q0 74 -10 108t-33 45t-75 11z" />
    <glyph glyph-name="Esmall" unicode="&#xf765;" horiz-adv-x="457" 
d="M407 0h-327q-11 0 -11 10v509q0 10 11 10h327q11 0 11 -10v-80q0 -10 -11 -10h-220v-109h189q11 0 11 -10v-74q0 -10 -11 -10h-189v-126h220q11 0 11 -11v-79q0 -10 -11 -10z" />
    <glyph glyph-name="Fsmall" unicode="&#xf766;" horiz-adv-x="427" 
d="M187 429v-127h189q11 0 11 -10v-79q0 -10 -11 -10h-189v-193q0 -10 -11 -10h-96q-11 0 -11 10v509q0 10 11 10h327q11 0 11 -10v-80q0 -10 -11 -10h-220z" />
    <glyph glyph-name="Gsmall" unicode="&#xf767;" horiz-adv-x="537" 
d="M481 274v-256q0 -13 -13 -14q-80 -18 -178 -18q-133 0 -183.5 59.5t-50.5 221.5q0 159 50.5 217t183.5 58q102 0 178 -14q11 -3 7 -15l-14 -86q-2 -10 -12 -8q-67 19 -144 19q-52 0 -76 -12t-34.5 -47.5t-10.5 -111.5q0 -79 10 -115t34 -48.5t77 -12.5q29 0 63 6v177
q0 9 10 9h93q10 0 10 -9z" />
    <glyph glyph-name="Hsmall" unicode="&#xf768;" horiz-adv-x="567" 
d="M498 520v-511q0 -9 -9 -9h-100q-9 0 -9 9v217h-193v-217q0 -9 -9 -9h-100q-9 0 -9 9v511q0 9 9 9h100q9 0 9 -9v-191h193v191q0 9 9 9h100q9 0 9 -9z" />
    <glyph glyph-name="Ismall" unicode="&#xf769;" horiz-adv-x="256" 
d="M187 520v-511q0 -9 -10 -9h-99q-9 0 -9 9v511q0 9 9 9h99q10 0 10 -9z" />
    <glyph glyph-name="Jsmall" unicode="&#xf76a;" horiz-adv-x="389" 
d="M323 520l-1 -359q0 -92 -48.5 -133.5t-126.5 -41.5q-83 0 -144 18q-4 1 -5.5 5t0.5 9l13 86q2 12 12 8q49 -18 112 -18q40 0 55 16.5t15 62.5v347q0 9 9 9h99q10 0 10 -9z" />
    <glyph glyph-name="Ksmall" unicode="&#xf76b;" horiz-adv-x="520" 
d="M184 520v-251l215 270q4 4 8 4q3 0 7 -2l85 -45q3 -3 3 -6t-2 -7l-177 -208l188 -237q2 -4 2 -5q0 -4 -4 -8l-89 -46q-4 -2 -5 -2q-5 0 -8 4l-223 288v-260q0 -9 -9 -9h-100q-9 0 -9 9v511q0 9 9 9h100q9 0 9 -9z" />
    <glyph glyph-name="Lsmall" unicode="&#xf76c;" horiz-adv-x="406" 
d="M187 105h218q11 0 11 -11v-84q0 -10 -11 -10h-325q-11 0 -11 10v509q0 10 10 10h97q10 0 10 -10q0 -69 0.5 -207t0.5 -207z" />
    <glyph glyph-name="Msmall" unicode="&#xf76d;" horiz-adv-x="701" 
d="M514 374l-114 -327q-6 -10 -11 -10h-78q-9 0 -13 9l-111 328v-365q0 -9 -9 -9h-100q-9 0 -9 9v511q0 9 9 9h145q11 0 14 -9l114 -336l115 336q3 9 13 9h144q9 0 9 -9v-511q0 -9 -9 -9h-100q-9 0 -9 9v365z" />
    <glyph glyph-name="Nsmall" unicode="&#xf76e;" horiz-adv-x="567" 
d="M69 9v511q0 9 9 9h112q8 0 15 -9l154 -289l25 -56l-4 66v279q0 9 9 9h100q9 0 9 -9v-511q0 -9 -9 -9h-112q-8 0 -14 8l-159 306l-24 55l7 -70v-290q0 -9 -9 -9h-100q-9 0 -9 9z" />
    <glyph glyph-name="Osmall" unicode="&#xf76f;" horiz-adv-x="581" 
d="M290 -14q-125 0 -179.5 61.5t-54.5 221.5q0 156 54.5 214.5t179.5 58.5q126 0 180.5 -58.5t54.5 -214.5q0 -160 -55 -221.5t-180 -61.5zM290 438q-48 0 -68 -10.5t-29.5 -45.5t-9.5 -115t9 -116.5t30 -48t68 -11.5t67.5 12t29.5 47.5t9 116.5q0 80 -9 115t-29 45.5
t-68 10.5z" />
    <glyph glyph-name="Psmall" unicode="&#xf770;" horiz-adv-x="518" 
d="M187 429v-145h128q29 0 40.5 16t11.5 57q0 42 -12 57t-40 15h-128zM187 188v-179q0 -9 -9 -9h-100q-9 0 -9 9v510q0 10 11 10h240q172 0 172 -170q0 -82 -43 -126.5t-129 -44.5h-133z" />
    <glyph glyph-name="Qsmall" unicode="&#xf771;" horiz-adv-x="581" 
d="M525 269q0 -127 -33.5 -190t-106.5 -82l106 -114q2 -2 2 -7q0 -4 -3 -7l-73 -50q-3 -3 -6 -3t-7 4l-145 168q-108 6 -155.5 68t-47.5 213q0 156 54.5 214.5t179.5 58.5q126 0 180.5 -58.5t54.5 -214.5zM290 91q47 0 67.5 12t29.5 47.5t9 116.5q0 80 -9 115t-29 45.5
t-68 10.5t-68 -10.5t-29.5 -45.5t-9.5 -115t9 -116.5t30 -48t68 -11.5z" />
    <glyph glyph-name="Rsmall" unicode="&#xf772;" horiz-adv-x="546" 
d="M187 198v-189q0 -9 -9 -9h-100q-9 0 -9 9v510q0 10 11 10h240q171 0 171 -159q0 -66 -29.5 -105t-80.5 -48l28 -30l94 -156q0 -1 0.5 -2t0.5 -2q0 -6 -5 -9l-91 -38l-5 -2q-7 0 -9 6l-121 214h-86zM187 429v-139h127q28 0 40.5 15.5t12.5 55.5t-12.5 54t-40.5 14h-127z
" />
    <glyph glyph-name="Ssmall" unicode="&#xf773;" horiz-adv-x="491" 
d="M82 107q58 -20 147 -20q59 0 76.5 13t17.5 53q0 33 -18 45t-80 18q-97 10 -136.5 46t-39.5 112q0 92 51.5 130t162.5 38q89 0 162 -17q11 -3 7 -15l-14 -81q-2 -11 -13 -8q-60 21 -148 21q-57 0 -71.5 -12t-14.5 -52q0 -33 16.5 -45t80.5 -18q101 -9 139 -45.5t38 -113.5
q0 -93 -53.5 -131.5t-168.5 -38.5q-88 0 -161 17q-11 3 -6 15l13 81q2 12 13 8z" />
    <glyph glyph-name="Tsmall" unicode="&#xf774;" horiz-adv-x="443" 
d="M434 424h-154v-415q0 -9 -9 -9h-100q-9 0 -9 9v415h-153q-9 0 -9 9v87q0 9 9 9h425q9 0 9 -9v-87q0 -9 -9 -9z" />
    <glyph glyph-name="Usmall" unicode="&#xf775;" horiz-adv-x="551" 
d="M487 520v-343q0 -191 -214 -191q-209 0 -209 191v343q0 9 9 9h100q9 0 9 -9v-344q0 -53 18 -70t76 -17q57 0 75 17t18 70v344q0 9 9 9h100q9 0 9 -9z" />
    <glyph glyph-name="Vsmall" unicode="&#xf776;" horiz-adv-x="530" 
d="M177 9l-173 498q-1 1 -1 3q0 6 7 8l104 25h2q8 0 10 -7l127 -384l13 -58l14 58l126 384q2 7 10 7h1l103 -25q7 -2 7 -7q0 -1 -1 -3l-173 -499q-2 -9 -10 -9h-156q-8 0 -10 9z" />
    <glyph glyph-name="Wsmall" unicode="&#xf777;" horiz-adv-x="785" 
d="M339 529h110q7 0 9 -7l88 -369l11 -63l12 63l86 381q2 7 10 7l103 -22q7 -2 7 -7l-1 -1v-2l-131 -500q-2 -9 -10 -9h-146q-9 0 -11 9l-73 321l-10 65l-11 -65l-72 -321q-2 -9 -11 -9h-146q-8 0 -10 9l-132 499q-1 1 -1 3q0 6 7 8l103 22h2q7 0 9 -7l91 -382l10 -62l11 63
l87 369q0 7 9 7z" />
    </font>
</defs>
</svg>
