<svg xmlns="http://www.w3.org/2000/svg" width="38.214" height="48"><g fill="#ffbf00"><path data-name="Path 29" d="M38.147 28.556a.44.44 0 0 0-.375-.208h-2.353a.44.44 0 0 0-.4.246l-3.085 6.27H23.42a.441.441 0 0 0-.4.263l-1.918 3.9H5.029a.441.441 0 0 0-.442.441v2.118a.441.441 0 0 0 .442.441H8.59l-2.558 5.338a.441.441 0 0 0 .394.639H8.78a.442.442 0 0 0 .394-.243l2.756-5.729h16.807l2.757 5.729a.441.441 0 0 0 .394.243h2.353a.441.441 0 0 0 .394-.639l-2.778-5.34 6.31-13.036a.443.443 0 0 0-.02-.433zm-7.33 8.6l-.918 1.869h-6.222l.909-1.871z"/><path data-name="Path 30" d="M16.933 4.499h-.046C7.574 4.499.006 10.568 0 18.029a.332.332 0 0 0 .315.332.355.355 0 0 0 .268-.1 6.5 6.5 0 0 1 9.31-.02.332.332 0 0 0 .454.019 9.9 9.9 0 0 1 13.126 0 .332.332 0 0 0 .454-.019 6.5 6.5 0 0 1 9.31.02.355.355 0 0 0 .268.1.333.333 0 0 0 .315-.332c-.006-7.459-7.57-13.53-16.887-13.53z"/><path data-name="Path 31" d="M16.91 48a1.33 1.33 0 0 0 1.329-1.329v-2.982a.166.166 0 0 0-.051-.12.173.173 0 0 0-.123-.046h-2.317a.165.165 0 0 0-.166.166v2.982A1.33 1.33 0 0 0 16.91 48z"/><path data-name="Path 32" d="M18.071 17.366a6.183 6.183 0 0 0-2.325.005c-.08.021-.164.071-.164.168v19.827a.166.166 0 0 0 .166.166h2.323a.166.166 0 0 0 .166-.166V17.539a.193.193 0 0 0-.166-.173z"/><path data-name="Path 33" d="M16.91 0a1.33 1.33 0 0 0-1.329 1.329V3.2a.166.166 0 0 0 .166.166h.008c.451-.023.809-.034 1.154-.034s.7.011 1.155.034h.008a.166.166 0 0 0 .166-.166V1.329A1.33 1.33 0 0 0 16.91 0z"/></g></svg>