<svg xmlns="http://www.w3.org/2000/svg" width="48" height="30.508"><g fill="#ffbf00"><path data-name="Path 34" d="M5.464 9.206a4.548 4.548 0 0 1 4.543-4.543h10.2A4.542 4.542 0 0 1 24 6.706a4.542 4.542 0 0 1 3.792-2.042h10.2a4.548 4.548 0 0 1 4.543 4.542v.209h1.137V4.986A4.992 4.992 0 0 0 38.686 0H9.313a4.992 4.992 0 0 0-4.986 4.986v4.43h1.137v-.21z"/><path data-name="Path 35" d="M46.09 11.538H1.909A1.912 1.912 0 0 0 0 13.447v11.085a1.912 1.912 0 0 0 1.909 1.909H2.7l-.939 2.651a1.061 1.061 0 1 0 2 .708l1.19-3.359h38.09l1.19 3.359a1.061 1.061 0 1 0 2-.708l-.931-2.65h.795A1.912 1.912 0 0 0 48 24.532V13.447a1.912 1.912 0 0 0-1.91-1.909z"/><path data-name="Path 36" d="M27.794 6.785a2.424 2.424 0 0 0-2.422 2.422v.209h15.037v-.209a2.424 2.424 0 0 0-2.422-2.422z"/><path data-name="Path 37" d="M10.008 6.785a2.424 2.424 0 0 0-2.422 2.422v.209h15.042v-.209a2.424 2.424 0 0 0-2.422-2.422z"/></g></svg>