<svg xmlns="http://www.w3.org/2000/svg" width="175.174" height="83.823"><g data-name="Group 17"><g data-name="Group 15"><path data-name="Union 16" d="M157.846 61.448a13.712 13.712 0 0 1-2.208-4.8 54.857 54.857 0 0 1-1.63-14.38c-.013-2.274.158-4.548.237-6.809 0-.079-.013-.158-.013-.237a6.714 6.714 0 0 1-.263-.079 10.194 10.194 0 0 0-.8 1.827c-.67 3-1.328 5.981-1.906 8.99a41.081 41.081 0 0 1-2.839 9.635 13.6 13.6 0 0 1-4.088 5.507c-2.1 1.551-6.375 1.669-8.544.158a4.773 4.773 0 0 1-2.064-3.457 6.56 6.56 0 0 1-.027-.335q-.968 1.122-2.037 2.188a8.991 8.991 0 0 1-2.234 1.643 2.618 2.618 0 0 1-3.615-.736 9.276 9.276 0 0 1-1.774-4.653c-.25-1.84-.355-3.707-.526-5.56-.026-.342-.092-.67-.131-1.012a2.81 2.81 0 0 0-.3-.092 4.943 4.943 0 0 0-.762.815c-1.091 1.893-2.129 3.812-3.194 5.718-.591 1.065-1.17 2.129-1.853 3.141a1.429 1.429 0 0 1-1.945.552 5.169 5.169 0 0 1-1.88-1.249 11.909 11.909 0 0 1-2.274-4.784c-.066-.2-.105-.394-.171-.578-.013-.04-.079-.053-.2-.132-.263.368-.513.736-.776 1.091a23.578 23.578 0 0 1-5.849 6.2c-.2.131-.408.25-.618.368-1.972 1.091-3.312.841-4.627-.867a19.489 19.489 0 0 1-2.954-6.257c-.539-1.735-1.025-3.483-1.538-5.231a7.089 7.089 0 0 0-.184-.473c-.066-.013-.145-.013-.21-.026a2.633 2.633 0 0 0-.223.736 26.573 26.573 0 0 0 .762 7.19c.184.683-.053.973-.841 1.13-.815.171-1.617.342-2.4.578a4.9 4.9 0 0 0-2.826 1.866 3.214 3.214 0 0 1-.986.867 34.956 34.956 0 0 1-.053-4.982c.026-1.656.092-3.325.158-5.179a4.507 4.507 0 0 0-.355.46 27.363 27.363 0 0 1-5.744 7.952 6.56 6.56 0 0 1-1.525 1.065 3.451 3.451 0 0 1-4.569-1.146 9.839 9.839 0 0 1-1.366-4.624c-.066-.723-.118-1.446-.171-2.182a3.375 3.375 0 0 1-.342-.1c-.329.381-.67.736-1 1.117-1.025 1.183-2.011 2.392-3.076 3.549a7.717 7.717 0 0 1-1.446 1.157 3.251 3.251 0 0 1-4.555-.626l-.032-.044a8.406 8.406 0 0 1-1.525-3.97c-.184-1.157-.263-2.313-.408-3.615-.171.25-.315.434-.421.618a43.377 43.377 0 0 1-4.85 7.229 10.542 10.542 0 0 1-1.474 1.391 1.82 1.82 0 0 1-3.036-.552 10.92 10.92 0 0 1-1.1-4.548c-.1-1.341-.092-2.668-.145-4.009-.013-.25-.039-.5-.053-.749l-.237-.079a6.548 6.548 0 0 0-.657.854c-.841 1.63-1.643 3.286-2.458 4.929-.368.723-.7 1.459-1.117 2.156a1.4 1.4 0 0 1-2.524.1 8.051 8.051 0 0 1-1.17-2.195 18.5 18.5 0 0 1 .21-12.171 21.242 21.242 0 0 1 8.477-11.266 14.979 14.979 0 0 1 3.536-1.722 2.49 2.49 0 0 1 3.5 1.945 4.988 4.988 0 0 1-.315 2.445 19.663 19.663 0 0 1-6.493 7.847 10.7 10.7 0 0 1-1.564.815c-.223-.644-.158-1 .565-1.052a1.628 1.628 0 0 0 1.393-1.078 6.933 6.933 0 0 0 .408-4.456 2.037 2.037 0 0 0-1.853-1.564 2.53 2.53 0 0 0-2.4.986 9.558 9.558 0 0 0-1.827 3.786 23.982 23.982 0 0 0-.94 8.07 6.422 6.422 0 0 0 .644 2.274 1.723 1.723 0 0 0 1.17.867 1.836 1.836 0 0 0 1.235-.789c.723-1.052 1.3-2.169 1.932-3.26.342-.6.631-1.249 1.025-1.827a11.409 11.409 0 0 1 1.3-1.577c.946-.946 1.932-1.84 2.918-2.747a9.883 9.883 0 0 1 .933-.71c-.013.657 0 1.117-.053 1.577a29.883 29.883 0 0 0 .1 9.306 7.216 7.216 0 0 0 .552 1.709.777.777 0 0 0 1.393.263 10.523 10.523 0 0 0 1.893-2.261 12.041 12.041 0 0 0 1.6-5.415c.171-3.036.513-6.059.789-9.1a3.381 3.381 0 0 1 2.381-2.673 10.994 10.994 0 0 0 4.508-3.1c.118-.131.421-.158.631-.237.04.237.171.5.105.71-1.63 5.823-2.129 11.79-2.76 17.731a10.2 10.2 0 0 0 .184 2.353 2.579 2.579 0 0 0 .408.986 2.051 2.051 0 0 0 3.365.408 7.856 7.856 0 0 0 2.694-4.751c.486-3.378.776-6.782 1.13-10.187.118-1.13.223-2.274.3-3.4a3.176 3.176 0 0 1 2.123-2.742 10.593 10.593 0 0 0 3.93-2.813 4.8 4.8 0 0 1 .841-.618 7.6 7.6 0 0 1-.026.867 104.565 104.565 0 0 0-1.393 18.336 29.8 29.8 0 0 0 .657 5.481 2.414 2.414 0 0 0 1.1 1.6c.71.328 1.288-.421 1.788-.841a10.467 10.467 0 0 0 3.365-5.836c.276-1.222.276-2.51.434-3.772.526-4.39.933-8.806 1.656-13.17a43.486 43.486 0 0 1 10.272-21.166q2.622-3.1 5.192-6.2a3.976 3.976 0 0 1 2.484-1.368c.841-.158 1.709-.25 2.563-.368.053.092.092.184.145.276-.486.381-.973.762-1.459 1.13-1.485 1.117-3.076 2.142-4.443 3.352a27.531 27.531 0 0 0-7.755 12.142 62.64 62.64 0 0 0-2.931 17.429c-.066 1.485-.118 2.984-.184 4.469-.013.25-.013.5-.026.749.092.026.171.04.25.066a5.36 5.36 0 0 0 .394-.616 28.667 28.667 0 0 1 3.707-6.506 20.416 20.416 0 0 1 6.756-5.534 6.88 6.88 0 0 1 2.156-.552 1.821 1.821 0 0 1 2.116 1.249 5.286 5.286 0 0 1-.342 3.667 10.307 10.307 0 0 1-2.55 3.9q-3.549 3.53-7.164 7.019a1.517 1.517 0 0 0-.539 1.5 13.434 13.434 0 0 0 5.323 8.517 3.87 3.87 0 0 0 5.218-.092 11.914 11.914 0 0 0 1.433-1.512.916.916 0 0 0 .21-.6c-.092-9.516 4.351-16.943 13.5-22.213a12.533 12.533 0 0 1 4.719-1.7c2.563-.329 4.627 1.262 4.5 3.523a7.951 7.951 0 0 1-1.893 4.3 27.322 27.322 0 0 1-6.814 6.534 13.073 13.073 0 0 1-2.156 1.078c-.25.1-.683.276-.776-.2-.079-.368.013-.789.526-.8a2.6 2.6 0 0 0 2.757-2.432v-.052a10.331 10.331 0 0 0 .026-3.707c-.394-2.1-3.247-2.971-5.231-1.709a6.543 6.543 0 0 0-2.536 3.273 23.594 23.594 0 0 0-1.577 11.764 4.434 4.434 0 0 0 1.527 2.956 1.474 1.474 0 0 0 2.077.18 1.428 1.428 0 0 0 .157-.154 10.118 10.118 0 0 0 1.459-1.814c1.117-1.709 2.156-3.457 3.273-5.166a7.264 7.264 0 0 1 1.288-1.328c1.235-1.065 2.51-2.09 3.785-3.115.473-.381 1.012-.7 1.512-1.052.092.026.171.053.263.079-.013.5-.013 1.012-.053 1.512a33.846 33.846 0 0 0 .237 9.634 15.265 15.265 0 0 0 1.065 3.352c.526 1.157 1.222 1.249 2.353.473a8.64 8.64 0 0 0 3.063-3.983c.6-1.433 1.052-2.918 1.564-4.377a1.611 1.611 0 0 1 .171-.5c.263-.329 1.7-.368 1.774-.026a2.16 2.16 0 0 1-.21 1.722q-.276.549-.558 1.093a14.494 14.494 0 0 1-.835 2.969 13.437 13.437 0 0 0-1.183 2.813c-.25.973.315 1.735 1.314 2.287 2.366 1.3 4.5.8 6.165-1.446a20.319 20.319 0 0 0 3.089-7.032c.986-3.746 1.827-7.518 2.747-11.291.21-.868.447-1.722.723-2.576a4.443 4.443 0 0 1 2.813-2.944c1.091-.421 2.116-.959 3.207-1.354a29.833 29.833 0 0 0 6.2-3.141c.289-.184.618-.684 1.078-.223.381.381.184.894-.513 1.17a5.25 5.25 0 0 0-3.325 3.891 13.779 13.779 0 0 0-.421 2.05 42.2 42.2 0 0 0 2.8 20.255 16.827 16.827 0 0 0 2.221 3.842c1.091 1.472 2.024 1.709 3.943 1.17 1.17-.329 2.274-.854 3.4-1.275.67-.315.854-.276 1.3.263-.21.092-.408.2-.618.276a30.347 30.347 0 0 0-8.031 4.035 11.156 11.156 0 0 1-5.139 1.945 4.5 4.5 0 0 1-.686.053 3.448 3.448 0 0 1-2.854-1.49zM99.198 34.253a9.661 9.661 0 0 0-1.512 1.7 35.963 35.963 0 0 0-3.457 7.518 3.053 3.053 0 0 0-.105.6l.158.079a3.886 3.886 0 0 0 .539-.381c1.17-1.13 2.379-2.248 3.509-3.417a11.984 11.984 0 0 0 2.747-4.022 1.707 1.707 0 0 0-.5-2.011 1.153 1.153 0 0 0-.756-.346.892.892 0 0 0-.623.28zM23.971 60.725c-.736-.841-1.288-1.8-1.945-2.681-.447-.6-.933-1.2-1.446-1.761-.131-.145-.447-.171-.67-.25a1.826 1.826 0 0 0-.223.591 62.6 62.6 0 0 0-.013 3.155c0 .421-.171.578-.644.618-1.827.171-3.549.539-4.758 1.866a.967.967 0 0 1-.3.184c-.066.026-.145.039-.289.079 0-.158-.026-.3-.013-.434.736-5.994 1.551-11.961 2.182-17.955a199.1 199.1 0 0 0 1.354-21.109 13.967 13.967 0 0 0-.053-1.972 2.186 2.186 0 0 1 1.091-2.169c.565-.421 1.157-.8 1.735-1.209a1.2 1.2 0 0 0-.066-.2c-1.328.158-2.681.25-4 .486C8.938 19.19 4.351 24.146 4.471 30.31a7.758 7.758 0 0 0 1.59 4.745 3.883 3.883 0 0 0 5.22 1.025A7.125 7.125 0 0 0 14.342 33c.2-.368.46-.684.776-1.157a1.665 1.665 0 0 1-.137 2.077c-2.5 2.6-5.271 4.968-9.122 6.046-2.839.8-5.1-.407-5.652-2.944a12.551 12.551 0 0 1 1.374-8.386c3.393-6.843 9.266-11.312 17.534-13.389a37.116 37.116 0 0 1 13.63-.841c2.327.289 4.64.736 6.979 1.012a7.525 7.525 0 0 0 2.05-.3c.289-.053.578-.131 1.078-.25a5.713 5.713 0 0 1-.368.841 18.208 18.208 0 0 1-5.363 5.087 1.9 1.9 0 0 1-1.972.105 34.8 34.8 0 0 0-7.811-2.63c-1.538-.276-3.115-.329-4.679-.513-.578-.066-.618.25-.657.591-.263 2.353-.539 4.706-.749 7.058-.2 2.195-.289 4.416-.473 6.664-.053.618.184.8.867.8a22.229 22.229 0 0 1 8.859 1.7 14.74 14.74 0 0 1 8.412 8.872 14.442 14.442 0 0 1 .041 10.456 15.425 15.425 0 0 1-8.609 8.412 5.291 5.291 0 0 1-6.379-1.586zM25.21 52.9a21.906 21.906 0 0 1 2.327 2.353 13.707 13.707 0 0 0 3.891 3.233 2.041 2.041 0 0 0 2.852-.451 2 2 0 0 0 .132-.206 2.546 2.546 0 0 0 .316-.591 9.869 9.869 0 0 0 .289-5.718 17.378 17.378 0 0 0-6.375-9.989 15.9 15.9 0 0 0-7.1-3.457c-1-.2-1.117-.131-1.17.736-.171 2.9-.329 5.823-.46 8.728-.079 1.866-.118 3.746-.184 5.626.079.04.171.066.25.1.263-.184.539-.355.8-.539a3.819 3.819 0 0 1 2.166-.759 3.45 3.45 0 0 1 2.266.934zm42.206-30.253a10.5 10.5 0 0 1-1.354-1.183 1.683 1.683 0 0 0 .158-.158c.789.237 1.59.434 2.353.7a2.6 2.6 0 0 0 2.392-.421 9.848 9.848 0 0 0 3.089-3.26c1.038-1.669 2.011-3.365 3.036-5.047 1.8-2.944 3.956-3.654 7.926-2.51a13.047 13.047 0 0 1 4.255 2.271c.644.486.67.881-.053 1.814a4.247 4.247 0 0 0-.394-.71 2 2 0 0 0-2.775-.547 2.059 2.059 0 0 0-.169.126c-1.538 1.052-3 2.2-4.416 3.365-2.011 1.656-3.891 3.417-5.941 5.034a7.161 7.161 0 0 1-4.452 1.55 6.984 6.984 0 0 1-3.655-1.024z" fill="#0075c4"/></g><g data-name="Group 16" fill="#ffbf00"><path data-name="Path 83" d="M45.153 74.922h.834a4.992 4.992 0 0 1 3.021.793 2.632 2.632 0 0 1 1.067 2.242q0 3.125-4.129 3.124h-2.912v-9.994h6.316v1.75h-4.2zm0 4.423h.711a2.8 2.8 0 0 0 1.572-.346 1.18 1.18 0 0 0 .5-1.042 1.07 1.07 0 0 0-.506-.995 3.6 3.6 0 0 0-1.736-.3h-.54z"/><path data-name="Path 84" d="M56.658 81.081l-.4-1.039h-.054a3.08 3.08 0 0 1-1.084.92 3.512 3.512 0 0 1-1.452.256 2.349 2.349 0 0 1-1.733-.629 2.413 2.413 0 0 1-.633-1.791 2.018 2.018 0 0 1 .852-1.795 4.938 4.938 0 0 1 2.566-.638l1.327-.041v-.335a1.04 1.04 0 0 0-1.19-1.162 5.418 5.418 0 0 0-2.153.553l-.695-1.409a6.218 6.218 0 0 1 2.926-.69 3.643 3.643 0 0 1 2.359.67 2.478 2.478 0 0 1 .82 2.037v5.093zm-.615-3.541l-.807.028a2.59 2.59 0 0 0-1.354.328 1.03 1.03 0 0 0-.444.916q0 .882 1.012.882a1.6 1.6 0 0 0 1.158-.417 1.466 1.466 0 0 0 .435-1.108z"/><path data-name="Path 85" d="M62.161 76.378a5.149 5.149 0 0 0 1.678-.191.647.647 0 0 0 .5-.609.591.591 0 0 0-.363-.553 2.816 2.816 0 0 0-1.2-.185 6.271 6.271 0 0 0-1.193.13 6.354 6.354 0 0 0-1.213.356l-.616-1.455a8.551 8.551 0 0 1 1.58-.441 9.887 9.887 0 0 1 1.709-.134 4.234 4.234 0 0 1 2.29.547 1.682 1.682 0 0 1 .861 1.484q0 1.292-1.524 1.681v.069a2.7 2.7 0 0 1 1.336.66 1.565 1.565 0 0 1 .4 1.117 1.878 1.878 0 0 1-.451 1.237 2.861 2.861 0 0 1-1.306.834 6.189 6.189 0 0 1-2.01.294 7.238 7.238 0 0 1-2.939-.472v-1.723a6.3 6.3 0 0 0 1.288.43 6.193 6.193 0 0 0 1.357.158 3.849 3.849 0 0 0 1.525-.23.716.716 0 0 0 .506-.652.733.733 0 0 0-.534-.688 4.553 4.553 0 0 0-1.64-.221h-.807v-1.443z"/><path data-name="Path 86" d="M72.881 81.081l-.4-1.039h-.055a3.087 3.087 0 0 1-1.083.92 3.52 3.52 0 0 1-1.453.256 2.351 2.351 0 0 1-1.733-.629 2.416 2.416 0 0 1-.632-1.791 2.02 2.02 0 0 1 .851-1.795 4.942 4.942 0 0 1 2.567-.638l1.326-.041v-.335a1.039 1.039 0 0 0-1.188-1.162 5.422 5.422 0 0 0-2.154.553l-.69-1.408a6.215 6.215 0 0 1 2.926-.69 3.642 3.642 0 0 1 2.358.67 2.475 2.475 0 0 1 .82 2.037v5.092zm-.615-3.541l-.807.028a2.584 2.584 0 0 0-1.353.328 1.03 1.03 0 0 0-.444.916q0 .882 1.011.882a1.6 1.6 0 0 0 1.159-.417 1.466 1.466 0 0 0 .439-1.106z"/><path data-name="Path 87" d="M87.071 77.246a4.107 4.107 0 0 1-.984 2.919 3.567 3.567 0 0 1-2.742 1.053 3.824 3.824 0 0 1-1.941-.482 3.206 3.206 0 0 1-1.292-1.384 4.653 4.653 0 0 1-.451-2.106 4.082 4.082 0 0 1 .977-2.912 3.593 3.593 0 0 1 2.743-1.039 3.849 3.849 0 0 1 1.942.479 3.2 3.2 0 0 1 1.292 1.374 4.619 4.619 0 0 1 .456 2.098zm-5.284 0a3.21 3.21 0 0 0 .372 1.716 1.332 1.332 0 0 0 1.214.581 1.309 1.309 0 0 0 1.2-.577 3.257 3.257 0 0 0 .366-1.72 3.158 3.158 0 0 0-.369-1.7 1.571 1.571 0 0 0-2.413 0 3.162 3.162 0 0 0-.37 1.7z"/><path data-name="Path 88" d="M95.117 73.439v1.565h-2.5v6.077H90.53v-6.077h-2.509v-1.565z"/><path data-name="Path 89" d="M104.53 83.823h-1.873v-2.742h-5.141v2.742h-1.873v-4.266h.643a9.672 9.672 0 0 0 1.1-2.57 19.155 19.155 0 0 0 .622-3.548h5.4v6.118h1.121zm-3.206-4.266v-4.553h-1.566a19.912 19.912 0 0 1-.468 2.413 9.919 9.919 0 0 1-.824 2.14z"/><path data-name="Path 90" d="M107.92 76.392h1a4.73 4.73 0 0 1 2.591.561 1.9 1.9 0 0 1 .841 1.695 2.108 2.108 0 0 1-.841 1.822 4.269 4.269 0 0 1-2.515.611h-3.165v-7.642h2.084zm2.352 2.283a.68.68 0 0 0-.355-.642 2.233 2.233 0 0 0-1.06-.2h-.937v1.805h.964q1.388.001 1.388-.967zm5.277 2.406h-2.085v-7.642h2.085z"/><path data-name="Path 91" d="M119.302 77.178l-2.461-3.739h2.366l1.483 2.433 1.5-2.433h2.365l-2.488 3.739 2.605 3.9h-2.373l-1.606-2.618-1.612 2.621h-2.365z"/><path data-name="Path 92" d="M130.681 81.081l-.4-1.039h-.055a3.078 3.078 0 0 1-1.083.92 3.517 3.517 0 0 1-1.453.256 2.347 2.347 0 0 1-1.732-.629 2.413 2.413 0 0 1-.633-1.791 2.018 2.018 0 0 1 .851-1.795 4.939 4.939 0 0 1 2.567-.638l1.326-.041v-.335a1.04 1.04 0 0 0-1.19-1.162 5.418 5.418 0 0 0-2.153.553l-.69-1.408a6.215 6.215 0 0 1 2.926-.69 3.642 3.642 0 0 1 2.358.67 2.475 2.475 0 0 1 .82 2.037v5.092zm-.615-3.541l-.807.028a2.589 2.589 0 0 0-1.353.328 1.029 1.029 0 0 0-.445.916q0 .882 1.012.882a1.6 1.6 0 0 0 1.159-.417 1.469 1.469 0 0 0 .434-1.108z"/></g></g></svg>